<?xml version="1.0" encoding="iso-8859-1"?>
<!-- Generator: Adobe Illustrator 16.0.0, SVG Export Plug-In . SVG Version: 6.00 Build 0)  -->
<!DOCTYPE svg PUBLIC "-//W3C//DTD SVG 1.1//EN" "http://www.w3.org/Graphics/SVG/1.1/DTD/svg11.dtd">
<svg version="1.1" id="Layer_1" xmlns="http://www.w3.org/2000/svg" xmlns:xlink="http://www.w3.org/1999/xlink" x="0px" y="0px"
	 width="384px" height="607.49px" viewBox="0 0 384 607.49" style="enable-background:new 0 0 384 607.49;" xml:space="preserve">
<rect style="fill-rule:evenodd;clip-rule:evenodd;fill:#F0E8DB;" width="384" height="607.49"/>
<g>
	<g>
		<path style="fill-rule:evenodd;clip-rule:evenodd;fill:#25375C;" d="M13.354,304.518c0.003-88.834,0.027-177.669-0.029-266.503
			c-0.007-11.121,2.782-20.438,14.339-24.613c2.563-0.926,5.419-1.464,8.141-1.465c104.291-0.077,208.579-0.088,312.869-0.056
			c11.959,0.002,22.052,10.02,22.394,22.276c0.244,8.66,0.046,17.328,0.048,25.993c0.01,87.206,0.025,174.412,0.025,261.618
			c0.002,83.201-0.003,166.402-0.029,249.602c-0.005,17.309-9.141,26.504-26.275,26.506c-69.155,0.012-138.309,0.008-207.463,0.006
			c-32.051-0.002-64.103-0.004-96.154-0.037c-19.758-0.02-27.866-8.053-27.866-27.535C13.351,481.713,13.352,393.113,13.354,304.518
			z M25.304,21.301c-6.609,3.94-7.111,10.404-7.111,17.107c0.001,177.481-0.008,354.962,0.001,532.445
			c0.001,15.467,6.707,22.016,22.413,22.021c29.983,0.01,59.967-0.006,89.952-0.004c71.275,0,142.548,0.025,213.823-0.01
			c14.619-0.01,21.481-6.969,21.479-21.463c-0.007-73.381-0.025-146.762-0.027-220.141c-0.002-99.178,0.007-198.355,0.009-297.532
			c0.002-6.789,0.192-13.586-0.061-20.367c-0.346-9.281-6.787-15.651-16.017-16.152c-3.039-0.164-6.093-0.1-9.141-0.1
			c-59.314-0.011-118.629-0.02-177.943-0.023c-41.473-0.002-82.948-0.129-124.42,0.201c-4.409,0.037-8.797,2.774-13.193,4.26
			L25.304,21.301z"/>
		<path style="fill-rule:evenodd;clip-rule:evenodd;fill:#25375C;" d="M45.408,42.995c98.329,0,195.495,0,293.099,0
			c0,174.238,0,348.027,0,522.642c-16.48,0-32.594,0.002-48.705,0c-78.98-0.002-157.959-0.068-236.938,0.111
			c-5.795,0.012-7.582-1.494-7.576-7.41c0.146-164.104,0.119-328.205,0.121-492.306C45.408,58.587,45.408,51.144,45.408,42.995z
			 M336.834,44.527c-96.577,0-192.71,0-289.126,0c0,173.302,0,345.917,0,518.477c96.749,0,192.897,0,289.126,0
			C336.834,389.873,336.834,217.457,336.834,44.527z"/>
		<path style="fill-rule:evenodd;clip-rule:evenodd;fill:#25375C;" d="M341.958,570.266c0-4.705,0-8.549,0-12.391
			c0.343-0.008,0.686-0.014,1.026-0.021c0.197,4.039,0.392,8.08,0.59,12.119c0.663,0.078,1.326,0.156,1.989,0.236
			c0.396-2.182,0.788-4.363,1.098-6.076c0.124,1.443,0.297,3.422,0.467,5.4c0.354,0.035,0.709,0.072,1.063,0.107
			c0.383-2.158,0.766-4.316,1.495-8.414c0.747,4.053,1.146,6.215,1.909,10.346c1.019-3.145,1.443-4.451,1.68-5.188
			c1.084,0.916,2.361,1.996,4.863,4.107c0,3.832,0,9.621,0,16.012c-6.283,0-12.486,0-19.196,0c0.229-0.777,0.538-1.84,0.883-3.014
			c-1.719-0.324-3.407-0.645-6.674-1.266c3.171-0.498,4.697-0.738,6.222-0.979c0.029-0.271,0.059-0.543,0.086-0.814
			c-2.149-0.467-4.3-0.936-6.45-1.402c0.018-0.348,0.038-0.695,0.059-1.045c2.169-0.18,4.336-0.357,6.505-0.537
			c0.023-0.443,0.05-0.885,0.073-1.326c-2.226-0.225-4.453-0.447-8.188-0.82c3.677-0.369,5.894-0.596,8.109-0.818
			c0.01-0.486,0.019-0.975,0.029-1.461c-3.731-0.207-7.461-0.414-11.192-0.623c-0.041-0.488-0.083-0.975-0.125-1.463
			C332.513,570.727,336.748,570.52,341.958,570.266z M350.147,583.576c1.419-2.615,2.949-4.18,2.638-5.152
			c-0.464-1.439-2.235-2.457-3.448-3.656c-1.099,1.383-2.784,2.654-3.071,4.189C346.091,579.891,348.079,581.229,350.147,583.576z"
			/>
		<path style="fill-rule:evenodd;clip-rule:evenodd;fill:#25375C;" d="M42.386,577.131c2.24,0.281,4.481,0.561,6.72,0.842
			c0.086,0.322,0.172,0.643,0.258,0.961c-2.195,0.531-4.392,1.061-7.22,1.744c1.711,0.611,2.911,1.037,3.461,1.234
			c-1.085,1.275-2.344,2.754-4.129,4.852c-4.369,0-9.924,0-16.002,0c0-6.496,0-12.703,0-19.373c1.963,0.389,4.083,0.809,6.475,1.281
			c0.183-2.012,0.366-4.031,0.744-8.17c0.84,3.848,1.249,5.723,1.658,7.596c0.333,0.031,0.667,0.061,1,0.09
			c0.409-2.828,0.819-5.66,1.228-8.488c0.196,0.004,0.392,0.008,0.588,0.01c0.277,3.033,0.554,6.063,0.831,9.094
			c0.399-0.012,0.799-0.023,1.197-0.033c0-3.549,0-7.096,0-10.643c0.489-0.041,0.979-0.08,1.467-0.119
			c0.284,3.914,0.566,7.828,0.89,12.291c4.216,0,8.09,0,11.963,0c0.061,0.588,0.121,1.172,0.181,1.758
			c-3.797,0.297-7.595,0.594-11.393,0.891c-0.049,0.443-0.099,0.887-0.148,1.33c2.063,0.307,4.129,0.611,6.587,0.975
			c-2.315,0.354-4.342,0.662-6.37,0.969C42.376,576.525,42.381,576.828,42.386,577.131z M38.371,581.441
			c-2.264-3.197-3.278-5.217-4.872-6.535c-0.494-0.408-3.118,0.744-3.755,1.799c-0.677,1.117-0.152,2.961-0.152,4.736
			C32.06,581.441,33.852,581.441,38.371,581.441z"/>
		<path style="fill-rule:evenodd;clip-rule:evenodd;fill:#25375C;" d="M25.068,21.544c5.831,0,11.664,0,17.495,0
			c-0.164,0.554-0.328,1.109-0.492,1.663c1.797,1.238,3.593,2.479,5.321,3.669c-1.366,0.25-3.037,0.556-4.709,0.86
			c0.018,0.294,0.036,0.588,0.053,0.882c2.053,0.339,4.106,0.679,6.16,1.02c0.007,0.274,0.013,0.549,0.02,0.822
			c-2.126,0.327-4.251,0.656-6.377,0.985c0.018,0.416,0.039,0.832,0.057,1.249c3.041,0.249,6.082,0.499,9.122,0.75
			c0.014,0.232,0.028,0.465,0.042,0.697c-2.679,0.294-5.358,0.588-8.038,0.883c-0.019,0.266-0.038,0.531-0.055,0.797
			c3.688,0.277,7.376,0.554,11.064,0.829c0.009,0.455,0.017,0.91,0.026,1.364c-4.188,0-8.375,0-13.099,0
			c-0.404,4.715-0.749,8.736-1.094,12.756c-0.298,0.002-0.597,0.004-0.895,0.004c-0.182-3.78-0.363-7.559-0.544-11.338
			c-0.382,0.003-0.763,0.009-1.145,0.015c-0.228,2.921-0.455,5.842-0.683,8.763c-0.259,0.008-0.519,0.017-0.777,0.022
			c-0.242-2.828-0.483-5.658-0.725-8.489c-0.394-0.088-0.789-0.176-1.182-0.262c-0.501,2.138-1.001,4.276-1.94,8.286
			c-0.34-4.135-0.525-6.378-0.712-8.653c-2.214,0.486-4.181,0.921-6.663,1.467c0-6.435,0-12.854,0.001-19.278
			C25.304,21.301,25.068,21.544,25.068,21.544z M36,33.813c1.406-6.522-1.08-7.788-6.265-5.897C28.3,33.688,30.352,35.474,36,33.813
			z"/>
		<path style="fill-rule:evenodd;clip-rule:evenodd;fill:#25375C;" d="M334.88,27.808c11.871-5.369,12.629-5.502,23.063-4.209
			c0,6.143,0,12.36,0,19.21c-1.057-0.416-2.064-0.812-3.236-1.275c-0.251,1.339-0.528,2.809-1.03,5.483
			c-0.584-2.735-0.91-4.25-1.232-5.766c-0.361-0.055-0.722-0.107-1.079-0.16c-0.405,2.24-0.808,4.479-1.211,6.721
			c-0.293,0.035-0.586,0.069-0.877,0.105c-0.204-2.138-0.405-4.274-0.644-6.773c-1.526-0.211-3.127-0.432-5.482-0.756
			c0,4.381,0,8.243,0,12.104c-0.479,0-0.96,0-1.44-0.002c0-4.304,0-8.609,0-13.277c-4.765-0.297-8.828-0.548-12.892-0.801
			c0.002-0.318,0.002-0.636,0.002-0.954c3.854-0.208,7.709-0.417,11.563-0.625c0.015-0.312,0.029-0.623,0.044-0.936
			c-2.431-0.255-4.864-0.511-8.391-0.882c3.765-0.376,6.471-0.646,9.177-0.915c0.073-0.595,0.143-1.189,0.216-1.785
			c-2.229-0.386-4.459-0.771-8.008-1.385c3.032-0.602,4.848-0.963,7.931-1.574C338.678,28.716,337.188,28.361,334.88,27.808z
			 M350.863,35.866c0.596-0.533,1.19-1.065,1.786-1.599c0-2.013,0-4.024,0-6.036c-0.508-0.506-1.015-1.012-1.522-1.518
			c-1.696,1.572-3.395,3.145-5.091,4.718C347.645,32.909,349.253,34.387,350.863,35.866z"/>
		<path style="fill-rule:evenodd;clip-rule:evenodd;fill:#25375C;" d="M40.864,515.225c-0.206-4.127-0.411-8.252-0.617-12.379
			c-0.54-0.063-1.079-0.127-1.618-0.191c-0.38,3.713-0.761,7.424-1.142,11.137c-0.266,0.029-0.53,0.059-0.796,0.088
			c-0.198-2.75-0.397-5.5-0.596-8.252c-0.207-0.037-0.415-0.07-0.622-0.105c-0.328,1.84-0.656,3.682-1.127,6.33
			c-0.881-1.814-1.488-3.064-2.326-4.789c-1.26,1.338-2.423,2.572-3.954,4.199c4.322,3.684,8.532,7.27,13.224,11.268
			c-5.336,3.986-10.229,7.639-15.336,11.453c-3.906-20.039-0.834-27.168,15.29-35.305c0,5.678,0,11.088,0,16.498
			C41.117,515.191,40.991,515.209,40.864,515.225z"/>
		<path style="fill-rule:evenodd;clip-rule:evenodd;fill:#25375C;" d="M32.482,333.383c-1.557,1.34-2.799,2.406-4.288,3.686
			c3.956,3.332,8.328,7.012,13.114,11.039c-5.319,3.955-10.077,7.492-14.942,11.107c-5.189-15.971-0.222-27.813,14.798-34.693
			c0,5.881,0,11.48,0,17.078c-0.173,0.012-0.347,0.023-0.52,0.035c0-4.553,0-9.105,0-13.658c-0.639-0.066-1.278-0.135-1.917-0.203
			c-0.438,3.783-0.877,7.566-1.316,11.35c-0.195,0.029-0.39,0.059-0.586,0.088c-0.238-2.539-0.477-5.078-0.715-7.617
			c-0.223-0.055-0.444-0.107-0.665-0.16c-0.28,1.725-0.561,3.447-0.99,6.1C33.484,335.494,32.841,334.143,32.482,333.383z"/>
		<path style="fill-rule:evenodd;clip-rule:evenodd;fill:#25375C;" d="M41.548,121.925c0,6.218,0,11.777,0,17.337
			c-0.232,0.015-0.465,0.028-0.698,0.044c-0.226-4.474-0.451-8.947-0.676-13.42c-0.641-0.024-1.283-0.048-1.925-0.072
			c-0.212,3.634-0.425,7.267-0.638,10.899c-0.289,0.014-0.577,0.027-0.867,0.04c-0.224-2.742-0.448-5.485-0.672-8.227
			c-0.291-0.004-0.582-0.007-0.873-0.013c-0.145,2.211-0.289,4.422-0.434,6.634c-0.276,0.053-0.551,0.106-0.828,0.16
			c-0.423-1.354-0.846-2.709-1.463-4.682c-1.585,1.087-3.021,2.071-5.036,3.452c4.574,3.871,8.778,7.428,13.772,11.653
			c-5.039,3.817-9.894,7.496-14.864,11.261C20.679,139.753,24.169,131.601,41.548,121.925z"/>
		<path style="fill-rule:evenodd;clip-rule:evenodd;fill:#25375C;" d="M25.642,563.682c-2.47-22.682,0.033-28.184,15.678-35.16
			c0,5.879,0,11.549,0,17.221c-0.304,0.018-0.608,0.033-0.911,0.051c0-4.678,0-9.352,0-14.029c-0.671-0.037-1.344-0.072-2.016-0.109
			c-0.279,3.623-0.56,7.246-0.839,10.869c-0.255,0.01-0.511,0.021-0.768,0.031c-0.236-2.449-0.472-4.9-0.709-7.35
			c-0.201-0.035-0.4-0.072-0.601-0.107c-0.336,2.004-0.671,4.008-1.18,7.039c-0.971-2.229-1.573-3.607-2.294-5.26
			c-1.332,1.041-2.61,2.041-4.453,3.48c4.495,3.754,8.899,7.43,13.843,11.555C36.335,555.691,31.397,559.381,25.642,563.682z"/>
		<path style="fill-rule:evenodd;clip-rule:evenodd;fill:#25375C;" d="M344.08,171.345c4.462-2.698,8.925-5.396,13.574-8.208
			c2.349,14.156,2.526,26.884-12.79,33.542l0.124,0.205c0-4.184,0-8.368,0-12.552c0.157-0.029,0.313-0.057,0.469-0.085
			c0.238,2.518,0.473,5.037,0.711,7.556c0.389,0.091,0.778,0.185,1.167,0.276c0.625-2.132,1.248-4.265,2.043-6.976
			c0.485,1.974,0.848,3.446,1.324,5.38c1.654-1.384,3.024-2.531,4.938-4.133c-4.547-3.846-8.91-7.538-13.558-11.471
			c0.685-1.186,1.42-2.459,2.154-3.732L344.08,171.345z"/>
		<path style="fill-rule:evenodd;clip-rule:evenodd;fill:#25375C;" d="M227.528,32.42c-3.076-0.416-6.15-0.832-11.29-1.528
			c3.063-0.653,4.087-0.873,5.104-1.086c-0.855-1.596-1.702-3.195-2.829-5.322c-3.867,4.576-7.655,9.063-11.938,14.132
			c-3.84-5.378-7.383-10.343-11.794-16.523c13.042,0.082,25.574-3.8,32.552,10.341L227.528,32.42z"/>
		<path style="fill-rule:evenodd;clip-rule:evenodd;fill:#25375C;" d="M348.857,540.947c-0.201-2.273-0.399-4.547-0.599-6.818
			c0.34-0.09,0.681-0.18,1.021-0.268c0.475,1.232,0.949,2.467,1.506,3.908c1.537-1.055,3.032-2.08,4.934-3.383
			c-4.639-4.053-9.104-7.955-14.034-12.262c5.45-3.967,10.539-7.674,16.643-12.119c0,8.346,1.039,15.498-0.429,22.088
			c-0.76,3.414-5.961,5.84-9.155,8.711L348.857,540.947z"/>
		<path style="fill-rule:evenodd;clip-rule:evenodd;fill:#25375C;" d="M349.188,368.32c-0.325-2.486-0.651-4.971-0.976-7.457
			c0.39-0.09,0.78-0.18,1.172-0.273c0.389,1.309,0.777,2.617,1.268,4.275c1.554-1.127,3.005-2.182,5.082-3.693
			c-4.62-4.043-9.04-7.906-13.879-12.139c5.316-3.992,10.217-7.668,16.305-12.238c0,8.711,0.908,16.166-0.414,23.203
			c-0.59,3.15-5.653,5.461-8.688,8.154L349.188,368.32z"/>
		<path style="fill-rule:evenodd;clip-rule:evenodd;fill:#25375C;" d="M347.377,223.061c0.508-2.462,1.015-4.924,1.717-8.313
			c0.729,2.044,1.188,3.332,1.805,5.058c1.355-1.416,2.556-2.671,4.21-4.4c-4.58-3.97-8.893-7.705-13.434-11.64
			c5.329-3.926,10.451-7.7,15.974-11.772c1.294,25.83,2.978,24.301-10.381,30.892L347.377,223.061z"/>
		<path style="fill-rule:evenodd;clip-rule:evenodd;fill:#25375C;" d="M34.976,271.969c0,2.315,0,4.629,0,9.076
			c-1.591-3.095-2.277-4.431-3.313-6.442c-0.856,2.148-1.539,3.858-2.363,5.925c3.96,3.331,8.015,6.742,12.146,10.215
			c-5.316,3.884-10.288,7.518-15.405,11.257c-4.225-18.763-1.833-26.417,9.081-29.828L34.976,271.969z"/>
		<path style="fill-rule:evenodd;clip-rule:evenodd;fill:#25375C;" d="M29.016,446.936c1.963-0.668,3.926-1.338,5.89-2.004
			l-0.123-0.184c0,2.715,0,5.432,0,8.146c-0.347,0.035-0.694,0.072-1.041,0.109c-0.533-1.611-1.066-3.221-1.676-5.061
			c-1.451,1.699-2.612,3.063-3.997,4.689c4.373,3.674,8.776,7.373,13.373,11.238c-5.302,3.895-10.149,7.451-16.545,12.148
			c1.316-10.83-3.369-20.744,4.348-29.326L29.016,446.936z"/>
		<path style="fill-rule:evenodd;clip-rule:evenodd;fill:#25375C;" d="M351.829,452.508c1.053-1.736,2.104-3.473,3.301-5.447
			c-4.254-3.576-8.755-7.361-13.63-11.459c5.434-3.965,10.56-7.701,16.834-12.277c0,8.174,0.606,15.119-0.306,21.857
			c-0.352,2.615-4.139,4.766-6.36,7.127L351.829,452.508z"/>
		<path style="fill-rule:evenodd;clip-rule:evenodd;fill:#25375C;" d="M164.091,28.844c-0.843-1.291-1.687-2.583-2.738-4.193
			c-3.77,4.51-7.463,8.928-11.717,14.017c-3.838-5.35-7.48-10.425-11.442-15.943C158.375,20.051,163.021,21.057,164.091,28.844z"/>
		<path style="fill-rule:evenodd;clip-rule:evenodd;fill:#25375C;" d="M354.5,334.186c-0.65-7.572-9.091-8.697-12.622-14.51
			c5.053-3.717,10.132-7.457,15.463-11.381C360.172,322.631,358.884,331.648,354.5,334.186z"/>
		<path style="fill-rule:evenodd;clip-rule:evenodd;fill:#25375C;" d="M353.95,395.416c2.231-10.008-8.55-10.869-12.082-17.252
			c5.015-3.596,10.062-7.213,16.691-11.965c-1.563,10.787,3.506,20.76-4.617,29.186L353.95,395.416z"/>
		<path style="fill-rule:evenodd;clip-rule:evenodd;fill:#25375C;" d="M358.689,483.564c-2.312,8.426,3.372,18.063-4.233,26.576
			c0.155-9.469-9.031-10.01-12.472-16.184c4.845-3.586,9.949-7.359,15.053-11.133C357.589,483.068,358.138,483.316,358.689,483.564z
			"/>
		<path style="fill-rule:evenodd;clip-rule:evenodd;fill:#25375C;" d="M355.509,162.136c-1.954-8.49-10.068-9.927-13.651-15.755
			c5.06-3.619,10.154-7.261,16.807-12.019C357.142,144.754,361.03,153.948,355.509,162.136z"/>
		<path style="fill-rule:evenodd;clip-rule:evenodd;fill:#25375C;" d="M275.043,580.477c1.926,1.045,3.853,2.086,6.013,3.256
			c3.437-4.076,7.159-8.492,11.235-13.328c3.821,5.238,7.463,10.234,12.114,16.611c-8.473,0-15.606,0.563-22.561-0.305
			c-2.429-0.303-4.416-4.135-6.605-6.354C275.237,580.357,275.043,580.477,275.043,580.477z"/>
		<path style="fill-rule:evenodd;clip-rule:evenodd;fill:#25375C;" d="M281.401,28.562c-1.49-1.057-2.981-2.116-4.826-3.426
			c-3.454,4.126-7.31,8.735-11.375,13.595c-3.909-5.501-7.496-10.548-11.911-16.764c8.167,0,14.854-0.04,21.538,0.016
			c4.391,0.037,6.13,2.709,6.36,6.74L281.401,28.562z"/>
		<path style="fill-rule:evenodd;clip-rule:evenodd;fill:#25375C;" d="M358.813,249.759c-1.73,10.579,2.358,19.871-4.341,29.4
			c0.134-10.379-9.353-10.878-12.488-16.943C346.931,258.554,351.926,254.857,358.813,249.759z"/>
		<path style="fill-rule:evenodd;clip-rule:evenodd;fill:#25375C;" d="M352.565,102.81c0.025-1.814,0.831-4.389-0.063-5.304
			c-3.233-3.309-7.038-6.062-11.06-9.381c5.375-3.954,10.518-7.737,16.911-12.439c0,8.282,0.41,15.198-0.271,22.002
			c-0.184,1.819-3.695,3.304-5.679,4.943L352.565,102.81z"/>
		<path style="fill-rule:evenodd;clip-rule:evenodd;fill:#25375C;" d="M50.965,21.65c8.65,3.053,19.589-5.389,25.557,7.073
			c-0.975-1.118-1.95-2.234-3.281-3.761c-3.584,4.036-7.348,8.271-11.771,13.25c-4.119-5.329-7.74-10.013-11.361-14.696
			C50.394,22.894,50.68,22.271,50.965,21.65z"/>
		<path style="fill-rule:evenodd;clip-rule:evenodd;fill:#25375C;" d="M219.052,581.725c0.865,0.777,1.729,1.557,2.856,2.572
			c3.754-4.455,7.484-8.877,11.64-13.809c3.937,5.314,7.594,10.248,12.494,16.863c-10.446-1.775-19.849,3.061-27.771-3.549
			C218.532,583.111,218.792,582.416,219.052,581.725z"/>
		<path style="fill-rule:evenodd;clip-rule:evenodd;fill:#25375C;" d="M159.365,582.346c9.788,2.49,11.642-6.93,17.291-11.775
			c3.834,5.189,7.557,10.225,12.516,16.939c-11.313-1.814-21.509,3.193-29.79-5.168L159.365,582.346z"/>
		<path style="fill-rule:evenodd;clip-rule:evenodd;fill:#25375C;" d="M73.523,582.396c9.94,2.99,10.179-8.281,16.886-11.244
			c3.476,4.727,7.085,9.633,11.698,15.902c-8.645,0-15.766,0.338-22.819-0.215c-1.999-0.156-3.794-2.906-5.683-4.467L73.523,582.396
			z"/>
		<path style="fill-rule:evenodd;clip-rule:evenodd;fill:#25375C;" d="M341.632,58.474c5.322-3.821,10.488-7.531,17.137-12.305
			c-1.585,10.315,2.128,19.352-3.911,28.854C354.134,65.452,346.117,64.194,341.632,58.474z"/>
		<path style="fill-rule:evenodd;clip-rule:evenodd;fill:#25375C;" d="M102.918,581.205c1.137,0.969,2.273,1.939,3.429,2.924
			c3.734-4.406,7.466-8.811,11.589-13.676c3.604,5.334,6.927,10.252,11.354,16.801c-10.122-2.039-19.641,2.979-27.352-3.951
			C102.265,582.605,102.592,581.906,102.918,581.205z"/>
		<path style="fill-rule:evenodd;clip-rule:evenodd;fill:#25375C;" d="M341.763,290.376c5.296-3.977,10.226-7.677,15.716-11.799
			c0,9.12,0,17.285,0,25.724C351.94,299.395,347.093,295.1,341.763,290.376z"/>
		<path style="fill-rule:evenodd;clip-rule:evenodd;fill:#25375C;" d="M32.055,157.734c-0.894,2.311-1.787,4.622-2.761,7.142
			c3.886,3.229,7.628,6.338,12.065,10.026c-5.171,3.868-10.043,7.514-16.322,12.212c0-8.682-0.552-16.02,0.326-23.181
			c0.276-2.251,4.396-4.032,6.758-6.027L32.055,157.734z"/>
		<path style="fill-rule:evenodd;clip-rule:evenodd;fill:#25375C;" d="M341.705,117.241c5.243-3.882,10.321-7.641,15.885-11.757
			c0,9.194,0,17.29,0,25.92C352.041,126.455,347.226,122.161,341.705,117.241z"/>
		<path style="fill-rule:evenodd;clip-rule:evenodd;fill:#25375C;" d="M342.029,464.752c4.961-3.82,9.856-7.588,16.506-12.709
			c-0.738,10.066,1.114,18.441-1.408,26.768C351.635,473.697,347.02,469.396,342.029,464.752z"/>
		<path style="fill-rule:evenodd;clip-rule:evenodd;fill:#25375C;" d="M29.246,446.693c-1.324,0-2.648,0-4.704,0
			c2.667-8.559-3.777-18.66,4.332-26.182c0.603,0.242,1.206,0.488,1.807,0.73c-0.851,1.215-1.703,2.432-2.721,3.887
			c4.434,3.615,8.894,7.254,13.222,10.783c-4.042,3.662-8.098,7.334-12.161,11.016C29.016,446.936,29.246,446.693,29.246,446.693z"
			/>
		<path style="fill-rule:evenodd;clip-rule:evenodd;fill:#25375C;" d="M357.677,394.348c0,9.082,0,17.02,0,25.531
			c-5.696-4.939-10.664-9.25-15.947-13.834C346.96,402.211,351.976,398.529,357.677,394.348z"/>
		<path style="fill-rule:evenodd;clip-rule:evenodd;fill:#25375C;" d="M133.761,22.598c-5.028,5.88-9.172,10.726-13.605,15.908
			c-3.856-5.227-7.379-10.003-11.736-15.908C117.412,22.598,125.01,22.598,133.761,22.598z"/>
		<path style="fill-rule:evenodd;clip-rule:evenodd;fill:#25375C;" d="M246.573,582.457c10.235,3.588,9.257-9.068,17.6-10.15
			c2.663,3.482,6.364,8.318,11.426,14.934c-10.834-1.959-20.814,4.281-28.938-4.82L246.573,582.457z"/>
		<path style="fill-rule:evenodd;clip-rule:evenodd;fill:#25375C;" d="M30.748,217.436c-0.871,0.983-1.744,1.965-2.902,3.27
			c4.462,3.674,8.921,7.343,13.76,11.328c-5.244,3.796-10.337,7.482-16.987,12.293c1.886-10.421-3.151-20.174,3.981-27.989
			C29.316,216.704,30.032,217.07,30.748,217.436z"/>
		<path style="fill-rule:evenodd;clip-rule:evenodd;fill:#25375C;" d="M293.337,38.555c-4.058-5.432-7.722-10.335-12.049-16.124
			c8.823,0,16.491,0,25.453,0C301.996,28.139,297.842,33.136,293.337,38.555z"/>
		<path style="fill-rule:evenodd;clip-rule:evenodd;fill:#25375C;" d="M81.705,21.982c7.978,2.823,17.67-4.287,24.762,3.666
			c-0.256,0.648-0.511,1.297-0.768,1.945c-0.742-0.922-1.484-1.843-2.594-3.221c-3.816,4.319-7.578,8.58-11.927,13.504
			c-3.756-4.713-7.306-9.167-10.855-13.619C80.784,23.499,81.245,22.741,81.705,21.982z"/>
		<path style="fill-rule:evenodd;clip-rule:evenodd;fill:#25375C;" d="M30.192,388.822c-0.193,2.254-0.387,4.508-0.693,8.09
			c2.882,2.416,6.96,5.828,11.726,9.818c-5.126,3.865-9.984,7.527-16.325,12.309c1.066-11.152-3.333-21.539,5.257-30.148
			L30.192,388.822z"/>
		<path style="fill-rule:evenodd;clip-rule:evenodd;fill:#25375C;" d="M357.903,220.871c0,9.139,0,17.06,0,26.009
			c-5.816-4.996-10.83-9.303-16.209-13.927C347.048,228.963,352.114,225.186,357.903,220.871z"/>
		<path style="fill-rule:evenodd;clip-rule:evenodd;fill:#25375C;" d="M159.325,586.479c-9.234,0-17.194,0-25.648,0
			c4.81-5.547,9.1-10.496,13.771-15.883C151.243,575.67,154.962,580.641,159.325,586.479z"/>
		<path style="fill-rule:evenodd;clip-rule:evenodd;fill:#25375C;" d="M191.234,22.467c-5.161,5.781-9.403,10.534-14.144,15.843
			c-3.917-5.229-7.58-10.116-11.873-15.843C174.508,22.467,182.467,22.467,191.234,22.467z"/>
		<path style="fill-rule:evenodd;clip-rule:evenodd;fill:#25375C;" d="M249.533,22.273c-4.907,5.751-8.929,10.463-13.688,16.039
			c-4.188-5.547-7.822-10.363-12.105-16.039C232.694,22.273,240.293,22.273,249.533,22.273z"/>
		<path style="fill-rule:evenodd;clip-rule:evenodd;fill:#25375C;" d="M30.135,71.191c-0.334,1.801-0.67,3.604-1.246,6.715
			c3.306,2.778,7.688,6.461,12.486,10.494c-5.253,3.856-10.197,7.485-16.305,11.97c0-8.579-0.392-15.754,0.234-22.84
			c0.192-2.178,3.168-4.111,4.869-6.157L30.135,71.191z"/>
		<path style="fill-rule:evenodd;clip-rule:evenodd;fill:#25375C;" d="M341.264,551.395c5.293-3.908,9.735-7.213,14.214-10.465
			c0.521-0.379,1.242-0.477,2.413-0.904c0,7.559,0,14.848,0,23.598C352.313,559.518,347.168,555.736,341.264,551.395z"/>
		<path style="fill-rule:evenodd;clip-rule:evenodd;fill:#25375C;" d="M31.168,100.632c-1.426,2.013-2.28,3.219-3.242,4.578
			c4.499,3.678,8.932,7.304,13.603,11.124c-5.194,3.821-10.124,7.447-15.109,11.115C22.645,117.06,24.581,103.811,31.168,100.632z"
			/>
		<path style="fill-rule:evenodd;clip-rule:evenodd;fill:#25375C;" d="M321.748,570.535c3.802,5.1,7.598,10.193,11.829,15.873
			c-8.937,0-16.997,0-25.438,0C312.922,580.828,317.187,575.855,321.748,570.535z"/>
		<path style="fill-rule:evenodd;clip-rule:evenodd;fill:#25375C;" d="M334.79,22.582c-4.584,5.953-8.319,10.805-12.446,16.166
			c-3.94-5.406-7.586-10.405-11.785-16.166C318.817,22.582,326.087,22.582,334.79,22.582z"/>
		<path style="fill-rule:evenodd;clip-rule:evenodd;fill:#25375C;" d="M206.126,570.346c3.814,5.307,7.428,10.334,11.651,16.207
			c-8.909,0-16.731,0-25.25,0C197.247,580.928,201.458,575.908,206.126,570.346z"/>
		<path style="fill-rule:evenodd;clip-rule:evenodd;fill:#25375C;" d="M41.347,261.63c-5.269,3.828-10.102,7.341-15.07,10.951
			c-3.575-12.986-1.816-23.682,4.147-26.454c0.536,0.54,1.072,1.08,1.608,1.618c-1.329,0.562-2.655,1.122-4.703,1.989
			C31.849,253.569,36.201,257.263,41.347,261.63z"/>
		<path style="fill-rule:evenodd;clip-rule:evenodd;fill:#25375C;" d="M27.305,362.117c4.102,5.221,8.204,10.438,12.786,16.268
			c-3.833,2.902-8.783,6.646-13.729,10.393c-0.753-0.236-1.506-0.471-2.258-0.705c1.059-8.637,2.118-17.273,3.175-25.91
			L27.305,362.117z"/>
		<path style="fill-rule:evenodd;clip-rule:evenodd;fill:#25375C;" d="M30.766,477.496c-0.828,1.334-1.655,2.666-2.805,4.518
			c4.067,3.436,8.406,7.102,13.375,11.299c-5.135,3.816-9.99,7.426-16.326,12.131c0-8.77-0.386-15.904,0.271-22.941
			c0.164-1.764,3.681-3.211,5.657-4.803L30.766,477.496z"/>
		<path style="fill-rule:evenodd;clip-rule:evenodd;fill:#25375C;" d="M25.815,331.779c-2.573-17.674-1.437-24.207,3.591-26.273
			c-1.353,8.502,8.203,8.811,11.273,15.127C36.26,323.947,31.426,327.57,25.815,331.779z"/>
		<path style="fill-rule:evenodd;clip-rule:evenodd;fill:#25375C;" d="M60.792,570.383c4.202,5.6,7.908,10.541,12.251,16.332
			c-8.641,0-15.945,0-24.623,0C52.835,580.885,56.638,575.867,60.792,570.383z"/>
		<path style="fill-rule:evenodd;clip-rule:evenodd;fill:#25375C;" d="M27.327,189.121c4.115,5.229,8.23,10.458,12.822,16.291
			c-3.862,2.823-8.784,6.418-13.706,10.015c-0.768-0.176-1.534-0.352-2.302-0.526c1.055-8.581,2.109-17.16,3.164-25.74
			L27.327,189.121z"/>
		<path style="fill-rule:evenodd;clip-rule:evenodd;fill:#25375C;" d="M25.173,71.222c0-8.702,0-15.857,0-24.348
			c5.796,4.424,10.79,8.236,16.384,12.507C35.908,63.464,30.983,67.024,25.173,71.222z"/>
		<path style="fill-rule:evenodd;clip-rule:evenodd;fill:#25375C;" d="M342.933,123.427c0,4.638,0,9.277,0,13.915
			c0.528-0.008,1.056-0.015,1.583-0.024c0-3.568,0-7.137,0-10.707c0.357-0.01,0.713-0.019,1.07-0.027
			c0.207,2.71,0.41,5.423,0.617,8.135c0.414,0.089,0.828,0.179,1.242,0.269c0.503-2.183,1.005-4.365,1.569-6.816
			c0.926,1.977,1.767,3.775,2.913,6.232c-2.909,2.096-6.362,4.584-10.44,7.524c0-6.864,0-12.659,0-18.453
			C341.97,123.458,342.453,123.443,342.933,123.427z"/>
		<path style="fill-rule:evenodd;clip-rule:evenodd;fill:#25375C;" d="M344.237,171.147c-1.114-1.18-3.098-2.295-3.189-3.552
			c-0.37-5.016-0.152-10.078-0.152-15.123c0.587-0.02,1.173-0.041,1.761-0.062c0,4.816,0,9.632,0,14.447
			c0.603,0.006,1.205,0.014,1.809,0.021c0.159-3.5,0.318-7.001,0.479-10.502c0.23-0.003,0.462-0.005,0.69-0.009
			c0.203,2.659,0.405,5.318,0.608,7.974c0.347,0.065,0.696,0.128,1.046,0.192c0.616-2.145,1.231-4.292,1.895-6.602
			c4.528,7.045-3.729,8.846-5.095,13.4C344.08,171.345,344.237,171.147,344.237,171.147z"/>
		<path style="fill-rule:evenodd;clip-rule:evenodd;fill:#25375C;" d="M344.547,425.494c0.14-2.994,0.28-5.992,0.42-8.988
			c0.141-0.023,0.281-0.049,0.421-0.076c0.286,2.529,0.571,5.059,0.857,7.586c0.449,0.064,0.897,0.131,1.345,0.195
			c0.504-2.383,1.008-4.766,1.726-8.188c0.716,3.182,1.207,5.361,1.766,7.844c-2.935,2.178-5.88,4.365-9.621,7.141
			c0-6.793,0-12.684,0-18.57c0.397-0.037,0.793-0.072,1.19-0.111c0,4.551,0,9.102,0,13.652
			C343.281,425.816,343.915,425.656,344.547,425.494z"/>
		<path style="fill-rule:evenodd;clip-rule:evenodd;fill:#25375C;" d="M344.58,514.234c0-3.598,0-7.197,0-10.799
			c0.32-0.01,0.639-0.021,0.96-0.031c0.256,2.797,0.511,5.594,0.77,8.391c0.4,0.039,0.804,0.08,1.207,0.115
			c0.465-2.063,0.927-4.127,1.392-6.191c2.733,7.072,2.304,7.838-7.481,12.477c0-6.318,0-12.352,0-18.387
			c0.399-0.025,0.797-0.055,1.194-0.082c0,4.838,0,9.674,0,14.514C343.275,514.238,343.928,514.236,344.58,514.234z"/>
		<path style="fill-rule:evenodd;clip-rule:evenodd;fill:#25375C;" d="M341.495,315.293c0-6.859,0-12.668,0-18.477
			c0.432-0.013,0.864-0.024,1.299-0.035c0,4.534,0,9.07,0,13.605c0.509,0.021,1.021,0.049,1.531,0.072
			c0.229-3.23,0.456-6.458,0.682-9.69c0.17-0.015,0.339-0.029,0.507-0.044c0.24,2.433,0.482,4.869,0.724,7.306
			c0.44,0.064,0.88,0.129,1.319,0.193c0.477-2.242,0.953-4.484,1.475-6.946c0.887,1.955,1.702,3.756,2.845,6.278
			C348.993,309.705,345.555,312.266,341.495,315.293z"/>
		<path style="fill-rule:evenodd;clip-rule:evenodd;fill:#25375C;" d="M341.347,489.689c0-6.887,0-12.576,0-18.264
			c0.394-0.031,0.787-0.061,1.182-0.09c0.23,4.389,0.463,8.777,0.694,13.17c0.39,0.004,0.78,0.014,1.172,0.021
			c0-3.529,0-7.059,0-10.588c0.352-0.006,0.704-0.014,1.056-0.02c0.32,2.773,0.641,5.549,0.96,8.324
			c0.379,0.02,0.758,0.037,1.138,0.055c0.502-2.043,1.006-4.088,1.729-7.039c0.705,3.037,1.207,5.193,1.699,7.32
			C347.985,484.789,345.21,486.838,341.347,489.689z"/>
		<path style="fill-rule:evenodd;clip-rule:evenodd;fill:#25375C;" d="M345.509,243.206c0.276,2.585,0.555,5.171,0.835,7.757
			c0.443,0.022,0.891,0.044,1.334,0.064c0.436-2.279,0.868-4.56,1.332-6.981c1.088,1.859,2.099,3.587,3.359,5.741
			c-3.179,2.325-6.511,4.762-10.77,7.878c0-6.782,0-12.563,0-18.342c0.362-0.044,0.726-0.09,1.088-0.135c0,4.557,0,9.115,0,13.672
			c0.592,0.006,1.184,0.011,1.777,0.017c0.143-3.159,0.287-6.318,0.432-9.479C345.1,243.334,345.304,243.271,345.509,243.206z"/>
		<path style="fill-rule:evenodd;clip-rule:evenodd;fill:#25375C;" d="M351.668,452.309c-3.114,2.57-6.232,5.141-10.395,8.572
			c0-7.318,0-12.984,0-18.65c0.45-0.045,0.901-0.092,1.35-0.139c0,4.441,0,8.881,0,13.322c0.625-0.002,1.248-0.004,1.872-0.004
			c0-3.59,0-7.178,0-10.768c0.398-0.004,0.794-0.01,1.189-0.014c0.145,2.729,0.289,5.455,0.433,8.186
			c0.348,0.102,0.692,0.199,1.04,0.301c0.678-1.891,1.355-3.781,2.022-5.633c0.868,1.652,1.751,3.332,2.642,5.02
			C351.829,452.508,351.668,452.309,351.668,452.309z"/>
		<path style="fill-rule:evenodd;clip-rule:evenodd;fill:#25375C;" d="M353.942,395.385c-3.891,2.303-7.781,4.605-12.347,7.309
			c0-6.205,0-12.029,0-17.854c0.396-0.035,0.793-0.072,1.188-0.111c0,4.736,0,9.473,0,14.209c0.563-0.012,1.127-0.021,1.691-0.031
			c0-3.572,0-7.145,0-10.717c0.329-0.012,0.661-0.021,0.993-0.031c0.256,2.633,0.515,5.264,0.771,7.895
			c0.374,0.051,0.75,0.102,1.123,0.154c0.559-2.012,1.118-4.025,1.522-5.479c1.579,1.459,3.317,3.066,5.06,4.68
			C353.95,395.416,353.942,395.385,353.942,395.385z"/>
		<path style="fill-rule:evenodd;clip-rule:evenodd;fill:#25375C;" d="M352.404,102.631c-3.149,3.362-6.301,6.723-9.451,10.085
			c-0.51-0.419-1.021-0.838-1.531-1.256c0-5.787,0-11.573,0-17.359c0.489-0.019,0.977-0.038,1.464-0.058c0,4.666,0,9.332,0,13.998
			c0.513,0.004,1.023,0.006,1.536,0.011c0.175-3.61,0.351-7.22,0.526-10.829c0.168-0.025,0.339-0.048,0.507-0.072
			c0.277,2.664,0.552,5.329,0.828,7.994c0.396,0.077,0.792,0.155,1.186,0.234c0.495-1.729,0.985-3.455,1.363-4.78
			c1.15,0.686,2.458,1.468,3.75,2.231C352.565,102.81,352.404,102.631,352.404,102.631z"/>
		<path style="fill-rule:evenodd;clip-rule:evenodd;fill:#25375C;" d="M344.365,78.506c0.198-3.148,0.396-6.297,0.722-11.47
			c0.634,4.384,0.987,6.829,1.342,9.276c0.402,0.051,0.806,0.102,1.21,0.15c0.416-2.244,0.832-4.49,1.27-6.853
			c2.658,7.398,2.658,7.398-7.503,13.145c0-6.158,0-12.053,0-17.948c0.381-0.064,0.762-0.13,1.141-0.194
			c0.206,4.631,0.411,9.262,0.616,13.894C343.563,78.506,343.963,78.506,344.365,78.506z"/>
		<path style="fill-rule:evenodd;clip-rule:evenodd;fill:#25375C;" d="M343.05,268.84c0,4.471,0,8.944,0,13.416
			c0.495,0,0.989,0,1.484,0c0-3.534,0-7.068,0-10.602c0.352-0.005,0.701-0.013,1.052-0.018c0.188,2.725,0.375,5.45,0.563,8.174
			c0.396,0.094,0.792,0.187,1.186,0.282c0.59-2.147,1.178-4.292,1.942-7.071c3.129,7.872-1.944,10.375-7.768,13.687
			c0-6.46,0-12.083,0-17.708C342.024,268.947,342.537,268.894,343.05,268.84z"/>
		<path style="fill-rule:evenodd;clip-rule:evenodd;fill:#25375C;" d="M30.173,71.373c3.477-2.22,6.955-4.44,11.103-7.09
			c0,6.196,0,11.811,0,17.426c-0.125,0.02-0.25,0.037-0.375,0.057c-0.278-4.396-0.558-8.791-0.835-13.187
			c-0.567-0.002-1.133-0.003-1.7-0.007c-0.304,3.574-0.609,7.148-0.913,10.722c-0.303-0.017-0.606-0.032-0.909-0.049
			c0-2.7,0-5.4,0-8.102c-0.36-0.036-0.72-0.071-1.08-0.105c-0.353,2.219-0.706,4.436-1.078,6.781
			c-1.522-2.361-2.874-4.46-4.238-6.594C30.135,71.191,30.173,71.373,30.173,71.373z"/>
		<path style="fill-rule:evenodd;clip-rule:evenodd;fill:#25375C;" d="M30.938,477.699c3.08-2.855,6.162-5.713,10.401-9.645
			c0,7.469,0,13.059,0,18.648c-0.342,0.012-0.685,0.023-1.026,0.037c0-4.467,0-8.936,0-13.402c-0.65-0.033-1.3-0.066-1.95-0.1
			c-0.268,3.621-0.535,7.24-0.803,10.859c-0.3,0.002-0.6,0.002-0.9,0.002c-0.174-2.697-0.348-5.396-0.522-8.094
			c-0.263-0.021-0.525-0.041-0.788-0.063c-0.268,2.352-0.536,4.701-0.805,7.074c-1.347-1.967-2.566-3.746-3.782-5.523
			C30.766,477.496,30.938,477.699,30.938,477.699z"/>
		<path style="fill-rule:evenodd;clip-rule:evenodd;fill:#25375C;" d="M30.157,388.891c3.508-1.867,7.018-3.73,11.107-5.908
			c0,5.766,0,11.246,0,16.729c-0.292,0.012-0.584,0.023-0.877,0.035c0-4.225,0-8.451,0-12.678c-0.633-0.045-1.265-0.084-1.897-0.127
			c-0.322,3.414-0.645,6.828-0.966,10.238c-0.24,0.037-0.481,0.074-0.722,0.109c-0.247-2.414-0.496-4.826-0.743-7.24
			c-0.279-0.018-0.555-0.035-0.833-0.053c-0.213,1.914-0.426,3.826-0.706,6.33c-1.709-2.951-3.021-5.217-4.331-7.492
			C30.192,388.822,30.157,388.891,30.157,388.891z"/>
		<path style="fill-rule:evenodd;clip-rule:evenodd;fill:#25375C;" d="M32.122,157.906c2.682-2.365,5.364-4.732,9.188-8.104
			c0,7.428,0,13.106,0,18.787c-0.238,0.007-0.474,0.017-0.712,0.026c0-4.567,0-9.132,0-13.699c-0.628-0.068-1.255-0.137-1.883-0.204
			c-0.465,3.833-0.93,7.665-1.394,11.498c-0.172,0.017-0.345,0.034-0.518,0.05c-0.231-2.661-0.462-5.321-0.695-7.98
			c-0.2-0.052-0.398-0.104-0.598-0.159c-0.369,1.918-0.739,3.836-1.352,7.02c-0.925-3.256-1.513-5.324-2.102-7.399
			C32.055,157.734,32.122,157.906,32.122,157.906z"/>
		<path style="fill-rule:evenodd;clip-rule:evenodd;fill:#25375C;" d="M342.982,326.084c0,4.547,0,9.096,0,13.645
			c0.449,0.025,0.897,0.051,1.347,0.074c0.22-3.443,0.441-6.883,0.743-11.605c0.803,4.291,1.384,7.383,2.228,11.873
			c-0.732,0.598-2.726,2.227-5.803,4.738c0-7.262,0-13.055,0-18.846C341.991,326,342.487,326.041,342.982,326.084z"/>
		<path style="fill-rule:evenodd;clip-rule:evenodd;fill:#25375C;" d="M348.744,540.805c-2.01,1.838-4.02,3.676-7.115,6.51
			c0-7.258,0-13.197,0-19.137c0.402-0.025,0.804-0.053,1.207-0.08c0,4.422,0,8.848,0,13.271c0.525,0.008,1.052,0.018,1.577,0.029
			c0.194-3.268,0.387-6.531,0.496-8.385c0.999,2.006,2.472,4.967,3.946,7.932C348.857,540.947,348.744,540.805,348.744,540.805z"/>
		<path style="fill-rule:evenodd;clip-rule:evenodd;fill:#25375C;" d="M347.268,222.885c-1.512,1.748-3.02,3.493-5.86,6.782
			c0-8.137,0-13.983,0-19.831c0.39-0.039,0.778-0.078,1.167-0.117c0,4.494,0,8.988,0,13.482c0.561,0.019,1.119,0.039,1.676,0.056
			c0.268-3.197,0.533-6.394,0.808-9.68c0.786,3.217,1.552,6.349,2.319,9.482C347.377,223.061,347.268,222.885,347.268,222.885z"/>
		<path style="fill-rule:evenodd;clip-rule:evenodd;fill:#25375C;" d="M281.188,28.723c2.757,2.822,5.515,5.643,9.437,9.659
			c-7.837,0-13.523,0-19.21,0c-0.007-0.406-0.013-0.813-0.021-1.219c4.705,0,9.409,0,14.113,0c0.01-0.486,0.017-0.972,0.026-1.458
			c-3.348-0.165-6.692-0.329-10.039-0.494c-0.004-0.104-0.006-0.208-0.01-0.313c2.704-0.248,5.406-0.498,8.108-0.747
			c0.082-0.501,0.165-1.002,0.247-1.502c-2.211-0.538-4.422-1.077-6.959-1.695c1.548-0.818,3.031-1.603,4.518-2.391
			C281.401,28.562,281.188,28.723,281.188,28.723z"/>
		<path style="fill-rule:evenodd;clip-rule:evenodd;fill:#25375C;" d="M349.059,368.152c-2.188,1.688-4.378,3.375-7.471,5.76
			c0-6.898,0-12.875,0-18.854c0.396-0.027,0.792-0.055,1.189-0.082c0,4.652,0,9.307,0,13.961c0.594,0.02,1.187,0.039,1.78,0.061
			c0.186-3.057,0.372-6.107,0.471-7.74c0.975,1.658,2.554,4.344,4.147,7.045C349.188,368.32,349.059,368.152,349.059,368.152z"/>
		<path style="fill-rule:evenodd;clip-rule:evenodd;fill:#25375C;" d="M159.381,582.342c-2.12-3.719-4.238-7.438-6.682-11.725
			c5.985,0,11.595,0,17.206,0c0.015,0.326,0.029,0.65,0.044,0.977c-4.435,0-8.871,0-13.307,0c-0.179,0.543-0.357,1.086-0.537,1.629
			c2.765,1.848,5.53,3.697,7.591,5.076c-0.943,0.881-2.637,2.463-4.331,4.047C159.365,582.346,159.381,582.342,159.381,582.342z"/>
		<path style="fill-rule:evenodd;clip-rule:evenodd;fill:#25375C;" d="M300.789,573.926c3.139,1.539,6.276,3.074,9.112,4.463
			c-0.863,0.42-2.75,1.34-5.285,2.572c-1.995-2.764-4.382-6.07-7.37-10.207c6.299,0,11.825,0,17.353,0
			c0.023,0.225,0.047,0.449,0.071,0.674c-4.344,0-8.686,0-13.029,0C301.357,572.26,301.073,573.094,300.789,573.926z"/>
		<path style="fill-rule:evenodd;clip-rule:evenodd;fill:#25375C;" d="M73.605,582.373c-2.46-3.623-4.92-7.242-7.941-11.684
			c6.568,0,12.306,0,18.042,0c0.009,0.258,0.019,0.518,0.028,0.773c-4.614,0-9.227,0-13.84,0c-0.288,0.635-0.575,1.268-0.863,1.902
			c3.012,1.768,6.023,3.535,8.568,5.029c-0.784,0.771-2.42,2.381-4.066,3.994C73.523,582.396,73.605,582.373,73.605,582.373z"/>
		<path style="fill-rule:evenodd;clip-rule:evenodd;fill:#25375C;" d="M246.661,582.42c-2.47-3.586-4.94-7.176-7.977-11.584
			c6.302,0,12.051,0,17.798,0c0.02,0.15,0.04,0.301,0.061,0.451c-4.392,0-8.783,0-13.176,0c-0.313,0.723-0.626,1.441-0.938,2.164
			c2.893,1.775,5.785,3.551,8.009,4.914c-0.764,0.811-2.301,2.441-3.853,4.082C246.573,582.457,246.661,582.42,246.661,582.42z"/>
		<path style="fill-rule:evenodd;clip-rule:evenodd;fill:#25375C;" d="M38.315,241.745c-0.266,3.554-0.53,7.106-0.795,10.66
			c0.325-4.935-5.321-11.638,3.956-14.719c0,5.942,0,11.39,0,16.836c-0.204,0.023-0.408,0.047-0.612,0.069
			c-0.226-4.291-0.451-8.582-0.676-12.874C39.563,241.726,38.94,241.735,38.315,241.745z"/>
		<path style="fill-rule:evenodd;clip-rule:evenodd;fill:#25375C;" d="M34.906,444.932c1.216-2.229,2.435-4.459,3.653-6.688
			c0.887,0.676,1.773,1.352,2.66,2.027c0,5.605,0,11.211,0,16.814c-0.198,0.025-0.396,0.049-0.594,0.072c0-4.408,0-8.814,0-13.219
			c-0.672-0.063-1.345-0.125-2.016-0.188c-0.383,3.705-0.766,7.408-1.239,12c-0.996-4.248-1.787-7.617-2.582-10.994
			C34.783,444.748,34.906,444.932,34.906,444.932z"/>
		<path style="fill-rule:evenodd;clip-rule:evenodd;fill:#25375C;" d="M41.538,92.584c0,6.115,0,11.58,0,17.044
			c-0.295,0.018-0.591,0.039-0.887,0.057c0-4.541,0-9.083,0-13.624c-0.662-0.053-1.326-0.106-1.988-0.161
			c-0.405,3.797-0.81,7.595-1.213,11.391C38.289,102.507,31.628,95.602,41.538,92.584z"/>
		<path style="fill-rule:evenodd;clip-rule:evenodd;fill:#25375C;" d="M41.546,412.588c0,6.098,0,11.418,0,16.738
			c-0.236,0.008-0.473,0.016-0.71,0.027c-0.202-4.381-0.404-8.762-0.605-13.141c-0.586-0.023-1.172-0.043-1.758-0.064
			c-0.317,3.48-0.633,6.961-0.949,10.441C37.985,421.867,31.689,415.357,41.546,412.588z"/>
		<path style="fill-rule:evenodd;clip-rule:evenodd;fill:#25375C;" d="M126.921,37.137c4.088,0,8.177,0,12.265,0
			c0.029-0.486,0.058-0.973,0.086-1.458c-2.949-0.138-5.898-0.275-8.848-0.413c4.514,0.874,10.123-4.896,14.041,2.83
			c-6.154,0-11.925,0-17.696,0C126.819,37.777,126.87,37.458,126.921,37.137z"/>
		<path style="fill-rule:evenodd;clip-rule:evenodd;fill:#25375C;" d="M97.157,37.208c4.597,0,9.196,0,13.794,0
			c0.034-0.454,0.068-0.909,0.102-1.364c-2.886-0.266-5.772-0.533-7.816-0.721c2.062-0.56,4.887-1.325,8.239-2.234
			c0.685,1.044,1.807,2.755,3.453,5.265c-6.415,0-12.046,0-17.679,0C97.218,37.839,97.187,37.525,97.157,37.208z"/>
		<path style="fill-rule:evenodd;clip-rule:evenodd;fill:#25375C;" d="M35.122,272.173c1.653-1.871,3.307-3.741,6.28-7.103
			c0,7.823,0,13.303,0,18.781c-0.286,0.018-0.572,0.039-0.857,0.059c0-4.362,0-8.726,0-13.088c-0.685-0.047-1.371-0.093-2.056-0.138
			c-0.334,3.611-0.668,7.223-1,10.836c-0.234,0.022-0.468,0.044-0.702,0.067c-0.142-1.522-0.167-3.066-0.456-4.561
			c-0.331-1.709-0.895-3.375-1.356-5.059C34.976,271.969,35.122,272.173,35.122,272.173z"/>
		<path style="fill-rule:evenodd;clip-rule:evenodd;fill:#25375C;" d="M41.651,208.053c0,6.291,0,11.598,0,16.907
			c-0.319,0.031-0.639,0.061-0.959,0.09c0-4.472,0-8.944,0-13.417c-0.673-0.055-1.345-0.11-2.018-0.165
			c-0.432,3.8-0.864,7.597-1.295,11.395C38.439,218.145,31.491,211.319,41.651,208.053z"/>
		<path style="fill-rule:evenodd;clip-rule:evenodd;fill:#25375C;" d="M275.237,580.357c-2.29-2.84-4.58-5.678-7.699-9.547
			c6.63,0,12.146,0,17.663,0c0.027,0.168,0.054,0.334,0.081,0.5c-4.331,0.197-8.662,0.391-12.992,0.586
			c-0.24,0.469-0.48,0.938-0.719,1.404c2.878,1.803,5.756,3.605,8.248,5.168c-0.885,0.369-2.817,1.184-4.766,2
			C275.043,580.477,275.237,580.357,275.237,580.357z"/>
		<path style="fill-rule:evenodd;clip-rule:evenodd;fill:#25375C;" d="M227.333,32.433c0.883,1.621,1.766,3.242,3.05,5.599
			c-6.241,0-12.04,0-17.839,0c-0.022-0.213-0.046-0.427-0.069-0.64c4.607,0,9.214,0,13.822,0c0.031-0.559,0.061-1.114,0.09-1.673
			c-2.964-0.162-5.928-0.324-8.128-0.443c2.631-0.813,5.917-1.826,9.238-2.849C227.528,32.42,227.333,32.433,227.333,32.433z"/>
		<path style="fill-rule:evenodd;clip-rule:evenodd;fill:#25375C;" d="M188.202,34.247c4.293,0.389,8.586,0.777,12.88,1.165
			c-0.066,0.899-0.132,1.801-0.198,2.701c-5.582,0-11.164,0-16.746,0c-0.021-0.239-0.041-0.479-0.061-0.719c4.19,0,8.381,0,12.572,0
			c0.046-0.528,0.094-1.057,0.141-1.587c-2.902-0.236-5.804-0.473-8.706-0.709C188.125,34.815,188.164,34.531,188.202,34.247z"/>
		<path style="fill-rule:evenodd;clip-rule:evenodd;fill:#25375C;" d="M27.279,362.162c3.117-1.73,6.234-3.463,9.962-5.531
			c0,3.904,0,7.619,0,11.332c-0.135,0.039-0.27,0.074-0.403,0.113c-0.26-2.391-0.52-4.783-0.781-7.174
			c-0.2-0.049-0.4-0.1-0.601-0.148c-0.343,1.943-0.686,3.887-0.864,4.902c-2.407-1.164-4.849-2.344-7.29-3.531
			C27.305,362.117,27.279,362.162,27.279,362.162z"/>
		<path style="fill-rule:evenodd;clip-rule:evenodd;fill:#25375C;" d="M344.864,196.679c-0.933,0.581-1.865,1.159-3.459,2.148
			c0-6.757,0-12.808,0-18.861c0.136,0.005,0.271,0.007,0.408,0.011c1.048,5.62,2.096,11.238,3.16,16.882
			C344.988,196.884,344.864,196.679,344.864,196.679z"/>
		<path style="fill-rule:evenodd;clip-rule:evenodd;fill:#25375C;" d="M27.305,189.161c3.125-1.786,6.25-3.571,9.976-5.7
			c0,3.975,0,7.634,0,11.293c-0.194,0.024-0.389,0.048-0.583,0.071c-0.193-2.435-0.386-4.869-0.58-7.304
			c-0.263-0.016-0.527-0.031-0.79-0.046c-0.269,1.992-0.536,3.986-0.959,7.137c-0.887-2.345-1.399-3.695-1.589-4.2
			c-2.165-0.51-3.81-0.896-5.455-1.287C27.327,189.121,27.305,189.161,27.305,189.161z"/>
		<path style="fill-rule:evenodd;clip-rule:evenodd;fill:#25375C;" d="M56.186,556.338c0-168.475,0-336.047,0-504.249
			c91.238,0,181.838,0,273.594,0c0,11.93,0.01,23.807,0,35.683c-0.078,97.771-0.203,195.541-0.225,293.312
			c-0.014,56.037,0.049,112.076,0.348,168.111c0.031,5.846-1.495,7.613-7.406,7.602c-86.29-0.166-172.58-0.109-258.868-0.127
			C61.33,556.67,59.031,556.471,56.186,556.338z M216.505,416.977c-1.506-2.334-3.01-4.67-5.538-8.588c0,3.418,0,4.748,0,6.078
			c-0.995-2.326-1.991-4.652-2.986-6.979c-0.821,0.33-1.641,0.662-2.462,0.992c2.944,7.529,5.888,15.059,8.832,22.588
			c0.641-0.221,1.283-0.441,1.922-0.66c0-1.348,0-2.697,0-4.045c2.779,2.904,5.558,5.809,8.914,9.316
			c-3.233-6.893-6.053-12.91-8.87-18.918c3.682,4.861,7.362,9.723,11.045,14.584c0.439-0.354,0.879-0.707,1.319-1.059
			c-1.499-2.051-3.153-4.008-4.454-6.178c-1.427-2.381-2.354-5.066-3.829-7.414C219.208,414.801,217.413,411.754,216.505,416.977z
			 M187.293,423.504c-1.406-2.061-2.812-4.121-4.498-6.592c-1.608,4.658-3.078,8.914-4.548,13.174
			c0.494,0.252,0.987,0.506,1.48,0.758c0.522-1.291,1.042-2.58,1.564-3.869c0.442,0.383,0.887,0.768,1.33,1.152
			c-0.889,3.289-1.775,6.574-2.664,9.863c0.421,0.113,0.844,0.227,1.265,0.342c2.088-5.025,4.176-10.049,6.264-15.074
			c-0.721,5.123-1.441,10.244-2.162,15.367c0.36,0.078,0.72,0.158,1.079,0.238c0.384-0.754,0.769-1.506,1.641-3.217
			c0.274,3.865,0.439,6.199,0.69,9.76C193.005,435.398,192.229,427.209,187.293,423.504z M286.079,208.063
			c-2.269-0.536-4.549-1.031-6.804-1.618c-3.959-1.029-5.912,0.455-6.308,4.759c5.494,1.494,10.614,2.884,15.734,4.276
			c0.194-0.6,0.389-1.2,0.582-1.801c-3.77-1.438-7.538-2.877-11.308-4.316c0.049-0.249,0.099-0.497,0.149-0.746
			c4.362,0.943,8.724,1.887,13.086,2.828c0.154-0.446,0.306-0.892,0.458-1.341c-1.524-1.178-3.049-2.358-4.572-3.539
			c1.874,0.254,3.75,0.509,5.626,0.764c0.143-0.475,0.283-0.951,0.427-1.425c-1.144-0.878-2.285-1.755-3.342-2.565
			c1.405-0.731,2.533-1.319,3.664-1.907c-0.249-0.838-0.498-1.676-0.746-2.514c-5.096,1.102-10.188,2.202-16.563,3.58
			C280.752,205.073,283.415,206.567,286.079,208.063z M210.832,340.969c2.2,2.627,4.239,5.418,6.65,7.836
			c2.219,2.225,4.838,4.049,7.28,6.049c0.134-0.295,0.268-0.588,0.399-0.885c-7.114-10.355-14.227-20.713-21.278-30.98
			c0.086,1.523,0.2,3.498,0.313,5.475c0.385,3.334,0.768,6.668,1.15,10c-2.134-4.154-4.267-8.309-6.401-12.467
			c-0.286,0.107-0.571,0.213-0.859,0.32c0.399,1.416,0.797,2.828,1.194,4.242c-1.119-1.246-2.237-2.494-4.653-5.184
			c1.319,5.561,2.251,9.482,3.182,13.406c-1.209-1.477-2.418-2.955-4.766-5.828c3.877,18.48,9.087,34.361,19.377,48.133
			c-5.093-12.701-10.186-25.404-15.278-38.109c1.277,1.861,2.775,3.611,3.795,5.605c5.173,10.121,10.16,20.336,15.387,30.428
			c0.702,1.357,2.387,2.207,3.616,3.289c0.372-2.758-0.568-4.281-1.349-5.881c-4.539-9.309-9.041-18.635-13.556-27.955
			c6.15,9.771,12.301,19.541,18.451,29.311c0.847-0.521,1.695-1.041,2.541-1.561c-5.884-9.699-11.767-19.396-17.651-29.098
			c5.177,6.025,10.354,12.051,15.531,18.076c0.399-0.305,0.801-0.609,1.2-0.914C220.351,356.508,215.591,348.738,210.832,340.969z
			 M204.153,280.46c0.088,1.441,0.176,2.881,0.278,4.558c7.487-10.642,14.401-20.473,21.316-30.302
			c-0.254-0.366-0.509-0.734-0.762-1.101c-3.03,2.786-6.058,5.571-9.086,8.355c3.022-5.732,6.047-11.466,9.071-17.199
			c-0.459-0.292-0.919-0.585-1.379-0.878c-4.525,5.748-9.048,11.494-13.573,17.24c3.733-6.584,7.511-13.142,11.179-19.764
			c1.596-2.884,2.964-5.894,4.435-8.848c-0.817-0.417-1.634-0.831-2.449-1.248c-6.478,10.842-12.954,21.686-19.43,32.527
			c5.443-11.978,10.885-23.956,16.328-35.934c-2.064,0.437-3.318,1.528-4.014,2.901c-5.961,11.755-11.822,23.561-17.729,35.377
			c0.901-3.762,1.348-7.708,2.79-11.251c3.568-8.777,7.591-17.371,11.431-26.037c-0.63-0.236-1.26-0.473-1.891-0.709
			c-9.326,16.661-16.022,34.243-18.336,54.523c2.317-6.277,4.252-11.52,6.187-16.761c-1.141,5.753-2.284,11.506-3.426,17.26
			c0.359,0.061,0.716,0.121,1.076,0.182c0.875-1.873,1.751-3.743,2.627-5.616c-0.194,2.049-0.389,4.098-0.729,7.682
			c2.643-4.939,4.384-8.188,6.122-11.436C204.179,276.142,204.166,278.302,204.153,280.46z M170.339,242.298
			c-3.634-3.665-7.266-7.329-10.9-10.992c-0.535,0.275-1.07,0.55-1.604,0.825c5.549,9.147,11.099,18.295,16.649,27.441
			c-0.241,0.098-0.481,0.194-0.721,0.291c-4.485-5.402-8.971-10.805-13.457-16.207c-0.558,0.458-1.117,0.916-1.676,1.373
			c4.634,6.878,9.267,13.756,13.9,20.634c-4.405-3.932-8.81-7.865-13.213-11.798c4.171,8.011,9.041,14.906,14.122,21.639
			c1.837,2.435,4.183,4.484,6.295,6.712c0.713-0.579,1.425-1.156,2.137-1.733c-1.266-2.308-2.531-4.617-3.797-6.925
			c0.344-1.057,0.687-2.116,1.308-4.027c2.076,5.238,3.866,9.757,6.132,15.479c0-3.255,0-5.292,0-7.33
			c0.602,1.244,1.174,2.502,1.813,3.728c0.506,0.971,1.092,1.899,1.643,2.849c-3.159-21.123-11.256-39.954-22.95-57.181
			c-0.718,0.321-1.436,0.641-2.154,0.96C166.024,232.791,168.181,237.544,170.339,242.298z M185.438,345.373
			c-4.292,12.037-8.585,24.076-13.059,36.623c7.211-7.699,17.678-35.25,16.51-42.51c-1.17,1.949-2.428,4.045-3.686,6.141
			c1.51-6.643,3.02-13.285,4.531-19.926c-0.369-0.115-0.739-0.23-1.108-0.346c-0.781,1.867-1.563,3.736-2.693,6.434
			c-0.352-2.654-0.552-4.166-0.801-6.047c-1.911,4.705-3.618,8.908-5.83,14.359c-0.605-2.99-0.915-4.512-1.223-6.033
			c0.725-3.631,1.451-7.262,2.169-10.857c-7.298,10.844-14.31,21.26-21.319,31.676c0.275,0.334,0.549,0.664,0.824,0.996
			c3.965-4.16,7.93-8.318,11.896-12.479c-3.261,5.434-6.506,10.875-9.792,16.293c-1.076,1.771-2.263,3.473-3.398,5.209
			c0.726,0.482,1.451,0.969,2.176,1.453c5.296-7.207,10.592-14.412,15.889-21.617c-2.466,6.072-5.63,11.688-8.973,17.191
			c-3.132,5.154-6.454,10.193-9.692,15.283c0.887,0.533,1.773,1.068,2.66,1.605c5.746-8.936,11.492-17.871,17.238-26.807
			c0.357,0.17,0.716,0.34,1.074,0.508c-4.944,9.582-9.888,19.164-14.833,28.748c0.636,0.309,1.271,0.615,1.907,0.926
			C174.864,371.297,179.03,357.721,185.438,345.373z M267.272,331.965c-0.297,2.17-0.97,4.365-0.813,6.504
			c0.368,4.984,1.134,9.941,2.002,17.08c-9.052-2.885-16.169-5.152-23.597-7.52c4.798,6.381,17.477,11.791,23.417,9.633
			c1.447-0.525,2.761-3.486,2.811-5.363c0.106-4.01-0.656-8.037-1.033-11.785c5.591,1.496,10.449,3.086,15.429,4.061
			c7.78,1.525,9.487-0.025,8.103-7.947c-1.064-6.092-3.083-12.018-4.329-16.703c5.649-5.24,10.646-9.877,16.625-15.426
			c-6.193-5.533-11.438-10.22-16.604-14.836c1.408-6.221,3.226-12.948,4.378-19.786c0.786-4.672-1.318-7.257-6.516-5.792
			c-5.564,1.571-11.13,3.132-17.189,4.838c0.397-3.921,1.343-7.883,0.962-11.709c-0.203-2.022-2.788-5.489-4.183-5.432
			c-8.119,0.328-16.143,1.654-21.986,8.648c1.722,0.549,3.11,0.993,4.499,1.436c0.314,0.486,0.63,0.971,0.945,1.458
			c-5.011,1.595-8.512,4.305-7.893,10.289c13.613-0.39,14.038,0.264,13.272,20.279c-3.955,1.375-8.048,2.797-12.14,4.221
			c-0.008,0.479-0.013,0.961-0.021,1.44c3.662,0.314,7.324,0.629,10.986,0.944c0.109-0.445,0.22-0.889,0.331-1.334
			c-0.919-0.324-1.839-0.648-3.059-1.078c3.497-1.791,6.8-3.483,10.006-5.125c6.858,3.25,8.18,9.502,6.225,15.362
			c-1.182,3.545-5.996,5.879-9.186,8.76c-1.048-1.738-2.094-3.475-3.233-5.365c2.227,0.223,4.241,0.424,6.258,0.625
			c0.054-0.543,0.108-1.082,0.163-1.623c-5.518-0.873-11.035-1.744-16.553-2.615c-0.103,0.441-0.205,0.883-0.31,1.324
			c4.625,2.494,9.253,4.988,13.879,7.48c-0.97,1.543-2.816,3.107-2.774,4.619c0.363,12.615-0.787,13.924-14.158,14.344
			c1.113,11.164,10.861,9.736,17.845,12.9c1.071-5.82,1.958-11.145,3.2-16.385c0.092-0.387,2.726-0.168,4.177-0.23L267.272,331.965z
			 M74.23,252.63c0.127,2.073,0.256,4.147,0.383,6.221c5.908-16.894,17.562-26.797,34.191-31.556
			c2.429-0.695,4.507-2.613,6.748-3.965c-0.514-0.921-1.028-1.845-1.542-2.767c-7.432,3.469-15.916,5.672-22.022,10.74
			c-7.083,5.881-12.079,14.276-17.979,21.58c2.742-16.451,14.746-24.704,28.302-31.155c5.645-2.687,11.999-3.881,19.199-6.118
			c-1.959-0.828-2.519-1.229-3.109-1.278c-1.161-0.099-2.359-0.144-3.505,0.032c-17.725,2.727-31.882,11.557-40.1,27.352
			c-3.912,7.517-5.636,16.933-5.664,25.496c-0.026,8.392,2.253,17.35,10.703,22.776c-3.899-1.596-7.797-3.194-13.64-5.588
			c3.571,6.525,6.089,11.126,8.961,16.374c2.81-2.203,5.078-4.66,7.879-6.018c4.551-2.208,4.439-5.247,2.77-9.088
			c-9.24-21.25,0.934-38.788,21.727-44.63c1.298-0.365,2.299-1.784,3.438-2.715c-0.455-0.762-0.908-1.525-1.362-2.288
			c-5.28,2.549-11.048,4.43-15.704,7.833c-4.598,3.361-8.07,8.263-12.037,12.488c-0.44-0.383-0.879-0.764-1.319-1.147
			c4.389-4.891,8.237-10.468,13.319-14.482c5.068-4.006,11.374-6.447,17.92-10c-16.984-0.755-30.834,14.641-36.447,38.786
			c-1.028-1.788-3.284-3.961-3.31-6.163C71.985,259.794,73.409,256.22,74.23,252.63z M217.394,196.617
			c1.299-1.886,2.361-5.16,3.935-5.429c8.101-1.381,7.938-5.857,4.954-12.4c-3.131,4.265-6.064,8.26-8.997,12.254
			c-0.39-0.227-0.782-0.454-1.172-0.682c2.147-3.977,4.294-7.955,6.441-11.933c-0.751-0.354-1.504-0.709-2.255-1.063
			c-3.396,6.874-6.792,13.747-10.814,21.886c4.082-1.418,6.073-2.109,8.063-2.799c-3.309,3.162-6.615,6.326-9.755,9.327
			c-5.042-6.667-9.744-12.888-15.377-20.341c-5.724,7.404-10.457,13.525-14.981,19.379c-6.916-4.435-14.034-9.001-21.151-13.564
			c4.925,9.546,10.106,18.34,16.567,26.063c3.509,4.197,7.985,7.333,8.283,13.387c0.025,0.533,0.583,1.041,0.961,1.676
			c0.809-1.296,1.459-2.338,2.878-4.612c0.305,5.432,0.532,9.509,0.761,13.586c0.471-0.042,0.941-0.083,1.412-0.125
			c0-4.762,0-9.524,0-14.289c0.467-0.018,0.935-0.039,1.401-0.059c0.509,7.889,1.019,15.776,1.528,23.663
			c0.391-0.011,0.781-0.023,1.171-0.034c0-6.402,0-12.803,0-19.203c0.236-0.002,0.473-0.002,0.709-0.004
			c0.665,6.058,1.331,12.117,1.997,18.175c0.509-0.035,1.019-0.072,1.528-0.108c0-6.966,0-13.932,0-20.896
			c0.385-0.011,0.77-0.022,1.154-0.031c0.22,3.193,0.439,6.386,0.659,9.579c0.185,0.026,0.37,0.052,0.554,0.079
			c0.826-5.125,1.652-10.249,2.603-16.143c0.553,4.007,0.991,7.17,1.333,9.66c9.09-12.982,18.059-25.794,27.576-39.39
			C224.905,193.867,221.139,195.254,217.394,196.617z M81.179,166.811c2.663-8.753,5.325-17.507,8.159-26.828
			c-2.42,1.005-4.215,1.75-7.562,3.141c2.836-8.698,5.236-16.061,7.789-23.89c-1.932,0.19-3.41,0.337-7.245,0.717
			c4.795-10.091,8.97-18.877,13.084-27.529c-1.078-0.098-2.506-0.225-4.396-0.396c6.494-13.469,18.458-20.105,29.937-27.25
			c-0.341-0.617-0.681-1.232-1.022-1.849c-9.184,2.821-18.366,5.644-28.261,8.684c-0.89-1.298-2.522-3.681-4.56-6.653
			c-2.861,3.207-5.292,5.938-7.955,8.922c-3.045-2.114-6.119-4.248-10.234-7.105c2.062,10.309,3.829,19.143,5.884,29.416
			c-3.934-2.371-6.136-3.698-9.112-5.492c2.027,9.83,3.843,18.644,5.8,28.138c-2.147-1.025-3.606-1.723-5.511-2.633
			c2.078,9.575,3.975,18.318,6.027,27.777c-2.871-1.068-4.64-1.727-6.408-2.386c-0.55,0.386-1.099,0.771-1.649,1.157
			c3.757,9.153,7.245,18.435,11.471,27.367c1.014,2.143,4.48,3.126,6.817,4.643c0.368-0.51,0.736-1.02,1.104-1.529
			c-0.67-2.186-1.342-4.368-2.013-6.551L81.179,166.811z M81.347,443.57l0.179,0.156c0.762-2.629,1.525-5.26,2.288-7.889
			c-0.39-0.523-0.781-1.047-1.171-1.572c-2.405,1.801-5.876,3.094-7.021,5.496c-4.129,8.664-7.475,17.703-11.707,28.039
			c3.968-0.691,5.573-0.971,8.317-1.449c-2.07,9.441-3.943,17.979-5.868,26.748c1.834-0.434,3.343-0.791,5.235-1.238
			c-1.888,9.332-3.642,18.006-5.541,27.389c3.13-1.977,5.354-3.383,9.344-5.9c-2.25,10.846-4.097,19.752-6.178,29.789
			c4.144-2.926,7.369-5.203,10.391-7.336c2.842,3.279,5.261,6.072,7.863,9.076c2.053-2.939,3.758-5.381,4.774-6.834
			c9.379,2.838,18.125,5.484,26.873,8.131c0.29-0.773,0.579-1.549,0.87-2.324c-11.6-6.463-22.213-13.949-28.899-26.578
			c2.113,0,3.396,0,4.484,0c-4.13-9.145-8.193-18.145-12.841-28.434c3.866,0.891,5.287,1.219,7.174,1.652
			c-2.651-8.139-5.045-15.488-7.689-23.604c3.186,0.939,5.062,1.492,7.412,2.182C86.732,460.139,84.039,451.855,81.347,443.57z
			 M303.801,166.661l-0.145-0.125c-0.941,2.541-1.885,5.082-2.922,7.877c7.831,2.535,8.981-4.208,10.901-8.059
			c3.653-7.318,6.097-15.238,9.411-23.874c-3.578,0.59-5.262,0.867-8.238,1.357c2.178-9.383,4.151-17.87,6.159-26.516
			c-1.847,0.377-3.248,0.665-5.584,1.142c2.16-9.274,4.102-17.617,6.344-27.244c-3.363,1.881-5.227,2.923-8.364,4.676
			c1.606-10.02,3.008-18.762,4.407-27.502c-7.886,10.278-13.026,3.98-17.718-3.829c-2.146,3.691-3.622,6.234-5.088,8.759
			c-15.011-7.748-19.765-9.008-26.365-7.053c16.757,10.44,23.535,17.606,26.997,26.194c-1.485,0.198-2.901,0.387-4.905,0.654
			c5.342,8.855,11.924,16.597,11.991,27.155c-2.31-0.133-3.918-0.225-5.183-0.297c2.47,7.938,4.782,15.375,7.275,23.396
			c-3.129-0.895-5.134-1.466-6.431-1.835c1.517,6.539,2.842,12.843,4.494,19.06C301.404,162.73,302.79,164.646,303.801,166.661z
			 M184.05,529.814c2.639,5.227,5.278,10.453,8.616,17.066c3.779-5.846,6.744-10.164,9.321-14.701
			c0.389-0.684-1.022-2.389-1.601-3.621c-2.035,3.314-2.341,1.33-2.583-0.846c-0.553,0.576-1.104,1.152-1.31,1.367
			c-0.872-2.486-1.808-5.156-2.743-7.82c-0.729,0.129-1.457,0.262-2.187,0.393c-0.399,3.547-0.797,7.094-1.188,10.564
			c-0.362-1.91-0.753-3.969-1.234-6.5c-2.113,1.734-3.68,3.021-5.246,4.309c2.82-5.221,5.64-10.443,8.547-15.828
			c20.774,25.65,26.956,30.01,43.501,30.193c-25.763-14.27-20.749-36.605-16.642-58.697c-0.559-0.119-1.115-0.238-1.672-0.355
			c-2,7.867-4.003,15.734-6.003,23.604c-0.203-0.041-0.407-0.078-0.61-0.119c0.768-5.688,1.537-11.379,2.307-17.068
			c-0.394-0.092-0.788-0.182-1.18-0.275c-1.224,4.74-2.445,9.479-3.861,14.963c0-4.35,0-7.988,0-13.227
			c-1.385,2.82-2.063,4.201-2.838,5.777c-1.128-1.203-1.715-1.83-2.596-2.77c-0.469,2.268-0.781,3.77-1.092,5.271
			c-0.436-0.039-0.872-0.076-1.31-0.115c0-4.867,0-9.732,0-14.598c-0.529-0.043-1.059-0.086-1.588-0.125
			c-0.498,1.791-0.998,3.582-2.009,7.217c0-4.979,0-8.105,0-11.232c-0.403-0.045-0.804-0.086-1.208-0.131
			c-0.702,6.566-1.403,13.129-2.105,19.695c-0.583-0.041-1.166-0.078-1.749-0.119c-0.282-6.385-0.563-12.768-0.844-19.154
			c-0.666,0.012-1.332,0.025-1.997,0.039c-0.312,4.766-0.622,9.535-0.933,14.299c-0.176-0.012-0.35-0.025-0.525-0.039
			c-0.268-3.301-0.538-6.6-0.807-9.898c-0.522-0.055-1.044-0.109-1.566-0.166c-1.627,5.33-3.253,10.658-4.735,15.512
			c-0.239-0.658-0.719-1.979-1.868-5.137c-0.359,3.945-0.539,5.914-0.544,5.971c-3.137-5.164-7.032-11.572-10.926-17.982
			c5.482,22.623,7.853,43.945-15.108,59.686c6.62-1.494,12.879-3.254,18.585-6.117C175.359,536.672,179.559,532.969,184.05,529.814z
			 M184.26,80.798c-1.998-1.514-4.212-2.811-5.953-4.576c-6.635-6.729-18.901-11.802-28.487-11.503
			c24.141,14.059,22.884,35.4,17.318,58.428c3.568-5.922,7.138-11.842,10.26-17.021c0,1.68,0,4.721,0,8.401
			c1.162-2.799,2.016-4.859,3.137-7.559c0.693,3.221,1.163,5.397,1.632,7.573c0.588-0.186,1.176-0.37,1.764-0.554
			c0.197,2.605,0.394,5.209,0.591,7.814c0.59,0.035,1.178,0.069,1.768,0.104c0.414-4.237,0.828-8.474,1.242-12.711
			c0.436,0.022,0.872,0.044,1.309,0.066c0,5.737,0,11.475,0,17.213c0.652-0.016,1.305-0.03,1.958-0.045
			c0.368-6.346,0.736-12.69,1.104-19.036c0.467,0.011,0.935,0.021,1.402,0.031c0.487,6.444,0.975,12.889,1.579,20.889
			c2.021-3.387,3.01-5.049,4.001-6.709c0.824,0.206,1.65,0.412,2.475,0.617c0-3.518,0-7.036,0-11.935
			c0.94,2.339,1.305,3.25,2.228,5.551c0.369-3.353,0.559-5.093,0.793-7.238c1.086,2.345,1.903,4.109,2.722,5.875
			c0.363-0.104,0.726-0.208,1.088-0.311c0-3.67,0-7.339,0-12.814c1.185,5.781,1.999,9.754,2.812,13.728
			c0.945-3.251,0.291-6.188,0.055-9.156c-0.234-2.946-0.051-5.925-0.051-8.891c1.312,4.577,1.63,9.244,2.642,13.755
			c0.986,4.391,2.682,8.62,4.067,12.921c-3.47-22.655-7.676-44.832,17.662-59.02c-3.853,0.365-7.375,1.03-10.869,1.82
			c-11.391,2.574-18.567,11.116-26.404,18.719c1.105-2.422,2.209-4.844,3.633-7.964c-2.506-3.881-5.589-8.657-8.985-13.921
			c-2.065,3.099-3.876,5.222-5.006,7.661C186.298,74.133,185.396,77.521,184.26,80.798z M191.263,148.022
			c4.84-5.432,9.68-10.863,14.52-16.293c0.779,0.246,1.555,0.493,2.334,0.738c1.933,6.181,3.867,12.364,5.783,18.493
			c4.965-3.954,9.365-7.685,14.007-11.085c3.875-2.839,6.643-1.817,7.192,3.136c0.586,5.271,0.876,10.573,1.299,15.932
			c8.167-3.551,16.077-6.991,23.987-10.431c-0.301-0.758-0.601-1.512-0.903-2.27c-6.461,1.858-12.922,3.715-19.225,5.526
			c-1.595-6.68-3.073-12.871-4.878-20.42c-7.031,4.435-12.833,8.095-18.79,11.852c-2.532-5.768-5.254-11.968-7.976-18.169
			c-0.874-0.256-1.746-0.514-2.62-0.77c-4.412,5.283-8.823,10.567-14.333,17.167c-4.796-6.623-8.725-12.048-12.655-17.477
			c-1,0.495-2.001,0.991-3.001,1.488c-2.516,6.098-5.032,12.196-7.413,17.967c-6.141-3.929-12.094-7.738-19.533-12.497
			c-1.75,8.108-3.13,14.511-4.438,20.571c-6.481-1.848-12.717-3.627-18.955-5.404c-0.273,0.782-0.546,1.567-0.82,2.35
			c7.38,3.116,14.76,6.23,22.693,9.579c0.828-4.999,1.647-10,2.486-15c0.929-5.533,4.027-5.828,7.868-2.902
			c4.404,3.356,8.541,7.064,12.789,10.614c2.164-6.183,4.3-12.289,6.952-19.867c6.373,6.075,12.957,9.15,13.639,17.165
			c-0.053,0.353-0.06,0.722-0.185,1.046c-0.035,0.094-0.537,0.158-0.615,0.061c-1.019-1.246-2.003-2.523-2.996-3.793
			c-0.346,0.649-0.692,1.302-1.04,1.952c-0.615-0.849-1.095-1.858-1.874-2.513c-1.452-1.223-3.078-2.24-4.749-3.427
			c-0.082,1.671-0.174,3.57-0.268,5.471c-0.215,0.004-0.431,0.008-0.645,0.012c-0.32-1.282-0.64-2.566-0.702-2.81
			c-1.29,1.413-3.656,2.786-3.841,4.409c-0.951,8.298-4.914,6.92-9.809,3.518c-2.408-1.672-4.816-3.345-7.229-5.01
			c-0.477-0.33-0.978-0.628-1.897-1.216c0.61,2.42,1.078,4.28,1.665,6.615c-1.569-1.095-2.486-1.735-2.669-1.862
			c-0.839,2.723-2.104,4.81-1.984,6.815c0.373,6.271-2.022,6.626-6.926,4.187c-1.19-0.591-4.509,0.302-4.816,1.204
			c-1.559,4.584-1.836,4.852-6.733,2.621c5.387,7.126,10.773,14.252,17.112,22.639c0.598-8.234-1.056-16.215,6.564-18.171
			c5.171-1.329,11.334,1.203,17.937,2.134c2.748-6.223,8.051-11.334,17.328-11.196c9.193,0.138,13.912,5.985,17.502,13.264
			c5.836-3.498,11.558-9.313,17.381-3.902c3.998,3.712,5.287,10.34,7.592,15.254c17.373-21.256,14.589-17.648,12.512-23.475
			c-1.564,1.315-3.129,2.633-5.122,4.309c-0.282-1.15-0.48-1.968-0.686-2.786c-0.256-1.022-0.517-2.044-0.826-3.26
			c-5.116,4.395-7.3,4.464-8.661-0.009c-1.024-3.373-0.813-7.121-1.101-10.167c-2.602-0.96-4.875-1.799-7.187-2.655
			c-1.255,2.285-2.45,4.456-4.03,7.331c-0.214-1.699-0.315-2.5-0.418-3.306c-2.259,1.487-4.565,3.004-6.874,4.525
			c-2.094-4.529-3.98-8.614-5.849-12.656c-0.348,0.67-0.74,1.424-1.598,3.078c-0.298-2.435-0.495-4.026-0.449-3.666
			C200.577,144.358,195.917,146.192,191.263,148.022z M248.907,201.795l-0.121-0.11c-1.6,2.543-3.198,5.088-4.8,7.633
			c5.618-3.793,10.384-8.36,14.531-13.432c13.785-16.854,26.422-34.39,30.812-56.404c3.721-18.666,3.65-37.038-7.608-53.283
			c-11.317-16.337-21.764-21.604-39.676-18.37c-8.889,1.605-17.931,11.25-17.781,19.689c1.834-1.679,3.349-3.059,4.858-4.444
			c8.854-8.138,22.906-9.345,30.654-1.363c9.993,10.295,15.027,23.055,13.411,37.683c-2.635,23.827-14.348,43.549-28.616,62.075
			c-7.066,9.172-13.976,18.466-21.773,28.785c3.026-0.619,4.732-0.969,6.438-1.32l-0.158-0.153c1.988-0.188,4.617,0.356,5.833-0.711
			c2.893-2.536,5.144-5.813,7.604-8.828c5.428-6.648,10.824-13.322,16.234-19.984l-0.136-0.143c-0.214,1.362,0.029,3.083-0.713,4.03
			c-6.968,8.881-14.105,17.63-21.193,26.418c0.24,0.311,0.48,0.624,0.718,0.937C241.253,207.598,245.082,204.697,248.907,201.795z
			 M243.11,401.693c-4.071-0.816-8.143-1.633-13.922-2.793c4.206,5.025,7.216,8.477,10.066,12.059
			c13.234,16.613,26.798,33.08,33.602,53.66c4.225,12.773,8.104,25.74,3.336,39.389c2.909-19.971-2.751-38.246-13.06-54.658
			c-10.378-16.516-22.668-31.838-34.268-47.574c-0.885-1.201-2.937-1.539-4.448-2.277c6.606,10.354,13.707,19.514,20.729,28.736
			c13.126,17.24,24.009,35.51,27.937,57.32c2.34,12.982-0.531,24.758-7.458,35.414c-8.073,12.42-20.9,15.324-32.742,8.035
			c-3.173-1.951-5.727-4.904-9.277-8.027c3.781,19.877,25.13,25.43,38.628,19.688c12.274-5.221,19.223-15.838,25.865-26.662
			c1.698,1.48,3.398,2.961,5.4,4.709c-0.439,0.85-0.791,2.373-1.74,3.246c-8.445,7.787-16.995,15.459-26.447,24.01
			c9.985-3.068,19.309-5.932,28.635-8.797c1.377,2.133,2.845,4.404,4.607,7.129c2.826-3.484,5.146-6.34,7.741-9.541
			c3.641,2.596,6.987,4.98,10.34,7.369c-1.673-9.42-3.309-18.639-5.199-29.283c3.568,2.244,5.569,3.504,9.035,5.684
			c-2.435-9.908-4.474-18.213-6.637-27.018c2.035-0.092,3.682-0.17,5.461-0.254c-2.081-8.449-4.062-16.486-6.069-24.635
			c3.012-0.402,4.949-0.662,8.855-1.186c-5.124-10.529-9.612-20.168-14.592-29.549c-0.789-1.484-3.784-1.801-5.759-2.658
			c-0.487,0.633-0.975,1.268-1.462,1.898c3.468,5.322,6.934,10.645,10.717,16.449c-1.649-0.607-2.7-0.99-4.157-1.525
			c0.778,5.143,1.621,9.736,2.136,14.365c0.528,4.742,1.105,9.531,0.975,14.283c-0.124,4.572-1.057,9.131-1.757,13.678
			c-0.707,4.607-0.846,9.488-2.571,13.697c-1.464,3.572,2.663,9.518-3.856,11.113c0.485-5.904,0.621-11.547,1.508-17.068
			c0.755-4.699,2.924-9.201,3.438-13.9c0.396-3.611-2.382-8.162-1.019-10.967c4.932-10.156-2.819-19.227-1.433-28.893
			c0.119-0.838-0.718-1.811-1.332-3.238c-2.282,8.637-4.382,16.576-6.544,24.764c1.686-0.439,3.567-0.93,6.764-1.76
			c-2.696,8.443-5.065,15.865-7.504,23.504c1.48-0.172,3.131-0.363,5.667-0.658c-2.107,10.309-4.386,19.512-13.436,25.256
			c1.134-5.469,2.823-10.889,3.299-16.41c1.508-17.531-0.802-34.426-9.377-50.166c-8.951-16.432-18.723-32.199-33.363-44.326
			C246.65,402.783,244.881,402.236,243.11,401.693z M148.885,208.819c1.66,0.279,3.318,0.557,5.811,0.975
			c-1.712-2.448-2.873-4.186-4.112-5.867c-9.511-12.901-19.441-25.52-28.372-38.812c-3.898-5.802-5.759-12.973-8.546-19.522
			l-0.131,0.116c0.539,0.328,1.369,0.529,1.572,1.002c7.54,17.536,18.936,32.588,30.554,47.491
			c4.234,5.432,8.622,10.742,12.939,16.11c0.555-0.436,1.111-0.873,1.667-1.308c-0.833-1.576-1.486-3.283-2.526-4.706
			c-9.636-13.166-19.768-25.994-28.902-39.496c-9.651-14.267-16.083-29.962-16.614-47.554c-0.333-11.025,1.775-21.315,8.442-30.492
			c8.08-11.119,20.267-13.827,31.839-6.462c3.083,1.964,5.714,4.637,9.011,7.362c-0.622-9.433-6.221-14.953-13.581-18.221
			c-9.293-4.127-19.301-4.815-28.257,0.887c-24.254,15.439-29.152,39.082-24.926,65.704c3.386,21.337,15.001,38.977,28.128,55.562
			c5.095,6.438,10.913,12.305,16.4,18.432c0.533-0.445,1.064-0.891,1.596-1.336c-13.454-14.953-26.454-30.207-33.896-49.154
			c1.924,1.743,3.244,3.893,4.714,5.936c9.53,13.245,18.915,26.601,28.82,39.56c1.634,2.141,5.591,2.506,8.475,3.692
			L148.885,208.819z M134.765,261.654l0.022-0.454c1.42-0.337,2.84-0.674,5.174-1.231c-7.896-7.128-16.424-8.777-26.184-8.969
			c0,6.099,0,11.596,0,16.843c-7.426-1.708-14.485-3.331-22.903-5.265c0.393,6.331,0.349,10.737,1.023,15.029
			c0.667,4.25,2.06,8.385,3.134,12.572c-0.632-0.356-1.264-0.71-1.896-1.066c-4.43,5.357-12.39,10.767-12.308,16.054
			c0.084,5.438,8.016,10.752,12.751,16.404c-0.728,5.846-1.688,12.76-2.411,19.697c-0.396,3.807,1.093,5.76,5.37,4.779
			c5.412-1.242,10.891-2.186,17.127-3.41c0,5.082,0,10.102,0,15.586c10.068,0.264,18.607-1.215,25.167-8.742
			c-3.521,0.498-6.795,1.777-10.139,2.84c-3.648,1.158-7.361,2.111-12.123,3.463c0.331-5.047,0.307-8.766,0.889-12.387
			c0.544-3.387,1.731-6.67,2.998-11.334c0.582,2.314,0.975,3.268,1.044,4.246c0.698,10.014,1.423,10.813,8.596,9.102
			c-0.181,1.109-0.357,2.184-0.543,3.318c11.762-5.895,11.762-5.895,11.959-10.818c-4.655-1.941-10.086-2.545-12.079-5.48
			c-2.265-3.334-1.457-8.762-1.733-11.127c-4.677-4.443-8.896-7.336-11.566-11.279c-3.163-4.668-0.741-14.081,4.216-16.083
			c2.189-0.885,7.306,0.982,8.562,3.102c4.086,6.896,8.302,2.686,12.626,1.567c-3.817-1.963-8.915-2.32-11.297-5.049
			c-2.477-2.837-3.559-8.114-3.076-12.059c1.006-8.213,7.973-8.42,16.966-8.087C140.221,268.501,137.492,265.078,134.765,261.654z
			 M99.329,501.975c-4.76-19.592-0.561-38.307,8.81-55.188c9.085-16.365,20.802-31.273,30.489-45.533
			c-0.02,0.016-1.645,0.945-2.905,2.234c-14.671,14.982-26.957,31.779-35.063,51.105c-8.508,20.283-10.256,41.061-1.125,62.02
			c7.285,16.725,21.883,26.598,39.834,25.992c11.44-0.389,21.183-9.389,22.961-22.883c-2.629,3.141-4.076,5.342-5.967,7.055
			c-11.82,10.703-28.158,7.813-36.613-5.688c-9.55-15.248-8.551-31.305-4.232-47.4c4.851-18.082,15.542-33.197,26.739-47.904
			c6.267-8.23,12.384-16.576,18.567-24.869c-0.469-0.461-0.939-0.918-1.408-1.377c-1.742,1.521-3.844,2.785-5.168,4.609
			c-10.119,13.949-20.828,27.543-29.914,42.143c-11.657,18.732-19.011,38.961-14.373,61.816c-1.326-4.828-2.921-9.744-2.809-14.621
			c0.517-22.49,9.366-42.109,22.187-60.082c7.932-11.115,16.372-21.869,24.585-32.783c-2.902,0.764-5.432,2.244-7.058,4.404
			c-8.707,11.568-18.09,22.764-25.545,35.109c-12.465,20.646-21.814,42.461-14.577,67.58c0.803,2.789,1.71,5.551,2.569,8.326
			c-5.13-8.834-7.859-18.252-6.99-28.457c2.113-24.826,12.844-46,27.899-65.285c5.613-7.191,11.454-14.203,17.192-21.297
			c-0.521-0.424-1.042-0.844-1.563-1.266c-12.262,10.637-20.914,24.33-29.98,37.623C102.602,456.82,96.756,478.27,99.329,501.975z
			 M204.655,469.564c0.417-2.943,0.658-4.631,0.956-6.729c0.867,1.182,1.38,1.883,1.799,2.455c1.929-3.92,3.854-7.832,5.727-11.637
			c2.788,1.564,5.278,2.963,7.768,4.361c0.029-0.162,0.059-0.322,0.089-0.484c2.576,1.334,5.151,2.672,8.473,4.393
			c-0.667-2.326-1.121-3.906-1.792-6.242c1.566,1.732,2.55,2.818,3.438,3.803c0.599-2.658,1.442-4.873,1.526-7.117
			c0.163-4.244,1.542-6.211,6.254-5.49c1.647,0.254,3.604-1.51,5.892-2.57c-0.125-0.119,0.918,0.848,2.266,2.098
			c2.102-11.82-8.069-16.215-12.568-24.852c-0.561,19.701-7.489,23.453-24.194,14.029c-3.265,7.889-8.702,13.113-17.673,13.262
			c-9.308,0.156-14.49-5.873-18.068-14.059c-5.398,5.416-11.613,9.041-16.903,4.877c-4.157-3.275-5.572-10.027-8.415-15.654
			c-4.467,6.088-9.473,12.908-14.479,19.729c0.247,0.262,0.495,0.521,0.741,0.781c1.064-0.541,2.127-1.08,3.307-1.678
			c0.228,1.426,0.447,2.801,0.73,4.568c3.073-0.926,6.27,1.82,9.439-0.607c0.231-0.178,2.002,0.895,2.283,1.666
			c1.338,3.691,2.41,7.479,3.513,11.033c0.576-0.66,1.882-2.154,3.019-3.455c5.288,4.668,8.546,1.369,12.009-3.951
			c3.275,5.361,6.009,9.836,8.327,13.631c0.029-0.141,0.276-1.342,0.523-2.543c0.281,0.045,0.562,0.094,0.843,0.143
			c0.255,2.264,0.511,4.531,0.937,8.313c1.223-4.021,1.97-6.477,3.003-9.873c0.504,2.195,0.745,3.242,1.458,6.352
			c0.569-3.713,0.821-5.354,1.163-7.592c0.766,1.375,1.187,2.135,1.336,2.404c7.378-4.502,11.758-1.713,14.404,6.484
			c0.474-2.502,0.764-4.025,1.275-6.717C203.684,465.379,204.03,466.877,204.655,469.564z M182.053,375.891
			c-1.043,4.961-1.837,8.74-2.719,12.932c-0.607-1.055-1.009-1.75-1.473-2.553c-7.309,10.049-14.589,20.057-21.871,30.066
			c0.457,0.459,0.914,0.918,1.37,1.377c6.742-4.367,13.485-8.736,20.193-13.084c4.645,5.988,9.386,12.098,15.263,19.674
			c5.626-7.855,10.154-14.178,14.296-19.959c6.754,4.264,13.835,8.734,20.913,13.205c0.27-0.516,0.539-1.029,0.808-1.543
			c-8.919-12.547-17.837-25.092-26.711-37.576c-0.392,1.908-0.883,4.303-1.636,7.977c-0.894-5.721-1.57-10.037-2.244-14.354
			c-0.235,0.02-0.471,0.037-0.708,0.057c-0.302,1.947-0.604,3.895-0.908,5.844c-0.44-0.016-0.878-0.029-1.317-0.043
			c0-6.158,0-12.32,0-18.479c-0.419,0.004-0.841,0.006-1.26,0.01c-0.669,6.469-1.337,12.939-2.006,19.41
			c-0.314-0.01-0.628-0.018-0.943-0.027c0-6.672,0-13.346,0-20.018c-0.385-0.01-0.769-0.02-1.154-0.029
			c-0.307,7.006-0.613,14.01-0.918,21.012c-0.434-0.01-0.867-0.021-1.302-0.031c-0.341-3.695-0.681-7.395-1.022-11.09
			c-0.333,0.018-0.667,0.033-1,0.051c-0.226,4.059-0.452,8.117-0.739,13.262C183.787,379.514,183.155,378.193,182.053,375.891z
			 M80.736,319.041c-14.361,9.682-15.312,32.641-6.241,49.141c9.555,17.377,34.668,30.395,45.663,26.217
			c-9.162-3.977-18.874-7.43-27.831-12.275c-10.434-5.643-17.663-16.725-16.974-23.9c7.688,17.377,21.216,26.25,39.627,28.162
			c-8.719-5.883-20.235-7.365-26.936-16.537c3.798,1.621,7.151,4.049,10.826,5.797c3.673,1.746,7.671,2.814,11.526,4.178
			c0.341-0.654,0.681-1.309,1.021-1.965c-12.98-4.344-24.315-10.543-29.29-24.875c10.028,13.912,20.623,20.545,29.574,17.906
			c-5.104-2.475-9.683-4.396-13.968-6.832c-13.423-7.633-18.67-21.734-13.574-35.879c3.834-10.637,3.836-10.641-5.908-17.111
			c-0.931-0.621-1.903-1.18-3.014-1.863c-2.805,5.018-5.413,9.684-8.021,14.348c0.401,0.367,0.804,0.732,1.205,1.098
			C72.526,322.779,76.632,320.912,80.736,319.041z M243.52,497.922c1.467,0.928,3.209,2.027,6.302,3.982
			c-1.405-3.234-2.102-4.838-3.576-8.232c2.395,2.529,3.493,3.689,5.316,5.617c-0.17-2.361-0.251-3.508-0.354-4.912
			c1.146,0.889,2.004,1.555,3.16,2.449c0.256-1.746,0.463-3.158,0.774-5.262c1.186,2.035,1.984,3.406,3.097,5.314
			c0.356-2.041,0.619-3.543,0.802-4.6c1.955,0.521,4.513,2.008,5.544,1.293c1.812-1.256,3.913-3.971,3.737-5.875
			c-0.558-6.053-2.11-12.012-3.277-18.006c-0.692-0.014-1.384-0.025-2.076-0.039c-2.012,2.666-4.022,5.336-5.363,7.113
			c-4.057-1.914-7.502-3.539-10.948-5.166c-1.669,3.816-3.338,7.629-5.104,11.664c-13.426-2.738-14.544-1.396-10.539,14.184
			c-8.548,4.824-9.556,6.732-7.432,14.076c2.887,9.992,11.136,15.146,24.375,14.352c-4.331-1.498-7.544-2.609-10.757-3.723
			c0.049-0.264,0.099-0.529,0.148-0.793c2.215,0.199,4.43,0.393,6.359,0.563c-1.174-3.361-2.353-6.732-3.123-8.938
			c0.582-2.369,0.956-3.896,1.366-5.564c0.839,0.09,2.248,0.244,4.156,0.453C245.155,504.209,244.36,501.154,243.52,497.922z
			 M146.757,512.189c-1.219,1.48-2.335,2.836-3.508,4.262c1.171,0.521,1.993,0.889,3.045,1.359
			c-1.938,1.703-3.308,2.906-5.905,5.191c3.942-0.744,6.13-1.158,8.319-1.572c0.079,0.26,0.157,0.516,0.235,0.773
			c-3.18,1.24-6.361,2.48-10.483,4.088c13.063,1.076,20.719-4.305,24.092-15.654c2.286-7.686-2.74-10.432-7.036-12.422
			c0-5.178,1.652-10.959-0.528-13.83c-1.717-2.266-8.158-0.941-11.978-1.18c-1.189-3.418-2.516-7.229-3.842-11.039
			c-3.734,1.793-7.466,3.588-11.142,5.354c-1.676-2.104-3.767-4.732-5.857-7.359c-0.669,0.246-1.338,0.496-2.006,0.744
			c-1.367,8.393-2.736,16.783-4.158,25.516c3.017-2.596,5.008-4.309,6.228-5.357c1.707,2.303,3.166,4.275,4.885,6.596
			c1.625-2.803,2.772-4.783,3.846-6.635c0.9,2.889,1.78,5.709,2.724,8.738c1.971-1.545,3.292-2.58,5.028-3.941
			c-0.394,2.264-0.661,3.795-1.07,6.139c2.112-1.787,3.419-2.895,4.864-4.117c-0.976,3.643-1.834,6.855-2.868,10.713
			c2.398-0.439,4.093-0.752,6.18-1.135c-0.9,1.416-1.507,2.369-2.154,3.387C144.7,511.27,145.664,511.701,146.757,512.189z
			 M258.072,111.736c-1.456,2.593-2.246,4-2.094,3.728c-2.369-1.701-4.604-3.306-6.841-4.91c-0.377,0.527-0.758,1.056-1.138,1.585
			c0.213-1.418,0.425-2.834,0.768-5.109c-2.48,1.925-4.167,3.237-5.572,4.327c0.425-3.32,0.816-6.381,1.247-9.741
			c-1.925,0.482-3.226,0.808-5.364,1.343c1.612-1.923,2.716-3.238,4.009-4.782c-1.899,0.153-3.497,0.28-5.095,0.408
			c-0.176-0.339-0.352-0.678-0.529-1.018c1.539-1.012,3.076-2.025,5.043-3.32c-1.852-0.836-2.768-1.25-3.845-1.736
			c1.768-1.503,3.424-2.91,6.25-5.313c-3.768,0.379-5.952,0.599-8.135,0.818c-0.047-0.177-0.095-0.354-0.143-0.532
			c2.76-1.026,5.52-2.054,9.946-3.7c-11.954-0.824-19.877,3.956-22.925,12.491c-2.883,8.073-2.257,9.509,7.067,16.172
			c-4.146,12.814-2.628,14.638,10.927,14.078c1.521,3.978,2.952,7.721,4.383,11.463c3.7-1.813,7.398-3.625,11.132-5.454
			c1.777,2.119,3.912,4.666,7.299,8.705c1.903-9.29,3.42-16.696,4.938-24.104c-0.531-0.17-1.063-0.341-1.595-0.511
			c-0.849,1.767-1.698,3.536-2.135,4.444c-1.728-2.128-3.378-4.161-5.026-6.194c-0.424,0.746-0.845,1.489-1.51,2.664
			C258.809,115.758,258.57,114.46,258.072,111.736z M139.531,101.004c1.284,4.091,2.456,7.824,3.627,11.556
			c-0.542,0.575-1.084,1.148-1.628,1.724c-1.629-2.431-3.259-4.862-4.888-7.293c-0.14,0.156-0.28,0.312-0.42,0.467
			c0.847,2.046,1.692,4.094,2.276,5.507c-2.565-0.421-5.03-0.824-7.84-1.286c0.345,3.04,0.584,5.145,1.058,9.319
			c-2.175-3.999-3.339-6.137-4.685-8.612c-1.737,2.341-3.285,4.432-5.181,6.988c-1.321-1.285-3.26-3.172-6.254-6.087
			c1.606,9.109,3.074,17.433,4.542,25.757c0.792,0.059,1.584,0.117,2.376,0.175c1.796-2.506,3.592-5.013,5.465-7.625
			c3.356,2.372,6.754,4.772,11.324,8c1.401-5.525,2.403-9.473,3.183-12.545c4.436-0.601,10.685,0.214,12.124-2.041
			c2.034-3.188,0.516-8.641,0.516-13.724c3.803-2.604,9.953-4.381,6.902-12.628c-4.229-11.432-10.456-16.242-23.413-15.479
			c3.406,1.535,5.905,2.661,9.024,4.067c-2.59,0-4.439,0-7.236,0c2.564,2.022,4.31,3.398,6.892,5.436
			c-2.523-0.158-3.964-0.247-6.482-0.405c2.912,2.309,4.942,3.918,6.973,5.529c-0.285,0.298-0.569,0.598-0.854,0.896
			c-1.462-0.368-2.925-0.736-4.953-1.248c1.084,1.631,1.796,2.702,2.925,4.4C142.57,101.484,141.282,101.281,139.531,101.004z
			 M263.688,215.579c12.921,4.316,25.951,8.158,35.952,18.149c9.926,9.92,14.707,24.591,11.532,37.478
			c1.59-32.035-24.024-48.127-42.643-47c11.688,5.301,24.746,8.583,31.988,20.483c-7.773-6.513-15.88-12.284-26.476-13.398
			c10.242,5.457,21.162,9.932,26.144,21.689c-7.086-7.668-14.927-13.945-26.311-14.428c9.369,5.627,20.938,9.067,25.16,20.163
			c4.227,11.112,2.594,22.468-2.312,33.415c3.854,2.935,7.523,5.728,11.909,9.065c2.911-5.069,5.556-9.672,8.201-14.276
			c-0.414-0.368-0.828-0.736-1.244-1.104c-4.459,1.988-8.917,3.975-13.378,5.964c7.402-4.001,10.405-10.233,11.898-18.089
			c4.184-22.002-4.501-38.432-22.117-50.405C283.856,217.751,274.52,213.727,263.688,215.579z M296.652,317.25
			c5.239,10.92,6.354,21.924,2.695,32.959c-3.904,11.775-16.512,13.896-25.062,20.584c11.316-0.201,18.767-7.064,26.012-14.359
			c-5.2,11.496-15.936,16.154-25.998,21.621c16.216-3.051,27.265-12.248,33.557-27.439c-0.954,3.902-2.121,7.674-4.135,10.918
			c-6.725,10.846-17.155,16.648-28.92,20.563c-2.189,0.727-4.128,2.203-6.182,3.332c0.347,0.711,0.694,1.42,1.043,2.131
			c5.655-1.926,11.691-3.152,16.855-5.973c5.229-2.857,10.321-6.678,14.133-11.205c3.781-4.494,6.661-10.141,8.516-15.75
			c1.766-5.342,1.694-11.287,2.479-17.336c4.832,24.76-13.073,46.002-35.779,51.861c-3.967,1.023-7.817,2.49-11.721,3.75
			c0.176,0.693,0.354,1.385,0.531,2.078c3.146-0.367,6.404-0.332,9.423-1.166c16.514-4.555,30.178-13.426,36.816-29.607
			c3.049-7.434,3.582-16.254,3.642-24.459c0.061-8.23-2.274-16.281-10.178-21.441c4.093,1.889,8.185,3.775,14.178,6.539
			c-4.057-6.75-7.05-11.73-10.112-16.83C304.114,311.41,300.653,314.117,296.652,317.25z M313.585,391.775
			c1.198-8.027,2.29-15.34,3.356-22.492c-7.161,6.441-13.406,12.621-20.281,17.994c-3.204,2.502-4.382,4.004-3.153,8.363
			c3.706,13.146,1.693,24.906-10.22,33.699c-1.455,1.074-2.21,4.912-1.495,6.781c2.621,6.857,6,13.422,9.292,20.523
			c6.63-6.084,6.915-14.939,8.609-22.932c5.358-0.871,10.45-1.699,16.731-2.719c-2.46-5.063-4.217-8.676-5.91-12.16
			c2.614-1.787,5.388-3.682,8.801-6.012c-3.058-3.588-5.551-6.514-7.868-9.232c2.462-2.172,4.961-4.379,7.793-6.883
			C316.663,394.461,314.778,392.816,313.585,391.775z M104.866,433.02c-15.119-11.32-18.334-23.518-12.711-38.389
			c0.419-1.111,0.415-3.162-0.283-3.795c-7.627-6.904-15.431-13.617-24.453-21.482c1.321,8.307,2.492,15.684,3.671,23.098
			c-1.132,1.691-4.273,4.531-3.726,5.986c0.948,2.52,4.177,4.184,6.448,6.203c-8.971,8.596-8.965,9.225,0.319,15.629
			c-1.638,3.67-3.297,7.391-5.458,12.232c6.606,0.742,12.051,1.354,17.853,2.004c0.452,8.463,0.401,17.08,7.946,22.666
			C97.883,449.248,101.266,441.385,104.866,433.02z M86.135,175.7c-5.781,0.503-11.234,0.978-17.947,1.562
			c2.372,4.903,4.144,8.567,5.914,12.226c-9.707,5.935-9.721,6.681-0.278,15.775c-8.813,5.871-8.813,5.871-3.11,11.636
			c-1.089,8.18-2.045,15.362-3.106,23.329c8.069-9.607,14.927-17.773,23.189-27.611c-5.346-12.124-1.041-25.855,13.938-35.887
			c-3.621-8.293-7.012-16.059-10.481-24.004C86.057,158.581,87.277,167.567,86.135,175.7z M290.825,152.608
			c-3.171,6.891-6.45,13.271-8.967,19.939c-0.742,1.969-0.2,5.876,1.232,6.985c12.078,9.354,13.948,21.298,10.136,35.139
			c-0.454,1.654-0.262,4.392,0.799,5.414c7.063,6.805,14.443,13.281,23.163,21.169c-1.362-8.465-2.543-15.794-3.744-23.253
			c1.337-1.923,4.752-4.923,4.186-6.452c-0.918-2.484-4.44-4.008-6.896-5.963c9.462-8.33,9.45-8.854,0.071-15.381
			c1.613-3.728,3.226-7.453,5.316-12.289c-6.54-0.83-11.921-1.511-17.491-2.216C298.442,166.886,297.074,158.791,290.825,152.608z
			 M240.441,457.986c6.663,1.578,13.021,3.084,19.38,4.59c0.184-0.691,0.367-1.385,0.55-2.078c-7.76-3.215-15.521-6.428-23.515-9.74
			c-0.819,6.967-1.63,13.883-2.7,23.006c-7.997-6.021-14.047-10.576-20.005-15.063c-2.035,6.236-4.125,12.635-6.214,19.031
			c-0.883,0.215-1.768,0.432-2.651,0.648c-4.46-4.621-8.921-9.242-13.33-13.807c-3.645,4.135-7.829,8.877-12.011,13.623
			c-0.845-0.387-1.689-0.775-2.534-1.162c-2.18-5.928-4.358-11.854-6.507-17.695c-5.98,4.504-11.755,8.857-19.241,14.498
			c-1.425-9.113-2.48-15.861-3.539-22.629c-7.755,3.42-15.472,6.818-23.188,10.217c0.243,0.676,0.487,1.352,0.73,2.025
			c6.348-1.732,12.695-3.463,19.002-5.184c1.584,6.4,3.153,12.75,5,20.225c7.427-4.736,13.405-8.551,19.182-12.232
			c2.653,6.141,5.179,11.984,7.704,17.83c1.049,0.484,2.097,0.969,3.145,1.455c4.277-5.141,8.555-10.283,12.783-15.369
			c5.107,4.781,10.169,9.521,15.993,14.975c3.331-7.459,5.877-13.16,8.411-18.832c6.109,3.693,11.975,7.24,18.995,11.486
			C237.639,470.168,239.076,463.916,240.441,457.986z M166.213,334.469c-0.461-0.236-0.923-0.473-1.384-0.707
			c2.183-4.443,4.366-8.889,6.549-13.33c-0.286-0.109-0.571-0.221-0.858-0.328c-2.982,4.318-5.966,8.637-8.949,12.953
			c-0.238-0.201-0.476-0.4-0.712-0.604c2.078-4.074,4.156-8.15,6.393-12.535c-16.74,0.277-30.413,23.498-24.974,41.121
			c13.051-13.711,32.466-22.598,34.623-45.291C173.17,322.279,169.691,328.375,166.213,334.469z M220.021,278.662
			c0.557,0.526,1.11,1.053,1.666,1.581c-1.319,2.645-2.638,5.291-4.212,8.443c7.526-3.993,16.812-2.393,20.151-12.347
			c3.021-9.002,6.427-17.582,5.159-27.768c-32.14,28.46-33.846,30.681-35.145,45.5c2.453-4.934,4.908-9.868,7.77-15.621
			c0.72,2.208,1.066,3.272,1.687,5.175C218.218,281.721,219.12,280.191,220.021,278.662z M160.464,269.887
			c0.439-0.281,0.877-0.563,1.315-0.845c5.028,7.945,10.056,15.888,14.775,23.342c-1.305-13.998-17.057-33.725-35.366-43.752
			c-1.195,15.435,9.929,42.166,16.706,39.26c0.513-1.617,1.091-3.442,2.482-7.835c1.933,3.652,3.136,5.928,4.34,8.203
			c0.371-0.347,0.744-0.696,1.116-1.044c-0.914-2.378-1.829-4.758-2.743-7.135c0.256-0.088,0.511-0.178,0.767-0.266
			c1.761,2.399,3.521,4.798,5.28,7.197c0.432-0.288,0.864-0.576,1.295-0.863C167.109,280.728,163.786,275.307,160.464,269.887z
			 M242.832,360.971c0.234-1.561,0.568-2.447,0.458-3.273c-0.699-5.311-0.864-10.805-2.439-15.852
			c-1.653-5.293-3.989-10.703-7.365-15.014c-2.376-3.035-6.989-4.32-10.604-6.389c-0.23,0.289-0.461,0.578-0.694,0.867
			c1.748,2.871,3.495,5.744,5.243,8.615c-0.308,0.172-0.617,0.346-0.925,0.52c-2.557-3.441-5.113-6.881-7.67-10.324
			c-0.403,0.242-0.808,0.484-1.211,0.727c1.469,3.033,2.938,6.068,4.408,9.104c-0.482,0.346-0.964,0.688-1.447,1.033
			c-1.008-1.723-2.017-3.445-3.026-5.166c-0.53,0.406-1.059,0.813-1.59,1.219c1.96,3.256,3.918,6.514,5.877,9.771
			c-3.343-2.561-5.752-5.691-7.857-9.016c-1.951-3.08-3.576-6.367-5.345-9.563C211.022,339.566,229.782,347.459,242.832,360.971z
			 M141.288,305.023c7.928,9.684,18.878,12.324,28.366,7.115c-1.783-0.938-3.568-1.879-5.91-3.111c2.36-0.92,4.21-1.641,7.147-2.787
			c-3.474-0.359-5.768-0.596-9.354-0.965c3.733-1.236,6.123-2.027,9.422-3.119c-3.043-0.44-5.119-0.74-7.158-1.035
			c2.625-0.974,5.089-1.889,8.743-3.245C158.254,292.022,149.208,294.325,141.288,305.023z M222.631,301.187
			c-3.305,0.319-5.639,0.546-8.958,0.868c2.543,1.399,3.972,2.188,5.972,3.289c-2.513,0.379-4.186,0.631-5.857,0.881
			c0.009,0.238,0.019,0.477,0.026,0.715c1.62,0.295,3.237,0.592,5.065,0.926c-1.467,1.938-2.589,3.418-3.906,5.156
			c9.299,2.785,17.75,1.865,24.735-5.049c1.157-1.146,1.527-4.892,0.575-6.081c-6.529-8.131-18.797-9.59-28.258-3.259
			C215.606,299.494,218.622,300.222,222.631,301.187z M153.22,365.521c-7.119,2.648-7.127,2.648-7.19,8.365
			c-0.024,2.098-0.001,4.195,0.006,6.291c0.059,15.768,0.075,15.904,15.701,14.09c2.215-0.256,4.188-2.58,6.274-3.945
			c-0.309-0.637-0.618-1.271-0.926-1.908c-4.488-0.24-8.977-0.48-13.865-0.744C153.22,380.045,153.22,373.09,153.22,365.521z
			 M146.459,215.266c-0.908,27.66-1.731,27.451,7.063,28.225c0-7.17,0-14.276,0-22.198c5.203,0,9.644,0,15.651,0
			C162.146,211.825,153.873,216.995,146.459,215.266z M237.672,214.795c-7.663,2.915-16.273-3.647-21.89,6.426
			c5.54,0.306,10.05,0.555,15.268,0.843c0,7.693,0,14.752,0,21.813c0.682,0.304,1.365,0.606,2.048,0.911
			c1.524-2.072,4.202-4.056,4.365-6.229C238.013,231.204,237.672,223.782,237.672,214.795z M217.202,387.504
			c-0.185,0.785-0.368,1.572-0.553,2.355c5.518,7.631,13.563,1.918,20.186,3.746c3.329-18.225,1.499-27.045-5.811-27.904
			c0,6.965,0,13.891,0,21.381c-2.557,0.15-4.818,0.338-7.08,0.406C221.697,387.555,219.448,387.504,217.202,387.504z
			 M178.121,304.473c0.05,8.042,6.091,13.974,14.165,13.908c7.734-0.061,14.143-6.697,14.003-14.502
			c-0.148-8.257-6.051-13.793-14.54-13.635C183.283,290.399,178.066,295.849,178.121,304.473z M134.658,518.594
			c0.209-7.336-4.126-13.678-9.173-14.988c-5.18-1.346-7.986,1.02-6.294,6.037c1.291,3.83,3.624,7.457,6.155,10.65
			c1.362,1.719,4.544,3.625,6.127,3.1C133.225,522.813,134.087,519.551,134.658,518.594z M256.5,525.398
			c3.871-5.783,7.832-10.555,10.459-15.973c2.27-4.684-1.292-7.848-6.548-6.52C251.658,505.119,248.526,516.428,256.5,525.398z
			 M264.057,106.474c0.656-1.084,3.419-3.845,2.858-5.033c-2.319-4.909-5.375-9.565-8.834-13.761
			c-0.688-0.835-5.536,0.005-6.409,1.379C247.742,95.234,254.639,106.53,264.057,106.474z M134.205,91.975
			c-0.398-0.915-1.458-3.35-2.519-5.782c-2.509,1.206-5.762,1.803-7.354,3.757c-2.558,3.141-4.299,7.061-5.859,10.868
			c-1.414,3.449,0.351,5.193,4.014,5.452C128.271,106.678,133.594,101.061,134.205,91.975z M132.715,331.754
			c1.486,0.408,1.788,0.588,1.898,0.506c5.883-4.316,11.772-8.627,17.518-13.119c0.188-0.146-1.063-3.166-1.719-3.195
			c-5.144-0.234-10.309-0.137-15.46,0.059c-0.692,0.025-1.75,1.049-1.943,1.793c-0.993,3.84-1.761,7.74-2.814,12.566
			c3.456-2.002,5.714-3.311,7.97-4.619c0.257,0.346,0.513,0.693,0.769,1.039C137.177,328.186,135.421,329.59,132.715,331.754z
			 M202.409,416.338c-3.295,4.93-7.366,8.6-8.203,12.898c-0.988,5.082,0.817,10.709,1.411,16.098
			c0.366-0.008,0.732-0.016,1.101-0.025c0.235-2.375,0.471-4.756,0.687-6.945c0.918,1.268,1.873,2.586,3.508,4.846
			c-1.165-6.176-2.094-11.105-3.022-16.033c0.39-0.123,0.78-0.25,1.17-0.375c1.229,2.596,2.457,5.193,3.356,7.1
			c1.938-0.707,3.497-1.275,5.254-1.916C206.173,427.533,204.497,422.547,202.409,416.338z M130.412,284.861
			c5.562,7.593,13.709,9.63,23.374,6.438c-5.861-3.975-8.143-12.41-17.785-12.031c1.675,1.911,2.886,3.293,4.096,4.673
			c-0.24,0.282-0.48,0.565-0.719,0.847c-2.743-1.711-5.485-3.424-8.228-5.135c-0.344,0.537-0.688,1.075-1.033,1.612
			c4.407,2.829,8.813,5.657,13.219,8.485c-0.147,0.281-0.293,0.562-0.441,0.843C139.067,288.834,135.237,287.076,130.412,284.861z
			 M244.823,284.945c-0.331-0.284-0.665-0.565-0.996-0.848c1.601-1.316,3.2-2.632,4.765-3.918c-0.876-1.481-1.678-2.836-2.334-3.944
			c-4.821,5.291-9.674,10.616-14.157,15.537c10.466,3.426,14.711,2.466,21.136-6.297c-4.417,1.928-7.973,3.479-11.529,5.031
			c-0.122-0.298-0.243-0.595-0.366-0.893c4.308-2.624,8.614-5.25,12.921-7.875c-0.357-0.586-0.716-1.171-1.071-1.759
			C250.4,281.635,247.612,283.289,244.823,284.945z M240.638,319.256c0.157-0.307,0.315-0.611,0.473-0.914
			c4.158,1.953,8.318,3.908,13.915,6.537c-6.382-8.063-17.742-10.811-23.938-6.141c7.78,3.535,15.111,6.865,22.443,10.195
			c0.269-0.494,0.54-0.99,0.81-1.484C249.771,324.721,245.205,321.986,240.638,319.256z M189.213,270.044
			c0.758-8.866-11.329-38.545-17.043-41.128C177.914,242.778,183.707,256.757,189.213,270.044z M199.762,188.796
			c1.797-5.446,3.46-10.48,5.122-15.514c-0.429-0.162-0.859-0.323-1.29-0.484c-1.491,3.001-2.984,6.001-4.875,9.805
			c-0.817-6.567-1.509-12.135-2.204-17.701C194.455,173.172,190.457,181.635,199.762,188.796z M112.2,210.423
			c-3.646-5.762-11.952-5.614-19.757,0.481c4.348-0.801,7.686-1.415,11.023-2.031c0.027,0.22,0.054,0.439,0.081,0.66
			c-2.858,1.368-5.717,2.736-8.577,4.103c0.206,0.509,0.412,1.02,0.619,1.53C101.062,213.602,106.536,212.04,112.2,210.423z
			 M112.772,399.096c-6.145-1.645-11.722-3.139-17.297-4.635c-0.185,0.582-0.371,1.16-0.555,1.74
			c4.011,1.551,8.021,3.104,12.032,4.658c-0.083,0.252-0.167,0.506-0.25,0.758c-4.308-0.881-8.615-1.766-12.921-2.646
			C102.873,404.537,108.786,404.439,112.772,399.096z M277.49,199.625c-5.802-0.903-10.088-1.572-14.377-2.239
			c-0.159,0.691-0.314,1.38-0.474,2.07c2.11,1.063,4.219,2.128,6.153,3.103c-0.456,2.426-0.893,4.727-1.325,7.028
			c0.464,0.221,0.929,0.444,1.395,0.665C271.385,207.146,273.905,204.042,277.49,199.625z M116.034,209.462
			c0.495-0.505,0.992-1.009,1.487-1.515c-0.738-1.839-1.476-3.68-2.205-5.496c2.216-1.268,4.209-2.407,6.203-3.547
			c-0.182-0.629-0.365-1.258-0.548-1.886c-4.445,0.709-8.892,1.418-14.224,2.268C110.164,203.031,113.099,206.246,116.034,209.462z
			 M115.754,407.219c0.671-2.252,1.32-4.432,1.97-6.611c-0.577-0.32-1.154-0.643-1.731-0.965c-2.592,3.279-5.184,6.557-8.46,10.701
			c5.313,0.846,9.529,1.518,13.745,2.188c0.12-0.746,0.239-1.498,0.36-2.246C119.669,409.26,117.702,408.234,115.754,407.219z
			 M179.248,179.713c-0.377,0.219-0.753,0.438-1.13,0.657c1.535,4.02,3.07,8.042,4.775,12.507
			c5.758-8.377,1.039-14.758-3.016-21.175c0.896,3.596,1.792,7.192,2.971,11.923C181.063,181.688,180.155,180.701,179.248,179.713z
			 M185.898,185.577c6.461-4.142,6.749-10.674,2.195-22.318C187.299,171.343,186.672,177.707,185.898,185.577z M106.694,407.127
			c-0.007-0.607-0.016-1.213-0.023-1.822c-4.804-0.809-9.608-1.621-14.414-2.432c-0.137,0.602-0.274,1.207-0.41,1.811
			c0.984,0.682,1.97,1.365,2.689,1.861c-0.977,0.877-1.941,1.734-3.789,3.387c5.087,0,8.806,0,14.476,0
			c-2.65-1.299-3.403-1.666-4.481-2.191C102.916,407.514,104.804,407.322,106.694,407.127z M268.952,399.383
			c-0.439,0.289-0.881,0.578-1.321,0.867c0.453,2.271,0.905,4.543,1.341,6.725c-2.301,0.977-4.244,1.803-6.186,2.627
			c0.155,0.666,0.311,1.334,0.469,2.002c4.534-0.668,9.068-1.336,14.375-2.117C274.34,405.654,271.646,402.52,268.952,399.383z
			 M158.924,436.859c8.726-7.834,12.883-16.26,14.113-26.295C168.625,418.787,164.213,427.008,158.924,436.859z M120.479,201.282
			c-0.458,0.946-0.916,1.895-1.373,2.841c1.158,7.8,6.735,3.364,10.187,4.811c0.403-0.968,0.806-1.938,1.209-2.908
			C127.16,204.444,123.82,202.863,120.479,201.282z M161.427,173.194c-0.619,0.347-1.239,0.693-1.858,1.04
			c4.371,8.095,8.742,16.19,13.114,24.286c0.668-0.374,1.338-0.746,2.007-1.12C170.269,189.331,165.848,181.263,161.427,173.194z
			 M268.313,403.666c-5.311-1.721-8.969-2.908-14.111-4.576C258.547,408.32,259.896,408.809,268.313,403.666z M216.083,178.542
			c-5.564,6.74-8.98,14.266-8.377,23.216C210.497,194.021,213.291,186.283,216.083,178.542z M254.643,208.035
			c8.627,1.446,8.627,1.446,11.053-4.175C258.731,201.288,258.731,201.288,254.643,208.035z M264.024,381.199
			c-6.599-0.998-12.883-1.949-19.175-2.902C247.113,383.232,256.057,384.621,264.024,381.199z M244.472,236.129
			c6.776-0.493,13.553-0.985,21.302-1.548C257.79,231.506,250.982,231.519,244.472,236.129z M118.545,375.467
			c8.358,3.049,14.782,2.814,20.904-1.613C133.11,374.34,126.771,374.83,118.545,375.467z M117.611,368.477
			c8.152,2.873,14.988,5.438,22.116,0C132.931,368.477,126.132,368.477,117.611,368.477z M243.844,373.135
			c6.518,5.246,15.571,5.367,21.099,1.635C258.911,374.303,251.909,373.76,243.844,373.135z M244.789,368.184
			c0.063,0.979,0.126,1.961,0.19,2.941c6.559-0.469,13.116-0.938,19.675-1.406c-0.044-0.512-0.088-1.023-0.132-1.535
			C257.945,368.184,251.367,368.184,244.789,368.184z M119.313,405.895c0.5,0.9,1,1.801,1.5,2.701
			c3.161-1.729,6.321-3.453,9.482-5.18c-0.328-0.615-0.656-1.23-0.984-1.844C125.382,401.709,120.01,398.705,119.313,405.895z
			 M130.928,312.164c-2.169,1.42-3.993,2.611-5.815,3.805c0.227,0.357,0.453,0.717,0.68,1.076c4.193-1.59,8.386-3.184,11.372-4.314
			c0.409-1.627,0.617-2.398,0.783-3.18c0.029-0.139-0.122-0.318-0.312-0.766c-3.333,0.492-6.742,0.99-10.151,1.492
			c0.061,0.33,0.12,0.658,0.181,0.984C128.549,311.506,129.432,311.75,130.928,312.164z M121.026,238.945
			c0.049,0.441,0.097,0.886,0.145,1.328c6.086,0,12.171,0,18.257,0c-0.058-0.79-0.116-1.58-0.176-2.369
			C133.177,238.251,127.102,238.599,121.026,238.945z M140.798,230.628c-6.537-5.348-14.691-6.029-19.089-2.658
			C127.455,228.771,133.463,229.608,140.798,230.628z M261.459,240.755c0.059-0.502,0.119-1.007,0.178-1.51
			c-5.691,0-11.383,0-17.075,0c-0.007,0.503-0.015,1.008-0.02,1.51C250.181,240.755,255.82,240.755,261.459,240.755z"/>
		<path style="fill-rule:evenodd;clip-rule:evenodd;fill:#25375C;" d="M267.001,276.353c6.531-3.081,13.06-6.163,19.591-9.247
			c0.74,0.538,1.479,1.073,2.219,1.609c-1.158,7.52-2.317,15.042-3.555,23.068c4.241,3.552,9.313,7.797,15.292,12.802
			c-5.963,5.053-10.856,9.199-15.301,12.965c1.244,7.545,2.468,14.961,3.99,24.203c-8.738-3.426-17.342-1.635-21.967-9.787
			c0.002-0.002-0.063,0.189-0.063,0.188c4.273,0.504,8.548,1.008,12.563,1.48c-0.32-2.639-0.808-6.664-1.297-10.689
			c0.678,0.148,1.354,0.295,2.914,0.631c-1.438-3.408-2.673-6.34-3.887-9.221c2.335-0.898,5.265-2.021,8.425-3.234
			c-0.922-0.811-1.663-1.467-3.169-2.795c3.585-0.529,6.409-0.947,9.232-1.363c0.019-0.258,0.039-0.518,0.059-0.779
			c-1.73-0.27-3.464-0.545-5.99-0.941c1.92-1.137,3.323-1.967,5.613-3.324c-3.593-0.271-6.086-0.46-9.562-0.722
			c1.691-1.379,2.771-2.258,3.952-3.221c-2.851-1.086-5.871-2.236-8.19-3.118c0.727-5.899,1.538-12.473,2.156-17.477
			C274.459,276.941,270.729,276.647,267.001,276.353z"/>
		<path style="fill-rule:evenodd;clip-rule:evenodd;fill:#25375C;" d="M248.422,403.324c2.782,3.885,5.373,7.928,8.385,11.627
			c14.469,17.754,26.422,36.934,30.338,59.822c1.913,11.174,2.521,22.809-2.416,33.836c3.807-14.986,2.367-29.539-1.971-44.25
			c-4.813-16.313-14.552-29.592-24.233-42.99c-4.875-6.748-10.261-13.127-15.414-19.676
			C244.881,402.236,246.65,402.783,248.422,403.324z"/>
		<path style="fill-rule:evenodd;clip-rule:evenodd;fill:#25375C;" d="M116.512,275.219c0.52-1.813,1.557-3.655,1.464-5.436
			c-0.259-4.977-0.988-9.928-1.53-14.889c0.615-0.606,1.231-1.211,1.846-1.815c5.499,2.707,10.997,5.413,16.495,8.121l-0.022,0.454
			c-1.371,0.18-2.742,0.358-4.113,0.537c0.017,0.185,0.034,0.37,0.05,0.555c-2.995,0.261-5.989,0.522-8.326,0.726
			c-0.216,3.3-0.116,7.569-0.875,11.68c-0.669,3.625-3.059,2.098-5.001,0.803C116.504,275.708,116.508,275.465,116.512,275.219z"/>
		<path style="fill-rule:evenodd;clip-rule:evenodd;fill:#25375C;" d="M249.246,261.866c4.699-5.688,11.11-6.388,18.938-6.934
			c-0.667,5.862-1.363,10.817-1.726,15.798c-0.134,1.822,0.519,3.701,0.812,5.554c-1.102,0.824-2.202,1.648-4.153,3.109
			c-0.483-3.618-1.198-6.539-1.198-9.462c-0.003-7.168-4.993-10.07-11.728-6.607C249.876,262.837,249.561,262.353,249.246,261.866z"
			/>
		<path style="fill-rule:evenodd;clip-rule:evenodd;fill:#25375C;" d="M116.512,275.219c-0.004,0.246-0.008,0.489-0.013,0.735
			c-0.085,0.688-0.171,1.377-0.193,1.544c-4.197-0.412-8.383-0.826-13.687-1.348c1.644,2.079,2.55,3.224,3.569,4.514
			c-1.557,0.872-3.112,1.743-5.322,2.982c8.127,7.456,7.284,12.319-4.105,14.302c1.754,0.65,2.934,1.089,4.957,1.839
			c-3.571,0.832-6.339,1.477-10.283,2.394c3.53,1.16,5.874,1.929,8.009,2.633c-2.573,0.83-5.137,1.66-7.7,2.488
			c0.037,0.381,0.073,0.76,0.11,1.143c2.62,0.318,5.241,0.637,8.887,1.082c-2.783,1.424-4.833,2.473-6.88,3.52l0.159-0.176
			c-3.243-2.396-6.487-4.795-10.939-8.084c5.922-5.154,10.913-9.497,16.151-14.055c-1.394-6.782-2.948-14.337-4.5-21.893
			c0.72-0.742,1.44-1.484,2.161-2.226C103.433,269.482,109.973,272.351,116.512,275.219z"/>
		<path style="fill-rule:evenodd;clip-rule:evenodd;fill:#25375C;" d="M93.861,313.047c4.135,0.908,8.27,1.816,10.565,2.322
			c-1.113,4.85-2.177,9.492-3.308,14.418c3.187,1.137,6.045,2.158,8.907,3.178c-1.6,6.402-2.25,6.836-14.753,8.408
			c0.563-4.041,0.636-7.967,1.719-11.59c1.878-6.279,5.136-12.5-2.968-16.914C94.021,312.871,93.861,313.047,93.861,313.047z"/>
		<path style="fill-rule:evenodd;clip-rule:evenodd;fill:#25375C;" d="M148.993,208.718c-6.417-7.24-13.148-14.229-19.189-21.769
			c-14.546-18.157-24.817-38.498-27.445-61.806c-0.959-8.518,0.948-17.356,1.547-26.048c0.749,0.026,1.499,0.053,2.249,0.079
			c0.183,0.504,0.63,1.081,0.514,1.504c-8.77,31.905,6.084,57.156,23.097,81.738c6.182,8.934,12.737,17.61,19.12,26.403
			L148.993,208.718z"/>
		<path style="fill-rule:evenodd;clip-rule:evenodd;fill:#25375C;" d="M100.042,141.922c-3.411-11.188-4.327-23.169,0-35.348
			C100.042,118.571,100.042,130.569,100.042,141.922z"/>
		<path style="fill-rule:evenodd;clip-rule:evenodd;fill:#25375C;" d="M113.667,145.593c-6.557-11.711-8.802-29.712-4.592-40.509
			c-4.404,14.254,3.545,27.008,4.466,40.62C113.536,145.709,113.667,145.593,113.667,145.593z"/>
		<path style="fill-rule:evenodd;clip-rule:evenodd;fill:#25375C;" d="M281.752,500.102c2.401-37.275-19.187-64.281-39.901-91.662
			C261.115,423.766,289.034,468.549,281.752,500.102z"/>
		<path style="fill-rule:evenodd;clip-rule:evenodd;fill:#25375C;" d="M229.236,208.934c4.201-6.066,8.029-12.435,12.669-18.143
			c13.591-16.712,24.786-34.76,32.282-55.017l-0.199-0.165c-2.233,7.439-2.915,15.896-6.998,22.125
			c-11.273,17.204-23.962,33.481-36.131,50.095c-0.357,0.489-1.178,0.641-1.781,0.951
			C229.078,208.781,229.236,208.934,229.236,208.934z"/>
		<path style="fill-rule:evenodd;clip-rule:evenodd;fill:#25375C;" d="M258.75,179.257c3.255-5.791,6.687-11.49,9.735-17.389
			c8.197-15.864,13.886-32.436,13.354-50.64c2.642,18.769-3.036,35.761-11.279,52.115c-2.491,4.943-5.685,9.549-8.757,14.176
			c-0.571,0.858-2.102,1.08-3.189,1.596C258.614,179.114,258.75,179.257,258.75,179.257z"/>
		<path style="fill-rule:evenodd;clip-rule:evenodd;fill:#25375C;" d="M284.137,101.554c6.185,11.202,4.881,35.148-2.638,48.224
			C285.975,133.899,289.087,117.946,284.137,101.554z"/>
		<path style="fill-rule:evenodd;clip-rule:evenodd;fill:#25375C;" d="M274.188,135.774c0.837-9.512,1.675-19.023,2.556-29.045
			c2.076,10.15,2.44,19.701-2.753,28.878C273.988,135.609,274.188,135.774,274.188,135.774z"/>
		<path style="fill-rule:evenodd;clip-rule:evenodd;fill:#25375C;" d="M262.912,183.436c3.785-6.459,7.567-12.918,11.351-19.38
			c-1.881,7.658-3.767,15.333-11.49,19.262L262.912,183.436z"/>
		<path style="fill-rule:evenodd;clip-rule:evenodd;fill:#25375C;" d="M280.799,105.292c-3.929-7.485-7.932-15.113-11.229-21.398
			C273.759,85.628,280.83,97.943,280.799,105.292z"/>
		<path style="fill-rule:evenodd;clip-rule:evenodd;fill:#25375C;" d="M262.772,183.317c-4.662,6.123-9.324,12.245-13.986,18.368
			l0.121,0.11c4.669-6.118,9.339-12.237,14.007-18.358C262.912,183.436,262.772,183.317,262.772,183.317z"/>
		<path style="fill-rule:evenodd;clip-rule:evenodd;fill:#25375C;" d="M184.025,80.64c1.308,0.268,2.617,0.533,4.287,0.873
			c0.034-0.317,0.232-2.187,0.431-4.053c0.237-0.004,0.475-0.008,0.711-0.01c0.086,0.986,0.006,2.022,0.29,2.948
			c0.745,2.429,1.648,4.811,2.487,7.212c1.076-2.409,2.277-4.769,3.167-7.243c0.421-1.175,0.244-2.564,0.455-5.439
			c1.057,4.375,1.736,7.192,2.416,10.01c-1.738,3.43-3.477,6.86-5.649,11.147C189.329,90.17,186.677,85.406,184.025,80.64z"/>
		<path style="fill-rule:evenodd;clip-rule:evenodd;fill:#25375C;" d="M303.801,166.661c0-4.821,0-9.642,0-14.901
			c0.293,0.075,1.336,0.344,3.444,0.887c-0.535-6.051-1.205-11.737-1.46-17.445c-0.106-2.39,1.222-4.885,0.943-7.217
			c-0.876-7.346-2.204-14.635-3.351-21.919c2.709,0.294,5.457,1.159,5.107,7.089c-0.383,6.526,1.776,13.185,1.55,19.741
			c-0.264,7.571-1.929,15.092-2.982,22.635c-0.128,0.92-0.238,1.842-0.431,3.324c1.354-0.367,2.407-0.65,5.245-1.416
			c-3.455,3.829-5.833,6.462-8.211,9.097L303.801,166.661z"/>
		<path style="fill-rule:evenodd;clip-rule:evenodd;fill:#25375C;" d="M81.347,443.57c-0.967,7.813-2.302,15.605-2.792,23.449
			c-0.436,6.988-0.564,14.115,0.338,21.031c0.791,6.064,3.201,11.92,4.809,17.559c0.316,0.125-0.643-0.256-2.87-1.135
			c1.703,5.668,3.171,10.555,4.639,15.439c-0.548,0.193-1.098,0.383-1.647,0.574c-1.1-3.402-2.081-6.848-3.335-10.193
			c-1.198-3.195-2.784-6.242-3.973-9.441c-0.346-0.93,0.124-2.145,0.152-3.232c0.105-3.959,1-8.119,0.115-11.85
			c-2.543-10.727-0.718-21.078,1.239-31.539c0.273-1.455-0.682-3.139-1.358-5.898c0.932-0.883,2.897-2.744,4.862-4.605
			C81.526,443.727,81.347,443.57,81.347,443.57z"/>
		<path style="fill-rule:evenodd;clip-rule:evenodd;fill:#25375C;" d="M81.323,166.681c-2.246-2.582-4.491-5.165-7.22-8.303
			c1.829,0.227,2.84,0.352,4.14,0.512c-5.259-24.259-2.496-47.68,5.295-70.608c0.601,0.078,1.203,0.156,1.804,0.234
			c-1.466,5.067-2.934,10.134-4.7,16.236c2.044-0.845,2.968-1.226,3.924-1.622c0,0.39,0.154,0.872-0.022,1.125
			c-6.014,8.599-7.929,17.695-4.838,28.056c0.877,2.938-1.67,6.738-1.43,10.055c0.595,8.172,1.895,16.293,2.907,24.44
			C81.179,166.811,81.323,166.681,81.323,166.681z"/>
		<path style="fill-rule:evenodd;clip-rule:evenodd;fill:#25375C;" d="M298.206,427.311c2.118-1.633,4.235-3.268,5.818-4.488
			c-1.101-2.432-2.442-5.391-3.827-8.449c6.905-2.406,7.148-3.881,3.047-8.811c-0.812-0.975-1.301-3.586-0.709-4.15
			c4.752-4.529,1.165-9.57,1.64-14.299c0.335-3.332,4.474-6.281,6.912-9.4c0.603,0.299,1.203,0.598,1.804,0.898
			c-1.357,4.148-2.717,8.295-4.233,12.926c1.231,1.111,3.078,2.775,5.571,5.023c-3.411,2.186-6.264,4.012-9.642,6.178
			c3.026,2.832,6.229,5.826,10.063,9.412c-4.108,1.619-7.161,2.822-10.46,4.123c2.499,3.969,4.706,7.477,6.913,10.984
			c-0.256,0.652-0.513,1.303-0.769,1.957c-4.042-0.504-8.083-1.008-12.124-1.51L298.206,427.311z"/>
		<path style="fill-rule:evenodd;clip-rule:evenodd;fill:#25375C;" d="M298.206,427.311l0.004,0.395
			c-1.057,2.244-2.604,4.393-3.072,6.756c-0.922,4.641-1.244,9.398-1.815,14.107c-0.688,0.068-1.378,0.133-2.066,0.199
			c-1.458-3.193-2.916-6.387-4.375-9.578c0.64,0.156,1.281,0.314,1.92,0.473c1.238-2.076,2.482-4.145,3.714-6.225
			C293.969,430.982,293.272,426.535,298.206,427.311z"/>
		<path style="fill-rule:evenodd;clip-rule:evenodd;fill:#25375C;" d="M82.385,405.041c-1.347,2.738-2.694,5.479-4.108,8.348
			c1.89,0.898,3.672,1.744,6.005,2.852c-1.841,4.352-4.168,9.299,2.486,12.086l0.165-0.184c-3.828,0.92-7.655,1.838-11.483,2.758
			c-0.492-0.85-0.984-1.701-1.476-2.549c2.197-3.568,4.392-7.135,6.734-10.938c-2.763-1.258-5.65-2.574-10.909-4.969
			c5.141-2.973,8.936-5.168,12.731-7.363L82.385,405.041z"/>
		<path style="fill-rule:evenodd;clip-rule:evenodd;fill:#25375C;" d="M82.53,405.082c-3.667-2.273-7.334-4.549-11.542-7.162
			c1.883-2.02,3.39-3.639,4.918-5.281c-1.161-4.021-2.334-8.088-3.761-13.027c6.519,3.316,10.23,7.104,9.077,13.609
			c-0.301,1.703-1.642,3.219-2.208,4.271c0.676,1.541,1.986,4.521,3.333,7.525C82.385,405.041,82.53,405.082,82.53,405.082z"/>
		<path style="fill-rule:evenodd;clip-rule:evenodd;fill:#25375C;" d="M86.768,428.326c5.267-1.018,4.598,3.689,6.15,6.309
			c1.137,1.918,2.486,3.713,4.72,7.006c-0.623,1.305-2.047,4.285-3.472,7.266c-0.686-0.004-1.372-0.01-2.058-0.016
			c-0.741-4.346-1.297-8.732-2.29-13.018c-0.616-2.658-1.894-5.16-2.88-7.732C86.933,428.143,86.768,428.326,86.768,428.326z"/>
		<path style="fill-rule:evenodd;clip-rule:evenodd;fill:#25375C;" d="M77.456,213.467c6.178,4.265,4.629,9.607-5.811,17.222
			c1.573-5.045,2.844-9.116,4.261-13.659c-1.391-1.321-3.012-2.861-5.434-5.166c3.618-2.068,6.682-3.821,10.157-5.809
			c-3.323-3.058-6.265-5.766-9.904-9.116c3.729-1.958,6.503-3.415,9.285-4.875c-2.111-3.876-4.109-7.543-6.751-12.391
			c6.314,0,10.889,0,15.56,0c1.017-6.732,1.95-12.912,2.883-19.091c0.679-0.005,1.357-0.007,2.035-0.011
			c1.538,3.055,3.075,6.109,4.883,9.697c-1.94,0.427-4.389,0.603-4.433,1.03c-0.703,6.809-5.24,10.272-10.702,13.151
			c-0.883,0.465-1.999,2.47-1.863,2.603c4.468,4.404,0.223,7.48-1.604,10.849c-0.602,1.108-3.366,0.701-0.034,3.166
			C85.917,205.456,80.702,209.729,77.456,213.467z"/>
		<path style="fill-rule:evenodd;clip-rule:evenodd;fill:#25375C;" d="M298.314,182.025c3.811-0.889,7.621-1.777,11.431-2.665
			c0.369,0.811,0.737,1.622,1.105,2.434c-2.091,3.529-4.181,7.058-6.491,10.959c2.803,1.368,5.799,2.83,9.696,4.731
			c-3.577,3.208-6.779,6.08-10.203,9.154c3.401,1.874,6.558,3.613,10.429,5.745c-2.416,2.177-4.225,3.807-6.021,5.426
			c1.521,4.06,3.02,8.057,4.518,12.054c-0.628,0.392-1.255,0.783-1.883,1.174c-2.609-3.223-5.952-6.131-7.522-9.8
			c-0.812-1.894,1.53-5.138,2.585-8.167c-4.553-2.161-4.723-5.449,0.895-16.317c-5.479-1.034-8.014-3.363-4.099-8.943
			c0.464-0.661-2.751-3.905-4.261-5.952L298.314,182.025z"/>
		<path style="fill-rule:evenodd;clip-rule:evenodd;fill:#25375C;" d="M298.492,181.86c-6.249-0.053-5.565-6.182-8.218-9.385
			c-0.742-0.892-1.437-1.823-2.875-3.655c0.719-1.875,1.907-4.992,3.098-8.108c0.757-0.043,1.514-0.086,2.271-0.128
			c0.743,4.683,1.253,9.42,2.319,14.028c0.597,2.584,2.11,4.957,3.218,7.418C298.314,182.025,298.492,181.86,298.492,181.86z"/>
		<path style="fill-rule:evenodd;clip-rule:evenodd;fill:#25375C;" d="M203.42,303.822c0.112,5.29-5.763,11.434-11.042,11.543
			c-5.667,0.121-11.224-5.318-11.31-11.073c-0.091-6.115,4.797-11.199,10.858-11.294C197.615,292.91,203.301,298.263,203.42,303.822
			z M199.972,304.149c-3.457-2.619-5.646-5.513-7.325-5.243c-2.208,0.357-5.323,3.023-5.599,5.033
			c-0.236,1.725,2.907,5.458,4.662,5.524C193.887,309.545,196.173,306.768,199.972,304.149z"/>
	</g>
</g>
</svg>
