<?xml version="1.0" encoding="iso-8859-1"?>
<!-- Generator: Adobe Illustrator 16.0.0, SVG Export Plug-In . SVG Version: 6.00 Build 0)  -->
<!DOCTYPE svg PUBLIC "-//W3C//DTD SVG 1.1//EN" "http://www.w3.org/Graphics/SVG/1.1/DTD/svg11.dtd">
<svg version="1.1" id="Layer_1" xmlns="http://www.w3.org/2000/svg" xmlns:xlink="http://www.w3.org/1999/xlink" x="0px" y="0px"
	 width="300px" height="300px" viewBox="0 0 300 300" style="enable-background:new 0 0 300 300;" xml:space="preserve">
<g>
	<path style="fill-rule:evenodd;clip-rule:evenodd;fill:none;" d="M18.925,150c0-46.385,0.008-92.77-0.038-139.154
		c-0.002-1.384,0.271-1.655,1.654-1.654c86.306,0.042,172.611,0.042,258.918,0c1.384,0,1.655,0.271,1.655,1.654
		c-0.044,92.769-0.044,185.538,0,278.307c0,1.383-0.271,1.654-1.655,1.654c-86.307-0.043-172.612-0.043-258.918,0
		c-1.383,0-1.656-0.271-1.654-1.654C18.933,242.77,18.925,196.384,18.925,150z M140.034,10.443c-0.388-0.1-0.57-0.196-0.747-0.186
		c-5.37,0.334-10.643,1.365-15.892,2.445c-14.472,2.978-28.132,8.133-40.783,15.813c-11.342,6.886-21.428,15.28-30.303,25.178
		c-6.87,7.661-12.702,16.025-17.598,25.03c-9.439,17.367-14.297,36.068-15.302,55.732c-0.536,10.494,0.109,20.983,2.192,31.325
		c4.346,21.576,13.369,40.962,27.391,57.959c1.441,1.748,2.345,3.345,1.287,5.609c-0.289,0.616-0.102,1.455-0.13,2.192
		c-0.28,7.419,0.328,14.804,1.109,22.157c0.913,8.593,3.291,16.727,8.533,23.824c4.116,5.572,9.753,8.87,16.306,10.354
		c5.896,1.335,12.012,1.417,18.05,1.229c8.416-0.262,16.771-1.168,24.831-3.863c2.779-0.929,5.688-1.524,8.372-2.662
		c2.693-1.144,5.856-1.806,7.128-5.072c0.695-1.785,1.061-3.589,0.845-5.496c-0.101-0.89-0.161-1.444,1.187-1.349
		c13.74,0.961,27.4,0.68,40.943-2.331c24.876-5.53,46.457-17.072,64.632-34.941c2.636-2.593,5.111-5.349,7.691-7.997
		c0.4-0.412,0.896-1.06,1.504-0.834c0.628,0.232,0.467,1.052,0.511,1.611c0.634,8.51,2.788,16.709,5.114,24.864
		c1.234,4.327,2.653,8.604,4.011,12.897c0.339,1.077,0.838,1.947,2.254,1.829c2.206-0.186,2.887-1.34,2.113-3.636
		c-4.489-13.327-9.056-26.627-9.315-40.937c-0.043-2.424,0.365-4.558,1.734-6.465c4.808-6.7,8.614-13.945,11.979-21.45
		c6.636-14.789,10.15-30.329,10.947-46.46c0.645-13.042-0.826-25.903-4.037-38.584c-7.062-27.898-21.926-50.822-44.078-69.013
		c-10.61-8.713-22.388-15.551-35.272-20.45c-10.796-4.105-21.876-6.966-33.375-8.072c-1.729-0.166-3.491-0.806-5.402-0.294
		c0.672,0.693,1.439,0.666,2.133,0.847c4.326,1.135,8.868,0.388,13.197,1.546c2.335,0.625,4.704,1.129,7.064,1.662
		c5.458,1.231,10.751,2.941,15.824,5.331c4.318,2.033,8.669,3.998,13.026,5.947c4.673,2.092,9.148,4.419,13.003,7.933
		c2.299,2.097,4.288,4.444,6.459,6.637c4.309,4.354,8.623,8.706,13.011,12.979c1.713,1.67,3.1,3.531,4.174,5.644
		c0.832,1.633,1.883,3.13,3.118,4.453c1.438,1.542,2.536,3.293,3.684,5.038c2.972,4.522,5.193,9.444,7.274,14.388
		c2.793,6.639,5.236,13.441,4.516,20.891c-0.122,1.265-0.044,2.547,0.354,3.797c2.066,6.488,2.604,13.19,2.385,19.928
		c-0.105,3.177-0.271,6.494-2.251,9.287c-0.435,0.617-0.928,1.264-1.777,1.079c-0.782-0.17-0.832-0.942-1.01-1.594
		c-3.065-11.138-7.552-21.607-15.159-30.442c-3.389-3.937-6.439-7.91-7.154-13.227c-0.026-0.197-0.094-0.394-0.176-0.577
		c-0.522-1.185-1.267-1.416-2.394-0.682c-2.008,1.308-2.268,1.262-3.085-1.112c-3.34-9.73-9.324-17.497-17.398-23.752
		c-1.289-0.999-2.354-2.186-2.998-3.733c-1.693-4.064-4.334-7.499-7.75-10.182c-5.871-4.611-12.512-6.563-19.866-4.282
		c-7.772,2.41-15.472,5.058-23.193,7.627c-1.791,0.596-3.543,1.321-5.004,2.562c-1.793,1.521-1.969,3.903-0.516,5.752
		c0.647,0.823,1.197,1.023,2.162,0.327c6.525-4.709,13.764-7.501,21.836-8.142c9.478-0.751,18.689-0.058,27.32,4.395
		c1.116,0.577,2.043,1.2,1.977,2.896c-2.608-1.155-4.868-2.654-7.425-3.439c-9.342-2.871-18.704-3.132-28.274-0.862
		c-6.875,1.63-13.393,4.324-18.855,8.395c-15.697,11.698-22.512,32.613-16.966,51.939c3.278,11.425,10.823,19.867,18.387,28.365
		c2.379,2.674,5.656,4.314,8.91,5.813c12.615,5.812,25.545,5.659,38.624,1.909c4.75-1.362,9.021-3.719,13.158-6.443
		c5.327-3.509,10.218-7.438,13.747-12.79c2.746-4.162,5.432-8.329,9.104-11.773c2.429-2.277,3.804-2.223,5.946,0.345
		c4.793,5.739,7.072,12.641,7.84,19.792c0.87,8.123,1.028,16.345-0.137,24.551c-0.891,6.247-1.284,12.539-4.151,18.339
		c-1.311,2.659-2.411,5.468-4.565,7.552c-2.828,2.738-5.082,5.901-7.367,9.063c-0.785,1.085-1.673,2.118-2.645,3.038
		c-4.146,3.929-8.235,7.933-12.551,11.67c-4.206,3.642-8.246,7.534-13.301,10.092c-3.416,1.728-7.034,3.093-10.168,5.348
		c-3.277,2.358-6.952,3.834-10.797,4.885c-7.266,1.985-14.626,3.597-22.037,4.9c-5.683,0.998-11.423,1.778-17.246,0.877
		c-1.836-0.285-2.62-1.244-2.685-2.921c-0.117-3.082,1.223-5.593,3.758-7.157c5.552-3.426,11.767-5.567,17.468-8.729
		c4.291-2.382,8.609-4.666,12.063-8.299c3.154-3.322,3.597-5.961,1.31-9.92c-0.571-0.989-1.115-1.995-1.666-2.996
		c-0.964-1.76-2.424-2.925-4.395-3.229c-2.524-0.388-5.062-0.525-7.641-0.377c-11.188,0.648-22.093,3.093-33.095,4.944
		c-6.418,1.081-12.838,2.332-19.435,1.614c-2.306-0.251-4.595-0.575-6.986-0.412c-3.932,0.268-7.896,0.168-11.79-0.924
		c-4.6-1.29-8.29-4.1-12.024-6.829c-2.066-1.509-3.026-3.513-3.15-6.324c-0.259-5.826-0.826-11.653-3.693-17.008
		c-1.834-3.426-4.965-5.616-7.291-8.551c-0.33-0.416-0.858-0.68-1.431-0.651c-2.935,0.145-5.861,0.095-8.636,1.472
		c-2.938,1.459-3.585,2.511-3.385,5.859c0.213,3.554,1.026,7.078,0.695,10.653c-0.289,3.129-0.348,6.33-2.122,9.131
		c-0.982,1.551-1.745,1.646-2.9,0.198c-0.71-0.892-1.34-1.853-1.958-2.813c-4.027-6.25-6.621-13.233-10.121-19.751
		c-2.45-4.563-3.167-9.697-5.057-14.438c-0.291-0.731-0.522-1.632-0.37-2.37c0.821-3.98-0.769-7.542-1.737-11.227
		c-1.338-5.091-2.427-10.245-1.896-15.547c0.455-4.553,0.819-9.099,0.742-13.68c-0.067-4.044,0.334-8.111,1.125-12.023
		c1.222-6.032,2.64-12.021,4.633-17.917c2.521-7.457,7.354-13.396,11.354-19.88c3.453-5.597,8.241-10.276,11.485-16.055
		c0.72-1.282,1.73-2.378,2.881-3.342c3.398-2.852,6.85-5.646,9.861-8.928c2.755-3.002,6.223-5.128,9.489-7.479
		c5.884-4.232,12.629-6.839,19.125-9.92c5.092-2.414,10.677-3.111,15.961-4.872c5.84-1.946,12.035-2.486,18.14-3.267
		C138.059,11.1,139.088,11.313,140.034,10.443z M115.103,98.537c0.091-3.004-0.347-5.906-1.54-8.671
		c-3.004-6.97-10.502-9.07-16.663-4.657c-3.825,2.74-6.205,6.559-7.462,10.973c-1.835,6.444-1.786,12.829,2.332,18.513
		c3.704,5.112,9.403,5.916,14.513,2.196C112.494,112.369,114.896,105.966,115.103,98.537z M123.146,79.228
		c1.923-0.035,3.344,0.055,4.68-0.552c1.942-0.882,3.173-3.182,2.981-5.497c-0.193-2.319-2.056-2.356-3.664-2.7
		c-0.982-0.209-1.989-0.348-2.992-0.407c-4.055-0.241-7.982-1.046-11.803-2.437c-4.485-1.631-9.023-3.097-13.632-4.352
		c-9.085-2.472-19.799,1.438-25.249,9.227c-0.793,1.134-0.998,2.126-0.088,3.279c0.906,1.146,1.947,1.619,3.336,0.963
		c2.065-0.975,4.143-1.925,6.183-2.948c5.569-2.793,11.284-3.114,17.221-1.294c3.087,0.946,6.116,2.029,9.139,3.151
		C113.921,77.394,118.59,79.125,123.146,79.228z M122.601,169.324c-5.189-0.637-10.3,0.999-15.531,1.234
		c-1.495,0.066-2.877,0.813-4.02,1.754c-1.212,0.997-1.783,2.402-1.105,3.941c0.701,1.589,1.89,0.671,2.926,0.373
		c0.193-0.056,0.397-0.074,0.592-0.122c12.614-3.191,25.21-2.13,37.791,0.199c9.151,1.693,17.949,4.576,26.591,7.977
		c0.686,0.271,1.387,0.533,2.104,0.684c0.783,0.163,1.615,0.302,2.194-0.527c0.578-0.824,0.451-1.658,0.009-2.47
		c-0.595-1.092-1.465-1.919-2.583-2.468c-3.06-1.5-6.022-3.051-9.503-3.701c-3.096-0.578-6.078-2.015-9.115-2.997
		c-5.691-1.84-11.683-2.282-17.624-2.825C131.118,169.991,126.987,168.769,122.601,169.324z"/>
	<path style="fill-rule:evenodd;clip-rule:evenodd;fill:#25375C;" d="M140.034,10.443c-0.946,0.87-1.976,0.657-2.927,0.779
		c-6.104,0.781-12.3,1.321-18.14,3.267c-5.284,1.761-10.869,2.458-15.961,4.872C73.368,33.413,47.28,58.493,37.325,90.418
		c-3.435,11.018-4.976,23.455-4.834,34.99c0.182,14.817,1.723,33.432,8.88,46.76c3.5,6.518,6.094,13.501,10.121,19.751
		c0.611,0.948,1.233,1.897,1.934,2.781c3.412,4.302,4.888-7.572,5.046-9.285c0.367-3.981-1.149-10.127,0.941-13.745
		c5.585-9.666,15.624-1.556,19.106,4.95c3.637,6.793,1.475,15.801,5.909,21.896c6.516,8.954,21.945,8.536,31.736,9.602
		c6.597,0.718,13.017-0.533,19.435-1.614c11.002-1.852,21.907-4.296,33.095-4.944c2.579-0.148,5.116-0.011,7.641,0.377
		c1.971,0.304,3.431,1.469,4.395,3.229c0.551,1.001,1.095,2.007,1.666,2.996c2.287,3.959,1.845,6.598-1.31,9.92
		c-3.453,3.633-7.771,5.917-12.063,8.299c-6.205,3.444-16.018,5.08-20.012,11.376c-6.809,10.731,14.41,7.312,18.717,6.555
		c35.887-6.303,76.089-29.96,85.297-67.803c2.385-9.804,3.499-21.574,2.422-31.635c-0.768-7.152-3.047-14.054-7.84-19.792
		c-2.143-2.568-3.518-2.622-5.945-0.346c-8.306,7.785-13.135,18.164-22.853,24.564c-4.138,2.725-8.408,5.081-13.158,6.443
		c-13.079,3.75-26.009,3.902-38.624-1.909c-3.254-1.499-6.531-3.14-8.91-5.813c-7.563-8.498-15.108-16.94-18.387-28.365
		c-5.546-19.327,1.269-40.241,16.966-51.939c5.463-4.071,11.98-6.765,18.855-8.395c9.57-2.271,18.933-2.009,28.274,0.862
		c2.557,0.786,4.816,2.285,7.425,3.439c0.066-1.696-0.86-2.319-1.977-2.896c-8.631-4.453-17.843-5.146-27.32-4.395
		c-8.072,0.64-15.311,3.432-21.836,8.142c-0.965,0.696-1.515,0.496-2.162-0.327c-1.453-1.849-1.277-4.23,0.516-5.752
		c1.461-1.241,3.213-1.966,5.004-2.562c7.722-2.569,15.421-5.217,23.193-7.627c7.354-2.281,13.995-0.329,19.866,4.282
		c3.416,2.683,6.057,6.118,7.75,10.182c0.645,1.548,1.709,2.735,2.998,3.733c8.074,6.255,14.059,14.022,17.398,23.752
		c0.817,2.374,1.077,2.42,3.085,1.112c1.127-0.734,1.871-0.503,2.394,0.682c0.082,0.183,0.149,0.38,0.176,0.577
		c0.715,5.317,3.766,9.291,7.154,13.227c7.607,8.835,12.094,19.305,15.159,30.442c0.178,0.652,0.228,1.424,1.01,1.594
		c0.85,0.186,1.343-0.462,1.777-1.079c1.979-2.793,2.146-6.11,2.251-9.288c1.413-42.644-20.69-80.383-57.871-101.174
		c-11.521-6.442-23.377-10.069-36.021-13.452c-4.329-1.158-8.871-0.411-13.197-1.546c-0.693-0.182-1.461-0.154-2.133-0.847
		c1.911-0.512,3.673,0.128,5.402,0.294c11.499,1.106,22.579,3.967,33.375,8.072c12.885,4.899,24.662,11.736,35.272,20.45
		c21.683,17.806,37.188,41.792,44.078,69.013c3.211,12.682,4.682,25.542,4.037,38.584c-0.797,16.131-4.312,31.671-10.947,46.46
		c-3.365,7.505-7.172,14.75-11.979,21.45c-1.369,1.907-1.777,4.041-1.734,6.465c0.26,14.31,4.826,27.609,9.315,40.937
		c0.773,2.296,0.093,3.45-2.113,3.636c-1.416,0.118-1.915-0.752-2.254-1.829c-1.357-4.294-2.776-8.57-4.011-12.897
		c-2.326-8.155-4.48-16.354-5.114-24.864c-0.044-0.56,0.117-1.379-0.511-1.611c-0.607-0.226-1.104,0.422-1.504,0.834
		c-2.58,2.648-5.056,5.404-7.691,7.997c-18.175,17.869-39.756,29.411-64.632,34.941c-13.543,3.011-27.203,3.292-40.946,2.331
		c-1.149-0.081-2.194,7.318-3.553,8.794c-3.476,3.771-9.347,4.237-13.976,5.785c-8.061,2.695-16.415,3.602-24.831,3.863
		c-6.038,0.188-12.153,0.106-18.05-1.229c-6.553-1.484-12.189-4.782-16.306-10.354c-9.599-12.995-10.239-30.46-9.643-45.981
		c0.028-0.737-0.159-1.576,0.13-2.192c1.058-2.265,0.154-3.861-1.287-5.609C35.18,206.994,25.885,187.04,21.603,165.78
		c-2.083-10.342-2.729-20.831-2.192-31.325c1.005-19.664,5.862-38.365,15.302-55.732c4.896-9.005,10.728-17.369,17.598-25.03
		c8.875-9.898,18.961-18.292,30.303-25.178c12.651-7.68,26.312-12.835,40.783-15.813c5.249-1.08,10.521-2.111,15.892-2.445
		C139.464,10.247,139.646,10.343,140.034,10.443z M187.379,152.61c24.43,0.725,46.464-19.632,46.464-46.766
		c0-26.786-21.986-46.65-46.631-46.334c-26.313,0.339-46.257,20.477-46.305,46.269C140.858,132.341,162.799,153.078,187.379,152.61z
		 M54.012,238.541c0.29,8.048,2.741,16.494,7.818,21.867c4.693,4.97,10.814,6.437,17.241,7.388c4.652,0.689,9.255-0.102,13.88-0.038
		c2.429,0.034,4.829-0.312,7.212-0.716c8.799-1.493,17.213-4.284,25.487-7.569c3.162-1.256,4.655-4.166,3.646-7.439
		c-0.395-1.284-1.112-2.075-2.474-2.334c-0.809-0.153-2.091-0.059-2.141-1.057c-0.047-0.938,1.248-1.035,2.002-1.41
		c1.143-0.569,2.361-0.995,3.464-1.63c1.217-0.699,2.404-1.479,3.177-2.732c2.292-3.719,0.483-9.27-3.719-11.114
		c-1.593-0.699-3.298-1.145-4.944-1.726c-0.371-0.131-0.856-0.304-0.759-0.786c0.049-0.246,0.432-0.521,0.717-0.607
		c4.64-1.432,8.675-4.294,13.411-5.529c9.308-2.423,18.59-4.944,27.866-7.485c3.894-1.067,7.8-2.156,10.858-5.063
		c1.458-1.385,2.497-3.009,1.842-5c-0.646-1.968-2.595-1.826-4.269-1.936c-0.336-0.021-0.675,0.021-1.01-0.006
		c-8.389-0.661-16.473,1.392-24.541,3.074c-10.215,2.129-20.531,3.598-30.793,5.407c-4.895,0.864-9.908,1.13-14.746,2.213
		c-4.958,1.11-9.891,1.907-14.96,1.688c-5.005-0.214-8.134-3.096-8.66-7.872c-0.169-1.543,0.528-3.047,0.187-4.612
		c-0.768-3.528-0.455-7.046-0.151-10.62c0.56-6.596-0.524-12.906-4.828-18.265c-1.797-2.237-3.964-4.04-6.839-4.758
		c-3.325-0.831-5.323,0.388-6.186,3.663c-0.761,2.897-0.294,5.752,0.248,8.597c0.606,3.179,1.222,6.318,0.555,9.594
		c-1.06,5.205-1.982,10.432-3.616,15.509c-0.946,2.939-1.57,5.973-2.155,9.018c-0.723,3.758-0.871,7.583-1.791,11.335
		C54.233,230.89,53.873,234.669,54.012,238.541z M242.851,101.804c-0.361,2.321,0.132,4.297,2.318,5.455
		c0.411,0.217,0.829,0.601,1.24,0.111c0.31-0.372,0.023-0.763-0.213-1.083C245.09,104.787,243.969,103.297,242.851,101.804z"/>
	<path style="fill-rule:evenodd;clip-rule:evenodd;fill:#25375C;" d="M115.103,98.537c-0.206,7.43-2.608,13.832-8.82,18.354
		c-5.109,3.72-10.809,2.916-14.513-2.196c-4.118-5.684-4.167-12.069-2.332-18.513c1.257-4.415,3.637-8.233,7.462-10.973
		c6.161-4.414,13.659-2.313,16.663,4.657C114.756,92.631,115.193,95.533,115.103,98.537z"/>
	<path style="fill-rule:evenodd;clip-rule:evenodd;fill:#25375C;" d="M123.146,79.228c-4.557-0.103-9.226-1.834-13.889-3.566
		c-3.022-1.122-6.052-2.205-9.139-3.151c-5.937-1.819-11.651-1.499-17.221,1.294c-2.04,1.023-4.117,1.973-6.183,2.948
		c-1.389,0.656-2.43,0.184-3.336-0.963c-0.91-1.153-0.705-2.146,0.088-3.279c5.45-7.788,16.164-11.698,25.249-9.227
		c4.608,1.254,9.146,2.721,13.632,4.352c3.82,1.39,7.748,2.195,11.803,2.437c1.003,0.059,2.01,0.197,2.992,0.407
		c1.608,0.344,3.471,0.381,3.664,2.7c0.191,2.315-1.039,4.615-2.981,5.497C126.49,79.283,125.069,79.193,123.146,79.228z"/>
	<path style="fill-rule:evenodd;clip-rule:evenodd;fill:#25375C;" d="M122.601,169.324c4.387-0.556,8.518,0.667,12.725,1.052
		c5.941,0.543,11.933,0.985,17.624,2.825c3.037,0.982,6.02,2.419,9.115,2.997c3.48,0.65,6.443,2.201,9.503,3.701
		c1.118,0.549,1.988,1.376,2.583,2.468c0.442,0.812,0.569,1.646-0.009,2.47c-0.579,0.829-1.411,0.69-2.194,0.527
		c-0.717-0.15-1.418-0.413-2.104-0.684c-8.642-3.4-17.439-6.283-26.591-7.977c-12.581-2.329-25.177-3.391-37.791-0.199
		c-0.194,0.048-0.398,0.066-0.592,0.122c-1.036,0.298-2.225,1.216-2.926-0.373c-0.678-1.539-0.106-2.944,1.105-3.941
		c1.143-0.941,2.524-1.688,4.02-1.754C112.301,170.323,117.411,168.688,122.601,169.324z"/>
	<path style="fill-rule:evenodd;clip-rule:evenodd;fill:none;" d="M187.379,152.61c-24.58,0.468-46.521-20.27-46.472-46.832
		c0.048-25.792,19.992-45.93,46.305-46.269c24.645-0.316,46.631,19.548,46.631,46.334
		C233.843,132.979,211.809,153.335,187.379,152.61z M168.351,99.852c-4.252,7.306-5.254,14.752-1.03,22.283
		c3.209,5.723,9.35,7.08,14.814,3.549c6.712-4.339,10.439-14.314,8.542-22.864c-0.436-1.971-1.063-3.854-2.557-5.516
		c0.266,1.513-0.752,2.247-1.599,3.061c-1.557,1.498-2.948,3.099-4.05,4.989c-1.286,2.21-4.087,3.375-6.225,2.632
		c-1.854-0.644-3.655-1.627-4.807-3.201C170.318,103.25,167.979,102.382,168.351,99.852z"/>
	<path style="fill-rule:evenodd;clip-rule:evenodd;fill:none;" d="M52.979,238.568c-0.511-3.879,1.182-7.382,2.063-10.979
		c0.92-3.752,1.068-7.578,1.791-11.336c0.585-3.045,1.209-6.078,2.155-9.018c1.634-5.077,2.557-10.304,3.616-15.509
		c0.667-3.275,0.052-6.415-0.555-9.594c-0.542-2.845-1.009-5.699-0.248-8.597c0.862-3.275,2.86-4.494,6.186-3.663
		c2.875,0.718,5.042,2.521,6.839,4.758c4.304,5.358,5.388,11.669,4.828,18.265c-0.304,3.574-0.616,7.092,0.151,10.62
		c0.342,1.565-0.355,3.069-0.187,4.612c0.526,4.776,3.655,7.658,8.66,7.872c5.069,0.219,10.002-0.578,14.96-1.688
		c4.838-1.083,9.852-1.349,14.746-2.213c10.262-1.81,20.578-3.278,30.793-5.407c8.068-1.683,16.152-3.735,24.541-3.074
		c0.335,0.026,0.674-0.016,1.01,0.006c1.674,0.109,3.622-0.032,4.269,1.936c0.655,1.991-0.384,3.615-1.842,5
		c-3.059,2.906-6.965,3.995-10.858,5.063c-9.276,2.541-18.559,5.063-27.866,7.485c-4.736,1.235-8.771,4.098-13.411,5.529
		c-0.285,0.087-0.668,0.361-0.717,0.607c-0.098,0.482,0.388,0.655,0.759,0.786c1.646,0.581,3.352,1.026,4.944,1.726
		c4.202,1.845,6.011,7.396,3.719,11.114c-0.772,1.254-1.96,2.033-3.177,2.732c-1.103,0.635-2.321,1.061-3.464,1.63
		c-0.754,0.375-2.049,0.473-2.002,1.41c0.05,0.998,1.332,0.903,2.141,1.057c1.361,0.259,2.079,1.05,2.474,2.334
		c1.009,3.273-0.484,6.184-3.646,7.439c-8.274,3.285-16.688,6.076-25.487,7.569c-2.383,0.404-4.783,0.75-7.212,0.716
		c-4.625-0.063-9.228,0.728-13.88,0.038c-6.427-0.951-12.548-2.418-17.241-7.388c-1.706-1.806-2.945-3.883-3.695-6.188
		c-1.253-3.854-2.781-7.561-4.78-11.089C52.547,241.708,53.132,240.085,52.979,238.568z"/>
	<path style="fill-rule:evenodd;clip-rule:evenodd;fill:none;" d="M242.851,101.804c1.118,1.494,2.239,2.983,3.346,4.483
		c0.236,0.319,0.522,0.71,0.213,1.083c-0.411,0.49-0.829,0.106-1.24-0.111C242.982,106.101,242.489,104.125,242.851,101.804z"/>
	<path style="fill-rule:evenodd;clip-rule:evenodd;fill:#25375C;" d="M168.351,99.852c-0.372,2.53,1.968,3.398,3.09,4.934
		c1.151,1.574,2.953,2.558,4.807,3.201c2.138,0.743,4.938-0.422,6.225-2.632c1.102-1.89,2.493-3.492,4.05-4.989
		c0.847-0.813,1.864-1.548,1.599-3.061c1.494,1.662,2.121,3.545,2.557,5.516c1.897,8.55-1.83,18.525-8.542,22.864
		c-5.465,3.531-11.605,2.174-14.814-3.549C163.097,114.604,164.099,107.158,168.351,99.852z"/>
</g>
<image style="overflow:visible;" width="681" height="639" xlink:href="../images/color1.JPG"  transform="matrix(0.2188 0 0 0.2188 -174 0)">
</image>
<rect x="325.842" y="-57.932" style="fill-rule:evenodd;clip-rule:evenodd;fill:#25375C;" width="300" height="300"/>
</svg>
