<?xml version="1.0" encoding="iso-8859-1"?>
<!-- Generator: Adobe Illustrator 23.0.6, SVG Export Plug-In . SVG Version: 6.00 Build 0)  -->
<svg version="1.1" id="Layer_1" xmlns="http://www.w3.org/2000/svg" xmlns:xlink="http://www.w3.org/1999/xlink" x="0px" y="0px"
	 viewBox="0 0 300 300" style="enable-background:new 0 0 300 300;" xml:space="preserve">
<image style="overflow:visible;" width="681" height="639" xlink:href="../images/color1.JPG"  transform="matrix(0.2265 0 0 0.2265 -206.1393 5.7807)">
</image>
<g>
	<path style="fill:none;" d="M24.057,131.644c0.727,0.349,1.99-0.105,2.844-0.538c0.226-0.115,0.045-1.609-0.336-2.234
		c-1.102-1.809-2.574-3.403-3.591-5.253c-4.107-7.468-8.094-15.003-12.142-22.504c-0.262-0.485-0.671-0.891-0.897-1.185
		c-1.85-0.158-3.081,2.573-2.098,4.357c4.568,8.283,9.182,16.54,13.845,24.769C22.255,130.068,23.071,131.17,24.057,131.644z"/>
	<path style="fill:none;" d="M221.288,16.915c0.692,2.516,1.783,4.947,2.968,7.284c0.267,0.528,1.555,0.597,2.396,0.711
		c0.121,0.016,0.649-1.004,0.516-1.374c-1.193-3.328-2.493-6.618-3.761-9.919c-0.374-0.046-0.749-0.092-1.123-0.138
		c-0.025,0.01-0.05,0.023-0.075,0.033C221.855,14.659,221.019,15.939,221.288,16.915z"/>
	<path style="fill:none;" d="M277.395,23.74c0.369,0.205,1.074,0.189,1.416-0.039c0.405-0.269,0.864-0.913,0.812-1.334
		c-0.256-2.084-0.673-4.149-1.095-6.573c-0.849,0.295-1.398,0.345-1.752,0.633C275.586,17.4,276.047,22.989,277.395,23.74z"/>
	<path style="fill:none;" d="M107.337,242.256c0.32-0.897,0.623-1.694,0.993-2.179c-0.434,0.568-0.741,1.23-1.011,1.922
		c0,0.021,0.001,0.042,0.001,0.063C107.326,242.127,107.331,242.19,107.337,242.256z"/>
	<path style="fill:none;" d="M106.426,244.617c-0.247,0.574-0.687,1.095-1.155,1.491
		C105.772,245.714,106.174,245.203,106.426,244.617z"/>
	<path style="fill:none;" d="M111.432,192.03c-7.013,9.735-19.439,8.191-24.176-2.985c-1.238-2.921-1.734-6.155-2.178-7.792
		c0.329-8.272,2.885-13.84,8.057-18.065c3.659-2.989,10.643-2.827,14.521,0.464C116.576,171.224,117.396,183.751,111.432,192.03z
		 M213.416,194.069c-6.007,6.262-14.507,5.77-20.073-1.007c-7.124-8.674-5.651-22.892,3.292-29.594
		c5.623-4.215,12.429-3.021,17.081,2.482c3.322,3.929,5.199,8.583,5.103,13.828C218.787,185.247,217.193,190.132,213.416,194.069z"
		/>
	<path style="fill:none;" d="M179.548,261.148c0.46,0.08,0.921,0.159,1.381,0.241l-0.199-0.168
		C180.356,261.198,179.961,261.174,179.548,261.148z"/>
	<path style="fill:none;" d="M48.006,63.152c-4.331,2.943-4.378,8.567,0.094,11.366c3.48,2.179,7.269,2.726,11.268,2.558
		c3.335,0.18,6.552-0.557,9.815-1.231c2.288-0.472,3.183-1.829,3.563-3.734c0.434-2.179,0.719-4.462-1.112-6.245
		C66.839,61.195,54.356,58.838,48.006,63.152z"/>
	<path style="fill:none;" d="M105.916,69.596c-4.19-2.277-8.545-4.075-13.441-1.67c-2.539,1.247-3.628,3.72-2.458,6.304
		c1.716,3.788,4.796,5.327,8.809,5.393c2.508-0.033,4.884-0.757,6.96-2.122C108.374,75.799,108.514,71.008,105.916,69.596z"/>
	<path style="fill:none;" d="M126.219,33.056c-1.41-0.311-2.853-0.47-4.134-0.675c-4.704,0.491-8.844,1.665-12.042,5.252
		c-1.225,1.374-2.515,2.754-4.193,3.703c-2.364,1.336-2.53,2.691-0.613,4.657c1.359,1.394,2.975,2.487,4.031,4.23
		c1.991,3.286,4.648,3.568,7.329,0.814c1.445-1.485,2.987-2.891,4.754-3.856c3.585-1.958,5.613-5.16,7.437-8.546
		C130.269,35.886,129.218,33.716,126.219,33.056z"/>
	<path style="fill:#25375C;" d="M230.348,72.94c2.802,1.344,5.557,2.79,8.401,4.044c-2.592-1.474-5.403-2.584-8.09-3.905
		C230.552,73.027,230.449,72.981,230.348,72.94z"/>
	<path style="fill:none;" d="M222.775,32.231c-1.243,0.234-2.844,0.309-2.794,1.979c0.047,1.56,1.196,2.629,2.846,2.797
		c1.353,0.138,3.367-1.62,3.167-2.778C225.686,32.45,224.103,32.536,222.775,32.231z"/>
	<path style="fill:none;" d="M202.421,32.419c-2.253-1.201-3.797-3.141-5.775-4.562c-3.744-2.69-7.771-4.914-11.889-5.091
		c-5.861-0.036-11.368,2.434-14.718,6.288c-2.151,2.475-3.266,11.053-1.56,13.438c2.188,3.059,4.687,5.827,8.047,7.736
		c1.763,1.001,3.864,1.489,5.222,3.141c1.702,2.071,4.269,1.99,6.517,2.482c1.784,0.39,4.459-1.757,4.216-3.263
		c-0.637-3.951,1.8-5.479,4.739-6.872c3.712-1.76,5.926-4.744,6.77-8.76C204.378,35.11,203.971,33.245,202.421,32.419z"/>
	<path d="M243.012,136.413c-0.265-0.197-0.535-0.389-0.813-0.572c0.105,0.114,0.207,0.233,0.303,0.36
		C242.642,136.386,242.818,136.438,243.012,136.413z"/>
	<path d="M22.335,151.045c2.556,0.779,4.488,0.424,6.093-0.624c-1.961-0.009-3.923,0-5.873-0.149
		c-1.314-0.1-2.098,0.166-2.463,0.897c0.149-0.005,0.301-0.009,0.465-0.013C21.153,151.142,21.803,150.883,22.335,151.045z"/>
	<path style="fill:#25375C;" d="M281.052,143.858c1.631,0.212,1.891,1.502,2.05,2.83c0.776,6.475,0.529,12.942-0.013,19.421
		c-1.166,13.952-4.236,27.444-9.59,40.395c-3.632,8.785-8.031,16.992-13.193,24.629c10.33-14.57,17.384-30.848,21.254-48.723
		c2.635-12.168,3.56-24.48,2.548-36.908c-0.065-0.792-0.437-2.213-0.732-2.231c-2.8-0.168-6.072-0.599-8.618,0.161
		c0.069-0.001,0.449,0.154,0.522,0.153C277.23,143.571,279.108,143.606,281.052,143.858z"/>
	<path style="fill:#25375C;" d="M186.477,107.228c1.088,3.847,2.198,7.753,5.947,10.111c0.611,0.384,1.174,0.814,1.688,1.285
		c0.136,0.124,0.696,0.528,0.838,0.261c0.231-0.436-0.394-0.96-0.629-1.263c-0.498-0.643-0.973-1.303-1.483-1.936
		c-2.696-3.344-5.341-6.696-5.543-11.211C186.381,104.812,186.063,105.766,186.477,107.228z"/>
	<path d="M81.651,112.999c-0.102,0.698-0.209,1.294-0.329,1.819c1.069-0.66,1.376-1.931,1.394-4.458
		c0.002-0.339-0.013-0.683-0.034-1.036c-0.488,0.47-0.816,1.197-0.919,2.143C81.707,111.976,81.725,112.494,81.651,112.999z"/>
	<path d="M257.881,111.594c-3.169,1.987-6.803,3.299-10.955,4.01c-2.288,0.392-3.955,0.983-5.163,1.841
		c4.211-1.222,8.229-2.382,12.229-3.593C255.494,113.397,256.776,112.642,257.881,111.594z"/>
	<path style="fill:#25375C;" d="M289.941,84.185c0.381,0.024,0.771,0.062,1.18,0.131c0.063,0.01,0.143-0.085,0.495-0.308
		c-0.685-2.167-2.472-3.271-4.228-3.121c-2.286,0.196-4.886-0.052-6.874,1.254c1.519-0.271,3.185-0.195,4.673-0.282
		C287.181,81.742,288.758,82.678,289.941,84.185z"/>
	<path style="fill:#25375C;" d="M33.369,39.423c1.284,2.328,2.912,4.409,4.561,6.476c1.561,1.958,2.042,4.184,1.602,6.189
		c1.756-2.187,1.686-4.715-0.148-7.208c-1.945-2.642-3.837-5.323-5.741-7.984c-0.079,0.087-0.154,0.176-0.247,0.258
		C32.53,37.914,32.931,38.629,33.369,39.423z"/>
	<path style="fill:#25375C;" d="M34.632,33.382c-0.029,0.447-0.052,0.895-0.105,1.332c2.536-3.908,1.068-10.21-3.672-13.472
		c0.199,0.682,0.221,1.218,0.483,1.58c0.675,0.932,1.061,1.89,1.257,2.866C33.96,27.941,34.826,30.414,34.632,33.382z"/>
	<path style="fill:#25375C;" d="M66.818,16.622c1.296-1.007,1.424-1.955,0.189-3.574c-0.336,0.153-0.669,0.31-1.001,0.467
		c0.506,0.764,0.801,1.784,0.812,3.023C66.82,16.568,66.816,16.593,66.818,16.622z"/>
	<path d="M222.222,13.471c-0.004,0.013-0.01,0.027-0.014,0.041c0.025-0.011,0.05-0.023,0.075-0.033
		C222.263,13.476,222.242,13.474,222.222,13.471z"/>
	<path style="fill:#25375C;" d="M189.6,117.746c-0.246,0.127-0.355,0.437-0.491,0.66c-0.346,0.565-0.814,1.328-1.54,1.416
		c-0.394,0.047-0.792-0.142-1.133-0.314c-0.275-0.139-0.541-0.298-0.805-0.458c-0.746-0.453-1.658-1.2-2.574-1.19
		c-0.834,0.009-1.265,0.699-1.417,1.447c-0.407,2.002-1.558,1.971-3.011,1.546c-0.814-0.238-1.755-0.42-2.354-0.949
		c-0.792-0.7-1.834-1.603-2.969-1.538c-0.533,0.031-0.993,0.307-1.363,0.679c-0.46,0.464-0.731,1.447-1.374,1.65
		c-0.207,0.065-0.427,0.07-0.644,0.074c-4.668,0.09-9.337,0.133-14.004,0.258c-1.089,0.029-2.166,0.383-3.257,0.519
		c-0.734,0.092-1.646,0.349-2.195,0.037c-1.883-1.072-3.718-1.586-5.854-0.798c-0.407,0.15-1.118-0.277-1.589-0.59
		c-2.74-1.82-6.043-1.755-8.297,0.587c-1.445,1.502-2.466,1.725-4.373,0.689c-1.212-0.658-3.08-0.356-4.599-0.126
		c-1.251,0.189-2.181,0.447-3.096-0.813c-1.122-1.546-2.516-0.942-3.819-0.036c-0.792,0.551-1.635,1.029-2.857,1.791
		c-0.188-1.543-0.314-2.58-0.484-3.978c-1.244,0.417-2.314,0.776-3.384,1.135c-0.129-0.109-0.257-0.219-0.386-0.328
		c0.531-0.638,1.076-1.265,1.589-1.918c1.101-1.401,2.299-2.746,3.223-4.257c0.378-0.618,0.464-1.826,0.096-2.36
		c-0.311-0.451-1.527-0.563-2.247-0.402c-5.503,1.231-11.004,1.15-16.485,0.026c-1.818-0.373-3.573-1.098-5.318-1.762
		c-3.368-1.281-6.485-2.903-10.462-1.823c-4.035,1.096-8.32,1.271-12.988,1.917c4.953,2.771,9.094,1.065,13.412-1.147
		c0.042,0.728,0.096,1.35,0.131,1.937c0.764-0.737,1.924-0.837,3.246-0.117c7.011,3.82,14.443,5.304,22.374,4.329
		c0.839-0.103,1.71-0.048,2.557,0.033c0.841,0.081,1.819,0.137,2.238,0.994c0.504,1.034-0.266,1.827-0.916,2.461
		c-1.772,1.724-3.701,3.289-5.433,5.05c-4.342,4.414-2.829,9.728,3.17,11.233c0.815,0.205,1.696,0.236,2.542,0.21
		c2.348-0.073,4.529,0.817,6.813,1.108c0.74,0.094,1.347,0.586,1.097,1.412c-0.281,0.929-0.971,0.448-1.451,0.168
		c-3.336-1.948-6.525-0.959-9.464,0.761c-1.827,1.069-3.104,0.741-4.634-0.363c-3.609-2.602-6.9-5.582-10.233-8.504
		c-4.156-3.643-4.492-3.658-6.308,1.382c-0.061,0.17-0.124,0.322-0.189,0.465c1.271,0.816,2.565,1.593,3.891,2.303
		c1.358,0.727,3.212,0.514,4.595,1.213c2.803,1.418,5.6,2.954,8.099,4.84c2.497,1.885,5.099,2.513,8.116,2.298
		c2.972-0.211,6.071-0.661,8.157,2.333c3.903-3.024,1.913-6.574,1.752-9.822c-0.019-0.383-0.934-0.959-1.491-1.038
		c-2.443-0.348-4.905-0.57-7.364-0.791c-2.366-0.213-4.427-0.918-5.934-3.443c1.061,0.086,1.781,0.147,2.502,0.202
		c0.68,0.051,1.518,0.377,2.014,0.097c3.041-1.715,6.506-1.584,9.75-2.381c0.867-0.213,1.967-0.316,2.729,0.033
		c2.626,1.205,5.156,1.096,7.625-0.215c1.943-1.032,3.818-1.282,5.929-0.225c-2.279,3.682-4.502,7.264-6.716,10.851
		c-1.658,2.687-3.239,5.425-4.983,8.054c-0.967,1.458-0.633,2.429,0.53,3.547c2.116,2.035,4.604,2.701,7.292,1.807
		c2.681-0.892,4.239,0.176,5.486,2.328c0.771,1.33,1.51,2.681,2.35,3.966c1.466,2.242,2.127,2.168,4.17,0.468
		c2.648-2.204,4.235-5.559,6.236-8.216c1.022-1.356,1.622-1.814,2.899-0.346c0.601,0.692,1.445,1.187,2.222,1.708
		c1.556,1.046,3.074,1.121,4.315-0.35c1.345-1.595,2.69-3.104,4.418-4.28c3.306-2.25,6.754-2.271,10.105-0.448
		c2.138,1.163,3.843,0.784,5.986-0.14c3.234-1.394,6.736-2.165,10.124-3.2c0.643-0.196,1.42-0.221,1.911-0.609
		c4.484-3.543,8.905-7.165,13.378-10.722c0.994-0.791,2.071-1.509,3.193-2.103c3.724-1.971,6.145-1.324,8.366,2.245
		c1.451,2.333,3.674,3.232,6.14,2.736c4.767-0.959,9.318-0.943,13.625,1.57c0.904,0.527,1.822,1.048,2.697,1.623
		c-1.488-1.613-3.848-2.091-5.101-3.763c-2.545-3.395-5.796-4.157-9.509-2.951c-2.416,0.785-4.238-0.318-6.364-0.845
		c-3.702-0.919-1.706-3.646-2.142-5.583c-0.147-0.652,0.005-1.366-0.059-2.044c-0.256-2.715-2.152-3.753-4.474-2.381
		c-0.944,0.557-1.812,1.292-2.589,2.072c-4.272,4.29-8.758,8.397-11.889,13.683c-0.528,0.892-1.197,1.726-2.308,1.888
		c-3.78,0.55-7.129,3.787-11.403,1.602c-0.967-0.494-2.503,0.147-3.779,0.231c-0.746,0.049-1.768,1.13-2.195-0.158
		c-1.07,1.665-2.53,1.762-5.212,0.563c-3.83-1.713-9.567-0.186-12.349,3.681c-1.41,1.96-2.613,2.065-4.689,1.258
		c-2.11-0.82-4.461-0.998-6.677-1.572c-1.115-0.289-2.541-0.622-3.011-1.509c-2.161-4.081-5.845-7.483-8.606-11.379
		c-0.37-0.523-0.463-1.242-0.696-1.904c1.861-0.642,3.569-1.254,5.296-1.806c0.287-0.092,0.769-0.043,0.972,0.145
		c3.308,3.064,7.356,1.291,11.05,1.629c2.852,0.261,5.762-0.066,8.644-0.185c4.884-0.202,9.765-0.597,14.649-0.62
		c3.541-0.016,7.087,0.653,10.626,0.608c2.134-0.027,4.262-0.661,6.49-1.117c0.03-0.721-0.016-1.468-0.163-2.244
		c-0.352-1.852-1.302-3.325-2.613-4.491c-0.066,0.106-2.126-0.466-2.353-0.515c-0.394-0.086-0.787-0.173-1.181-0.259
		c-0.294-0.064-0.617-0.268-0.922-0.146C189.628,117.732,189.614,117.738,189.6,117.746z"/>
	<path style="fill:#25375C;" d="M294.18,101.763c-0.847-1.788-1.052-3.729-1.357-5.67c-0.539-3.433-0.202-7.018-1.852-10.272
		c-0.302-0.595-0.645-1.146-1.03-1.636c-4.53-0.287-7.121,2.458-9.604,6.277c-4.361,6.707-9.397,12.974-14.056,19.493
		c-0.634,0.887-0.734,2.156-1.082,3.248c0.996,0.234,2.018,0.749,2.983,0.656c5.339-0.515,10.662-1.196,15.996-1.773
		c1.033-0.112,2.088-0.016,3.761-0.016c-1.5,2.726-2.271,5.28-3.955,6.859c-1.636,1.533-4.212,2.06-6.371,3.04
		c-2.064,0.937-4.162,1.812-6.167,2.861c-1.412,0.739-2.107,2.617-4.217,2.373c-0.648-0.075-1.481,0.788-2.111,1.352
		c-2.559,2.291-5.412,1.265-7.274-0.364c-2.503-2.189-4.94-1.84-7.613-1.396c-2.512,0.417-4.998,0.994-7.507,1.431
		c-2.097,0.365-3.955-1.424-3.871-3.64c0.13-3.415,0.845-5.672,2.912-7.142c-1.097,0.318-2.204,0.64-3.331,0.969
		c1.499-2.99,1.944-3.344,4.414-3.062c1.864,0.213,3.16-0.572,4.13-1.994c0.621-0.911,1.115-1.922,1.569-2.932
		c1.883-4.183,3.431-8.659,8.862-9.544c0.077-0.013,0.142-0.092,0.214-0.137c8.771-5.415,13.951-17.111,11.923-27.248
		c-2.242-11.212-8.122-19.948-18.063-25.786c-1.164-0.684-2.074-1.733-2.633-2.962c-3.261-7.172-7.601-13.387-15.26-16.48
		c-1.51-0.61-1.787-1.407-0.818-2.698c1.768-2.354,2.591-5.183,3.854-7.789c0.536-1.105,0.74-2.355-0.268-3.344
		c-0.918-0.9-2.335-1.413-3.3-0.75c-2.8,1.922-5.242,0.85-7.924-0.212c-1.058-0.419-1.995-0.344-2.851,0.003
		c0.374,0.046,0.749,0.092,1.123,0.138c1.268,3.301,2.567,6.591,3.761,9.919c0.133,0.371-0.394,1.391-0.516,1.374
		c-0.841-0.114-2.129-0.183-2.396-0.711c-1.184-2.337-2.275-4.768-2.968-7.284c-0.269-0.976,0.567-2.256,0.92-3.403
		c-1.076,0.458-2.026,1.338-2.93,2.195c-1.448,1.372-1.066,2.905-0.326,4.469c0.511,1.08,0.928,2.204,1.443,3.282
		c0.824,1.728,0.187,2.547-1.596,2.781c-3.412,0.447-6.284-0.49-8.992-2.712c-4.881-4.005-10.317-6.797-16.798-7.54
		c-5.917-0.679-11.745-0.575-17.583,0.39c-1.946,0.322-3.667-0.01-5.39-1.01c-9.931-5.763-20.591-5.446-31.307-3.269
		c-5.898,1.198-11.257,3.933-16.071,7.619c-1.406,1.076-2.909,1.678-4.756,1.418c-7.276-1.027-14.467-0.643-21.49,1.628
		c-5.566,1.8-10.938,4.058-14.982,8.479c-1.527,1.67-3.106,2.373-5.343,2.344c-8.883-0.117-21.04,5.686-23.136,17.589
		c-0.32,1.817-1.29,3.138-2.919,3.965c-2.052,1.042-4.143,2.011-6.179,3.084c-8.427,4.439-15.386,16.62-14.288,25.558
		c1.509,12.281,6.886,21.742,19.626,25.442c1.007,0.292,1.894,0.683,2.222,1.869c0.431,1.56,1.051,3.069,1.493,4.627
		c1.187,4.189,1.511,4.336,5.946,3.73c5.578-0.762,11.158-1.521,16.821-1.386c3.872,0.093,4.998-0.404,5.65-3.246
		c-1.507,0.931-4.525,0.653-10.438,0.93c-3.841,0.18-7.661,0.655-11.463,1.23c-2.159,0.327-3.01,0.049-3.494-1.854
		c-0.586-2.302-1.432-4.562-2.419-6.725c-0.347-0.761-1.281-1.567-2.098-1.747c-11.498-2.538-17.911-11.852-18.745-23.885
		c5.183,4.396,10.218,9.201,17.181,10.661c3.114,0.653,6.526,1.117,9.589,0.536c6.813-1.292,13.783-2.263,19.922-6.061
		c1.215-0.751,3.302-0.412,4.914-0.141c4.696,0.789,9.325,2.012,14.036,2.662c4.962,0.684,9.631-0.818,14.026-3.036
		c2.343-1.183,4.468-2.82,6.855-3.886c0.902-0.403,2.301,0.056,3.398,0.394c1.195,0.368,2.352,0.838,3.489,1.356
		c3.803,1.732,8.124,2.66,11.6,4.9c8.62,5.555,17.701,6.646,27.384,3.945c2.705-0.754,4.678-2.581,6.342-4.882
		c2.07-2.864,4.442-5.594,8.483-5.251c2.959,0.251,5.899,0.763,8.835,1.236c4.105,0.661,8.186,1.475,12.299,2.076
		c4.426,0.647,8.624-0.252,12.683-2.103c1.109-0.506,2.622-1.035,3.628-0.669c2.233,0.811,3.009-0.433,3.597-1.979
		c0.818-2.15,1.413-4.384,2.115-6.579c0.286-0.894,0.57-1.791,0.916-2.663c0.495-1.246,0.845-2.109,1.208-2.657
		c-0.301-0.073-0.603-0.091-0.905,0.003c-2.469,0.771-2.536-0.842-2.588-2.442c-0.242-7.385,6.952-14.027,14.777-13.675
		c7.683,0.346,13.944,5.796,15.269,13.338c0.379,2.157-0.358,4.026-1.69,5.707c-0.929,1.172-2.219,2.187-1.149,4.03
		c0.151,0.26,0.166,0.468,0.1,0.635c1.395-0.188,2.777-0.666,4.157-1.393c2.124-1.118,4.312-2.173,6.774-0.461
		c-6.827,4.07-13.628,5.306-20.852,0.781c-0.103-0.055-0.207-0.11-0.31-0.165c-2.844-1.255-5.599-2.7-8.401-4.044
		c-1.443-0.587-2.343-0.032-2.778,1.529c-1.076,3.859-2.155,7.717-3.184,11.589c-1.402,5.273-2.793,10.549-4.12,15.841
		c-0.597,2.379-1.027,4.8-1.572,7.386c-2.023-0.487-3.279-1.56-2.772-4.009c0.138-0.668,0.177-1.357,0.324-2.023
		c0.971-4.404,0.683-4.908-3.715-5.857c-0.576-0.124-1.449,0.015-1.856,0.389c-3.512,3.231-8.008,3.65-12.359,4.156
		c-2.84,0.33-5.782-0.062-8.663-0.308c-1.687-0.144-2.346,0.41-2.374,2.082c-0.004,0.258,0.004,0.51,0.015,0.76
		c0.446-0.164,1.031-0.183,1.746-0.039c3.447,0.698,6.842,0.057,10.196-0.281c3.173-0.319,6.513-0.967,9.062-3.169
		c1.864-1.611,3.237-0.572,4.824,0.27c1.744,0.925,0.735,2.204,0.503,3.35c-1.035,5.117,0.982,7.978,6.218,8.333
		c2.03,0.138,2.655,0.955,2.689,2.831c0.039,2.127,0.065,4.281,0.759,6.338c1.274,3.775,6.46,5.095,9.221,2.318
		c1.598-1.607,3.115-3.293,5.123-5.425c-0.567,2.764-1.071,4.876-1.421,7.014c-0.476,2.908,2.229,5.505,5.078,4.982
		c2.682-0.493,5.453-0.732,8.045-1.412c2.896-0.76,4.79-0.066,6.465,2.123c0.637,0.833,1.466,1.832,2.494,1.533
		c3.7-1.079,7.864-1.124,10.704-4.3c1.715-1.918,3.84-3.69,6.262-3.666c5.799,0.058,8.656-2.928,10.596-7.969
		c1.641-4.263,5.329-7.292,7.933-10.989C294.729,104.988,294.875,103.232,294.18,101.763z M72.746,72.111
		c-0.38,1.905-1.275,3.262-3.563,3.734c-3.264,0.674-6.48,1.411-9.815,1.231c-3.999,0.168-7.788-0.379-11.268-2.558
		c-4.472-2.799-4.425-8.423-0.094-11.366c6.35-4.314,18.833-1.957,23.628,2.714C73.465,67.65,73.18,69.932,72.746,72.111z
		 M105.786,77.501c-2.075,1.365-4.452,2.089-6.96,2.122c-4.116-0.068-7.252-1.686-8.94-5.693c-0.877-2.082-0.052-4.536,1.915-5.648
		c5.172-2.924,9.733-1.067,14.114,1.314C108.514,71.008,108.374,75.799,105.786,77.501z M128.788,38.635
		c-1.824,3.386-3.853,6.588-7.437,8.546c-1.767,0.965-3.309,2.372-4.754,3.857c-2.309,2.372-5.613,2.023-7.326-0.809
		c-1.056-1.746-2.673-2.841-4.034-4.235c-1.916-1.965-1.751-3.321,0.613-4.657c1.679-0.949,2.968-2.329,4.193-3.703
		c3.198-3.587,7.338-4.761,12.042-5.252c1.281,0.205,2.724,0.364,4.134,0.675C129.218,33.716,130.269,35.886,128.788,38.635z
		 M199.784,71.845c-1.52,2.513-3.812,3.392-6.867,2.345c-3.048-1.045-5.959-2.491-8.929-3.765
		c-4.421-1.895-9.382-0.181-11.763,3.983c-3.829,6.697-9.586,10.154-17.352,10.158c-0.594,0-1.189,0.085-2.126,0.156
		c-3.109,0.137-6.467-0.304-9.618-1.787c-4.104-1.932-5.218-7-2.19-10.417c3.057-3.45,7.16-5.055,11.578-5.842
		c4.688-0.835,9.538-1.058,14.061-2.409c2.755-0.823,5.714-1.849,8.078-3.903c2.305-2.003,5.027-2.566,8.127-2
		c3.672,0.671,7.102,1.605,10.517,3.343c2.078,1.058,4.52,1.083,6.018,3.455C200.746,67.425,201.162,69.565,199.784,71.845z
		 M203.99,36.955c-0.844,4.017-3.058,7-6.77,8.76c-2.939,1.393-5.376,2.921-4.739,6.872c0.243,1.506-2.433,3.654-4.216,3.263
		c-2.248-0.492-4.815-0.41-6.517-2.482c-1.357-1.652-3.459-2.14-5.222-3.141c-3.36-1.908-5.859-4.676-8.047-7.736
		c-1.706-2.385-0.591-10.962,1.56-13.438c3.349-3.854,8.857-6.324,14.718-6.288c4.118,0.177,8.144,2.401,11.889,5.091
		c1.978,1.421,3.523,3.361,5.775,4.562C203.971,33.245,204.378,35.11,203.99,36.955z M222.827,37.007
		c-1.65-0.168-2.8-1.237-2.846-2.797c-0.05-1.67,1.552-1.744,2.794-1.979c1.328,0.305,2.911,0.219,3.219,1.998
		C226.194,35.387,224.18,37.145,222.827,37.007z M257.051,95.223c3.229-1.802,6.438-3.642,9.279-5.254
		c-1.411,4.732-7.825,10.03-12.277,9.588C254.177,97.486,255.327,96.185,257.051,95.223z M225.62,117.826
		c-0.008-1.608-0.462-3.213-0.475-4.821c-0.006-0.676,0.605-1.357,0.935-2.036c0.743,0.447,1.639,0.761,2.183,1.382
		c0.464,0.531,0.59,1.402,0.75,2.147c0.653,3.048,1.262,6.106,1.891,9.178C227.706,123.104,225.639,121.483,225.62,117.826z"/>
	<path style="fill:#25375C;" d="M266.718,102.403c3.867-6.396,8.117-12.563,12.293-18.768c0.439-0.652,0.949-1.131,1.504-1.496
		c-1.656,0.296-3.137,1.005-4.01,2.808c-4.485,9.26-11.314,16.84-17.244,25.068c-0.424,0.589-0.886,1.109-1.379,1.577
		C261.381,109.4,264.312,106.382,266.718,102.403z"/>
	<path d="M72.74,128.274c1.385-1.443,2.432-2.479,3.35-3.133c-0.841,0.196-1.731,0.921-3.32,2.213
		c-1.343,1.092-2.243,1.818-3.011,2.215C70.8,129.924,71.661,129.399,72.74,128.274z"/>
	<path style="fill:#25375C;" d="M188.397,282.046c-18.589,5.335-37.494,6.516-56.558,3.472
		c-30.758-4.911-56.835-18.824-77.773-41.921c-19.155-21.13-30.256-46.029-33.373-74.396c-0.595-5.417-0.542-10.903-0.842-16.354
		c-0.039-0.718,0.036-1.27,0.24-1.679c-2.792,0.089-2.959,0.398-2.973,3.543c-0.062,14.266,1.913,28.235,6.299,41.822
		c5.985,18.542,15.419,35.097,28.589,49.517c10.356,11.338,22.336,20.542,35.819,27.834c14.744,7.974,30.529,12.791,47.102,14.784
		c8.863,1.066,17.78,1.187,26.779,0.334c14.341-1.36,28.074-4.743,41.253-10.384c10.797-4.622,20.784-10.656,30-17.991
		c10.79-8.588,19.875-18.439,27.348-29.495c-3.12,4.401-6.535,8.648-10.257,12.733C233.146,262.426,212.531,275.12,188.397,282.046z
		"/>
	<path style="fill:#25375C;" d="M38.529,143.733c0.139-1.512,0.741-2.288,2.28-1.873c2.126,0.573,4.301,1.07,6.312,1.934
		c3.158,1.358,6.686,1.723,9.034,0.421c-0.4-0.712-0.776-1.437-1.205-2.129c-0.392-0.632-0.843-1.227-1.433-2.077
		c2.199-0.524,3.986-1.338,5.828,0.53c0.612,0.62,2.018,0.631,3.058,0.623c4.247-0.034,8.505-0.034,12.737-0.34
		c3.246-0.234,6.452-0.981,9.693-1.333c0.8-0.087,1.671,0.477,2.958,0.883c0.751-0.688,2.162-1.541,2.88-2.792
		c0.485-0.845,0.453-2.855-0.138-3.303c-3.118-2.364-6.457-4.445-9.803-6.488c-0.458-0.279-1.527-0.004-2.063,0.372
		c-2.021,1.415-4.011,2.894-5.87,4.513c-1.166,1.016-2.017,1.079-3.366,0.252c-2.968-1.821-5.999-3.596-9.18-4.988
		c-1.425-0.623-3.363-0.66-4.911-0.296c-3.363,0.791-6.626,2.01-10.444,2.706c0.472-0.742,0.772-1.84,1.445-2.165
		c2.171-1.048,4.342-2.312,6.576-3.176c-2.926,0.357-5.808,1.718-8.973,4.126c-2.223,1.691-2.348,4.149-0.314,6.122
		c0.858,0.832,1.741,1.641,2.557,2.514c0.49,0.524,1.521,0.997,1.006,1.836c-0.521,0.848-1.614,0.984-2.547,0.636
		c-1.784-0.665-3.224-1.878-4.66-3.106c-2.074-1.774-4.169-3.529-6.346-5.174c-1.507-1.139-3.247-1.246-4.744-0.012
		c-1.519,1.253-1.122,2.874-0.437,4.451c0.863,1.991,2.212,3.647,3.631,5.242c1.328,1.492,1.278,2.672,0.137,4.48
		c-1.138,1.803-2.332,3.339-3.799,4.297c0.77,0.004,1.541,0.01,2.31,0.029C34.398,150.544,38.198,147.338,38.529,143.733z"/>
	<path style="fill:#25375C;" d="M249.928,138.002c2.737-1.368,4.911-0.631,6.753,1.697c1,1.264,2.096,2.466,3.25,3.593
		c2.003,1.956,4.381,2.471,7.077,1.644c0.79-0.242,1.85-0.673,2.426-0.358c2.424,1.328,3.943-0.309,6.003-1.022
		c0.098-0.034,0.327-0.156,0.427-0.185c-3.363,0.027-3.513,0.143-3.786-3.443c-0.075-0.985-0.305-1.87-1.266-2.351
		c-1.02-0.511-1.82,0.028-2.557,0.641c-1.377,1.146-2.721,2.331-4.087,3.49c-2.469,2.093-3.884,1.719-5.13-1.344
		c-2.674-6.575-7.895-8.247-13.991-4.475c-0.392,0.242-0.885,0.655-1.299,0.709c0.181,0.135,0.367,0.264,0.54,0.407
		C246.035,138.445,247.798,139.067,249.928,138.002z"/>
	<path style="fill:#25375C;" d="M190.762,131.326c-2.413,0.532-4.866,0.962-7.198,1.743c-0.894,0.3-1.883,1.327-2.176,2.234
		c-0.032,0.099-0.065,0.188-0.097,0.283c0.247-0.114,0.52-0.203,0.8-0.275c2.479-0.632,4.962-1.243,7.439-1.88
		c3.538-0.91,5.946-2.957,6.9-5.678C195.207,129.383,193.074,130.816,190.762,131.326z"/>
	<path d="M107.32,242.063c0.001,0.078,0.002,0.153,0.003,0.233c0.005-0.013,0.01-0.026,0.014-0.04
		C107.331,242.19,107.326,242.127,107.32,242.063z"/>
	<path d="M107.319,241.999c-0.001,0.003-0.003,0.007-0.004,0.01c0.002,0.018,0.003,0.035,0.005,0.053
		C107.32,242.041,107.319,242.02,107.319,241.999z"/>
	<path style="fill:#25375C;" d="M109.988,246.766c2.958,3.806,6.813,4.653,11.206,3.639c12.087-2.79,24.356-3.343,36.649-2.585
		c6.642,0.41,13.271,1.397,19.843,2.539c0.198,0.034,0.401,0.058,0.601,0.07c0.303,0.019,0.597,0.037,0.878,0.054
		c0,0,0.199,0.168,0.199,0.168c5.067,0.9,9.952-1.644,12.266-6.215c11.847-23.408-22.394-38.727-40.694-39.398
		c-17.138-0.628-35.353,7.693-42.69,23.981C105.581,234.935,105.957,241.58,109.988,246.766z"/>
	<path style="fill:#25375C;" d="M227.045,132.299c-2.48,0.49-4.712-0.426-6.161-2.785c-2.217-3.61-4.723-4.594-8.474-2.621
		c-1.13,0.595-1.857,1.191-3.222,1.994c-5.056,2.979-8.979,7.061-13.501,10.617c-0.495,0.389-1.19,0.994-1.837,1.189
		c-3.41,1.03-6.934,1.794-10.19,3.187c-2.158,0.923-3.873,1.299-6.018,0.117c-3.36-1.852-5.857-2.668-10.256,0.051
		c-1.79,1.106-3.386,2.62-4.745,4.224c-1.253,1.479-3.811-0.504-3.956,0.772c-0.107,0.937-1.625-1.032-2.226-1.733
		c-1.277-1.486-2.294-1.15-3.327,0.214c-2.023,2.672-4.071,5.324-6.077,8.009c-1.603,2.145-2.54,2.156-4.004-0.112
		c-0.839-1.3-1.577-2.667-2.346-4.011c-1.245-2.176-2.806-3.26-5.505-2.37c-2.705,0.891-5.204,0.209-7.323-1.853
		c-1.164-1.132-1.496-2.114-0.518-3.58c1.764-2.646,3.364-5.402,5.042-8.106c2.24-3.61,4.489-7.215,6.796-10.921
		c-2.118-1.075-4.004-0.83-5.961,0.203c-2.487,1.313-5.031,1.413-7.666,0.186c-0.764-0.356-1.87-0.256-2.743-0.045
		c-3.264,0.791-6.747,0.646-9.811,2.363c-0.499,0.28-1.341-0.052-2.024-0.106c-0.724-0.058-2.715,0.537-3.78,0.446
		c1.505,2.554,4.388,3.826,6.766,4.05c2.471,0.233,4.127,0.238,6.582,0.598c0.56,0.082,1.409-0.065,1.427,0.322
		c0.149,3.277,2.025,5.983-0.464,9.65c-2.085-3.03-5.202-2.588-8.191-2.387c-3.034,0.204-5.647-0.439-8.15-2.351
		c-2.504-1.913-5.309-3.474-8.121-4.915c-1.388-0.711-3.252-0.504-4.614-1.243c-1.33-0.721-2.628-1.511-3.902-2.339
		c-0.635,1.402-1.422,1.509-2.781,0.457c-1.629-1.26-3.274-2.516-5.013-3.612c-2.2-1.387-3.183-1.986-4.247-1.741
		c-0.926,0.656-1.983,1.697-3.381,3.148c-1.58,1.639-3.99,1.867-6.046,1.098c-1.635-0.611-3.065-1.658-4.605-2.479
		c-1.92-1.024-4.026-1.7-6.183-1.985c-1.008-0.133-2.043-0.18-3.034,0.047c-1.354,0.311-2.534,1.11-3.784,1.714
		c-0.875,0.423-1.798,0.758-2.608,1.295s-1.515,1.328-1.67,2.287c2.287-0.473,4.553-1.044,6.791-1.711
		c1.836-0.548,3.693-1.166,5.609-1.142c4.381,0.056,8.612,3.333,12.187,5.554c1.353,0.84,2.209,0.78,3.385-0.24
		c1.875-1.626,3.881-3.111,5.919-4.53c0.541-0.377,1.617-0.651,2.076-0.367c3.355,2.075,6.703,4.188,9.828,6.585
		c0.592,0.454,0.616,2.483,0.125,3.333c-0.727,1.259-2.149,2.114-2.907,2.805c-1.292-0.415-2.165-0.987-2.97-0.903
		c-3.26,0.342-6.486,1.082-9.75,1.305c-4.256,0.291-8.536,0.274-12.806,0.291c-1.046,0.004-2.46-0.013-3.072-0.641
		c-1.844-1.892-4.354-0.6-6.566-0.08c0.59,0.859,0.575,1.294,0.967,1.933c0.429,0.7,0.798,1.352,1.197,2.071
		c-2.365,1.304-4.728,0.692-7.897-0.69c-2.017-0.88-4.203-1.39-6.337-1.977c-1.545-0.425-2.154,0.356-2.299,1.881
		c-0.347,3.637-4.181,6.856-7.859,6.746c-0.773-0.023-1.548-0.032-2.322-0.039c-1.618,1.051-3.562,1.401-6.128,0.605
		c-0.534-0.166-1.188,0.092-1.788,0.104c-0.166,0.003-0.318,0.007-0.468,0.011c-0.207,0.411-0.212,0.968-0.248,1.693
		c-0.277,5.565-0.301,11.052,0.275,16.519c3.018,28.632,14.581,53.781,33.75,75.177c20.954,23.387,47.111,37.53,78.01,42.609
		c19.152,3.148,38.161,2.033,56.869-3.274c24.289-6.89,45.065-19.613,62.133-38.269c3.757-4.107,7.208-8.378,10.362-12.805
		c5.22-7.684,9.676-15.947,13.362-24.795c5.435-13.045,8.576-26.644,9.805-40.716c0.571-6.534,0.634-13.101-0.12-19.636
		c-0.155-1.341-0.199-2.601-1.837-2.821c-1.953-0.263-3.919-0.615-5.879-0.609c-0.073,0-0.135,0-0.204,0.001
		c-0.1,0.03-0.196,0.085-0.301,0.091c-3.132,0.177-4.114,1.159-6.039,1.007c-0.658-0.052-1.645,0.11-2.44,0.352
		c-2.713,0.824-5.101,0.295-7.107-1.687c-1.155-1.141-2.252-2.359-3.252-3.638c-1.842-2.357-4.025-3.109-6.781-1.74
		c-2.515,1.249-4.4-0.118-6.419-1.551c-0.088-0.063-0.177-0.125-0.265-0.188c-0.986-0.7-2.001-1.316-3.042-1.931
		C236.416,131.386,231.84,131.351,227.045,132.299z M245.713,141.664c5.937,3.452,11.917,6.829,17.882,10.235
		c0.448,0.256,0.898,0.506,1.354,0.747c5.005,2.636,11.503,1.712,11.711,7.347c1.688,45.876-28.573,87.544-68.905,108.549
		c-22.062,11.49-51.654,17.09-76.319,13.223c-28.965-4.541-56.118-20.82-75.927-42.327c-15.273-16.582-26.397-40.135-29.236-62.836
		c-2.287-18.288,16.584-18.271,16.029-25.028c-0.114-1.39-0.399-2.923,1.676-3.496c1.979-0.547,3.655-1.146,5.281,0.902
		c3.742,4.712,7.728,9.229,11.481,13.932c1.261,1.581,2.671,2.483,4.616,2.141c3.228-0.568,5.437,0.491,6.674,3.6
		c0.266,0.668,0.885,1.193,1.676,2.219c2.509-2.94,4.888-5.604,7.129-8.381c4.643-5.753,9.225-11.556,13.804-17.361
		c1.255-1.59,2.754-2.436,4.843-2.433c1.965,0.003,3.95-0.178,5.89-0.498c2.152-0.355,3.66,0.47,4.877,2.114
		c1.073,1.451,2.143,2.905,3.197,4.371c1.375,1.913,2.671,3.752,5.567,3.406c0.645-0.077,1.688,1.283,2.181,2.184
		c2.471,4.519,4.838,9.095,7.203,13.671c0.932,1.802,2.156,2.229,3.625,0.753c3.919-3.937,8.082-4.391,12.625-1.141
		c0.334,0.239,0.798,0.306,1.21,0.42c5.824,1.605,5.698,1.517,9.085-3.456c4.179-6.136,2.519-5.872,9.621-3.043
		c8.191,3.262,6.138,3.074,13.017-1.866c8.576-6.159,16.954-12.595,25.385-18.955c1.463-1.103,2.53-1.032,4.096,0.046
		c6.803,4.685,5.04,5.01,11.332-0.105c2.998-2.437,3.362-2.431,6.266,0.149c2.433,2.162,4.846,4.359,7.42,6.341
		c0.552,0.425,2.019,0.336,2.619-0.114c1.846-1.387,3.655-2.91,5.144-4.666C241.722,140.087,243.538,140.399,245.713,141.664z"/>
	<path style="fill:#25375C;" d="M247.774,78.879c-1.685,0.349-3.331,0.265-5.025-0.314c-1.362-0.465-2.691-1.003-4.001-1.581
		c0.215,0.122,0.431,0.242,0.642,0.37c7.1,4.282,13.797,3.022,20.519-0.985c-2.462-1.713-4.65-0.658-6.774,0.461
		c-1.38,0.727-2.763,1.205-4.157,1.393C248.821,78.626,248.185,78.794,247.774,78.879z"/>
	<path style="fill:#25375C;" d="M148.286,140.202c0.62,0.79,2.06,1.029,3.174,1.318c2.215,0.575,4.567,0.753,6.677,1.572
		c2.076,0.807,3.279,0.701,4.689-1.258c2.782-3.867,8.519-5.394,12.349-3.681c2.682,1.2,4.142,1.102,5.212-0.563
		c-0.021-0.063-0.042-0.126-0.06-0.201c-0.225-0.942,0.259-1.477,0.963-1.803c0.032-0.095,0.065-0.184,0.097-0.283
		c0.293-0.907,1.282-1.934,2.176-2.234c2.332-0.782,4.785-1.211,7.198-1.743c2.312-0.51,4.445-1.944,5.667-3.573
		c0.261-0.744,0.411-1.537,0.446-2.373c-2.227,0.456-4.355,1.09-6.49,1.117c-3.539,0.045-7.085-0.624-10.626-0.608
		c-4.884,0.023-9.765,0.418-14.649,0.62c-2.882,0.119-5.792,0.447-8.644,0.185c-3.694-0.339-7.743,1.434-11.05-1.629
		c-0.203-0.188-0.685-0.236-0.972-0.145c-1.727,0.552-3.435,1.164-5.296,1.806c0.233,0.661,0.325,1.381,0.696,1.904"/>
	<path style="fill:#25375C;" d="M107.656,163.653c-3.878-3.292-10.862-3.453-14.521-0.464c-5.173,4.225-7.728,9.793-8.057,18.065
		c0.443,1.636,0.94,4.871,2.178,7.792c4.737,11.176,17.164,12.72,24.176,2.985C117.396,183.751,116.576,171.224,107.656,163.653z"/>
	<path style="fill:#25375C;" d="M196.635,163.468c-8.942,6.702-10.416,20.92-3.292,29.594c5.566,6.777,14.066,7.269,20.073,1.007
		c3.778-3.938,5.372-8.822,5.404-14.292c0.096-5.245-1.782-9.898-5.103-13.828C209.064,160.447,202.258,159.253,196.635,163.468z"/>
	<path style="fill:#25375C;" d="M33.175,36.242c0.156,0.217,0.311,0.436,0.467,0.654c0.574-0.634,0.789-1.387,0.885-2.182
		C34.16,35.278,33.711,35.793,33.175,36.242z"/>
	
		<image style="overflow:visible;" width="114" height="167" xlink:href="3BC1526.png"  transform="matrix(0.24 0 0 0.24 12.24 19.68)">
	</image>
	<path style="fill:#25375C;" d="M20.877,133.366c1.544,1.579,3.118,1.508,4.714,0.065c1.223-1.106,1.747-2.557,1.743-4.122
		c-0.011-4.261,0.909-8.479,0.535-12.755c-0.165-3.452,0.708-7.03-1.049-10.305c-1.812-3.376-3.694-6.715-5.558-10.063
		c-0.63-1.131-1.533-1.906-2.909-1.567c-5.364,1.321-9.96,3.909-13.413,8.321c-0.65,0.83-0.629,1.704-0.199,2.638
		c4.282,9.31,9.567,18.049,15.144,26.622C20.16,132.625,20.52,133.001,20.877,133.366z M9.935,99.931
		c0.226,0.294,0.635,0.699,0.897,1.185c4.048,7.501,8.035,15.036,12.142,22.504c1.017,1.849,2.49,3.443,3.591,5.253
		c0.381,0.625,0.562,2.119,0.336,2.234c-0.854,0.433-2.116,0.887-2.844,0.538c-0.985-0.473-1.801-1.575-2.374-2.587
		c-4.663-8.229-9.277-16.487-13.845-24.769C6.853,102.504,8.085,99.772,9.935,99.931z"/>
	<path style="fill:#25375C;" d="M52.394,28.053c3.77-3.797,8.166-6.67,12.868-9.126c0.963-0.503,1.621-1.156,1.556-2.304
		c-0.206,0.16-0.438,0.321-0.703,0.487c-4.089,2.568-8.032,5.398-11.841,8.368c-1.558,1.215-2.589,1.339-4.045-0.29
		c4.436-5.237,9.795-8.836,15.776-11.672c-1.076-1.624-3.113-2.077-5.458-0.932c-5.101,2.491-9.415,6.07-13.651,9.779
		c-1.988,1.741-1.377,3.087,0.191,4.639C49.104,28.998,50.928,29.53,52.394,28.053z"/>
	<path style="fill:#25375C;" d="M273.919,22.847c0.399,3.262,1.171,3.777,4.349,2.934c1.811-0.481,3.635-0.916,5.43-1.447
		c4.745-1.405,4.93-1.779,3.418-6.385c-0.293-0.891-0.616-1.775-0.849-2.681c-0.385-1.496-1.316-1.89-2.702-1.435
		c-2.106,0.691-4.208,1.393-6.308,2.104c-2.448,0.829-4.051,2.236-3.487,4.567C273.841,21.656,273.846,22.256,273.919,22.847z
		 M276.777,16.428c0.354-0.289,0.903-0.339,1.752-0.633c0.422,2.424,0.839,4.489,1.095,6.573c0.052,0.421-0.408,1.064-0.812,1.334
		c-0.342,0.228-1.048,0.245-1.416,0.039C276.047,22.989,275.586,17.4,276.777,16.428z"/>
</g>
</svg>
