<?xml version="1.0" encoding="iso-8859-1"?>
<!-- Generator: Adobe Illustrator 16.0.0, SVG Export Plug-In . SVG Version: 6.00 Build 0)  -->
<!DOCTYPE svg PUBLIC "-//W3C//DTD SVG 1.1//EN" "http://www.w3.org/Graphics/SVG/1.1/DTD/svg11.dtd">
<svg version="1.1" id="Layer_1" xmlns="http://www.w3.org/2000/svg" xmlns:xlink="http://www.w3.org/1999/xlink" x="0px" y="0px"
	 width="300px" height="300px" viewBox="0 0 300 300" style="enable-background:new 0 0 300 300;" xml:space="preserve">
<path style="fill-rule:evenodd;clip-rule:evenodd;" d="M-924.967,118.183c2.771-2.505,4.738-4.864,8.073-5.152
	c0.593-0.051,1.386-0.344,1.687-0.794c1.4-2.092,4.065-2.667,5.518-4.449c2.648-3.25,6.465-4.55,9.765-6.699
	c3.465-2.256,7.002-4.402,10.524-6.57c1.069-0.658,2.169-1.276,3.298-1.822c1.29-0.624,2.764-0.951,3.916-1.755
	c2.314-1.614,4.671-2.618,7.584-2.273c1.495,0.178,2.881-0.294,3.024-2.247c0.128-1.767,2.1-1.758,2.911-2.924
	c1.748-2.514,4.458-2.879,7.232-2.942c0.44-0.01,0.925,0.22,1.315,0.459c0.228,0.139,0.428,0.519,0.423,0.786
	c-0.006,0.269-0.22,0.632-0.453,0.775c-0.394,0.242-0.876,0.485-1.318,0.48c-2.888-0.034-4.635,1.577-6.223,3.793
	c-1.983,2.767-4.368,5.14-8.166,5.188c-0.46,0.006-0.978,0.162-1.367,0.408c-3.3,2.09-6.864,3.263-10.775,3.615
	c-1.58,0.142-2.857,1.309-4.188,2.605c0.406,1.167,0.809,2.322,1.24,3.561c-0.373,0.304-0.706,0.806-1.078,0.837
	c-1.26,0.107-2.567,0.23-3.796,0.012c-2.028-0.361-3.387,0.381-4.463,2.008c-0.438,0.662-1.096,1.185-1.499,1.863
	c-1.104,1.854-2.712,3.045-4.562,4.102c-1.64,0.937-3.093,2.212-4.579,3.398c-1.747,1.395-3.429,2.869-5.161,4.282
	c-1.901,1.55-3.931,2.046-6.188,0.709C-922.944,119.042-923.688,118.773-924.967,118.183z"/>
<path style="fill-rule:evenodd;clip-rule:evenodd;" d="M-778.79,48.513c3.816-0.774,6.6-1.592,9.138-3.287
	c2.35-1.568,5.091-1.079,7.597-0.733c0.633,1.399-0.028,2.216-0.846,2.63c-1.24,0.628-2.599,1.199-3.961,1.371
	c-3.129,0.395-6.289,0.561-9.44,0.748C-776.831,49.273-777.38,48.941-778.79,48.513z"/>
<path style="fill-rule:evenodd;clip-rule:evenodd;" d="M-723.552,40.469c-0.883,0.135-1.776,0.429-2.648,0.378
	c-5.277-0.307-10.598,1.281-16.229-0.355c3.959-0.663,7.535-1.286,11.118-1.854C-727.858,38.089-727.275,38.196-723.552,40.469z"/>
<path style="fill-rule:evenodd;clip-rule:evenodd;" d="M-553.617,48.221c3.687-0.372,6.347,0.786,9.069,1.574
	c0.572,0.166,1.126,0.591,1.55,1.03c0.693,0.719,1.048,1.636,0.539,2.598c-0.495,0.936-2.649,1.235-3.423,0.458
	c-1.058-1.062-1.007-2.955-2.929-3.458C-550.294,50.036-551.646,49.15-553.617,48.221z"/>
<path style="fill-rule:evenodd;clip-rule:evenodd;" d="M-635.192,38.066c-0.799-0.137-2.057-0.236-3.226-0.613
	c-0.44-0.142-0.941-0.936-0.922-1.413c0.018-0.447,0.641-1.181,1.075-1.242c1.22-0.171,2.495-0.188,3.72-0.036
	c2.607,0.322,4.104,1.278,3.606,2.126C-631.827,38.398-633.412,37.831-635.192,38.066z"/>
<path style="fill-rule:evenodd;clip-rule:evenodd;" d="M-545.468,747.493c-2.665-0.021-4.127-0.749-3.913-1.924
	c0.333-1.826,2-1.714,3.3-2.044c0.584-0.148,1.241-0.124,1.848-0.043c1.048,0.139,2.015,1.296,1.937,2.312
	c-0.091,1.177-1.011,1.457-1.97,1.61C-544.728,747.478-545.2,747.475-545.468,747.493z"/>
<path style="fill-rule:evenodd;clip-rule:evenodd;" d="M-799.282,55.757c-3.687,1.569-6.619,2.999-9.957,3.195
	c-0.321,0.019-0.889-0.476-0.953-0.807c-0.064-0.333,0.289-1.024,0.581-1.103c2.881-0.774,5.785-1.466,8.693-2.134
	C-800.692,54.857-800.384,55.17-799.282,55.757z"/>
<path style="fill-rule:evenodd;clip-rule:evenodd;" d="M-620.649,37.031c2.703-0.909,4.576-0.802,6.441-0.356
	c0.432,0.104,0.896,0.424,1.158,0.783c0.251,0.345,0.43,0.914,0.327,1.299c-0.101,0.375-0.556,0.843-0.932,0.927
	C-616.21,40.251-618.284,39.393-620.649,37.031z"/>
<path style="fill-rule:evenodd;clip-rule:evenodd;" d="M-854.065,81.001c-0.39-0.71-1.133-1.45-0.987-1.904
	c0.624-1.938,2.121-3.095,4.101-3.536c0.88-0.196,1.89,1.101,1.548,1.939C-850.207,79.471-851.962,80.173-854.065,81.001z"/>
<path style="fill-rule:evenodd;clip-rule:evenodd;" d="M-568.709,44.699c0,0.479,0.063,0.713-0.009,0.767
	c-1.97,1.482-3.903,1.561-5.46,0.138c-0.276-0.252-0.411-0.908-0.29-1.271c0.117-0.351,0.661-0.809,0.994-0.791
	c0.932,0.053,1.859,0.296,2.774,0.523C-569.992,44.241-569.304,44.506-568.709,44.699z"/>
<path style="fill-rule:evenodd;clip-rule:evenodd;" d="M-528.538,55.896c-1.848,0.043-3.705,0.216-5.54,0.084
	c-1.229-0.088-1.456-0.782-1.318-3.087c2.316,1.058,4.524,2.066,6.755,3.06C-528.618,55.938-528.538,55.896-528.538,55.896z"/>
<path style="fill-rule:evenodd;clip-rule:evenodd;" d="M-606.364,37.215c2.604-0.347,2.604-0.347,4.855,0.727
	C-603.236,39.191-603.243,39.204-606.364,37.215z"/>
<path style="fill-rule:evenodd;clip-rule:evenodd;" d="M-709.076,37.058c-2.557,1.19-4.072,1.124-5.811,0.344
	C-712.972,36.402-712.972,36.402-709.076,37.058z"/>
<path style="fill-rule:evenodd;clip-rule:evenodd;" d="M-627.878,37.179c0.322-0.364,0.403-0.54,0.529-0.584
	c0.893-0.311,1.794-0.527,2.552,0.291c0.071,0.077,0.053,0.353-0.028,0.437c-0.75,0.78-1.643,0.71-2.557,0.363
	C-627.511,37.637-627.597,37.474-627.878,37.179z"/>
<path style="fill-rule:evenodd;clip-rule:evenodd;" d="M-791.521,53.372c-0.156,0.231-0.313,0.658-0.47,0.659
	c-0.577,0.002-1.154-0.138-1.73-0.224c0.055-0.264,0.083-0.746,0.167-0.756c0.586-0.07,1.185-0.057,1.777-0.028
	C-791.686,53.027-791.606,53.25-791.521,53.372z"/>
<path style="fill-rule:evenodd;clip-rule:evenodd;" d="M-832.905,68.46c-0.524,0.365-0.846,0.744-1.229,0.821
	c-0.698,0.14-1.348-0.617-1-1.123c0.22-0.32,0.745-0.623,1.109-0.598C-833.686,67.584-833.379,68.055-832.905,68.46z"/>
<path style="fill-rule:evenodd;clip-rule:evenodd;" d="M-923.389,122.959c0.188,0.215,0.376,0.43,0.563,0.645
	c-0.38,0.129-0.755,0.286-1.147,0.353c-0.045,0.008-0.175-0.476-0.266-0.731C-923.956,123.137-923.673,123.048-923.389,122.959z"/>
<path style="fill-rule:evenodd;clip-rule:evenodd;" d="M-453.379,602.452c-0.157,0.239-0.266,0.598-0.483,0.685
	c-0.241,0.097-0.581-0.055-0.878-0.099c0.187-0.323,0.323-0.701,0.588-0.937C-454.066,602.025-453.646,602.324-453.379,602.452z"/>
<path style="fill-rule:evenodd;clip-rule:evenodd;" d="M-842.417,71.252c-0.219-0.121-0.437-0.242-0.655-0.363
	c0.188-0.171,0.362-0.366,0.575-0.499c0.057-0.035,0.346,0.149,0.336,0.188C-842.215,70.81-842.325,71.029-842.417,71.252z"/>
<path style="fill-rule:evenodd;clip-rule:evenodd;" d="M-692.589,35.553c0.493,0,0.985,0,1.478,0c0,0.122,0,0.244,0,0.366
	c-0.493,0-0.985,0-1.478,0C-692.589,35.797-692.589,35.675-692.589,35.553z"/>
<path style="fill-rule:evenodd;clip-rule:evenodd;" d="M-578.216,740.498c-0.053,0.136-0.069,0.327-0.167,0.391
	c-0.104,0.067-0.287,0.014-0.436,0.013c0.077-0.216,0.153-0.431,0.23-0.645C-578.464,740.337-578.34,740.418-578.216,740.498z"/>
<polygon style="fill-rule:evenodd;clip-rule:evenodd;" points="-458.752,605.152 -458.653,604.822 -458.388,605.048 "/>
<polygon style="fill-rule:evenodd;clip-rule:evenodd;" points="-785.918,50.312 -786.097,50.034 -785.734,50.035 "/>
<path style="fill-rule:evenodd;clip-rule:evenodd;" d="M-337.677-119.456c-85.115,0-154.115,69-154.115,154.115
	c0,85.115,69,154.115,154.115,154.115c85.116,0,154.116-69,154.116-154.115C-183.561-50.457-252.561-119.456-337.677-119.456z
	 M-337.677,176.249c-81.31,0-147.224-65.914-147.224-147.224c0-81.31,65.914-147.224,147.224-147.224
	s147.225,65.915,147.225,147.224C-190.453,110.335-256.368,176.249-337.677,176.249z"/>
<g>
	<path style="fill-rule:evenodd;clip-rule:evenodd;" d="M-392.981-5.089c2.338,0.087,4.542,0.169,6.746,0.256
		c0.262,0.01,0.533,0.017,0.781,0.088c1.264,0.364,2.552,0.582,3.854,0.762c0.873,0.121,1.725,0.433,2.572,0.703
		c1.192,0.38,2.417,0.703,3.545,1.228c1.613,0.75,3.209,1.568,4.71,2.519c3.906,2.473,7.139,5.648,9.65,9.553
		c1.797,2.796,3.184,5.765,4.058,8.971c0.666,1.106,0.674,2.409,1.046,3.605c0.369,1.185,0.549,2.484,0.514,3.724
		c-0.057,1.997-1.598,3.16-3.206,3.267c-1.145,0.076-2.118-0.21-3.063-0.942c-2.192-1.7-4.395-3.395-6.831-4.756
		c-2.376-1.327-4.772-2.64-7.358-3.467c-3.137-1.003-6.303-1.89-9.586-2.42c-3.72-0.6-7.426-0.541-11.151-0.505
		c-0.262,0.003-0.53-0.01-0.787,0.035c-2.014,0.35-4.019,0.765-6.041,1.05c-1.465,0.208-2.828,0.749-4.25,1.09
		c-1.16,0.279-2.266,0.788-3.39,1.207c-2.209,0.822-4.304,1.886-6.369,3.014c-2.313,1.262-4.363,2.901-6.478,4.449
		c-0.169,0.124-0.332,0.258-0.487,0.398c-1.142,1.032-2.482,1.041-3.856,0.699c-1.242-0.31-2.2-1.407-2.289-2.682
		c-0.096-1.359-0.059-2.722,0.413-4.037c0.158-0.44,0.294-0.904,0.34-1.366c0.121-1.221,0.541-2.334,1.025-3.449
		c0.583-1.345,1.005-2.762,1.619-4.091c0.567-1.229,1.096-2.49,1.928-3.586c0.41-0.54,0.703-1.167,1.104-1.714
		c0.556-0.759,1.131-1.508,1.758-2.208c0.733-0.818,1.571-1.545,2.294-2.372c1.44-1.648,3.374-2.652,5.08-3.948
		c0.656-0.498,1.462-0.816,2.23-1.142c1.488-0.631,2.878-1.488,4.511-1.8c1.072-0.205,2.102-0.633,3.149-0.962
		c0.05-0.016,0.098-0.042,0.148-0.051c1.86-0.305,3.712-0.719,5.584-0.884C-397.268-5.049-395.055-5.023-392.981-5.089z"/>
	<path style="fill-rule:evenodd;clip-rule:evenodd;" d="M-244.727,25.722c0,0.263,0.006,0.525-0.001,0.787
		c-0.037,1.438-0.834,2.389-2.106,2.832c-1.438,0.5-2.843,0.435-4.151-0.599c-1.683-1.331-3.409-2.624-5.214-3.78
		c-2.332-1.494-4.767-2.837-7.354-3.845c-1.599-0.624-3.266-1.079-4.907-1.59c-0.896-0.279-1.811-0.499-2.706-0.777
		c-2.119-0.658-4.352-0.661-6.503-1.139c-0.607-0.135-1.253-0.127-1.882-0.135c-1.68-0.021-3.359-0.017-5.04-0.02
		c-1.315-0.002-2.623,0.059-3.904,0.404c-0.302,0.082-0.62,0.106-0.933,0.141c-2.298,0.254-4.544,0.72-6.749,1.427
		c-1.291,0.415-2.601,0.756-3.879,1.227c-1.87,0.689-3.614,1.631-5.398,2.498c-2.749,1.336-5.207,3.111-7.632,4.943
		c-0.251,0.19-0.515,0.369-0.742,0.584c-0.975,0.924-2.17,0.999-3.394,0.843c-1.393-0.176-2.726-1.678-2.861-3.172
		c-0.037-0.414-0.039-0.851,0.049-1.253c0.897-4.099,1.977-8.134,3.881-11.913c1.52-3.016,3.328-5.824,5.757-8.173
		c2.761-2.671,5.817-4.927,9.35-6.547c1.435-0.659,2.891-1.236,4.382-1.68c1.29-0.384,2.567-0.913,3.954-0.953
		c0.415-0.012,0.853-0.074,1.234-0.225c1.052-0.419,2.149-0.424,3.25-0.485c4.199-0.229,8.397-0.198,12.593,0.049
		c0.725,0.042,1.441,0.228,2.159,0.365c0.411,0.079,0.811,0.241,1.224,0.283c2.423,0.244,4.694,1.043,6.927,1.939
		c1.646,0.661,3.264,1.395,4.794,2.32c3.873,2.341,7.098,5.333,9.703,9.05c0.942,1.343,1.793,2.736,2.409,4.211
		c0.902,2.157,2.063,4.225,2.472,6.587c0.221,1.277,0.728,2.502,1.037,3.768c0.16,0.655,0.17,1.346,0.248,2.021
		C-244.684,25.717-244.706,25.72-244.727,25.722z"/>
	<path style="fill-rule:evenodd;clip-rule:evenodd;" d="M-333.127,115.845c-2.933,0.306-5.567,0.079-8.153-0.267
		c-2.526-0.339-4.974-1.142-7.351-2.167c-4.441-1.915-8.329-4.617-11.848-7.893c-1.112-1.035-2.151-2.137-3.185-3.254
		c-3.111-3.362-5.681-7.104-7.998-11.027c-0.959-1.623-1.83-3.301-2.661-4.994c-0.582-1.187-0.645-2.434,0.172-3.576
		c0.2-0.279,0.517-0.564,0.835-0.658c1.185-0.349,2.326-0.402,3.443,0.385c1.024,0.721,2.151,1.303,3.262,1.895
		c3.186,1.697,6.425,3.261,9.837,4.489c2.169,0.78,4.332,1.525,6.578,2.033c1.023,0.654,2.254,0.423,3.337,0.777
		c1.069,0.351,2.155,0.419,3.256,0.488c0.416,0.027,0.852,0.069,1.234,0.217c0.904,0.351,1.839,0.422,2.786,0.422
		c2.94-0.003,5.88-0.014,8.82-0.032c0.894-0.006,1.767-0.097,2.628-0.413c0.525-0.193,1.132-0.189,1.705-0.226
		c0.735-0.047,1.47-0.063,2.152-0.393c0.094-0.046,0.198-0.09,0.299-0.095c1.319-0.053,2.562-0.471,3.829-0.78
		c2.085-0.511,4.156-1.044,6.158-1.848c1.496-0.602,3.051-1.055,4.572-1.598c0.489-0.175,0.939-0.454,1.428-0.634
		c1.576-0.58,3.032-1.411,4.537-2.14c1.505-0.73,3.044-1.394,4.464-2.292c0.811-0.513,1.763-0.546,2.587-0.247
		c0.942,0.342,1.663,1.063,1.852,2.162c0.159,0.932-0.049,1.769-0.542,2.555c-1.28,2.042-2.538,4.099-3.845,6.123
		c-0.793,1.229-1.642,2.426-2.5,3.611c-0.429,0.592-0.938,1.124-1.404,1.688c-0.803,0.967-1.559,1.979-2.412,2.897
		c-1.142,1.229-2.31,2.441-3.552,3.566c-2.488,2.256-5.124,4.347-8.013,6.061c-2.706,1.605-5.527,3.013-8.601,3.83
		c-1.109,0.294-2.199,0.662-3.312,0.943c-0.555,0.141-1.138,0.188-1.712,0.233C-331.437,115.765-332.434,115.806-333.127,115.845z"
		/>
</g>
<path d="M-441.369-28.907c-0.009-1.569-0.15-3.126-0.441-4.67c-0.446-2.373-1.208-4.641-2.28-6.803
	c-1.688-3.401-3.973-6.325-6.813-8.8c-0.273-0.238-0.549-0.473-0.832-0.703c-2.08-1.686-4.352-3.057-6.822-4.093
	c-1.965-0.824-3.995-1.411-6.104-1.731c-1.137-0.173-2.279-0.269-3.428-0.283c-1.097-0.014-2.19,0.072-3.281,0.185
	c-1.334,0.138-2.65,0.367-3.954,0.681c-2.089,0.503-4.093,1.235-5.994,2.236c-4.408,2.321-7.866,5.635-10.329,9.973
	c-0.037,0.065-0.082,0.126-0.138,0.212c-0.06-0.085-0.105-0.145-0.145-0.209c-0.494-0.822-1.058-1.594-1.678-2.325
	c-2.576-3.038-5.695-5.372-9.264-7.118c-1.905-0.932-3.894-1.631-5.96-2.109c-1.204-0.279-2.423-0.48-3.653-0.584
	c-1.284-0.108-2.569-0.141-3.859-0.08c-1.674,0.08-3.326,0.298-4.957,0.663c-2.164,0.483-4.241,1.221-6.222,2.222
	c-3.976,2.01-7.249,4.836-9.791,8.496c-2.126,3.059-3.511,6.418-4.266,10.026c-0.088,0.418-0.169,0.84-0.239,1.266
	c-0.247,1.487-0.379,2.987-0.398,4.493c-0.012,0.896,0.039,1.792,0.07,2.687c0.049,1.4,0.193,2.792,0.372,4.182
	c0.219,1.692,0.53,3.367,0.937,5.022c0.441,1.801,0.995,3.566,1.664,5.296c0.956,2.474,2.14,4.833,3.533,7.087
	c2.176,3.52,4.807,6.671,7.76,9.561c2.647,2.591,5.502,4.936,8.479,7.137c3.365,2.49,6.862,4.785,10.396,7.025
	c3.24,2.052,6.49,4.088,9.726,6.147c2.414,1.537,4.792,3.129,7.107,4.813c0.386,0.28,0.771,0.56,1.159,0.842
	c0.052-0.039,0.094-0.068,0.133-0.102c2.777-2.313,5.672-4.469,8.622-6.55c3.526-2.485,7.072-4.943,10.602-7.424
	c3.424-2.407,6.792-4.889,10.017-7.561c2.541-2.106,4.979-4.324,7.249-6.722c2.416-2.554,4.603-5.287,6.475-8.267
	c1.099-1.748,2.073-3.562,2.913-5.448c0.691-1.55,1.282-3.137,1.778-4.761c0.429-1.407,0.792-2.831,1.052-4.278
	c0.194-1.085,0.371-2.178,0.498-3.273c0.129-1.114,0.215-2.235,0.27-3.355C-441.358-26.905-441.363-27.907-441.369-28.907z"/>
<path d="M-173.309-84.065c-0.009-1.569-0.149-3.126-0.44-4.67c-0.447-2.374-1.208-4.641-2.28-6.804
	c-1.688-3.402-3.973-6.325-6.813-8.8c-0.272-0.238-0.549-0.474-0.831-0.703c-2.081-1.686-4.352-3.057-6.823-4.093
	c-1.965-0.824-3.995-1.411-6.104-1.731c-1.138-0.173-2.28-0.269-3.428-0.283c-1.098-0.014-2.19,0.073-3.281,0.186
	c-1.334,0.138-2.65,0.367-3.954,0.68c-2.09,0.504-4.094,1.235-5.994,2.236c-4.409,2.321-7.866,5.634-10.33,9.973
	c-0.037,0.065-0.081,0.125-0.138,0.212c-0.059-0.085-0.105-0.145-0.144-0.209c-0.494-0.822-1.059-1.595-1.679-2.326
	c-2.575-3.038-5.695-5.372-9.264-7.118c-1.905-0.932-3.894-1.631-5.959-2.109c-1.204-0.279-2.423-0.48-3.654-0.584
	c-1.283-0.109-2.569-0.141-3.859-0.08c-1.673,0.08-3.326,0.298-4.957,0.663c-2.164,0.483-4.24,1.221-6.221,2.222
	c-3.977,2.011-7.249,4.836-9.792,8.497c-2.126,3.059-3.511,6.418-4.266,10.026c-0.087,0.419-0.168,0.84-0.239,1.266
	c-0.247,1.487-0.378,2.987-0.398,4.493c-0.012,0.895,0.039,1.792,0.07,2.686c0.049,1.4,0.193,2.792,0.372,4.182
	c0.219,1.692,0.531,3.367,0.937,5.023c0.442,1.8,0.995,3.566,1.664,5.296c0.956,2.474,2.14,4.832,3.534,7.086
	c2.176,3.52,4.807,6.672,7.759,9.561c2.648,2.591,5.503,4.937,8.479,7.137c3.365,2.489,6.863,4.785,10.397,7.024
	c3.239,2.052,6.49,4.088,9.725,6.148c2.414,1.537,4.793,3.128,7.107,4.813c0.386,0.28,0.771,0.56,1.16,0.842
	c0.051-0.039,0.094-0.068,0.133-0.101c2.776-2.313,5.671-4.47,8.622-6.551c3.526-2.485,7.071-4.942,10.601-7.424
	c3.424-2.407,6.793-4.889,10.018-7.561c2.541-2.106,4.979-4.324,7.248-6.723c2.416-2.553,4.603-5.287,6.476-8.266
	c1.099-1.748,2.072-3.562,2.913-5.448c0.69-1.55,1.282-3.138,1.777-4.762c0.429-1.407,0.792-2.831,1.052-4.277
	c0.195-1.086,0.372-2.178,0.499-3.274c0.129-1.114,0.214-2.234,0.269-3.355C-173.298-82.063-173.302-83.065-173.309-84.065z"/>
<path d="M-143.812,115.482c-0.009-1.569-0.15-3.127-0.441-4.671c-0.447-2.373-1.208-4.641-2.28-6.803
	c-1.688-3.402-3.973-6.325-6.813-8.8c-0.273-0.238-0.549-0.474-0.832-0.703c-2.08-1.687-4.352-3.057-6.822-4.094
	c-1.965-0.823-3.996-1.41-6.104-1.73c-1.137-0.173-2.28-0.27-3.428-0.283c-1.097-0.014-2.19,0.072-3.281,0.185
	c-1.334,0.138-2.65,0.367-3.954,0.681c-2.089,0.504-4.094,1.235-5.994,2.236c-4.409,2.321-7.866,5.635-10.33,9.974
	c-0.037,0.064-0.081,0.125-0.138,0.212c-0.059-0.086-0.105-0.146-0.144-0.209c-0.494-0.822-1.059-1.595-1.678-2.326
	c-2.576-3.038-5.696-5.371-9.265-7.117c-1.904-0.932-3.893-1.632-5.959-2.109c-1.204-0.278-2.423-0.48-3.653-0.584
	c-1.284-0.108-2.569-0.141-3.86-0.08c-1.673,0.08-3.325,0.299-4.957,0.663c-2.164,0.482-4.24,1.221-6.221,2.222
	c-3.977,2.011-7.249,4.836-9.791,8.496c-2.127,3.059-3.512,6.418-4.266,10.026c-0.088,0.419-0.169,0.84-0.239,1.266
	c-0.248,1.487-0.379,2.986-0.398,4.493c-0.012,0.895,0.038,1.791,0.07,2.686c0.049,1.4,0.192,2.792,0.372,4.182
	c0.219,1.692,0.53,3.366,0.937,5.023c0.441,1.8,0.994,3.565,1.663,5.296c0.956,2.474,2.14,4.832,3.534,7.086
	c2.176,3.521,4.807,6.672,7.759,9.562c2.648,2.591,5.503,4.937,8.479,7.137c3.366,2.489,6.863,4.785,10.397,7.024
	c3.24,2.052,6.49,4.088,9.726,6.147c2.414,1.537,4.792,3.129,7.107,4.813c0.385,0.28,0.771,0.56,1.159,0.842
	c0.051-0.039,0.094-0.068,0.133-0.102c2.776-2.312,5.672-4.469,8.622-6.55c3.526-2.485,7.072-4.942,10.602-7.424
	c3.424-2.407,6.792-4.89,10.017-7.562c2.541-2.106,4.979-4.324,7.248-6.723c2.417-2.554,4.604-5.286,6.476-8.267
	c1.099-1.748,2.073-3.562,2.913-5.447c0.69-1.551,1.282-3.138,1.777-4.762c0.43-1.407,0.793-2.831,1.053-4.277
	c0.194-1.086,0.371-2.179,0.498-3.274c0.129-1.113,0.215-2.234,0.27-3.355C-143.801,117.483-143.806,116.481-143.812,115.482z"/>
<g>
	<g>
		<g>
			<path style="fill:#25375C;" d="M82.458,88.409c-4.593,2.714-8.476,6.283-11.854,10.381c-2.583,3.135-4.759,6.558-6.681,10.138
				c-0.637,1.186-1.561,2.016-2.857,2.474c-1.722,0.61-2.832-0.162-3.156-2.04c-0.14-0.809,0.139-1.561,0.44-2.284
				c2.719-6.531,6.289-12.566,10.836-17.982c3.585-4.27,7.709-7.947,12.792-10.39c1.422-0.683,2.939-1.167,4.417-1.731
				c1.458-0.557,2.966-0.846,4.529-0.941c0.881-0.052,1.75-0.29,2.625-0.444c1.197,0.036,2.279,0.309,3.302,0.9
				c1.528,0.886,1.911,2.267,1.772,3.898c-0.05,0.59-0.4,0.999-0.78,1.422c-1.262,1.404-2.924,2.142-4.639,2.732
				c-1.583,0.546-3.216,0.954-4.842,1.363C86.259,86.434,84.3,87.319,82.458,88.409z M117.758,145.319
				c-0.681,4.516-2.054,8.778-5.053,12.365c-1.645,1.967-3.672,3.393-6.166,3.932c-1.751,0.378-3.549,0.233-5.244-0.567
				c-3.751-1.773-5.984-4.84-7.549-8.557c-0.725-1.723-1.307-3.491-1.658-5.298c-0.403-2.078-0.495-4.216-0.717-6.272
				c0.222-2.054,0.27-4.053,0.68-5.973c0.811-3.804,2.048-7.47,4.683-10.473c1.128-1.285,2.354-2.47,3.969-3.173
				c1.028-0.447,2.045-0.875,3.202-0.793c0.373,0.027,0.75,0.024,1.123,0c2.641-0.168,4.739,0.991,6.589,2.718
				c2.731,2.549,4.312,5.754,5.24,9.322c0.28,1.083,0.632,2.156,0.79,3.258c0.207,1.439,0.333,2.902,0.346,4.356
				C118.006,141.884,118.012,143.627,117.758,145.319z M177.221,108.861c1.876-1.163,3.973-1.848,6.097-2.478
				c2.541-0.752,5.127-0.863,7.733-0.806c1.31,0,2.628-0.101,3.924,0.027c1.358,0.136,2.701,0.468,4.041,0.76
				c1.2,0.263,2.393,0.562,3.575,0.892c2.584,0.721,5.038,1.771,7.485,2.87c3.812,1.712,7.346,3.879,10.792,6.209
				c1.137,0.769,2.23,1.602,3.311,2.449c0.896,0.702,1.416,1.626,1.374,2.808c-0.033,0.922-0.399,1.521-1.262,1.793
				c-1.4,0.441-2.773,0.417-4.098-0.35c-1.828-1.059-3.637-2.164-5.532-3.083c-2.569-1.247-5.189-2.398-7.838-3.465
				c-1.257-0.506-2.637-0.699-3.947-1.08c-2.598-0.756-5.27-1.005-7.947-1.203c-2.625-0.195-5.225,0.05-7.781,0.69
				c-1.146,0.287-2.266,0.721-3.426,0.917c-1.715,0.291-3.428,0.791-5.19,0.531c-0.796-0.118-1.595-0.343-2.339-0.649
				c-0.771-0.316-1.15-1.027-1.329-1.825C174.36,111.628,174.977,110.25,177.221,108.861z M173.37,204.895
				c-3.688,1.94-7.315,3.996-10.973,5.993c-1.163,0.636-2.099,1.537-2.949,2.527c-1.232,1.434-1.219,1.953,0.007,3.366
				c1.058,1.223,2.304,2.207,3.726,2.984c4.016,2.198,8.043,4.373,12.018,6.645c1.88,1.076,3.293,2.688,4.235,4.649
				c1.054,2.196,0.637,4.23-0.896,6.056c-1.415,1.686-3.243,2.829-5.178,3.821c-2.795,1.435-5.731,2.5-8.755,3.333
				c-1.708,0.472-3.434,0.882-5.133,1.379c-4.814,1.407-9.751,2.185-14.691,2.961c-0.733,0.115-1.412,0.076-1.997-0.454
				c-0.827-0.751-0.944-1.814-0.279-2.72c0.511-0.696,1.209-1.15,2.048-1.25c3.348-0.401,6.625-1.165,9.884-1.979
				c3.138-0.783,6.238-1.739,9.145-3.2c1.51-0.759,2.911-1.684,3.971-3.041c1.207-1.55,1.31-3.214,0.397-4.911
				c-1.198-2.229-3.001-3.846-5.218-5.046c-3.796-2.056-7.579-4.135-11.351-6.235c-1.271-0.709-2.45-1.557-3.445-2.645
				c-1.278-1.399-1.391-2.557-0.115-3.939c0.796-0.861,1.729-1.666,2.74-2.25c4.418-2.549,8.904-4.978,13.328-7.514
				c1.851-1.061,3.26-2.644,4.141-4.572c0.822-1.799,0.612-3.543-0.854-5.064c-0.764-0.793-1.693-1.453-2.632-2.039
				c-1.615-1.008-3.366-1.752-5.177-2.347c-1.292-0.424-2.564-0.915-3.876-1.263c-1.537-0.407-3.104-0.689-4.659-1.031
				c-1.121-0.246-2.236-0.525-3.363-0.748c-1.061-0.208-2.133-0.362-3.201-0.54c-0.744-0.122-1.318-0.493-1.712-1.143
				c-0.435-0.719-0.618-1.436-0.103-2.204c0.5-0.746,1.271-0.967,2.058-0.872c1.176,0.141,2.331,0.454,3.498,0.673
				c0.951,0.176,1.906,0.324,2.86,0.477c1.21,0.193,2.423,0.364,3.631,0.575c0.73,0.126,1.459,0.282,2.177,0.469
				c2.816,0.729,5.653,1.393,8.434,2.243c2.2,0.672,4.355,1.515,6.48,2.402c2.475,1.032,4.829,2.287,6.698,4.297
				c1.039,1.116,1.558,2.437,1.773,3.919c-0.188,1.272-0.497,2.485-1.226,3.576C177.45,202.307,175.563,203.742,173.37,204.895z
				 M197.787,150.021c-1.309-0.273-2.602-0.651-3.924-0.818c-2.146-0.271-4.305-0.501-6.465-0.579
				c-2.127-0.077-4.27-0.027-6.394,0.129c-1.588,0.115-3.15,0.563-4.738,0.722c-1.573,0.159-3.086,0.542-4.591,0.973
				c-1.432,0.411-2.824,0.967-4.261,1.359c-1.062,0.288-2.14,0.651-3.28,0.288c-1.044-0.33-1.604-1.362-1.383-2.437
				c0.465-2.256,1.694-4.017,3.376-5.523c2.397-2.147,5.019-3.977,7.99-5.213c1.62-0.677,3.303-1.211,5.055-1.561
				c2.314-0.462,4.621-0.816,6.993-0.901c1.969,0.197,3.965,0.248,5.898,0.624c4.098,0.797,7.97,2.237,11.379,4.723
				c1.868,1.362,3.601,2.883,5.105,4.651c0.908,1.064,1.398,2.35,1.847,3.637c0.386,1.109-0.256,2.205-1.399,2.514
				c-0.492,0.133-1.04,0.197-1.544,0.138c-1.673-0.2-3.27-0.735-4.828-1.349C201.054,150.779,199.434,150.363,197.787,150.021z"/>
			<path style="fill:#25375C;" d="M218.58,240.494c-4.048,3.358-11.368,9.527-19.23,13.932
				c-10.911,6.112-21.751,10.973-33.834,14.326c-23.005,6.385-46.92,4.223-69.202-4.236c-18.247-6.927-34.552-19.37-46.964-34.341
				c-15.646-18.872-26.083-42.002-30.346-66.114c-5.736-32.448,0.81-73.438,23.936-98.598c0.629-0.683,1.134-1.489,1.641-2.274
				c1.267-1.967,2.845-3.648,4.619-5.162c0.277-0.237,0.474-0.569,0.706-0.857c0.723-0.902,1.364-1.888,2.187-2.687
				c1.501-1.457,3.111-2.802,4.673-4.196c1.585-1.415,3.135-2.874,4.762-4.239c1.201-1.007,2.552-1.836,3.746-2.851
				c1.685-1.431,3.559-2.606,5.265-3.986c1.757-1.421,3.57-2.637,5.613-3.62c1.98-0.952,3.771-2.294,5.673-3.414
				c1.384-0.814,2.795-1.592,4.234-2.306c1.842-0.914,3.715-1.762,5.589-2.608c1.497-0.675,2.998-1.345,4.529-1.936
				c34.969-13.473,75.478-10.984,107.764,8.382c30.838,18.496,57.317,49.445,62.603,85.913c2.578,17.785,2.875,36.395-1.467,53.936
				c-1.031,4.164-0.514,8.013-3.234,10.421c0.668,1.053-0.5,14.967-5.75,8.623c-0.574-0.692-2.146,0.447-1.918,1.319
				c0.016,0.065,0.15,2.48,0.182,2.574c0.807,3.818-6.982,1.878-1.857-3.293c3.297-3.326,5.408-10.14,9.994-11.065
				c1.975-0.401,3.975-0.529,5.988-0.432c1.256,0.063,2.502,0.203,3.74,0.432c0.357,0.066,0.713,0.143,1.068,0.218
				c0.236-0.855,0.463-1.714,0.648-2.58c0.586-2.729,1.045-5.486,1.504-8.24c0.34-2.029,0.674-4.065,0.865-6.112
				c0.285-3.053,0.496-6.114,0.639-9.176c0.139-2.953,0.256-5.911,0.188-8.862c-0.08-3.285-0.361-6.566-0.592-9.847
				c-0.113-1.604-0.271-3.207-0.482-4.8c-0.363-2.744-0.729-5.491-1.197-8.218c-0.369-2.16-0.809-4.315-1.365-6.434
				c-1.279-4.86-2.779-9.652-4.449-14.396c-1.604-4.542-3.592-8.9-5.656-13.244c-2.004-4.218-4.301-8.262-6.76-12.217
				c-2.756-4.434-5.73-8.735-9.07-12.745c-3.217-3.863-6.541-7.657-10.071-11.232c-3.135-3.174-6.479-6.155-9.975-8.96
				c-2.853-2.291-5.804-4.438-8.777-6.563c-3.492-2.495-7.209-4.616-10.904-6.78c-4.057-2.375-8.307-4.358-12.606-6.209
				c-4.642-1.997-9.375-3.799-14.244-5.192c-1.995-0.571-4.027-1.006-6.039-1.52c-0.894-0.229-1.772-0.521-2.668-0.75
				c-0.754-0.194-1.516-0.364-2.281-0.502c-1.095-0.199-2.199-0.351-3.298-0.536c-0.879-0.148-1.758-0.291-2.63-0.478
				c-2.374-0.508-4.778-0.782-7.191-1.01c-1.638-0.155-3.271-0.4-4.91-0.482c-3.662-0.183-7.328-0.425-10.99-0.389
				c-4,0.04-8,0.309-11.991,0.589c-1.857,0.131-3.694,0.532-5.541,0.791c-1.439,0.201-2.888,0.337-4.322,0.565
				c-1.135,0.18-2.254,0.456-3.38,0.69c-1.017,0.212-2.037,0.413-3.05,0.642c-1.046,0.237-2.085,0.502-3.126,0.758
				c-0.719,0.177-1.43,0.407-2.158,0.53c-2.545,0.429-4.979,1.26-7.406,2.083c-2.774,0.939-5.493,2.043-8.245,3.049
				c-4.098,1.497-8.038,3.364-11.899,5.365c-3.399,1.762-6.711,3.714-9.946,5.764c-3.364,2.132-6.678,4.366-9.851,6.769
				c-3.744,2.834-7.375,5.826-10.717,9.142c-2.593,2.574-5.189,5.146-7.724,7.777C40.431,60.627,39.391,62,38.274,63.3
				c-3.504,4.075-6.632,8.434-9.594,12.906c-1.748,2.638-3.345,5.384-4.879,8.154c-1.533,2.768-2.981,5.59-4.321,8.458
				c-1.324,2.833-2.498,5.737-3.672,8.637c-0.81,2-1.574,4.022-2.242,6.072c-0.738,2.265-1.382,4.563-1.997,6.865
				c-0.655,2.455-1.25,4.923-1.829,7.396c-0.254,1.085-0.4,2.195-0.604,3.292c-0.251,1.353-0.511,2.704-0.769,4.057
				c-0.021,0.111-0.066,0.217-0.078,0.327c-0.179,1.591-0.3,3.192-0.544,4.775c-0.285,1.853-0.449,3.708-0.481,5.58
				c-0.008,0.429-0.206,0.708-0.644,0.79c0,6.143,0,12.287,0,18.429c0.433,0.091,0.626,0.368,0.64,0.797
				c0.014,0.412,0.026,0.824,0.06,1.234c0.163,2.009,0.281,4.022,0.515,6.024c0.169,1.437,0.513,2.853,0.749,4.282
				c0.211,1.287,0.364,2.583,0.575,3.868c0.151,0.917,0.325,1.832,0.542,2.735c0.613,2.542,1.22,5.089,1.896,7.616
				c0.499,1.866,1.072,3.715,1.665,5.555c0.613,1.903,1.21,3.819,1.951,5.675c1.435,3.594,2.897,7.18,4.475,10.712
				c1.822,4.076,4.024,7.964,6.307,11.796c2.725,4.577,5.727,8.975,9.009,13.172c2.792,3.571,5.76,6.987,8.872,10.292
				c4.165,4.421,8.633,8.489,13.346,12.311c3.062,2.483,6.229,4.808,9.491,7.013c37.731,25.503,88.706,30.767,130.015,10.917
				c10.851-5.214,23.088-11.954,32.112-19.999C227.464,250.64,220.616,238.804,218.58,240.494z"/>
			<path style="fill:#25375C;" d="M117.647,135.808c-0.158-1.102-0.51-2.175-0.79-3.258c-0.928-3.567-2.509-6.772-5.24-9.322
				c-1.85-1.727-3.948-2.886-6.589-2.718c-0.373,0.024-0.75,0.027-1.123,0c-1.156-0.082-2.174,0.346-3.202,0.793
				c-1.615,0.703-2.841,1.888-3.969,3.173c-2.634,3.002-3.872,6.669-4.683,10.473c-0.41,1.92-0.458,3.918-0.68,5.973
				c0.222,2.057,0.313,4.195,0.717,6.272c0.351,1.807,0.933,3.575,1.658,5.298c1.565,3.717,3.798,6.783,7.549,8.557
				c1.694,0.801,3.492,0.945,5.244,0.567c2.493-0.539,4.521-1.965,6.166-3.932c3-3.587,4.373-7.85,5.053-12.365
				c0.254-1.692,0.248-3.435,0.235-5.155C117.979,138.71,117.854,137.248,117.647,135.808z"/>
			<path style="fill:#25375C;" d="M180.062,196.657c-0.216-1.482-0.734-2.803-1.773-3.919c-1.869-2.01-4.224-3.265-6.698-4.297
				c-2.125-0.888-4.28-1.73-6.48-2.402c-2.78-0.851-5.617-1.515-8.434-2.243c-0.718-0.187-1.446-0.343-2.177-0.469
				c-1.208-0.211-2.421-0.382-3.631-0.575c-0.954-0.152-1.909-0.301-2.86-0.477c-1.167-0.219-2.322-0.532-3.498-0.673
				c-0.787-0.095-1.558,0.126-2.058,0.872c-0.516,0.769-0.332,1.485,0.103,2.204c0.394,0.649,0.968,1.021,1.712,1.143
				c1.068,0.178,2.141,0.332,3.201,0.54c1.127,0.223,2.242,0.502,3.363,0.748c1.555,0.342,3.122,0.624,4.659,1.031
				c1.312,0.348,2.584,0.839,3.876,1.263c1.811,0.595,3.562,1.339,5.177,2.347c0.938,0.586,1.868,1.246,2.632,2.039
				c1.467,1.521,1.677,3.266,0.854,5.064c-0.881,1.929-2.29,3.512-4.141,4.572c-4.424,2.536-8.91,4.965-13.328,7.514
				c-1.012,0.584-1.944,1.389-2.74,2.25c-1.275,1.383-1.163,2.54,0.115,3.939c0.995,1.088,2.174,1.936,3.445,2.645
				c3.771,2.101,7.555,4.18,11.351,6.235c2.217,1.2,4.02,2.817,5.218,5.046c0.912,1.697,0.81,3.361-0.397,4.911
				c-1.06,1.357-2.461,2.282-3.971,3.041c-2.906,1.461-6.007,2.417-9.145,3.2c-3.259,0.813-6.536,1.577-9.884,1.979
				c-0.839,0.1-1.537,0.554-2.048,1.25c-0.665,0.905-0.548,1.969,0.279,2.72c0.585,0.53,1.264,0.569,1.997,0.454
				c4.94-0.776,9.877-1.554,14.691-2.961c1.699-0.497,3.425-0.907,5.133-1.379c3.023-0.833,5.96-1.898,8.755-3.333
				c1.935-0.992,3.763-2.136,5.178-3.821c1.532-1.825,1.949-3.859,0.896-6.056c-0.942-1.962-2.355-3.573-4.235-4.649
				c-3.975-2.271-8.002-4.446-12.018-6.645c-1.422-0.777-2.668-1.762-3.726-2.984c-1.226-1.413-1.239-1.933-0.007-3.366
				c0.851-0.99,1.786-1.892,2.949-2.527c3.657-1.997,7.285-4.053,10.973-5.993c2.192-1.152,4.08-2.588,5.466-4.661
				C179.564,199.143,179.873,197.93,180.062,196.657z"/>
			<path style="fill:#25375C;" d="M207.452,152.747c0.504,0.06,1.052-0.005,1.544-0.138c1.144-0.309,1.785-1.404,1.399-2.514
				c-0.448-1.287-0.938-2.572-1.847-3.637c-1.505-1.768-3.237-3.289-5.105-4.651c-3.409-2.486-7.281-3.926-11.379-4.723
				c-1.934-0.376-3.93-0.427-5.898-0.624c-2.372,0.085-4.679,0.439-6.993,0.901c-1.752,0.35-3.435,0.884-5.055,1.561
				c-2.972,1.236-5.593,3.065-7.99,5.213c-1.682,1.506-2.911,3.267-3.376,5.523c-0.222,1.075,0.339,2.106,1.383,2.437
				c1.141,0.363,2.219,0,3.28-0.288c1.437-0.392,2.829-0.948,4.261-1.359c1.505-0.432,3.018-0.814,4.591-0.973
				c1.588-0.159,3.15-0.607,4.738-0.722c2.124-0.156,4.267-0.206,6.394-0.129c2.16,0.077,4.319,0.307,6.465,0.579
				c1.322,0.167,2.615,0.545,3.924,0.818c1.646,0.342,3.267,0.758,4.837,1.377C204.183,152.012,205.779,152.547,207.452,152.747z"/>
			<path style="fill:#25375C;" d="M97.842,81.811c0.38-0.424,0.73-0.832,0.78-1.422c0.139-1.632-0.244-3.012-1.772-3.898
				c-1.022-0.592-2.104-0.864-3.302-0.9c-0.874,0.154-1.743,0.392-2.625,0.444c-1.563,0.095-3.07,0.384-4.529,0.941
				c-1.478,0.565-2.995,1.049-4.417,1.731c-5.082,2.443-9.207,6.121-12.792,10.39c-4.547,5.417-8.117,11.452-10.836,17.982
				c-0.301,0.723-0.58,1.476-0.44,2.284c0.324,1.878,1.435,2.65,3.156,2.04c1.297-0.458,2.221-1.289,2.857-2.474
				c1.922-3.581,4.098-7.003,6.681-10.138c3.378-4.099,7.261-7.667,11.854-10.381c1.842-1.089,3.8-1.975,5.902-2.502
				c1.626-0.41,3.259-0.817,4.842-1.363C94.918,83.953,96.58,83.214,97.842,81.811z"/>
			<path style="fill:#25375C;" d="M176.192,115.695c0.744,0.306,1.543,0.531,2.339,0.649c1.763,0.259,3.476-0.241,5.19-0.531
				c1.16-0.196,2.279-0.63,3.426-0.917c2.557-0.64,5.156-0.885,7.781-0.69c2.678,0.197,5.35,0.447,7.947,1.203
				c1.311,0.381,2.69,0.574,3.947,1.08c2.648,1.067,5.269,2.218,7.838,3.465c1.896,0.918,3.704,2.023,5.532,3.083
				c1.324,0.768,2.697,0.791,4.098,0.35c0.862-0.272,1.229-0.871,1.262-1.793c0.042-1.181-0.478-2.106-1.374-2.808
				c-1.08-0.847-2.174-1.681-3.311-2.449c-3.446-2.33-6.98-4.497-10.792-6.209c-2.447-1.099-4.901-2.149-7.485-2.87
				c-1.183-0.33-2.375-0.628-3.575-0.892c-1.34-0.292-2.683-0.625-4.041-0.76c-1.296-0.128-2.614-0.027-3.924-0.027
				c-2.606-0.057-5.192,0.053-7.733,0.806c-2.124,0.63-4.221,1.314-6.097,2.478c-2.244,1.389-2.86,2.767-2.357,5.009
				C175.042,114.668,175.422,115.379,176.192,115.695z"/>
		</g>
	</g>
	<path style="fill:#25375C;" d="M292.422,214.289c0.406-1.416,0.689-2.857,0.836-4.325c0.225-2.254,0.137-4.497-0.256-6.727
		c-0.623-3.512-1.908-6.747-3.813-9.725c-0.182-0.288-0.367-0.571-0.563-0.854c-1.428-2.068-3.113-3.901-5.063-5.488
		c-1.553-1.261-3.227-2.327-5.043-3.173c-0.977-0.454-1.98-0.844-3.01-1.158c-0.984-0.303-1.992-0.515-3.004-0.702
		c-1.238-0.229-2.484-0.369-3.74-0.432c-2.016-0.098-4.014,0.03-5.988,0.432c-4.586,0.926-8.574,2.995-11.939,6.253
		c-0.051,0.048-0.107,0.091-0.18,0.155c-0.078,0.823-0.059-0.16-0.074-0.226c-0.229-0.872-0.533-1.718-0.896-2.539
		c-1.518-3.417-3.711-6.344-6.464-8.857c-1.469-1.344-3.074-2.497-4.81-3.476c-1.009-0.568-2.054-1.07-3.134-1.49
		c-1.131-0.438-2.278-0.806-3.458-1.092c-1.525-0.37-3.072-0.608-4.639-0.712c-2.076-0.138-4.141-0.022-6.188,0.356
		c-4.113,0.761-7.806,2.441-11.063,5.064c-2.726,2.193-4.858,4.854-6.491,7.904c-0.188,0.354-0.373,0.711-0.549,1.076
		c-0.616,1.273-1.131,2.59-1.544,3.941c-0.248,0.802-0.44,1.624-0.648,2.437c-0.326,1.273-0.564,2.565-0.771,3.865
		c-0.249,1.58-0.409,3.172-0.481,4.771c-0.078,1.737-0.048,3.474,0.097,5.208c0.209,2.481,0.651,4.918,1.313,7.315
		c1.028,3.746,2.566,7.279,4.46,10.661c1.701,3.032,3.653,5.899,5.752,8.667c2.374,3.131,4.916,6.122,7.509,9.073
		c2.374,2.703,4.765,5.395,7.133,8.105c1.769,2.021,3.49,4.083,5.13,6.213c0.272,0.354,0.547,0.706,0.823,1.064
		c0.054-0.022,0.101-0.038,0.146-0.057c3.111-1.35,6.289-2.526,9.493-3.622c3.832-1.307,7.676-2.582,11.51-3.886
		c3.719-1.263,7.408-2.608,11.02-4.161c2.844-1.228,5.625-2.58,8.303-4.141c2.852-1.662,5.541-3.545,8.016-5.735
		c1.451-1.282,2.809-2.658,4.063-4.136c1.031-1.214,1.982-2.486,2.857-3.817c0.762-1.155,1.463-2.341,2.08-3.576
		c0.461-0.925,0.91-1.862,1.314-2.814c0.408-0.97,0.783-1.958,1.127-2.952C291.902,216.093,292.162,215.189,292.422,214.289z"/>
</g>
<image style="overflow:visible;" width="681" height="639" xlink:href="../images/color1.JPG"  transform="matrix(0.2575 0 0 0.2575 -324.333 265.0576)">
</image>
<rect x="395.332" y="-29.505" style="fill:#25375C;" width="300.001" height="300"/>
</svg>
