<?xml version="1.0" encoding="iso-8859-1"?>
<!-- Generator: Adobe Illustrator 16.0.0, SVG Export Plug-In . SVG Version: 6.00 Build 0)  -->
<!DOCTYPE svg PUBLIC "-//W3C//DTD SVG 1.1//EN" "http://www.w3.org/Graphics/SVG/1.1/DTD/svg11.dtd">
<svg version="1.1" id="Layer_1" xmlns="http://www.w3.org/2000/svg" xmlns:xlink="http://www.w3.org/1999/xlink" x="0px" y="0px"
	 width="300px" height="300px" viewBox="0 0 300 300" style="enable-background:new 0 0 300 300;" xml:space="preserve">
<g>
	<g>
		<path style="fill-rule:evenodd;clip-rule:evenodd;fill:#25375C;" d="M141.716,27.784c17.729-1.057,35.697,1.826,52.082,8.721
			c17.749,7.47,33.799,18.238,46.513,32.788c18.95,21.688,30.652,49.224,30.625,78.227c-0.008,8.368-0.729,16.991-2.159,25.238
			c-4.575,26.397-17.125,48.933-36.971,66.95c-30.515,27.707-66.41,37.831-106.892,30.322c-29.366-5.446-53.499-20.34-71.971-43.743
			c-23.287-29.502-31.186-63.082-24.29-99.976C34.2,96.634,51.452,69.19,75.988,51.546c17.228-12.389,37.728-20.662,58.838-23.151
			C137.116,28.125,139.414,27.921,141.716,27.784z M147.081,113.833c4.055,0.235,8.228,0.043,11.606-0.701
			c3.38-0.743,6.751-3.349,10.035-4.639c17.44-6.856,36.844-6.312,55.254-5.661c5.146,0.182,10.293,0.417,15.439,0.572
			c3.513,0.106,9.007,0.944,11.647-1.984c4.313-4.784-3.888-14.132-6.392-18.041c-8.542-13.322-19.867-24.875-32.933-33.918
			c-11.023-7.631-23.478-13.316-36.489-16.561c-6.012-1.499-12.297-2.529-18.481-2.967c-21.668-1.535-42.8,3.114-61.944,13.383
			c-5,2.683-9.816,5.749-14.354,9.159c-6.111,4.593-12.046,9.959-17.116,15.691c-7.535,8.52-15.646,18.365-18.516,29.62
			c-0.897,3.516,0.052,5.065,3.667,5.413c0.696,0.067,1.4,0.088,2.099,0.078c16.065-0.25,32.182-1.051,48.232,0.021
			c6.115,0.408,12.254,0.906,18.28,2.067c7.437,1.432,13.958,5.42,21.245,7.219C140.923,113.217,143.968,113.652,147.081,113.833z
			 M34.42,131.421c-5.863,25.708,1.122,53.357,15.337,75.161c11.869,18.205,29.308,33.274,49.411,41.69
			c5.37,2.248,11.04,4.18,16.697,5.57c20.935,5.147,43.246,5.343,64.208,0.23c16.037-3.911,31.326-11.342,43.939-22.049
			c12.079-10.253,23.412-24.28,30.636-38.534c4.987-9.84,7.36-19.009,8.5-30c1.257-12.117,1.854-23.47-0.811-36.522
			c-0.85-4.163-5.889-6.141-10.183-5.293c-3.987,0.787-5.059,4.886-5.851,8.349c-1.045,4.576-1.718,9.243-2.888,13.783
			c-1.722,6.678-5.039,12.66-9.23,18.07c-2.844,3.671-6.223,6.911-10.65,8.761c-6.365,2.658-13.126,3.263-19.858,3.003
			c-5.231-0.201-10.465-1.237-15.617-2.294c-6.672-1.369-12.545-4.571-17.546-9.173c-4.455-4.097-7.666-9.145-10.163-14.635
			c-2.076-4.564-4.24-9.096-6.093-13.75c-0.758-1.908-1.604-3.224-3.606-4.021c-3.164-1.26-6.424-0.043-7.37,3.267
			c-2.069,7.24-5.852,13.68-9.599,20.077c-2.656,4.535-6.173,8.462-10.539,11.677c-5.71,4.203-12.122,6.495-18.907,7.744
			c-5.661,1.04-11.397,1.464-17.232,0.933c-7.841-0.716-15.063-2.249-20.991-8.132c-5.295-5.253-9.065-11.38-11.329-18.269
			c-2.356-7.167-3.807-14.634-5.618-21.978c-0.785-3.183-5.145-4.517-7.967-3.835C37.401,122.146,35.483,126.76,34.42,131.421z
			 M165.693,116.837c0.66,0,1.32,0,1.979,0c23.386,0,46.771,0,70.155-0.001c0.51,0,1.139,0.169,1.501-0.065
			c0.506-0.327,1.191-1,1.144-1.457c-0.438-4.239-3.247-6.654-7.569-6.655c-12.169-0.004-24.342,0.068-36.51-0.03
			c-6.88-0.056-13.56,1.03-20.105,2.999C172.544,112.753,168.838,114.045,165.693,116.837z M131.046,116.306
			c-0.651-0.579-0.812-0.779-1.02-0.896c-0.719-0.404-1.435-0.824-2.187-1.16c-7.632-3.399-15.665-5.334-23.971-5.684
			c-8.458-0.357-16.938-0.211-25.409-0.243c-4.839-0.017-9.68,0.052-14.52,0.077c-3.663,0.019-5.697,2.124-6.826,5.354
			c-0.855,2.447-0.667,2.691,1.996,2.692c23.124,0.003,46.248,0.002,69.373-0.004C129.154,116.44,129.825,116.373,131.046,116.306z"
			/>
		<path style="fill-rule:evenodd;clip-rule:evenodd;fill:#25375C;" d="M79.27,179.82c2.015,0.437,4.861,1.054,7.709,1.667
			c11.384,2.45,22.848,4.463,34.464,5.327c9.042,0.675,18.111,1.212,27.172,1.28c5.779,0.044,11.599-0.626,17.336-1.43
			c8.231-1.153,16.467-2.442,24.59-4.188c8.67-1.864,17.21-4.326,25.809-6.527c0.276-0.07,0.55-0.16,0.825-0.24
			c5.619-1.639,7.755,1.592,7.049,6.127c-0.707,4.562-1.713,9.161-3.287,13.489c-8.287,22.797-23.469,38.904-46.596,47.052
			c-6.573,2.315-13.354,3.918-20.318,4.277c-34.296,1.771-63.758-16.129-76.736-48.816c-1.45-3.655-2.393-7.525-3.35-11.351
			c-0.303-1.209-0.066-2.64,0.237-3.893C74.633,180.689,76.018,179.903,79.27,179.82z M78.978,185.798
			c0.019,0.571-0.002,0.802,0.037,1.021c1.135,6.273,3.545,12.094,6.283,17.807c0.558,1.165,1.345,1.673,2.573,1.931
			c12.825,2.705,25.744,4.772,38.822,5.751c10.086,0.753,20.162,1.338,30.292,0.443c18.603-1.643,36.837-5.156,54.801-10.185
			c1.08-0.302,1.838-0.784,2.203-1.89c1.388-4.194,2.906-8.346,4.178-12.574c0.633-2.1,0.837-4.328,1.27-6.691
			c-0.702,0.095-1.041,0.096-1.352,0.189c-15.531,4.689-31.32,8.188-47.398,10.398c-11.238,1.547-22.492,2.474-33.85,1.908
			c-17.419-0.868-34.66-3.022-51.694-6.788C83.145,186.678,81.141,186.26,78.978,185.798z M90.698,213.23
			c0.504,0.633,0.795,1.048,1.136,1.419c17.697,19.318,39.782,27.277,65.594,24.523c17.195-1.835,32.223-8.888,44.616-21.172
			c2.405-2.383,4.527-4.964,6.009-8.211c-0.416,0.013-0.644-0.013-0.857,0.032c-9.838,2.051-19.634,4.354-29.526,6.095
			c-10.184,1.789-20.462,3.066-30.843,3.047c-12.087-0.025-24.114-0.955-36.081-2.618C104.159,215.43,97.601,214.311,90.698,213.23z
			"/>
		<path style="fill-rule:evenodd;clip-rule:evenodd;fill:#25375C;" d="M295.882,93.011c-0.19,2.286-1.52,2.403-2.869,2.539
			c-5.228,0.522-9.129,3.827-10.46,8.878c-0.181,0.687-0.233,1.412-0.299,2.124c-0.121,1.332-0.448,2.576-2.078,2.547
			c-1.522-0.026-1.79-1.205-1.915-2.475c-0.479-4.902-2.891-8.462-7.517-10.314c-1.183-0.475-2.52-0.596-3.799-0.798
			c-1.266-0.2-2.348-0.553-2.291-2.108c0.053-1.465,1.123-1.776,2.311-1.844c6.211-0.353,10.887-5.088,11.307-11.192
			c0.086-1.264,0.358-2.404,1.938-2.419c1.713-0.015,1.904,1.258,2.049,2.551c0.611,5.483,3.735,9.358,8.653,10.645
			c1.065,0.278,2.235,0.2,3.263,0.56C294.901,91.958,295.465,92.675,295.882,93.011z M274.796,93.382
			c1.159,1.226,4.207,4.384,5.376,5.621c1.256-1.217,4.402-4.304,5.575-5.441c-1.261-1.3-4.291-4.387-5.596-5.733
			C278.924,89.115,275.871,92.256,274.796,93.382z"/>
		<path style="fill-rule:evenodd;clip-rule:evenodd;fill:#25375C;" d="M48.173,232.843c-0.269,3.211-2.133,3.375-4.028,3.564
			c-7.34,0.734-12.817,5.374-14.685,12.466c-0.254,0.965-0.329,1.983-0.42,2.984c-0.171,1.869-0.63,3.615-2.919,3.576
			c-2.138-0.037-2.513-1.691-2.688-3.476c-0.674-6.884-4.059-11.882-10.554-14.483c-1.663-0.666-3.539-0.837-5.335-1.121
			c-1.777-0.281-3.296-0.776-3.216-2.959c0.075-2.059,1.577-2.494,3.245-2.589c8.72-0.495,15.286-7.146,15.874-15.716
			c0.122-1.774,0.503-3.374,2.723-3.396c2.404-0.021,2.673,1.766,2.875,3.581c0.858,7.7,5.245,13.14,12.149,14.945
			c1.496,0.392,3.142,0.281,4.583,0.786C46.796,231.365,47.588,232.372,48.173,232.843z M18.566,233.364
			c1.627,1.722,5.906,6.157,7.549,7.894c1.763-1.708,6.182-6.044,7.829-7.639c-1.771-1.825-6.024-6.161-7.858-8.051
			C24.362,227.372,20.078,231.783,18.566,233.364z"/>
	</g>
</g>
<image style="overflow:visible;" width="681" height="639" xlink:href="../images/color1.JPG"  transform="matrix(0.4347 0 0 0.4347 -343.9971 -132.3516)">
</image>
</svg>
