<?xml version="1.0" encoding="iso-8859-1"?>
<!-- Generator: Adobe Illustrator 23.0.6, SVG Export Plug-In . SVG Version: 6.00 Build 0)  -->
<svg version="1.1" id="Layer_1" xmlns="http://www.w3.org/2000/svg" xmlns:xlink="http://www.w3.org/1999/xlink" x="0px" y="0px"
	 viewBox="0 0 300 300" style="enable-background:new 0 0 300 300;" xml:space="preserve">
<image style="overflow:visible;" width="681" height="639" xlink:href="../images/color1.JPG"  transform="matrix(0.2265 0 0 0.2265 -172.7091 45.0749)">
</image>
<g>
	<g>
		<path style="fill:#25375C;" d="M285.577,103.68c3.605-2.024,9.3-8.547,5.031-12.506c-3.489-3.236-9.153-4.589-13.673-5.604
			c-8.513-1.911-16.905-4.431-25.221-7.091c-1.674-0.535-3.607-2.668-4.006-4.392c-2.465-10.635-4.474-21.374-6.746-32.055
			c-0.822-3.867-1.435-8.369-6.122-9.301c-4.455-0.886-6.262,3.104-8.433,6.204c-5.844,8.345-11.33,16.942-16.881,25.49
			c-2.227,3.429-4.957,4.654-9.209,4.041c-11.284-1.627-22.634-2.809-33.97-4.055c-5.468-0.601-8.991,4.347-6.306,9.392
			c2.313,4.345,5.461,8.277,8.484,12.204c4.133,5.371,8.427,10.623,12.79,15.811c2.398,2.851,2.736,5.783,1.299,9.109
			c-2.07,4.788-4.002,9.637-6.137,14.395c-3.354,7.472-5.98,15.237-8.969,22.917c-3.116,8.007-1.198,10.489,3.658,11.217
			c2.077,0.312,4.155-0.545,6.044-1.463c9.27-4.507,18.284-9.444,27.691-14.047c2.911-1.425,6.272-4.754,9.749-4.294
			c4.217,0.559,6.891,3.646,9.341,6.786c2.856,3.661,6.267,6.831,9.745,9.888c4.081,3.587,12.792,12.715,19.283,9.645
			c4.35-2.058,2.113-12.702,2.094-16.327c-0.03-5.786-0.106-11.571-0.127-17.356c-0.013-3.511-0.078-7.041,0.264-10.525
			c0.121-1.227,1.112-2.84,2.175-3.425c6.987-3.849,14.103-7.465,21.189-11.164c14.293,38.605,8.75,100.023-37.292,141.587
			c-47.574,42.946-118.326,46.737-169.286,9.313C18.502,218.76,7.707,154.777,22.716,108.491c1.082,0.482,2.15,0.893,3.159,1.417
			c5.482,2.847,11.019,5.598,16.374,8.669c1.4,0.803,2.829,2.492,3.163,4.011c0.615,2.799,0.527,5.773,0.557,8.676
			c0.072,6.981-0.147,13.961-0.103,20.942c0.029,4.681-0.016,9.518,0.622,14.16c0.657,4.781,4.295,5.078,7.601,1.514
			c5.192-5.597,10.4-11.209,14.727-17.671c2.213-3.304,4.733-6.468,7.782-9.043c2.902-2.451,6.81-5.815,11.001-4.319
			c4.903,1.75,9.073,4.641,13.517,7.24c7.351,4.299,10.494,6.347,17.095,9.732c5.239,2.687,8.483,3.753,11.256,3.216
			c3.645-0.707,3.658-3.895,2.624-6.686c-3.639-9.817-7.109-18.354-11.764-27.843c-2.2-4.485-4.135-6.33-4.316-10.494
			c-0.085-1.946,0.954-6.018,2.031-7.617c3.448-5.117,7.194-10.911,10.917-16.333c4.143-6.033,11.563-12.01,10.344-20.167
			c-0.99-6.623-8.822-3.445-13.192-2.962c-4.247,0.47-8.489,0.982-12.728,1.516c-4.935,0.622-9.867,1.326-14.758,2.226
			c-4.247,0.781-7.087-0.586-9.439-4.275c-5.152-8.081-10.618-15.964-16.027-23.879c-1.157-1.693-2.489-3.314-3.965-4.734
			c-3.576-3.438-6.968-2.966-8.876,1.644c-1.514,3.658-2.354,7.646-3.096,11.562c-1.469,7.745-2.75,15.53-3.937,23.324
			c-0.687,4.506-3.402,6.672-7.569,7.7c-10.842,2.674-21.676,5.388-32.476,8.227c-1.815,0.477-3.675,1.379-5.114,2.569
			c-3.258,2.696-1.267,6.013,1.203,8.401c1.374,1.329,2.946,2.44,4.487,3.562c1.528,1.112,3.046,3.019,4.635,3.888
			c-4.199-2.296-8.697-4.185-12.521-6.992c-4.647-3.411-3.471-9.79,2.117-11.803c6.618-2.384,13.458-3.145,20.076-5.339
			c7.349-2.436,11.918-8.96,16.134-15.034c4.322-6.227,9.428-10.944,10.561-18.782c0.657-4.55,1.343-9.145,2.617-13.547
			c2.157-7.451,8.203-8.688,13.349-2.994c4.751,5.257,4.735,5.23,10.903,1.583c18.814-11.124,39.069-17.374,60.955-18.678
			c14.404-0.858,28.923,0.408,42.89,4.08c11.779,3.096,23.046,7.988,33.526,14.173c1.455,0.858,3.458,1.934,5.217,1.549
			c2.076-0.455,2.771-2.577,4.217-3.915c3.071-2.843,7.904-3.898,10.933-0.409c1.347,1.552,2.045,3.814,2.601,5.871
			c1.267,4.682,1.164,9.801,3.14,14.258c2.128,4.801,5.962,8.403,9.085,12.496c3.635,4.762,7.185,9.602,10.973,14.244
			c1.401,1.717,3.605,3.22,5.724,3.825c6.173,1.764,12.502,2.975,18.747,4.5c3.256,0.795,5.954,2.698,6.489,6.25
			c0.524,3.481-1.585,6.574-4.5,8.254C289.942,101.262,288.174,102.227,285.577,103.68z M222.441,38.659
			c-9.747-5.044-18.389-10.27-27.605-14.123c-17.073-7.136-35.698-9.862-54.109-8.188c-21.985,1.999-41.64,9.695-59.501,22.43
			c-2.258,1.61-2.932,3.045-1.342,5.664c4.022,6.623,7.877,13.355,11.577,20.164c1.489,2.74,3.244,3.237,6.215,2.71
			c12.058-2.139,24.207-3.781,36.244-6.027c7.666-1.43,15,7.263,12.604,14.295c-0.66,1.937-1.388,3.926-2.5,5.62
			c-5.122,7.806-10.276,15.597-15.651,23.23c-2.995,4.254-4.535,8.525-2.453,13.598c3.54,8.627,7.224,17.201,10.486,25.933
			c1.457,3.902,2.634,8.098,2.863,12.22c0.278,5.015-2.727,7.98-7.736,7.434c-8.998-0.981-18.137-1.949-26.794-4.408
			c-4.422-1.256-9.333-1.514-13.772-0.193c-2.809,0.836-10.935,5.219-9.514,9.254c1.017,2.887,9.435,4.371,11.921,4.962
			c4.977,1.183,10.062,1.813,15.101,2.66c9.416,1.581,18.958,2.449,28.51,2.38c14.072-0.101,28.247,0.487,42.182-1.023
			c6.507-0.705,12.873-2.264,19.217-3.819c5.865-1.438,12.718-1.839,18.332-3.843c4.459-1.592,1.349-4.828-1.213-6.527
			c-7.234-4.798-13.666-3.145-21.667-1.829c-6.813,1.121-13.587,2.61-20.441,3.318c-10.139,1.047-15.56-6.877-11.473-16.307
			c2.892-6.674,5.906-13.296,8.708-20.008c3.668-8.785,6.123-17.574-1.383-25.798c-0.488-0.534-0.892-1.151-1.291-1.758
			c-4.87-7.391-9.938-14.663-14.499-22.239c-1.992-3.308-3.137-7.308-0.351-10.977c3.085-4.063,6.803-6.721,12.418-5.796
			c10.048,1.656,20.141,3.045,30.22,4.509c9.784,1.421,9.81,1.414,14.755-6.986C214.295,52.743,218.026,46.256,222.441,38.659z
			 M147.314,209.832c22.796-0.045,45.34-2.524,67.499-7.798c13.869-3.301,12.175-0.047,17.99-16.401
			c0.445-1.252,0.779-2.553,1.06-3.854c0.931-4.297-0.818-5.988-5.06-4.847c-5.379,1.447-10.686,3.202-16.117,4.41
			c-18.541,4.122-37.393,5.702-56.332,6.141c-18.472,0.427-36.888-0.674-55.081-3.969c-10.475-1.897-20.807-4.579-31.209-6.884
			c-4.001-0.887-5.44,0.339-4.495,4.264c0.991,4.113,2.432,8.118,3.715,12.158c1.247,3.926,3.972,6.035,7.935,7.213
			C100.103,207.068,123.508,209.876,147.314,209.832z M51.007,181.573c-3.238-0.021-6.61,0.541-8.928,0.799
			c-5.869,0.653-14.061,1.646-13.188,6.227c1.28,6.721,7.636,16.8,11.345,23.127c31.8,54.247,108.271,73.22,157.091,53.891
			c29.58-11.712,62.217-43.516,71.103-74.077c0.435-1.495,1.023-3.042,0.641-4.551c-0.824-3.256-19.877-4.259-23.21-4.665
			c-1.538-0.187-3.236-0.338-4.507,0.55c-1.239,0.867-1.691,2.457-2.099,3.912c-16.091,57.521-85.439,82.444-136.178,53.653
			c-11.986-6.802-22.368-16.091-30.143-27.493c-4.008-5.878-7.301-12.218-10.005-18.793c-1.2-2.917-1.584-6.181-3.146-8.955
			C58.192,182.372,54.686,181.597,51.007,181.573z"/>
	</g>
</g>
</svg>
