<?xml version="1.0" encoding="iso-8859-1"?>
<!-- Generator: Adobe Illustrator 16.0.0, SVG Export Plug-In . SVG Version: 6.00 Build 0)  -->
<!DOCTYPE svg PUBLIC "-//W3C//DTD SVG 1.1//EN" "http://www.w3.org/Graphics/SVG/1.1/DTD/svg11.dtd">
<svg version="1.1" id="Layer_1" xmlns="http://www.w3.org/2000/svg" xmlns:xlink="http://www.w3.org/1999/xlink" x="0px" y="0px"
	 width="100px" height="91.435px" viewBox="0 0 100 91.435" style="enable-background:new 0 0 100 91.435;" xml:space="preserve">
<g>
	<g>
		<path style="fill-rule:evenodd;clip-rule:evenodd;fill:#25375C;" d="M49.729,88.87c-12.226-0.003-24.452,0.005-36.678-0.005
			C6.426,88.858,2.564,85.014,2.557,78.31C2.531,56.642,2.53,34.972,2.552,13.301C2.558,6.775,6.426,2.879,12.897,2.851
			c8.263-0.037,16.526,0.02,24.789-0.013c4.226-0.017,7.245,1.842,9.133,5.587c1.517,3.008,3.232,5.939,4.449,9.064
			c0.882,2.27,2.236,2.664,4.404,2.643c10.371-0.097,20.744-0.049,31.113-0.046c6.744,0.003,10.656,3.882,10.664,10.679
			c0.023,15.853,0.019,31.705-0.011,47.556c-0.011,6.635-3.931,10.542-10.524,10.55C74.519,88.886,62.125,88.873,49.729,88.87z"/>
	</g>
</g>
<image style="overflow:visible;" width="681" height="639" xlink:href="../images/color1.JPG"  transform="matrix(0.206 0 0 0.206 -220.2012 -48.1714)">
</image>
</svg>
