<?xml version="1.0" encoding="utf-8"?>
<!-- Generator: Adobe Illustrator 16.0.0, SVG Export Plug-In . SVG Version: 6.00 Build 0)  -->
<!DOCTYPE svg PUBLIC "-//W3C//DTD SVG 1.1//EN" "http://www.w3.org/Graphics/SVG/1.1/DTD/svg11.dtd">
<svg version="1.1" id="Layer_1" xmlns="http://www.w3.org/2000/svg" xmlns:xlink="http://www.w3.org/1999/xlink" x="0px" y="0px"
	 width="300px" height="300px" viewBox="0 0 300 300" enable-background="new 0 0 300 300" xml:space="preserve">
<g>
	<path fill="#201E1F" d="M-463.521,166.266c14.621-6.266,29.944-6.307,44.561-1.896c14.878,4.499,28.914,11.666,43.417,17.41
		c13.381,5.315,26.492,12.378,40.433,14.968c23.389,4.343,30.729-2.479,33.159-25.59c0.114-1.135,0.196-2.273,0.331-3.854
		c6.103,0,11.904,0,18.101,0c0.751,8.234-0.311,16.844,6.775,22.947c8.186-7.545,10.532-19.254,5.652-27.521
		c-4.352-7.354-13.35-10.486-24.011-6.406c-7.59,2.912-14.267,8.104-21.346,12.293c-7.681,4.547-14.969,10.006-23.144,13.41
		c-7.968,3.322-15.994-0.773-19.882-8.102c-3.469-6.506-1.464-13.527,5.568-19.17c9.799-7.869,21.825-10.081,33.675-12.676
		c17.502-3.821,33.225-11.174,47.159-22.384c14.925-11.984,20.955-26.813,16.023-45.59c10.65,7.517,13.572,24.267,4.642,35.245
		c-5.958,7.325-13.895,13.453-21.893,18.726c-16.483,10.855-35.625,15.178-54.627,19.766c-5.866,1.42-11.818,3.821-16.81,7.132
		c-6.499,4.295-7.507,9.883-4.445,15.219c3.199,5.548,9.112,7.957,16.111,4.386c7.897-4.038,15.225-9.44,22.141-15.024
		c8.247-6.677,16.474-12.917,27.684-13.176c18.794-0.454,29.217,13.594,22.617,31.023c-2.103,5.547-5.978,10.451-9.895,17.072
		c7.388,0,14.318,0.313,21.214-0.1c7.071-0.404,14.096-1.525,21.141-2.34c4.761,33.264-7.48,57.646-33.065,63.746
		c24.021-21.854,30.444-36.049,25.264-56.688c-5.252,0.505-10.609,1.128-15.98,1.509c-4.989,0.348-10.548,1.893-14.884,0.318
		c-9.324-3.365-16.131,0.514-23.685,4.578c-12.546,6.768-26.435,9.011-40.572,9.92c-11.857,0.773-23.718,1.604-35.573,2.406
		c-0.45,0.613-0.896,1.254-1.347,1.871c5.69,6.641,10.857,13.84,17.234,19.773c6.507,6.066,14.205,10.896,22.698,17.25
		c-13.07-3.941-22.822-10.313-31.261-18.641c-4.035-3.986-7.999-8.162-11.13-12.836c-3.246-4.869-6.465-6.086-12.337-4.41
		c-15.008,4.287-27.262,11.76-35.192,26.895c2.535-16.072,10.29-22.604,39.15-33.75
		C-399.552,183.629-429.361,171.543-463.521,166.266z M-292.823,181.076c-2.539,13.85-12.153,20.574-25.322,21.348
		c-9.813,0.582-20.302,0.316-29.546-2.537c-13.502-4.181-26.122-11.047-39.182-16.639c-6.504-2.773-13.149-5.221-19.734-7.82
		c-0.295,0.545-0.582,1.092-0.88,1.641c14.237,8.09,24.806,19.658,33.659,32.966c1.002,1.509,3.802,2.681,5.744,2.63
		c14.542-0.29,29.111-0.418,43.593-1.6c14.987-1.207,29.155-5.445,40.93-14.043C-286.846,191.354-289.757,186.357-292.823,181.076z"
		/>
	<path fill="#201E1F" d="M-213.316,211.666c0,1.83,0.156,2.34-0.021,2.666c-2.569,4.639-5.439,9.645-0.663,14.141
		c4.735,4.455,10.775,3.305,16.111,0.848c12.287-5.65,18.68-15.982,20.296-28.67c1.472-11.557-11.474-19.748-23.431-15.414
		c-3.413,1.229-6.558,3.195-10.655,5.25c8.009-11.119,18.603-14.084,29.673-9.021c10.014,4.591,14.101,14.312,10.94,25.998
		c-3.885,14.394-16.566,25.726-31.154,27.388c-6.61,0.76-13.282,0.114-16.546-6.778
		C-221.713,221.807-218.33,216.934-213.316,211.666z"/>
	<path fill="#201E1F" d="M-253.096,208.316c11.687,16.023,3.082,35.813-17.266,39.635
		C-255.515,238.098-252.309,224.711-253.096,208.316z"/>
</g>
<rect x="517" y="-209.449" fill="#FFFFFF" width="300" height="300"/>
<g>
	<path fill="#25375C" d="M283.484,93.423c0.554,1.717,1.104,3.432,1.852,5.752c1.76-1.832,3.068-3.195,4.538-4.726
		c2.258,2.323,2.537,5.854,2.64,9.191c0.271,8.882,0.639,17.802,0.107,26.655c-0.391,6.513-4.042,11.849-9.085,16.078
		c-0.606,0.508-1.192,1.042-1.747,1.604c-0.229,0.23-0.348,0.568,0.835-0.429c1.912,2.657,3.729,5.39,5.756,7.954
		c3.919,4.955,5.202,10.678,5.213,16.814c0.013,6.893,0.003,13.785,0.003,20.748c-1.25,0.078-2.117,0.131-2.986,0.186
		c3.188,1.705,2.961,4.586,3.181,7.367c0.479,6.09,0.968,12.184,1.692,18.244c0.322,2.684-0.543,3.359-3.099,3.254
		c-4.972-0.207-9.959-0.232-14.934-0.119c-2.47,0.055-3.913-0.676-4.091-3.277c-0.572-8.443-1.346-16.879-1.688-25.332
		c-0.298-7.346-0.094-14.711-0.159-22.066c-0.013-1.35-0.144-2.719-0.397-4.037c-1.563-7.975-4.771-10.008-13.384-8.244
		c0,6.559-0.014,13.193,0.004,19.834c0.035,12.813,0.009,25.619,0.188,38.428c0.046,3.254-0.506,4.646-4.292,4.271
		c-5.033-0.5-10.15-0.219-15.23-0.147c-1.816,0.022-2.859-0.579-2.842-2.444c0.067-5.961,0.237-11.918,0.256-17.879
		c0.012-2.802-0.358-5.603-0.348-8.396c0.102-19.674,0.26-39.347,0.396-59.017c0.109-16.018,0.179-32.035,0.348-48.053
		c0.051-4.605,0.67-5.237,5.924-6.895c-0.818,1.407-1.318,2.266-1.824,3.136c3.676,3.638,4.857-4.569,9.355-1.924
		c2.486,1.462,7.021-0.903,10.639-0.924c3.594-0.021,7.193,0.733,10.898,1.16c-0.104,2.052-0.178,3.557-0.253,5.062
		c0.284,0.037,0.571,0.072,0.856,0.107c0.12-1.595,0.236-3.189,0.362-4.872c3.386-0.656,3.031,1.79,3.253,3.851
		c3.398-0.645,5.166,0.374,4.678,4.112c-0.336,2.547,1.438,3.987,3.48,5.081L283.484,93.423z M274.877,96.576
		c-0.055-0.242-0.107-0.484-0.163-0.727c-0.798,0.489-1.94,0.791-2.329,1.503c-1.156,2.12-2.623,2.273-3.945,0.582
		c-2.088-2.672-5.041-1.976-7.69-2.421c-2.089-0.35-3.151,0.604-3.084,2.841c0.094,3.042,0.047,6.088,0.063,9.132
		c0.037,9.775,0.084,19.551,0.105,29.326c0.005,2.312,1.075,3.097,3.385,2.982c6.207-0.306,9.87-3.598,10.282-9.87
		c0.331-5.067,0.226-10.163,0.563-15.228c0.155-2.291,0.938-4.539,1.437-6.795c-0.79-1.404-1.888-3.346-2.747-4.875
		C272.343,100.536,273.609,98.556,274.877,96.576z M282.938,190.775c0.545-0.293,1.088-0.584,1.631-0.877
		c-0.656-1.363-1.317-2.729-1.979-4.094c-0.602,0.475-1.779,1.193-1.701,1.383C281.421,188.447,282.223,189.592,282.938,190.775z"/>
	<path fill="#25375C" d="M119.227,149.545c0,13.57,0.414,27.156-0.136,40.703c-0.411,10.135-3.438,19.516-11.777,26.445
		c-9.772,8.121-27.778,8.119-36.878-4.195c-5.515-7.465-8.296-15.779-8.243-24.99c0.153-26.023,0.414-52.048,0.629-78.072
		c0.063-7.642,2.288-14.739,6.075-21.241c5.758-9.886,14.784-12.238,25.632-10.942c10.518,1.256,16.819,7.468,21.324,16.268
		c4.845,9.464,4.249,19.752,4.34,29.912c0.079,8.702,0.017,17.407,0.017,26.11C119.882,149.543,119.555,149.544,119.227,149.545z
		 M83.981,149.381c-0.106,0-0.212,0-0.317,0c0,11.77-0.137,23.541,0.067,35.307c0.081,4.603,0.515,9.291,1.625,13.729
		c0.451,1.806,2.912,3.748,4.86,4.369c2.311,0.737,4.716-0.64,5.706-3.17c0.767-1.959,1.611-4.054,1.655-6.103
		c0.309-14.474,0.526-28.943,0.563-43.417c0.032-13.466-0.075-26.935-0.396-40.396c-0.077-3.205-0.87-6.53-2.022-9.536
		c-1.286-3.354-4.286-4.047-7.601-2.541c-3.836,1.745-4.013,5.4-4.057,8.662C83.872,120.652,83.981,135.017,83.981,149.381z"/>
	<path fill="#25375C" d="M140.961,109.68c-4.477,3.792-9.277,7.801-13.976,11.928c-0.472,0.415-0.313,1.547-0.446,2.347
		c1.128,0.129,2.584,0.776,3.328,0.303c4.474-2.843,8.79-5.935,13.143-8.966c0.705-0.491,1.33-1.096,2.384-1.972
		c0,5.503,0,10.519,0,15.535c3.965-7.679,2.251-17.493,9.831-24.042c-0.688,0.061-1.162,0.048-1.604,0.159
		c-0.367,0.091-0.697,0.327-1.51,0.727c1.646-8.792,3.146-17.076,4.789-25.331c0.215-1.064,1.141-2.766,1.812-2.803
		c1.604-0.089,3.252,0.635,4.88,1.039c2.053,0.509,4.12,1.526,6.139,1.422c2.904-0.149,5.771-1.11,9.604-1.926
		c-0.682,4.081-1.146,7.357-1.781,10.601c-2.678,13.644-5.398,27.281-8.113,40.918c-0.898,4.531-2.061,9.028-2.653,13.598
		c-0.396,3.052-0.368,6.26,0.094,9.305c1.87,12.297,4.024,24.549,5.992,36.828c1.442,9.022,2.771,18.065,4.117,27.104
		c0.182,1.211,0.161,2.45,0.259,4.039c-5.559,0.633-10.917,1.348-16.305,1.739c-0.771,0.058-2.233-1.344-2.398-2.25
		c-2.354-12.901-4.479-25.849-6.79-38.758c-1.484-8.3-3.186-16.56-4.79-24.832c-0.416,0.021-0.833,0.041-1.251,0.061
		c0,5.626-0.007,11.251,0.002,16.878c0.021,14.937,0.069,29.871,0.058,44.805c-0.004,4.437-0.058,4.13-4.384,3.843
		c-4.435-0.291-8.913,0.106-13.373,0.19c-1.33,0.024-2.661,0.004-4.727,0.004c0-5.444,0.003-10.592,0-15.739
		c-0.013-22.029-0.051-44.06-0.034-66.083c0.015-19.243,0.083-38.484,0.144-57.727c0.017-5.305,0.043-5.327,5.167-5.313
		c4.83,0.013,9.664,0.133,14.494,0.097c2.313-0.018,3.17,0.88,3.102,3.242c-0.271,9.387-0.346,18.779-0.619,28.166
		c-0.037,1.27-0.777,2.521-1.193,3.78C143.371,111.756,142.401,110.92,140.961,109.68z M166.661,208.389
		c0.521-1.396,1.04-2.799,1.577-4.242c-0.133-0.049-0.652-0.234-1.23-0.451c0.954-0.799,1.732-1.449,2.512-2.104
		c-0.125-0.146-0.25-0.297-0.377-0.441c-0.662,0.18-1.326,0.355-1.988,0.539c-0.141-0.322-0.274-0.646-0.416-0.975
		c1.341-0.672,2.677-1.342,4.066-2.041c-1.048-0.771-1.979-1.447-2.738-2.008c-0.914,1.063-1.754,2.229-2.773,3.188
		c-1.354,1.274-2.104,2.33,0.417,3.039c-0.396,0.459-0.917,0.78-0.942,1.146c-0.119,1.496-0.091,3.006-0.111,4.512
		c0.705-0.09,1.41-0.18,2.115-0.271c-1.258,0.457-2.527,0.875-3.768,1.386c-0.833,0.342-2.32,0.854-2.3,1.215
		c0.151,2.285,0.646,4.55,1.011,6.731c1.598-1.338,2.908-2.42,4.2-3.524c0.83-0.715,2.289-1.463,2.291-2.198
		C168.207,210.721,167.225,209.555,166.661,208.389z"/>
	<path fill="#25375C" d="M203.648,139.791c4.814,0,9.442,0.094,14.063-0.034c2.994-0.083,4.325,0.972,4.185,4.13
		c-0.188,4.065-0.11,8.15,0.041,12.218c0.086,2.359-0.875,3.256-3.149,3.27c-4.297,0.025-8.591,0.193-12.888,0.271
		c-1.896,0.035-2.787,0.729-2.791,2.842c-0.032,11.883-0.252,23.764-0.281,35.646c-0.014,4.531,0.14,4.541,4.533,4.505
		c6.334-0.058,12.668-0.136,19.002-0.193c1.896-0.019,3.791-0.002,5.91-0.002c0,3.039-0.031,5.597,0.006,8.147
		c0.044,2.701-0.043,5.429,0.283,8.101c0.357,2.978-0.914,4.324-3.683,4.367c-3.944,0.062-7.896-0.08-11.848-0.101
		c-10.507-0.051-21.011-0.078-31.515-0.127c-4.328-0.021-5.226-0.824-5.197-5.086c0.117-19.899,0.361-39.797,0.421-59.697
		c0.046-15.832-0.179-31.664-0.159-47.498c0.013-9.729,0.238-19.457,0.393-29.186c0.024-1.794,0.25-3.435,2.696-3.432
		c15.817,0.022,31.642,0.012,47.229,0.012c0,1.391,0,2.843,0,4.296c0.83-0.416,1.658-0.832,3.229-1.621c0,2.261,0.006,4.599,0,6.936
		c-0.021,9.743-0.021,9.731-9.837,9.775c-5.998,0.028-11.996,0.114-17.993,0.138c-1.58,0.006-2.938,0.031-2.938,2.219
		c-0.002,12.896-0.059,25.791-0.08,38.687C203.285,138.701,203.447,139.027,203.648,139.791z"/>
	<path fill="#25375C" d="M58.648,137.5c0,19.011,0.482,38.041-0.19,57.029c-0.374,10.557-3.87,21.08-14.395,25.641
		c-17.164,7.436-35.253,0.264-38.827-21.072c-1.35-8.053-0.513-16.473-0.661-24.727c-0.032-1.791,0.713-2.693,2.67-2.559
		c4.854,0.33,9.715,0.598,14.576,0.793c2.108,0.084,2.229,1.303,2.206,2.963c-0.094,6.67-0.295,13.348-0.001,20.004
		c0.084,1.912,1.319,4.115,2.687,5.561c3.148,3.326,7.183,2.453,8.845-1.855c0.874-2.268,1.422-4.807,1.452-7.229
		c0.317-25.922,0.484-51.845,0.731-77.768c0.108-11.272,0.387-22.544,0.407-33.816c0.005-2.695,0.865-3.557,3.515-3.434
		c5.087,0.238,10.189,0.352,15.278,0.222c2.785-0.071,3.367,1.009,3.354,3.575c-0.094,18.892-0.052,37.783-0.052,56.675
		C59.713,137.5,59.181,137.5,58.648,137.5z"/>
	<path fill="#25375C" d="M283.583,93.521c-0.308-2.743,2.147-2.381,3.573-2.931c0.613-0.236,1.652,0.627,3.292,1.332
		c-2.905,1.128-4.657,2.569-6.962,1.501C283.484,93.423,283.583,93.521,283.583,93.521z"/>
</g>
</svg>
