<?xml version="1.0" encoding="utf-8"?>
<!-- Generator: Adobe Illustrator 16.0.0, SVG Export Plug-In . SVG Version: 6.00 Build 0)  -->
<!DOCTYPE svg PUBLIC "-//W3C//DTD SVG 1.1//EN" "http://www.w3.org/Graphics/SVG/1.1/DTD/svg11.dtd">
<svg version="1.1" id="Layer_1" xmlns="http://www.w3.org/2000/svg" xmlns:xlink="http://www.w3.org/1999/xlink" x="0px" y="0px"
	 width="100px" height="100px" viewBox="0 0 100 100" enable-background="new 0 0 100 100" xml:space="preserve">
<g>
	<path fill="#25375C" d="M39.391,9.875c0.17,0.141,0.384,0.251,0.643,0.331c0.258,0.08,0.521,0.092,0.79,0.035
		c0.21-0.044,0.386-0.121,0.528-0.23c0.142-0.109,0.252-0.242,0.332-0.4c0.08-0.157,0.127-0.332,0.141-0.524s0-0.394-0.045-0.604
		l-0.948-4.488l1.385-0.292l0.927,4.391c0.081,0.38,0.1,0.748,0.06,1.105c-0.041,0.356-0.146,0.679-0.317,0.969
		s-0.41,0.537-0.718,0.742c-0.308,0.205-0.685,0.349-1.131,0.431c-0.378,0.062-0.747,0.055-1.107-0.018
		c-0.36-0.074-0.698-0.208-1.015-0.404L39.391,9.875z"/>
	<path fill="#25375C" d="M44.215,6.847c-0.025-0.555,0.048-1.065,0.218-1.53c0.17-0.465,0.418-0.866,0.744-1.204
		s0.716-0.605,1.17-0.802c0.455-0.197,0.95-0.307,1.487-0.332c0.543-0.024,1.05,0.041,1.52,0.196
		c0.47,0.155,0.881,0.386,1.232,0.693c0.352,0.307,0.632,0.685,0.841,1.132c0.208,0.448,0.325,0.949,0.351,1.504
		c0.024,0.561-0.046,1.074-0.214,1.539c-0.167,0.465-0.412,0.868-0.734,1.208s-0.711,0.609-1.165,0.806
		c-0.455,0.197-0.953,0.308-1.496,0.332c-0.537,0.024-1.041-0.041-1.511-0.196s-0.883-0.388-1.237-0.697
		c-0.355-0.31-0.638-0.688-0.85-1.137C44.359,7.912,44.241,7.408,44.215,6.847z M45.629,6.783c0.018,0.4,0.097,0.756,0.237,1.07
		c0.14,0.314,0.322,0.578,0.547,0.792c0.225,0.214,0.485,0.375,0.779,0.48c0.295,0.106,0.604,0.152,0.926,0.138
		c0.328-0.015,0.633-0.088,0.914-0.221c0.281-0.132,0.524-0.315,0.729-0.548s0.361-0.513,0.469-0.837s0.153-0.687,0.135-1.086
		c-0.018-0.394-0.095-0.745-0.231-1.053c-0.137-0.308-0.317-0.568-0.542-0.782c-0.225-0.214-0.483-0.375-0.775-0.481
		c-0.292-0.106-0.602-0.152-0.93-0.137c-0.328,0.015-0.634,0.088-0.918,0.221c-0.284,0.132-0.528,0.315-0.733,0.549
		c-0.205,0.233-0.361,0.509-0.469,0.828C45.657,6.033,45.612,6.39,45.629,6.783z"/>
	<path fill="#25375C" d="M59.311,11.206l0.678-3.546l-3.417,0.268l-0.508,2.657l-1.391-0.266l1.324-6.925l1.391,0.266l-0.614,3.212
		l3.417-0.268l0.444-2.323l1.39,0.266l-1.323,6.925L59.311,11.206z"/>
	<path fill="#25375C" d="M63.63,12.503l1.047-2.793L63.73,5.011l1.435,0.538l0.643,3.16l2.562-1.958l1.435,0.538l-3.802,2.918
		L64.955,13L63.63,12.503z"/>
	<path fill="#25375C" d="M70.368,15.834c-0.371-0.216-0.684-0.478-0.938-0.785c-0.253-0.307-0.436-0.637-0.548-0.989
		c-0.113-0.353-0.149-0.72-0.11-1.101c0.039-0.382,0.167-0.758,0.384-1.13l2.207-3.784l1.223,0.713l-2.161,3.707
		c-0.124,0.211-0.21,0.43-0.258,0.654c-0.048,0.225-0.053,0.441-0.016,0.649c0.038,0.208,0.121,0.406,0.251,0.592
		c0.13,0.187,0.312,0.347,0.544,0.483c0.231,0.135,0.461,0.213,0.688,0.235c0.226,0.021,0.439-0.002,0.643-0.071
		c0.202-0.068,0.39-0.179,0.562-0.331c0.171-0.152,0.319-0.334,0.442-0.546l2.161-3.707l1.223,0.713l-2.206,3.785
		c-0.217,0.372-0.481,0.668-0.794,0.891c-0.313,0.222-0.651,0.37-1.017,0.444c-0.364,0.074-0.743,0.077-1.135,0.007
		S70.739,16.051,70.368,15.834z"/>
	<path fill="#25375C" d="M78.433,12.386l1.075,0.907l-0.756,6.033l3.288-3.895l1.082,0.914l-4.549,5.387l-1.081-0.913l0.745-6.007
		l-3.271,3.875l-1.081-0.913L78.433,12.386z"/>
	<path fill="#25375C" d="M82.02,23.182c-0.051,0.215-0.054,0.456-0.011,0.722c0.043,0.267,0.15,0.508,0.32,0.723
		c0.134,0.169,0.281,0.292,0.441,0.371c0.161,0.079,0.33,0.118,0.506,0.12c0.177,0.001,0.354-0.034,0.532-0.106
		c0.179-0.073,0.353-0.176,0.521-0.309l3.598-2.845l0.878,1.11l-3.521,2.784c-0.305,0.241-0.626,0.422-0.963,0.544
		c-0.338,0.122-0.674,0.171-1.009,0.147c-0.336-0.024-0.663-0.129-0.984-0.313c-0.32-0.184-0.617-0.458-0.89-0.821
		c-0.223-0.311-0.382-0.644-0.476-1c-0.095-0.355-0.125-0.718-0.09-1.088L82.02,23.182z"/>
	<path fill="#25375C" d="M86.882,26.159c0.485-0.269,0.975-0.431,1.467-0.485s0.962-0.011,1.409,0.131s0.859,0.372,1.238,0.691
		c0.378,0.319,0.698,0.714,0.958,1.185c0.264,0.475,0.431,0.958,0.501,1.448s0.046,0.961-0.073,1.413
		c-0.118,0.452-0.332,0.871-0.64,1.256c-0.309,0.386-0.706,0.714-1.192,0.983c-0.49,0.272-0.981,0.437-1.473,0.494
		c-0.49,0.057-0.96,0.016-1.408-0.121c-0.448-0.138-0.862-0.366-1.24-0.686c-0.379-0.319-0.699-0.717-0.963-1.192
		c-0.261-0.47-0.426-0.95-0.496-1.44s-0.045-0.963,0.074-1.419c0.12-0.456,0.333-0.877,0.641-1.266
		C85.991,26.761,86.391,26.431,86.882,26.159z M87.567,27.397c-0.35,0.194-0.635,0.423-0.854,0.688s-0.373,0.545-0.465,0.842
		c-0.092,0.296-0.12,0.601-0.084,0.912c0.036,0.312,0.132,0.608,0.288,0.89c0.159,0.287,0.36,0.527,0.604,0.72
		c0.243,0.193,0.515,0.329,0.814,0.409c0.301,0.08,0.62,0.095,0.959,0.048c0.339-0.048,0.683-0.169,1.033-0.363
		c0.345-0.191,0.625-0.416,0.84-0.675c0.215-0.259,0.368-0.537,0.46-0.833c0.092-0.296,0.12-0.599,0.086-0.908
		c-0.035-0.309-0.132-0.607-0.291-0.894s-0.361-0.529-0.605-0.724c-0.245-0.196-0.518-0.333-0.818-0.413
		c-0.3-0.08-0.616-0.097-0.95-0.052C88.251,27.088,87.912,27.206,87.567,27.397z"/>
	<path fill="#25375C" d="M90.958,33.732c0.528-0.17,1.04-0.233,1.533-0.191c0.493,0.042,0.945,0.176,1.356,0.402
		c0.411,0.225,0.771,0.531,1.081,0.918c0.31,0.387,0.546,0.836,0.711,1.348c0.166,0.518,0.236,1.023,0.21,1.518
		s-0.142,0.952-0.345,1.372c-0.204,0.42-0.495,0.79-0.872,1.108c-0.378,0.319-0.831,0.563-1.359,0.733
		c-0.535,0.172-1.049,0.238-1.541,0.199s-0.945-0.17-1.358-0.392S89.6,40.22,89.29,39.833c-0.309-0.387-0.547-0.839-0.713-1.356
		c-0.165-0.512-0.233-1.015-0.208-1.51c0.026-0.495,0.143-0.954,0.349-1.377c0.205-0.424,0.497-0.796,0.873-1.118
		C89.968,34.15,90.423,33.904,90.958,33.732z M91.391,35.08c-0.381,0.123-0.704,0.292-0.971,0.51
		c-0.266,0.217-0.473,0.462-0.62,0.735c-0.147,0.273-0.233,0.566-0.259,0.878c-0.024,0.312,0.012,0.622,0.11,0.929
		c0.101,0.313,0.252,0.587,0.453,0.824c0.201,0.237,0.441,0.423,0.721,0.559s0.589,0.214,0.931,0.232
		c0.342,0.019,0.703-0.033,1.084-0.155c0.376-0.121,0.693-0.287,0.955-0.5c0.261-0.212,0.465-0.455,0.612-0.729
		c0.147-0.273,0.234-0.564,0.261-0.874c0.025-0.31-0.012-0.621-0.112-0.933c-0.1-0.313-0.251-0.589-0.454-0.828
		c-0.202-0.239-0.442-0.427-0.722-0.563c-0.279-0.136-0.587-0.214-0.923-0.235C92.121,34.909,91.766,34.959,91.391,35.08z"/>
	<path fill="#25375C" d="M97.354,44.16l0.298,3.769c0.024,0.304,0.005,0.59-0.058,0.858s-0.171,0.508-0.325,0.718
		c-0.153,0.21-0.355,0.38-0.606,0.511c-0.25,0.131-0.551,0.21-0.902,0.238c-0.345,0.027-0.64,0-0.883-0.083
		c-0.243-0.083-0.449-0.21-0.618-0.382c-0.17-0.172-0.313-0.386-0.429-0.64c-0.116-0.255-0.22-0.54-0.311-0.856l-0.761-2.348
		l-2.322,0.184l-0.112-1.411L97.354,44.16z M95.649,48.852c0.315-0.025,0.549-0.138,0.7-0.339c0.152-0.201,0.217-0.45,0.192-0.748
		l-0.167-2.108l-2.438,0.193l0.557,1.924c0.096,0.37,0.238,0.648,0.43,0.833S95.357,48.875,95.649,48.852z"/>
	<path fill="#25375C" d="M94.375,51.592c0.553,0.055,1.047,0.201,1.481,0.438c0.436,0.235,0.797,0.539,1.084,0.91
		c0.286,0.371,0.494,0.795,0.623,1.273s0.166,0.984,0.112,1.52c-0.055,0.541-0.192,1.033-0.414,1.475
		c-0.222,0.443-0.51,0.816-0.865,1.119c-0.354,0.305-0.769,0.527-1.242,0.668s-0.986,0.184-1.539,0.129
		c-0.559-0.057-1.056-0.201-1.491-0.434c-0.436-0.234-0.799-0.535-1.089-0.902c-0.29-0.369-0.499-0.793-0.628-1.27
		c-0.129-0.479-0.166-0.988-0.111-1.529c0.054-0.535,0.191-1.023,0.413-1.467s0.512-0.816,0.869-1.123
		c0.358-0.306,0.774-0.531,1.248-0.676S93.816,51.535,94.375,51.592z M94.232,52.998c-0.397-0.039-0.762-0.014-1.093,0.08
		c-0.33,0.092-0.618,0.234-0.862,0.426s-0.44,0.426-0.588,0.701c-0.148,0.277-0.238,0.576-0.271,0.896
		c-0.033,0.326-0.005,0.639,0.085,0.936c0.091,0.297,0.236,0.564,0.438,0.801s0.455,0.432,0.761,0.586
		c0.305,0.152,0.657,0.25,1.056,0.291c0.392,0.039,0.75,0.014,1.074-0.076c0.324-0.092,0.608-0.232,0.854-0.424
		c0.244-0.191,0.439-0.424,0.588-0.697c0.147-0.273,0.237-0.572,0.271-0.9c0.033-0.326,0.005-0.639-0.085-0.939
		s-0.235-0.568-0.437-0.805s-0.452-0.432-0.752-0.584C94.971,53.135,94.625,53.039,94.232,52.998z"/>
	<path fill="#25375C" d="M96.65,61.418l-1.059,3.629c-0.085,0.293-0.205,0.553-0.358,0.783c-0.154,0.229-0.341,0.414-0.559,0.555
		c-0.219,0.143-0.469,0.229-0.749,0.262s-0.59,0.002-0.928-0.098c-0.481-0.141-0.827-0.352-1.038-0.633
		c-0.21-0.283-0.335-0.623-0.374-1.02l-3.476,0.619l0.409-1.402l3.092-0.553l0.11-2.105l-2.236-0.652l0.396-1.359L96.65,61.418z
		 M93.392,65.199c0.304,0.088,0.563,0.066,0.775-0.068c0.214-0.133,0.362-0.344,0.445-0.631l0.593-2.029l-2.349-0.686l-0.162,1.998
		c-0.042,0.379-0.007,0.689,0.106,0.932C92.914,64.955,93.11,65.117,93.392,65.199z"/>
	<path fill="#25375C" d="M91.777,71.617l-5.373-2.574l0.612-1.277l5.373,2.574l1.018-2.125l0.985,0.473l-2.647,5.527l-0.985-0.473
		L91.777,71.617z"/>
	<path fill="#25375C" d="M85.586,78.25l-0.904-0.613l2.078-3.061l-2.528-1.717l0.796-1.172l5.833,3.961l-2.969,4.373l-0.904-0.613
		l2.174-3.203l-1.497-1.016L85.586,78.25z"/>
	<path fill="#25375C" d="M84.48,78.791c0.4,0.387,0.699,0.805,0.896,1.26c0.196,0.455,0.293,0.916,0.289,1.385
		c-0.003,0.469-0.102,0.932-0.296,1.387c-0.194,0.457-0.478,0.879-0.85,1.266c-0.377,0.393-0.789,0.693-1.237,0.904
		c-0.447,0.211-0.905,0.328-1.371,0.348c-0.467,0.02-0.93-0.063-1.39-0.242c-0.459-0.182-0.89-0.465-1.29-0.85
		c-0.404-0.391-0.706-0.811-0.905-1.264c-0.198-0.451-0.298-0.912-0.299-1.381s0.096-0.932,0.29-1.387s0.479-0.879,0.855-1.271
		c0.373-0.387,0.783-0.688,1.231-0.898c0.447-0.211,0.907-0.326,1.378-0.346c0.47-0.021,0.937,0.059,1.398,0.238
		S84.076,78.402,84.48,78.791z M83.5,79.813c-0.289-0.277-0.592-0.482-0.909-0.613s-0.631-0.197-0.941-0.197
		s-0.609,0.063-0.896,0.188c-0.287,0.127-0.543,0.307-0.766,0.539c-0.229,0.236-0.398,0.5-0.511,0.789
		c-0.113,0.289-0.163,0.588-0.15,0.898c0.012,0.311,0.091,0.621,0.236,0.93c0.146,0.311,0.362,0.604,0.65,0.881
		c0.284,0.273,0.582,0.475,0.893,0.604c0.311,0.131,0.622,0.195,0.932,0.195c0.311,0,0.608-0.063,0.894-0.186
		c0.284-0.123,0.541-0.305,0.769-0.541s0.399-0.5,0.514-0.793c0.115-0.291,0.166-0.592,0.153-0.902
		c-0.012-0.311-0.089-0.617-0.229-0.924C83.996,80.375,83.784,80.086,83.5,79.813z"/>
	<path fill="#25375C" d="M80.488,87.654l-1.133,0.85l-3.572-4.768l-3.019,2.26l-0.655-0.875l4.151-3.109L80.488,87.654z"/>
	<path fill="#25375C" d="M73.964,92.146l-3.635-6.043l1.214-0.729l3.634,6.041L73.964,92.146z"/>
	<path fill="#25375C" d="M71.096,89.908c0.222,0.51,0.336,1.012,0.344,1.506c0.007,0.496-0.081,0.959-0.264,1.391
		c-0.184,0.432-0.452,0.82-0.807,1.168c-0.354,0.346-0.777,0.627-1.27,0.842c-0.498,0.217-0.995,0.336-1.489,0.359
		c-0.495,0.023-0.962-0.045-1.399-0.205c-0.438-0.162-0.835-0.414-1.19-0.758c-0.354-0.344-0.644-0.77-0.865-1.279
		c-0.224-0.514-0.341-1.018-0.352-1.512c-0.01-0.494,0.075-0.959,0.254-1.393c0.18-0.432,0.446-0.822,0.801-1.168
		c0.354-0.348,0.779-0.629,1.278-0.846c0.492-0.215,0.986-0.334,1.48-0.357c0.495-0.023,0.964,0.047,1.405,0.209
		c0.442,0.162,0.843,0.414,1.2,0.758C70.58,88.965,70.871,89.393,71.096,89.908z M69.798,90.473c-0.16-0.365-0.361-0.67-0.604-0.914
		c-0.243-0.242-0.508-0.424-0.794-0.543s-0.587-0.176-0.899-0.17c-0.313,0.006-0.618,0.074-0.914,0.203
		c-0.301,0.131-0.559,0.309-0.774,0.533c-0.215,0.223-0.376,0.48-0.483,0.771c-0.108,0.291-0.154,0.607-0.139,0.949
		s0.103,0.697,0.263,1.064c0.157,0.361,0.355,0.66,0.593,0.9c0.237,0.238,0.499,0.416,0.786,0.535
		c0.286,0.121,0.585,0.178,0.896,0.172c0.311-0.004,0.616-0.072,0.917-0.203c0.302-0.131,0.562-0.311,0.779-0.535
		s0.38-0.484,0.488-0.775c0.107-0.291,0.154-0.604,0.142-0.941C70.041,91.184,69.955,90.836,69.798,90.473z"/>
	<path fill="#25375C" d="M60.13,91.949c-0.169-0.143-0.381-0.256-0.639-0.338c-0.257-0.084-0.52-0.098-0.789-0.045
		c-0.211,0.043-0.388,0.117-0.531,0.225c-0.143,0.107-0.255,0.24-0.337,0.396c-0.081,0.156-0.131,0.33-0.147,0.523
		c-0.017,0.191-0.004,0.393,0.038,0.604l0.896,4.498l-1.389,0.277l-0.876-4.402c-0.075-0.381-0.091-0.75-0.046-1.105
		s0.154-0.678,0.329-0.965c0.174-0.287,0.416-0.531,0.726-0.734c0.311-0.201,0.689-0.34,1.137-0.418
		c0.378-0.057,0.747-0.047,1.106,0.031c0.36,0.078,0.696,0.217,1.01,0.416L60.13,91.949z"/>
	<path fill="#25375C" d="M55.22,94.928c0.019,0.555-0.061,1.063-0.237,1.525c-0.176,0.463-0.429,0.861-0.759,1.195
		s-0.723,0.596-1.18,0.787c-0.457,0.189-0.954,0.295-1.492,0.313c-0.543,0.018-1.049-0.055-1.517-0.215
		c-0.468-0.162-0.876-0.398-1.224-0.709c-0.348-0.313-0.623-0.693-0.826-1.143c-0.203-0.451-0.313-0.955-0.332-1.51
		c-0.018-0.561,0.06-1.072,0.232-1.535c0.173-0.463,0.423-0.863,0.75-1.199s0.719-0.6,1.176-0.791
		c0.457-0.191,0.957-0.295,1.5-0.313c0.538-0.018,1.04,0.055,1.509,0.215c0.469,0.162,0.878,0.398,1.229,0.713
		c0.352,0.314,0.63,0.697,0.835,1.148C55.09,93.859,55.202,94.365,55.22,94.928z M53.806,94.973c-0.014-0.4-0.088-0.758-0.224-1.072
		c-0.136-0.316-0.314-0.582-0.536-0.799c-0.223-0.217-0.479-0.381-0.773-0.49s-0.602-0.16-0.924-0.15
		c-0.328,0.012-0.634,0.082-0.917,0.209c-0.283,0.129-0.528,0.309-0.735,0.541c-0.208,0.23-0.368,0.508-0.479,0.83
		c-0.112,0.324-0.162,0.686-0.148,1.086c0.013,0.393,0.085,0.744,0.218,1.055c0.132,0.309,0.31,0.572,0.532,0.789
		c0.222,0.217,0.478,0.381,0.768,0.49c0.291,0.111,0.601,0.16,0.929,0.15c0.328-0.012,0.635-0.082,0.921-0.209
		c0.286-0.129,0.532-0.309,0.74-0.541c0.207-0.23,0.367-0.504,0.479-0.822C53.769,95.723,53.818,95.367,53.806,94.973z"/>
	<path fill="#25375C" d="M40.212,90.383l-0.721,3.539l3.42-0.227l0.541-2.652l1.387,0.283l-1.408,6.908l-1.387-0.281l0.653-3.205
		l-3.42,0.227l-0.473,2.316l-1.387-0.281l1.408-6.908L40.212,90.383z"/>
	<path fill="#25375C" d="M35.903,89.033l-1.082,2.779l0.888,4.711l-1.428-0.557l-0.604-3.166l-2.585,1.926l-1.428-0.555l3.838-2.873
		l1.082-2.779L35.903,89.033z"/>
	<path fill="#25375C" d="M29.212,85.619c0.369,0.221,0.678,0.486,0.927,0.797c0.25,0.309,0.429,0.641,0.537,0.994
		c0.108,0.354,0.14,0.723,0.096,1.104c-0.043,0.381-0.176,0.756-0.397,1.125l-2.252,3.756l-1.214-0.727l2.206-3.682
		c0.126-0.209,0.214-0.426,0.265-0.65c0.05-0.225,0.059-0.439,0.023-0.648s-0.116-0.408-0.244-0.596
		c-0.128-0.188-0.307-0.352-0.538-0.488c-0.23-0.139-0.458-0.221-0.685-0.244c-0.226-0.023-0.44-0.002-0.644,0.063
		c-0.203,0.066-0.392,0.176-0.565,0.326c-0.173,0.148-0.323,0.33-0.449,0.539l-2.206,3.682l-1.214-0.729l2.252-3.758
		c0.221-0.369,0.489-0.662,0.805-0.881s0.656-0.361,1.021-0.432s0.744-0.068,1.135,0.006C28.463,85.25,28.843,85.398,29.212,85.619z
		"/>
	<path fill="#25375C" d="M21.108,88.973l-1.064-0.92l0.828-6.023l-3.335,3.855l-1.071-0.926l4.613-5.332l1.071,0.926l-0.817,5.996
		l3.317-3.834l1.071,0.926L21.108,88.973z"/>
	<path fill="#25375C" d="M17.651,78.135c0.053-0.215,0.06-0.455,0.02-0.723c-0.04-0.268-0.144-0.51-0.312-0.727
		c-0.131-0.17-0.277-0.297-0.437-0.377c-0.16-0.08-0.328-0.121-0.504-0.125s-0.354,0.029-0.534,0.1
		c-0.179,0.07-0.354,0.172-0.524,0.303l-3.632,2.803l-0.865-1.121l3.554-2.742c0.308-0.236,0.631-0.414,0.97-0.531
		c0.339-0.119,0.675-0.164,1.01-0.135c0.335,0.027,0.662,0.135,0.98,0.324c0.318,0.188,0.611,0.465,0.879,0.832
		c0.219,0.313,0.374,0.648,0.464,1.004c0.09,0.357,0.116,0.721,0.077,1.09L17.651,78.135z"/>
	<path fill="#25375C" d="M12.822,75.098c-0.489,0.264-0.98,0.418-1.473,0.467c-0.493,0.049-0.962,0-1.408-0.148
		c-0.445-0.146-0.855-0.381-1.229-0.705s-0.689-0.723-0.944-1.197c-0.257-0.479-0.418-0.963-0.483-1.453
		c-0.064-0.492-0.034-0.963,0.09-1.412s0.342-0.867,0.656-1.248c0.313-0.383,0.714-0.705,1.203-0.969
		c0.495-0.266,0.987-0.424,1.479-0.477c0.491-0.051,0.96-0.004,1.407,0.139c0.447,0.143,0.857,0.377,1.232,0.701
		s0.69,0.725,0.948,1.203c0.255,0.473,0.414,0.955,0.479,1.447c0.064,0.49,0.034,0.963-0.091,1.418
		c-0.125,0.453-0.344,0.873-0.655,1.258C13.72,74.506,13.317,74.832,12.822,75.098z M12.151,73.852
		c0.353-0.189,0.64-0.416,0.861-0.678c0.222-0.262,0.381-0.541,0.476-0.836c0.095-0.297,0.127-0.6,0.095-0.912
		c-0.032-0.311-0.125-0.609-0.278-0.893c-0.155-0.289-0.354-0.531-0.595-0.729c-0.241-0.195-0.511-0.334-0.81-0.418
		c-0.299-0.082-0.618-0.102-0.958-0.059c-0.339,0.043-0.685,0.16-1.038,0.35c-0.347,0.188-0.629,0.408-0.848,0.666
		c-0.218,0.256-0.375,0.531-0.47,0.826c-0.096,0.297-0.128,0.598-0.097,0.908c0.031,0.309,0.124,0.607,0.28,0.896
		s0.355,0.533,0.597,0.732c0.243,0.197,0.513,0.338,0.813,0.422s0.616,0.104,0.95,0.064C11.464,74.152,11.804,74.037,12.151,73.852z
		"/>
	<path fill="#25375C" d="M8.847,67.498c-0.531,0.164-1.042,0.223-1.536,0.174s-0.944-0.188-1.352-0.418
		c-0.409-0.23-0.766-0.539-1.07-0.93s-0.537-0.844-0.695-1.357c-0.16-0.518-0.224-1.025-0.192-1.52s0.152-0.949,0.361-1.367
		c0.209-0.418,0.503-0.783,0.885-1.098s0.837-0.555,1.368-0.719c0.537-0.164,1.051-0.225,1.543-0.18s0.943,0.18,1.354,0.406
		s0.768,0.535,1.073,0.926s0.538,0.846,0.698,1.365c0.158,0.514,0.222,1.018,0.19,1.512c-0.032,0.494-0.153,0.951-0.364,1.373
		c-0.21,0.422-0.506,0.791-0.886,1.107C9.842,67.092,9.384,67.332,8.847,67.498z M8.43,66.146c0.382-0.119,0.708-0.285,0.976-0.498
		c0.269-0.215,0.478-0.457,0.628-0.729c0.151-0.271,0.241-0.564,0.27-0.875c0.029-0.313-0.004-0.623-0.1-0.932
		c-0.097-0.313-0.245-0.59-0.443-0.828s-0.437-0.428-0.714-0.568c-0.278-0.139-0.587-0.221-0.928-0.242
		c-0.341-0.023-0.704,0.023-1.086,0.143c-0.376,0.115-0.697,0.279-0.96,0.488c-0.263,0.209-0.471,0.449-0.621,0.721
		C5.3,63.098,5.21,63.389,5.181,63.697c-0.029,0.309,0.004,0.621,0.101,0.936c0.097,0.313,0.245,0.592,0.444,0.832
		c0.2,0.242,0.438,0.434,0.715,0.572s0.584,0.221,0.92,0.246C7.697,66.307,8.053,66.262,8.43,66.146z"/>
	<path fill="#25375C" d="M2.571,56.98l-0.254-3.773c-0.021-0.303,0.002-0.589,0.068-0.857c0.066-0.268,0.177-0.506,0.333-0.713
		c0.157-0.209,0.361-0.377,0.612-0.504c0.252-0.128,0.554-0.203,0.905-0.227c0.346-0.023,0.64,0.008,0.882,0.093
		s0.447,0.216,0.614,0.39s0.308,0.389,0.421,0.645c0.113,0.256,0.213,0.543,0.3,0.859l0.733,2.357l2.324-0.156l0.095,1.412
		L2.571,56.98z M4.331,52.309c-0.316,0.021-0.551,0.132-0.705,0.33c-0.154,0.199-0.221,0.447-0.201,0.746l0.142,2.109l2.44-0.164
		l-0.534-1.932c-0.091-0.371-0.23-0.65-0.42-0.838C4.864,52.373,4.623,52.289,4.331,52.309z"/>
	<path fill="#25375C" d="M5.639,49.587c-0.552-0.063-1.044-0.214-1.477-0.455s-0.79-0.549-1.072-0.923
		c-0.283-0.375-0.485-0.801-0.608-1.281c-0.123-0.479-0.155-0.987-0.095-1.521c0.061-0.54,0.205-1.03,0.432-1.47
		c0.227-0.44,0.52-0.81,0.878-1.109c0.358-0.299,0.775-0.517,1.25-0.652s0.989-0.172,1.541-0.11
		c0.558,0.063,1.054,0.213,1.486,0.452c0.433,0.238,0.792,0.543,1.078,0.915c0.286,0.372,0.49,0.797,0.613,1.277
		c0.123,0.48,0.154,0.99,0.094,1.53c-0.061,0.534-0.204,1.021-0.431,1.461c-0.227,0.44-0.521,0.812-0.882,1.113
		c-0.362,0.302-0.78,0.522-1.256,0.661C6.713,49.612,6.196,49.649,5.639,49.587z M5.797,48.18c0.397,0.045,0.762,0.023,1.094-0.066
		s0.621-0.228,0.867-0.417c0.247-0.188,0.446-0.42,0.597-0.694c0.151-0.274,0.245-0.572,0.281-0.893
		c0.037-0.326,0.012-0.639-0.075-0.937c-0.086-0.298-0.229-0.567-0.427-0.806c-0.199-0.239-0.45-0.437-0.753-0.594
		c-0.304-0.157-0.655-0.258-1.052-0.303c-0.392-0.044-0.75-0.023-1.076,0.063s-0.611,0.224-0.858,0.413s-0.445,0.419-0.596,0.69
		s-0.245,0.57-0.281,0.896c-0.037,0.327-0.012,0.641,0.074,0.942c0.086,0.301,0.229,0.571,0.427,0.81
		c0.199,0.239,0.447,0.437,0.745,0.593C5.061,48.036,5.405,48.136,5.797,48.18z"/>
	<path fill="#25375C" d="M3.475,39.748l1.1-3.617c0.089-0.292,0.211-0.551,0.368-0.778c0.157-0.227,0.345-0.41,0.565-0.549
		s0.471-0.224,0.751-0.253c0.28-0.03,0.589,0.006,0.927,0.108c0.48,0.146,0.823,0.361,1.03,0.646
		c0.207,0.285,0.328,0.626,0.363,1.023l3.482-0.58l-0.425,1.397l-3.098,0.519l-0.134,2.104l2.229,0.678L10.22,41.8L3.475,39.748z
		 M6.776,36.005C6.474,35.913,6.215,35.933,6,36.063c-0.215,0.131-0.366,0.34-0.453,0.626l-0.615,2.022l2.34,0.712l0.186-1.994
		c0.046-0.379,0.015-0.69-0.096-0.933C7.251,36.254,7.057,36.09,6.776,36.005z"/>
	<path fill="#25375C" d="M8.478,29.581l5.341,2.639l-0.627,1.269L7.851,30.85l-1.044,2.112l-0.98-0.484l2.715-5.494l0.979,0.484
		L8.478,29.581z"/>
	<path fill="#25375C" d="M14.746,23.025l0.896,0.625l-2.115,3.036l2.507,1.746l-0.809,1.161l-5.786-4.03l3.021-4.337l0.897,0.625
		l-2.212,3.176l1.485,1.034L14.746,23.025z"/>
	<path fill="#25375C" d="M15.857,22.499c-0.396-0.39-0.689-0.813-0.88-1.27c-0.191-0.457-0.283-0.919-0.273-1.388
		s0.113-0.93,0.313-1.383c0.199-0.454,0.487-0.872,0.865-1.255c0.381-0.387,0.797-0.684,1.248-0.89
		c0.451-0.206,0.909-0.316,1.375-0.33s0.929,0.072,1.386,0.259s0.884,0.475,1.28,0.865c0.4,0.394,0.697,0.818,0.89,1.273
		s0.288,0.917,0.283,1.385s-0.107,0.93-0.307,1.383c-0.199,0.454-0.49,0.874-0.871,1.261c-0.377,0.383-0.791,0.678-1.241,0.884
		c-0.451,0.206-0.911,0.316-1.382,0.33s-0.936-0.071-1.396-0.256C16.687,23.182,16.257,22.893,15.857,22.499z M16.851,21.49
		c0.285,0.281,0.585,0.489,0.901,0.624c0.316,0.135,0.629,0.205,0.939,0.208c0.311,0.004,0.61-0.055,0.898-0.178
		s0.546-0.299,0.772-0.528c0.23-0.234,0.404-0.495,0.52-0.783c0.116-0.288,0.17-0.587,0.161-0.897
		c-0.008-0.311-0.083-0.621-0.226-0.933c-0.142-0.312-0.355-0.608-0.64-0.889c-0.281-0.277-0.576-0.481-0.885-0.614
		c-0.31-0.133-0.619-0.201-0.93-0.205c-0.311-0.004-0.609,0.054-0.895,0.174c-0.287,0.121-0.545,0.298-0.775,0.532
		s-0.405,0.496-0.523,0.786c-0.119,0.291-0.173,0.59-0.165,0.901s0.082,0.619,0.219,0.926C16.361,20.922,16.57,21.214,16.851,21.49z
		"/>
	<path fill="#25375C" d="M19.957,13.683l1.143-0.835l3.514,4.811l3.046-2.225l0.645,0.883l-4.188,3.06L19.957,13.683z"/>
	<path fill="#25375C" d="M26.536,9.27l3.561,6.085l-1.222,0.715l-3.561-6.085L26.536,9.27z"/>
	<path fill="#25375C" d="M29.381,11.541c-0.215-0.512-0.324-1.015-0.325-1.511c-0.001-0.495,0.093-0.958,0.281-1.387
		c0.188-0.43,0.462-0.815,0.82-1.157c0.358-0.342,0.785-0.618,1.28-0.826c0.5-0.211,0.999-0.325,1.494-0.342
		c0.495-0.017,0.96,0.057,1.397,0.224c0.436,0.166,0.83,0.423,1.18,0.771c0.351,0.348,0.634,0.778,0.85,1.29
		c0.218,0.518,0.329,1.023,0.333,1.518s-0.086,0.957-0.271,1.388c-0.185,0.431-0.456,0.817-0.814,1.159
		c-0.358,0.342-0.788,0.619-1.289,0.83c-0.495,0.208-0.99,0.322-1.485,0.339s-0.962-0.058-1.402-0.226
		c-0.44-0.168-0.837-0.425-1.19-0.772C29.885,12.491,29.599,12.059,29.381,11.541z M30.686,10.992
		c0.155,0.369,0.353,0.676,0.592,0.922c0.24,0.246,0.502,0.43,0.787,0.553s0.584,0.183,0.898,0.181
		c0.313-0.002,0.618-0.066,0.916-0.191c0.303-0.128,0.563-0.302,0.781-0.523c0.218-0.221,0.382-0.477,0.494-0.767
		c0.111-0.29,0.161-0.605,0.15-0.948c-0.011-0.342-0.095-0.697-0.25-1.066c-0.153-0.363-0.347-0.666-0.581-0.907
		c-0.235-0.242-0.495-0.424-0.78-0.547c-0.285-0.123-0.583-0.184-0.894-0.183c-0.311,0.001-0.617,0.066-0.92,0.193
		s-0.564,0.302-0.785,0.525c-0.221,0.223-0.387,0.479-0.498,0.769s-0.163,0.603-0.153,0.939
		C30.452,10.278,30.533,10.628,30.686,10.992z"/>
</g>
<path fill="none" d="M-69.333,59.797c0,23.008-18.655,41.666-41.666,41.666c-23.013,0-41.667-18.658-41.667-41.666
	c0-23.013,18.655-41.668,41.667-41.668C-87.988,18.129-69.333,36.784-69.333,59.797z"/>
<text transform="matrix(0.9784 -0.2066 0.2066 0.9784 -122.3857 19.605)"><tspan x="0" y="0" fill="#25375C" font-family="'SBAggroM'" font-size="8.9589">J</tspan><tspan x="5.368" y="-0.136" fill="#25375C" font-family="'SBAggroM'" font-size="8.9589" rotate="9.339">O</tspan><tspan x="13.589" y="1.404" fill="#25375C" font-family="'SBAggroM'" font-size="8.9589" rotate="16.366"> </tspan><tspan x="15.545" y="1.814" fill="#25375C" font-family="'SBAggroM'" font-size="8.9589" rotate="22.747">H</tspan><tspan x="22.244" y="4.623" fill="#25375C" font-family="'SBAggroM'" font-size="8.9589" rotate="32.473">Y</tspan><tspan x="28.013" y="8.25" fill="#25375C" font-family="'SBAggroM'" font-size="8.9589" rotate="42.168">U</tspan><tspan x="33.405" y="13.109" fill="#25375C" font-family="'SBAggroM'" font-size="8.9589" rotate="52.097">N</tspan><tspan x="37.789" y="18.969" fill="#25375C" font-family="'SBAggroM'" font-size="8.9589" rotate="58.46"> </tspan><tspan x="38.927" y="20.662" fill="#25375C" font-family="'SBAggroM'" font-size="8.9589" rotate="63.589">J</tspan><tspan x="41.439" y="25.413" fill="#25375C" font-family="'SBAggroM'" font-size="8.9589" rotate="72.934">O</tspan><tspan x="43.89" y="33.315" fill="#25375C" font-family="'SBAggroM'" font-size="8.9589" rotate="84.334">O</tspan><tspan x="44.527" y="41.631" fill="#25375C" font-family="'SBAggroM'" font-size="8.9589" rotate="91.481"> </tspan><tspan x="44.615" y="43.63" fill="#25375C" font-family="'SBAggroM'" font-size="8.9589" rotate="97.616">P</tspan><tspan x="43.782" y="50.484" fill="#25375C" font-family="'SBAggroM'" font-size="8.9589" rotate="107.904">O</tspan><tspan x="41.206" y="58.34" fill="#25375C" font-family="'SBAggroM'" font-size="8.9589" rotate="118.401">R</tspan><tspan x="37.882" y="64.487" fill="#25375C" font-family="'SBAggroM'" font-size="8.9589" rotate="127.739">T</tspan><tspan x="33.847" y="69.684" fill="#25375C" font-family="'SBAggroM'" font-size="8.9589" rotate="136.354">F</tspan><tspan x="29.653" y="73.849" fill="#25375C" font-family="'SBAggroM'" font-size="8.9589" rotate="146.025">O</tspan><tspan x="22.732" y="78.412" fill="#25375C" font-family="'SBAggroM'" font-size="8.9589" rotate="155.686">L</tspan><tspan x="17.286" y="80.785" fill="#25375C" font-family="'SBAggroM'" font-size="8.9589" rotate="161.501">I</tspan><tspan x="14.981" y="81.768" fill="#25375C" font-family="'SBAggroM'" font-size="8.9589" rotate="168.95">O</tspan><tspan x="6.757" y="83.183" fill="#25375C" font-family="'SBAggroM'" font-size="8.9589" rotate="176.112"> </tspan><tspan x="4.732" y="83.402" fill="#25375C" font-family="'SBAggroM'" font-size="8.9589" rotate="-178.699">J</tspan><tspan x="-0.665" y="83.415" fill="#25375C" font-family="'SBAggroM'" font-size="8.9589" rotate="-169.346">O</tspan><tspan x="-8.807" y="81.699" fill="#25375C" font-family="'SBAggroM'" font-size="8.9589" rotate="-162.369"> </tspan><tspan x="-10.783" y="81.236" fill="#25375C" font-family="'SBAggroM'" font-size="8.9589" rotate="-155.931">H</tspan><tspan x="-17.384" y="78.289" fill="#25375C" font-family="'SBAggroM'" font-size="8.9589" rotate="-146.247">Y</tspan><tspan x="-23.087" y="74.522" fill="#25375C" font-family="'SBAggroM'" font-size="8.9589" rotate="-136.534">U</tspan><tspan x="-28.364" y="69.545" fill="#25375C" font-family="'SBAggroM'" font-size="8.9589" rotate="-126.62">N</tspan><tspan x="-32.618" y="63.589" fill="#25375C" font-family="'SBAggroM'" font-size="8.9589" rotate="-120.258"> </tspan><tspan x="-33.716" y="61.87" fill="#25375C" font-family="'SBAggroM'" font-size="8.9589" rotate="-115.125">J</tspan><tspan x="-36.124" y="57.057" fill="#25375C" font-family="'SBAggroM'" font-size="8.9589" rotate="-105.764">O</tspan><tspan x="-38.392" y="49.117" fill="#25375C" font-family="'SBAggroM'" font-size="8.9589" rotate="-94.377">O</tspan><tspan x="-38.842" y="40.776" fill="#25375C" font-family="'SBAggroM'" font-size="8.9589" rotate="-87.215"> </tspan><tspan x="-38.883" y="38.757" fill="#25375C" font-family="'SBAggroM'" font-size="8.9589" rotate="-81.069">P</tspan><tspan x="-37.901" y="31.948" fill="#25375C" font-family="'SBAggroM'" font-size="8.9589" rotate="-70.811">O</tspan><tspan x="-35.152" y="24.158" fill="#25375C" font-family="'SBAggroM'" font-size="8.9589" rotate="-60.311">R</tspan><tspan x="-31.68" y="18.072" fill="#25375C" font-family="'SBAggroM'" font-size="8.9589" rotate="-50.955">T</tspan><tspan x="-27.532" y="12.975" fill="#25375C" font-family="'SBAggroM'" font-size="8.9589" rotate="-42.359">F</tspan><tspan x="-23.248" y="8.907" fill="#25375C" font-family="'SBAggroM'" font-size="8.9589" rotate="-32.694">O</tspan><tspan x="-16.226" y="4.499" fill="#25375C" font-family="'SBAggroM'" font-size="8.9589" rotate="-23.023">L</tspan><tspan x="-10.723" y="2.247" fill="#25375C" font-family="'SBAggroM'" font-size="8.9589" rotate="-17.197">I</tspan><tspan x="-8.388" y="1.313" fill="#25375C" font-family="'SBAggroM'" font-size="8.9589" rotate="-9.73">O</tspan></text>
</svg>
