<?xml version="1.0" encoding="utf-8"?>
<!-- Generator: Adobe Illustrator 16.0.0, SVG Export Plug-In . SVG Version: 6.00 Build 0)  -->
<!DOCTYPE svg PUBLIC "-//W3C//DTD SVG 1.1//EN" "http://www.w3.org/Graphics/SVG/1.1/DTD/svg11.dtd">
<svg version="1.1" id="Layer_1" xmlns="http://www.w3.org/2000/svg" xmlns:xlink="http://www.w3.org/1999/xlink" x="0px" y="0px"
	 width="300px" height="300px" viewBox="0 0 300 300" enable-background="new 0 0 300 300" xml:space="preserve">
<g>
	<path fill="#201E1F" d="M-412.332,37.263c14.621-6.265,29.944-6.306,44.561-1.896c14.878,4.499,28.914,11.666,43.417,17.411
		c13.381,5.316,26.492,12.377,40.433,14.967c23.389,4.343,30.729-2.478,33.159-25.59c0.114-1.133,0.196-2.273,0.331-3.854
		c6.103,0,11.904,0,18.101,0c0.751,8.237-0.311,16.843,6.775,22.95c8.186-7.545,10.532-19.254,5.652-27.518
		c-4.352-7.355-13.35-10.49-24.011-6.41c-7.59,2.913-14.267,8.103-21.346,12.293c-7.681,4.547-14.969,10.006-23.146,13.412
		c-7.968,3.323-15.994-0.775-19.882-8.101c-3.469-6.505-1.464-13.526,5.568-19.169c9.799-7.869,21.825-10.081,33.675-12.676
		c17.502-3.821,33.225-11.174,47.159-22.384c14.925-11.984,20.955-26.813,16.023-45.59c10.65,7.517,13.572,24.267,4.642,35.245
		c-5.958,7.325-13.895,13.453-21.893,18.726c-16.483,10.855-35.625,15.178-54.627,19.766c-5.866,1.42-11.818,3.821-16.81,7.132
		c-6.499,4.295-7.507,9.882-4.445,15.219c3.199,5.547,9.112,7.957,16.111,4.385c7.896-4.038,15.225-9.441,22.141-15.025
		c8.247-6.676,16.474-12.916,27.684-13.175c18.794-0.454,29.217,13.593,22.617,31.024c-2.103,5.546-5.978,10.45-9.895,17.072
		c7.388,0,14.318,0.312,21.214-0.097c7.071-0.408,14.096-1.529,21.141-2.34c4.761,33.262-7.48,57.648-33.065,63.746
		c24.021-21.85,30.444-36.047,25.264-56.691c-5.252,0.505-10.609,1.127-15.98,1.509c-4.989,0.347-10.548,1.892-14.884,0.321
		c-9.324-3.369-16.131,0.51-23.685,4.578c-12.546,6.764-26.435,9.008-40.572,9.92c-11.857,0.774-23.718,1.6-35.573,2.406
		c-0.45,0.616-0.896,1.254-1.347,1.871c5.69,6.641,10.857,13.84,17.234,19.777c6.507,6.066,14.205,10.895,22.698,17.25
		c-13.07-3.945-22.822-10.316-31.261-18.641c-4.035-3.986-7.999-8.162-11.13-12.836c-3.246-4.869-6.465-6.086-12.337-4.41
		c-15.008,4.287-27.262,11.76-35.192,26.895c2.535-16.076,10.29-22.607,39.15-33.75C-348.363,54.627-378.173,42.541-412.332,37.263z
		 M-241.635,52.074c-2.539,13.85-12.153,20.574-25.322,21.348c-9.813,0.582-20.302,0.316-29.546-2.538
		c-13.502-4.18-26.122-11.046-39.182-16.638c-6.504-2.773-13.149-5.221-19.734-7.82c-0.295,0.545-0.582,1.091-0.88,1.641
		c14.237,8.086,24.806,19.657,33.659,32.962c1.002,1.509,3.802,2.681,5.744,2.63c14.542-0.29,29.111-0.418,43.593-1.596
		c14.987-1.207,29.155-5.449,40.93-14.043C-235.657,62.351-238.568,57.355-241.635,52.074z"/>
	<path fill="#201E1F" d="M-162.128,82.664c0,1.83,0.156,2.34-0.021,2.666c-2.569,4.639-5.439,9.645-0.663,14.141
		c4.735,4.455,10.775,3.305,16.111,0.848c12.287-5.654,18.68-15.986,20.296-28.67c1.472-11.557-11.474-19.748-23.431-15.415
		c-3.413,1.229-6.558,3.196-10.655,5.251c8.009-11.123,18.603-14.085,29.673-9.023c10.014,4.588,14.101,14.309,10.94,25.998
		c-3.885,14.391-16.566,25.723-31.154,27.385c-6.61,0.76-13.282,0.117-16.546-6.779C-170.524,92.805-167.142,87.931-162.128,82.664z
		"/>
	<path fill="#201E1F" d="M-201.907,79.315c11.687,16.026,3.082,35.815-17.266,39.634C-204.326,109.096-201.12,95.709-201.907,79.315
		z"/>
</g>
<rect x="353" y="-129" fill="#FFFFFF" width="300" height="300"/>
<g>
	<path fill="#1C1C1C" d="M-36.532-217.577c0.553,1.717,1.104,3.432,1.851,5.752c1.76-1.832,3.068-3.195,4.538-4.726
		c2.258,2.323,2.537,5.854,2.639,9.191c0.271,8.882,0.64,17.802,0.108,26.655c-0.391,6.513-4.042,11.849-9.085,16.078
		c-0.606,0.508-1.192,1.042-1.747,1.604c-0.228,0.23-0.348,0.568,0.835-0.429c1.912,2.657,3.729,5.389,5.756,7.954
		c3.919,4.955,5.202,10.678,5.213,16.814c0.012,6.893,0.003,13.785,0.003,20.748c-1.25,0.078-2.118,0.131-2.987,0.186
		c3.189,1.705,2.961,4.586,3.178,7.367c0.476,6.09,0.968,12.184,1.696,18.244c0.322,2.684-0.543,3.359-3.099,3.254
		c-4.972-0.207-9.959-0.232-14.934-0.119c-2.469,0.055-3.913-0.676-4.09-3.277c-0.573-8.443-1.347-16.879-1.689-25.332
		c-0.298-7.346-0.094-14.711-0.16-22.066c-0.012-1.35-0.143-2.719-0.4-4.041c-1.562-7.971-4.767-10.005-13.38-8.244
		c0,6.557-0.014,13.197,0.004,19.834c0.034,12.811,0.005,25.619,0.188,38.428c0.046,3.252-0.506,4.648-4.292,4.273
		c-5.033-0.5-10.151-0.219-15.23-0.15c-1.82,0.025-2.863-0.58-2.842-2.447c0.067-5.961,0.237-11.918,0.256-17.879
		c0.008-2.799-0.362-5.6-0.348-8.396c0.101-19.674,0.259-39.346,0.396-59.017c0.11-16.018,0.179-32.035,0.348-48.053
		c0.05-4.605,0.67-5.237,5.923-6.895c-0.818,1.407-1.317,2.266-1.823,3.136c3.676,3.638,4.857-4.569,9.355-1.924
		c2.486,1.462,7.021-0.903,10.638-0.924c3.595-0.021,7.194,0.733,10.899,1.16c-0.103,2.052-0.178,3.557-0.253,5.062
		c0.285,0.037,0.571,0.072,0.857,0.107c0.121-1.595,0.239-3.189,0.365-4.872c3.382-0.656,3.031,1.79,3.253,3.851
		c3.398-0.645,5.166,0.374,4.674,4.112c-0.335,2.547,1.439,3.987,3.484,5.081L-36.532-217.577z M-45.141-214.424
		c-0.055-0.242-0.108-0.484-0.163-0.727c-0.798,0.489-1.94,0.791-2.329,1.503c-1.157,2.12-2.623,2.273-3.945,0.582
		c-2.089-2.672-5.041-1.976-7.694-2.421c-2.089-0.35-3.153,0.604-3.084,2.841c0.094,3.042,0.047,6.088,0.06,9.132
		c0.039,9.775,0.085,19.551,0.109,29.326c0.005,2.312,1.075,3.097,3.385,2.982c6.207-0.306,9.87-3.598,10.282-9.87
		c0.331-5.067,0.222-10.163,0.565-15.228c0.156-2.291,0.938-4.539,1.434-6.795c-0.79-1.404-1.886-3.346-2.747-4.875
		C-47.675-210.464-46.407-212.444-45.141-214.424z M-37.079-120.225c0.544-0.293,1.087-0.584,1.631-0.877
		c-0.66-1.363-1.321-2.729-1.98-4.094c-0.6,0.475-1.781,1.197-1.702,1.383C-38.597-122.553-37.795-121.408-37.079-120.225z"/>
	<path fill="#1C1C1C" d="M-200.791-161.455c0,13.57,0.414,27.156-0.136,40.703c-0.411,10.135-3.438,19.516-11.777,26.445
		c-9.772,8.121-27.778,8.119-36.878-4.195c-5.515-7.465-8.296-15.779-8.243-24.99c0.153-26.023,0.414-52.048,0.629-78.072
		c0.063-7.642,2.288-14.739,6.075-21.241c5.758-9.886,14.784-12.238,25.632-10.942c10.518,1.256,16.819,7.468,21.324,16.268
		c4.845,9.464,4.249,19.752,4.34,29.912c0.079,8.702,0.017,17.407,0.017,26.11C-200.136-161.457-200.463-161.456-200.791-161.455z
		 M-236.036-161.619c-0.106,0-0.212,0-0.317,0c0,11.769-0.137,23.541,0.067,35.306c0.081,4.6,0.515,9.291,1.625,13.73
		c0.451,1.805,2.912,3.748,4.86,4.369c2.311,0.738,4.716-0.639,5.706-3.17c0.767-1.959,1.611-4.053,1.655-6.102
		c0.309-14.471,0.526-28.943,0.563-43.415c0.032-13.466-0.075-26.935-0.396-40.396c-0.077-3.205-0.87-6.53-2.022-9.536
		c-1.286-3.354-4.286-4.047-7.601-2.541c-3.836,1.745-4.013,5.4-4.057,8.662C-236.146-190.348-236.036-175.983-236.036-161.619z"/>
	<path fill="#1C1C1C" d="M-179.057-201.32c-4.477,3.792-9.277,7.801-13.976,11.928c-0.472,0.415-0.313,1.547-0.446,2.347
		c1.128,0.129,2.584,0.776,3.328,0.303c4.474-2.843,8.79-5.935,13.143-8.966c0.705-0.491,1.33-1.096,2.384-1.972
		c0,5.503,0,10.519,0,15.535c3.965-7.679,2.251-17.493,9.831-24.042c-0.689,0.061-1.163,0.048-1.607,0.159
		c-0.367,0.091-0.697,0.327-1.506,0.727c1.642-8.792,3.143-17.076,4.788-25.331c0.213-1.064,1.138-2.766,1.809-2.803
		c1.603-0.089,3.252,0.635,4.88,1.039c2.049,0.509,4.12,1.526,6.135,1.422c2.908-0.149,5.774-1.11,9.606-1.926
		c-0.68,4.081-1.146,7.357-1.782,10.601c-2.677,13.644-5.399,27.281-8.114,40.918c-0.9,4.531-2.059,9.028-2.654,13.598
		c-0.396,3.052-0.369,6.26,0.093,9.305c1.87,12.296,4.025,24.548,5.992,36.827c1.444,9.023,2.771,18.066,4.118,27.105
		c0.181,1.211,0.162,2.451,0.258,4.039c-5.557,0.633-10.917,1.348-16.303,1.74c-0.771,0.057-2.235-1.344-2.4-2.25
		c-2.354-12.902-4.479-25.846-6.79-38.758c-1.484-8.297-3.186-16.557-4.79-24.832c-0.416,0.021-0.833,0.041-1.251,0.06
		c0,5.626-0.007,11.251,0.002,16.878c0.021,14.936,0.069,29.871,0.058,44.805c-0.004,4.438-0.058,4.129-4.384,3.842
		c-4.435-0.291-8.913,0.107-13.373,0.191c-1.33,0.025-2.661,0.004-4.727,0.004c0-5.445,0.003-10.592,0-15.74
		c-0.013-22.029-0.051-44.059-0.034-66.085c0.015-19.243,0.083-38.484,0.144-57.727c0.017-5.305,0.043-5.327,5.167-5.313
		c4.83,0.013,9.664,0.133,14.494,0.097c2.313-0.018,3.17,0.88,3.102,3.242c-0.271,9.387-0.346,18.779-0.619,28.166
		c-0.037,1.27-0.777,2.521-1.193,3.78C-176.646-199.244-177.616-200.08-179.057-201.32z M-153.356-102.611
		c0.521-1.398,1.04-2.799,1.577-4.242c-0.133-0.049-0.652-0.238-1.23-0.451c0.954-0.799,1.732-1.453,2.512-2.107
		c-0.125-0.148-0.251-0.297-0.377-0.445c-0.663,0.18-1.326,0.359-1.989,0.539c-0.14-0.322-0.277-0.646-0.416-0.971
		c1.338-0.672,2.674-1.342,4.067-2.041c-1.048-0.77-1.979-1.451-2.739-2.008c-0.914,1.064-1.753,2.225-2.776,3.189
		c-1.354,1.275-2.102,2.33,0.417,3.039c-0.396,0.459-0.917,0.781-0.945,1.145c-0.119,1.496-0.088,3.006-0.111,4.512
		c0.705-0.09,1.41-0.18,2.115-0.27c-1.257,0.457-2.528,0.875-3.765,1.383c-0.833,0.342-2.323,0.857-2.3,1.215
		c0.154,2.285,0.645,4.549,1.011,6.734c1.594-1.338,2.908-2.42,4.2-3.527c0.83-0.715,2.289-1.463,2.291-2.199
		C-151.811-100.279-152.793-101.445-153.356-102.611z"/>
	<path fill="#1C1C1C" d="M-116.368-171.209c4.817,0,9.445,0.094,14.066-0.034c2.994-0.083,4.325,0.972,4.182,4.13
		c-0.185,4.065-0.111,8.15,0.04,12.219c0.087,2.362-0.874,3.255-3.149,3.269c-4.297,0.025-8.591,0.193-12.888,0.271
		c-1.896,0.035-2.786,0.732-2.791,2.842c-0.032,11.883-0.252,23.764-0.281,35.646c-0.013,4.531,0.14,4.541,4.533,4.504
		c6.334-0.057,12.669-0.135,19.003-0.193c1.896-0.018,3.791-0.002,5.909-0.002c0,3.039-0.031,5.594,0.007,8.148
		c0.043,2.701-0.044,5.428,0.282,8.1c0.361,2.975-0.913,4.324-3.679,4.367c-3.947,0.059-7.898-0.08-11.848-0.1
		c-10.504-0.051-21.008-0.078-31.511-0.127c-4.329-0.02-5.226-0.824-5.2-5.086c0.119-19.9,0.363-39.797,0.42-59.697
		c0.046-15.832-0.176-31.664-0.159-47.498c0.011-9.729,0.239-19.457,0.389-29.186c0.028-1.794,0.251-3.438,2.7-3.432
		c15.818,0.022,31.638,0.012,47.231,0.012c0,1.391,0,2.843,0,4.296c0.829-0.416,1.658-0.832,3.23-1.621c0,2.261,0.005,4.599,0,6.936
		c-0.02,9.743-0.021,9.731-9.837,9.775c-5.998,0.028-11.996,0.114-17.994,0.138c-1.58,0.006-2.938,0.031-2.938,2.219
		c-0.001,12.896-0.057,25.791-0.081,38.687C-116.732-172.299-116.57-171.973-116.368-171.209z"/>
	<path fill="#1C1C1C" d="M-261.369-173.5c0,19.011,0.482,38.041-0.19,57.029c-0.374,10.557-3.87,21.08-14.395,25.641
		c-17.164,7.436-35.253,0.264-38.827-21.072c-1.35-8.053-0.513-16.473-0.661-24.727c-0.032-1.791,0.713-2.693,2.67-2.559
		c4.854,0.33,9.715,0.598,14.576,0.793c2.108,0.084,2.229,1.303,2.206,2.963c-0.094,6.67-0.295,13.348-0.001,20.004
		c0.084,1.912,1.319,4.115,2.688,5.561c3.146,3.326,7.183,2.453,8.845-1.855c0.874-2.268,1.422-4.807,1.452-7.23
		c0.317-25.922,0.484-51.845,0.731-77.768c0.108-11.272,0.387-22.544,0.407-33.816c0.005-2.695,0.865-3.557,3.515-3.434
		c5.087,0.238,10.189,0.352,15.278,0.222c2.785-0.071,3.367,1.009,3.354,3.575c-0.094,18.892-0.052,37.783-0.052,56.675
		C-260.305-173.5-260.837-173.5-261.369-173.5z"/>
	<path fill="#1C1C1C" d="M-36.435-217.479c-0.308-2.743,2.148-2.381,3.573-2.931c0.614-0.236,1.653,0.627,3.292,1.332
		c-2.905,1.128-4.657,2.569-6.961,1.501C-36.532-217.577-36.435-217.479-36.435-217.479z"/>
</g>
<g>
	<path fill="#232323" d="M-255.795,248.887c-12.402,14.809-23.105,27.637-33.874,40.406c-2.697,3.195-5.077,7.697-8.557,8.941
		c-4.971,1.773-10.819,1.104-16.293,1.479c0.561-5.299-0.837-12.316,2.034-15.584c10.412-11.838,22.196-22.479,33.595-33.436
		c4.011-3.855,8.393-7.328,14.103-12.274c-16.465-19.889-31.95-38.589-47.432-57.289c1.212-1.231,2.428-2.465,3.636-3.696
		c17.294,16.271,34.585,32.551,52.956,49.838c17.654-16.808,35.108-33.422,52.563-50.041c1.336,1.188,2.671,2.383,4.003,3.574
		c-15.273,18.488-30.552,36.979-47.013,56.901c13.706,13.294,26.964,26.159,40.226,39.021c2.337,2.27,5.881,4.127,6.772,6.859
		c1.638,5.016,1.715,10.536,2.442,15.848c-5.801-0.523-13.749,1.172-17.018-1.982c-10.987-10.6-20.311-22.926-30.269-34.594
		C-247.449,258.719-250.969,254.566-255.795,248.887z"/>
	<path fill="#232323" d="M-424.599,249.046c-12.269,14.535-23.918,28.356-35.587,42.158c-2.095,2.478-3.88,6.308-6.491,7.022
		c-5.202,1.428-10.874,1.121-16.354,1.526c0.474-5.43-1.117-12.696,1.791-15.958c10.804-12.134,23.015-23.027,34.861-34.214
		c3.708-3.505,7.93-6.464,13.074-10.604c-16.661-20.305-31.925-38.904-47.188-57.512c1.319-1.254,2.639-2.506,3.958-3.758
		c17.073,16.313,34.146,32.627,52.078,49.766c17.53-16.896,34.843-33.582,52.155-50.268c1.357,1.288,2.715,2.578,4.072,3.867
		c-15.064,18.313-30.13,36.627-46.136,56.087c13.211,13.108,26.296,26.094,39.389,39.075c2.644,2.619,6.686,4.789,7.653,7.923
		c1.528,4.94,1.001,10.519,1.343,15.831c-5.512-0.479-12.836,1.103-16.179-1.84c-8.294-7.293-14.748-16.668-21.979-25.181
		C-410.733,265.212-417.38,257.484-424.599,249.046z"/>
</g>
<g>
	<path fill="#25375C" d="M55.709,242.652c-0.554-6.922-1.453-13.028-1.473-19.146c-0.11-31.179-0.319-62.367,0.178-93.539
		c0.277-17.303,1.826-34.586,2.888-51.875c0.209-3.426,1.173-6.833,1.131-10.242c-0.051-4.214,2.829-6.426,5.749-7.136
		c6.703-1.639,13.639-3.001,20.512-3.153c17.149-0.381,34.316,0.035,51.477,0c9.315-0.02,18.64-0.604,27.948-0.396
		c9.056,0.202,18.355,2.665,27.056,1.212c7.89-1.317,15.341-0.356,22.985-0.397c6.501-0.037,13.001-0.022,19.492-0.274
		c4.593-0.179,7.177,2.13,7.676,6.289c1.061,8.847,1.945,17.731,2.438,26.625c0.906,16.484,1.732,32.98,2.11,49.484
		c0.194,8.344-0.776,16.708-0.983,25.066c-0.576,23.271-1.031,46.542-1.549,69.814c-0.097,4.326-1.992,7.037-6.646,7.082
		c-27.19,0.281-54.375,0.675-81.562,0.787c-23.771,0.094-47.539-0.133-71.313-0.191C74.928,242.637,66.02,242.652,55.709,242.652z
		 M188.823,235.596c0-0.313,0-0.627,0.006-0.936c11.509,0,23.026-0.26,34.53,0.119c5.127,0.162,7.418-2.272,7.738-6.598
		c0.947-12.604,1.967-25.238,2.108-37.871c0.161-12.959-0.854-25.931-1.031-38.896c-0.358-26.292-0.545-52.592-0.692-78.893
		c-0.022-4.186-1.75-5.213-5.766-5.042c-11.229,0.483-22.486,0.737-33.732,0.682c-17.897-0.092-35.787-0.773-53.677-0.694
		c-11.286,0.05-22.564,1.242-33.857,1.532C93.575,69.28,82.682,68.88,71.813,69.25c-1.69,0.059-4.269,2.351-4.737,4.073
		c-1.057,3.878-1.401,8.045-1.43,12.096c-0.119,18.618,0.042,37.235-0.049,55.85c-0.059,12.447-0.486,24.894-0.528,37.333
		c-0.048,15.379,0.356,30.756,0.107,46.127c-0.087,5.244,2.143,8.098,6.783,8.347c19.673,1.048,39.36,2.022,59.057,2.442
		C150.269,235.909,169.549,235.596,188.823,235.596z"/>
	<path fill="#25375C" d="M193.701,132.443c0-8.726,0-17.312,0-26.494c-2.192-0.144-4.075-0.382-5.946-0.371
		c-20.226,0.127-40.454,0.017-60.668,0.547c-11.853,0.309-23.705,1.409-35.507,2.602c-10.197,1.033-12.555-0.467-13.854-10.393
		c-2.08-15.857-0.356-18.097,15.51-18.152c15.126-0.054,30.252,0.46,45.383,0.585c3.663,0.032,7.337-0.787,10.994-0.712
		c11.651,0.243,23.294,0.961,34.95,1.043c9.889,0.072,19.776-0.507,29.676-0.729c1.104-0.027,2.22,0.39,3.175,0.569
		c0,8-0.081,15.715,0.043,23.425c0.054,3.209,0.664,6.404,0.794,9.613c0.313,7.417,0.74,14.837,0.688,22.258
		c-0.049,7.285-0.225,14.612-1.112,21.827c-0.513,4.102-3.736,5.942-8.187,5.508c-6.5-0.639-13.035-1-19.559-1.303
		c-5.042-0.232-10.118,0.146-15.128-0.354c-10.146-1.02-20.142-1.4-30.295,0.713c-4.951,1.035-10.366-0.164-15.566-0.289
		c-6.673-0.166-13.354-0.508-20.01-0.188c-1.506,0.067-3.771,2.328-4.172,3.951c-0.867,3.521-1.227,7.323-0.921,10.938
		c0.319,3.802,1.659,7.525,2.544,11.281c0.898,3.842,3.225,5.219,7.218,5.19c17.325-0.112,34.649,0.185,51.979,0.062
		c15.287-0.098,30.57-0.682,45.867-0.776c7.021-0.043,7.809,1.206,7.582,8.444c-0.142,4.475,0.35,9.007-0.289,13.393
		c-0.291,1.99-2.386,4.913-4.086,5.249c-4.277,0.847-8.796,0.461-13.219,0.558c-7.295,0.151-14.584,0.353-21.878,0.424
		c-2.295,0.029-4.608-0.162-6.888-0.441c-1.901-0.236-3.786-1.141-5.655-1.091c-9.438,0.239-18.865,0.912-28.296,1.003
		c-5.604,0.061-11.214-1.053-16.819-0.989c-11.474,0.138-22.947,0.58-34.411,1.144c-7.828,0.383-9.584-0.795-9.646-8.758
		c-0.187-23.646-0.215-47.293-0.17-70.937c0.017-8.353,0.989-8.677,9.547-8.509c14.55,0.283,29.115-0.01,43.67,0
		c15.573,0.014,31.144,0.104,46.718,0.153C182.805,132.458,187.834,132.443,193.701,132.443z"/>
</g>
</svg>
