<?xml version="1.0" encoding="iso-8859-1"?>
<!-- Generator: Adobe Illustrator 16.0.0, SVG Export Plug-In . SVG Version: 6.00 Build 0)  -->
<!DOCTYPE svg PUBLIC "-//W3C//DTD SVG 1.1//EN" "http://www.w3.org/Graphics/SVG/1.1/DTD/svg11.dtd">
<svg version="1.1" id="Layer_1" xmlns="http://www.w3.org/2000/svg" xmlns:xlink="http://www.w3.org/1999/xlink" x="0px" y="0px"
	 width="100px" height="100px" viewBox="0 0 100 100" style="enable-background:new 0 0 100 100;" xml:space="preserve">
<g>
	<g>
		<path style="fill:#25375C;" d="M20.529,10.635l4.572-2.804c0.355-0.218,0.716-0.374,1.085-0.469
			c0.37-0.095,0.726-0.114,1.069-0.058C27.6,7.361,27.93,7.503,28.249,7.73s0.605,0.548,0.86,0.964
			c0.251,0.409,0.415,0.79,0.49,1.143c0.076,0.352,0.073,0.692-0.009,1.019c-0.08,0.326-0.232,0.649-0.454,0.968
			c-0.221,0.319-0.503,0.645-0.844,0.976l-2.202,2.125l1.568,2.557l-2.127,1.306L20.529,10.635z M27.023,10.044
			c-0.118-0.19-0.282-0.317-0.494-0.38s-0.424-0.029-0.636,0.102l-2.158,1.324l1.21,1.974l1.724-1.55
			c0.311-0.275,0.48-0.534,0.509-0.777C27.208,10.495,27.156,10.263,27.023,10.044z"/>
		<path style="fill:#25375C;" d="M30.125,5.205l2.351-0.84l2.523,7.063l4.306-1.538l0.694,1.944l-6.656,2.378L30.125,5.205z"/>
		<path style="fill:#25375C;" d="M39.775,11.781l1.958-9.906l3.118-0.413l4.465,9.057l-2.474,0.328l-1.255-2.534l-2.957,1.25
			l-0.38,1.891L39.775,11.781z M43.094,7.214l1.604-0.684l-1.043-2.125L43.094,7.214z"/>
		<path style="fill:#25375C;" d="M51.643,1.24l1.631,3.287l2.103-3.008l2.741,0.205l-3.791,5.301l-0.297,3.985l-2.488-0.187
			l0.299-4.02l-2.938-5.767L51.643,1.24z"/>
		<path style="fill:#25375C;" d="M62.579,9.506c0.266,0.488,0.624,0.939,1.072,1.354c0.449,0.413,0.955,0.725,1.519,0.933
			c0.376,0.137,0.67,0.186,0.881,0.148c0.213-0.039,0.359-0.163,0.439-0.371c0.095-0.246,0.072-0.482-0.067-0.708
			c-0.14-0.226-0.417-0.491-0.831-0.796c-0.353-0.265-0.712-0.543-1.08-0.835c-0.367-0.292-0.681-0.613-0.939-0.961
			c-0.261-0.349-0.437-0.734-0.526-1.155c-0.091-0.42-0.033-0.896,0.171-1.426c0.182-0.471,0.429-0.839,0.743-1.109
			c0.313-0.268,0.671-0.452,1.074-0.55c0.402-0.097,0.835-0.118,1.296-0.059c0.463,0.058,0.929,0.178,1.398,0.359
			c0.328,0.126,0.631,0.27,0.91,0.428c0.276,0.159,0.541,0.34,0.792,0.545c0.252,0.204,0.489,0.431,0.715,0.681
			c0.226,0.25,0.448,0.533,0.67,0.85l-1.61,1.437c-0.252-0.414-0.563-0.783-0.937-1.106c-0.372-0.324-0.794-0.585-1.266-0.785
			c-0.154-0.068-0.305-0.119-0.449-0.154c-0.146-0.035-0.279-0.048-0.402-0.04s-0.231,0.038-0.323,0.088
			c-0.093,0.05-0.16,0.131-0.203,0.243S65.56,6.731,65.561,6.83c0.001,0.1,0.034,0.205,0.103,0.317s0.18,0.241,0.334,0.386
			c0.154,0.146,0.368,0.317,0.642,0.519c0.427,0.318,0.821,0.632,1.188,0.939c0.365,0.309,0.661,0.634,0.89,0.975
			c0.229,0.341,0.369,0.711,0.422,1.108c0.053,0.397-0.019,0.847-0.211,1.347c-0.179,0.463-0.424,0.831-0.736,1.105
			c-0.312,0.274-0.671,0.461-1.077,0.562c-0.408,0.1-0.854,0.12-1.337,0.063s-0.987-0.188-1.509-0.39
			c-0.747-0.288-1.399-0.668-1.958-1.141c-0.56-0.474-1.039-1.014-1.438-1.623L62.579,9.506z"/>
		<path style="fill:#25375C;" d="M73.786,7.293l2.104,1.344l-4.042,6.319l3.852,2.463l-1.111,1.738l-5.954-3.808L73.786,7.293z"/>
		<path style="fill:#25375C;" d="M83.096,14.054l-6.248,7.24l-1.889-1.63l6.248-7.241L83.096,14.054z"/>
		<path style="fill:#25375C;" d="M85.164,15.807l2.961,3.562c0.414,0.499,0.692,1.024,0.835,1.577
			c0.142,0.552,0.164,1.103,0.069,1.651c-0.097,0.548-0.309,1.079-0.634,1.595c-0.326,0.516-0.75,0.989-1.273,1.424
			c-0.542,0.451-1.104,0.785-1.687,1.004c-0.582,0.219-1.164,0.311-1.742,0.277c-0.579-0.033-1.146-0.197-1.697-0.493
			c-0.552-0.295-1.071-0.735-1.558-1.319l-2.63-3.166L85.164,15.807z M80.99,22.52l0.944,1.135c0.251,0.301,0.526,0.517,0.826,0.647
			s0.609,0.188,0.926,0.175c0.316-0.014,0.635-0.091,0.955-0.232c0.319-0.141,0.624-0.332,0.913-0.571
			c0.283-0.235,0.514-0.5,0.69-0.793c0.179-0.293,0.291-0.598,0.341-0.915c0.049-0.316,0.026-0.639-0.063-0.969
			c-0.093-0.329-0.269-0.651-0.529-0.965l-0.821-0.987L80.99,22.52z"/>
		<path style="fill:#25375C;" d="M92.308,33.066l-1.837,0.941l-2.149-4.198l-1.602,0.819l2.308,4.508L87.2,36.071l-3.445-6.729
			l8.514-4.358l3.39,6.623l-1.837,0.94l-2.253-4.401l-1.41,0.722L92.308,33.066z"/>
		<path style="fill:#25375C;" d="M91.623,39.879c-0.275,0.482-0.472,1.023-0.588,1.623c-0.116,0.6-0.115,1.194,0.003,1.781
			c0.081,0.393,0.194,0.667,0.338,0.829c0.144,0.16,0.325,0.22,0.547,0.179c0.259-0.049,0.446-0.192,0.566-0.43
			c0.118-0.238,0.198-0.613,0.241-1.125c0.041-0.439,0.088-0.892,0.144-1.357c0.055-0.466,0.163-0.901,0.323-1.306
			c0.161-0.404,0.396-0.756,0.707-1.054c0.311-0.297,0.745-0.499,1.304-0.603c0.496-0.093,0.94-0.076,1.335,0.05
			c0.393,0.125,0.736,0.334,1.03,0.625c0.295,0.29,0.538,0.647,0.731,1.071s0.337,0.884,0.429,1.379
			c0.064,0.346,0.102,0.679,0.112,0.998c0.011,0.319-0.004,0.64-0.046,0.961c-0.042,0.32-0.109,0.643-0.205,0.965
			c-0.094,0.323-0.218,0.662-0.371,1.016l-2.067-0.615c0.22-0.433,0.37-0.892,0.45-1.378c0.08-0.486,0.081-0.984,0.003-1.49
			c-0.023-0.167-0.059-0.321-0.105-0.463c-0.047-0.142-0.105-0.263-0.177-0.363c-0.072-0.1-0.154-0.177-0.244-0.229
			c-0.092-0.052-0.196-0.066-0.314-0.045c-0.117,0.023-0.22,0.06-0.303,0.112c-0.084,0.052-0.155,0.137-0.215,0.253
			c-0.06,0.116-0.111,0.279-0.152,0.486c-0.043,0.207-0.078,0.48-0.104,0.819c-0.048,0.53-0.106,1.031-0.177,1.505
			c-0.07,0.472-0.19,0.896-0.36,1.269c-0.172,0.374-0.412,0.687-0.723,0.94c-0.312,0.253-0.729,0.43-1.256,0.528
			c-0.487,0.091-0.931,0.075-1.327-0.045c-0.397-0.122-0.745-0.33-1.045-0.624c-0.299-0.294-0.55-0.663-0.755-1.104
			s-0.358-0.938-0.46-1.489c-0.147-0.787-0.167-1.542-0.058-2.266c0.108-0.724,0.316-1.417,0.626-2.076L91.623,39.879z"/>
		<path style="fill:#25375C;" d="M89.681,54.114l4.474,0.176l-0.842-3.625l-3.489-0.138l0.098-2.493l9.557,0.376l-0.099,2.494
			l-4.017-0.158l0.854,3.624l3.021,0.119l-0.099,2.495l-9.557-0.379L89.681,54.114z"/>
		<path style="fill:#25375C;" d="M94.198,58.608c0.698,0.209,1.304,0.53,1.817,0.964c0.513,0.434,0.914,0.938,1.205,1.514
			c0.291,0.575,0.464,1.206,0.519,1.89c0.054,0.684-0.027,1.388-0.244,2.107c-0.218,0.729-0.537,1.363-0.958,1.905
			s-0.911,0.974-1.472,1.294c-0.56,0.32-1.171,0.518-1.836,0.59s-1.346,0.005-2.043-0.205c-0.705-0.211-1.315-0.528-1.831-0.955
			c-0.516-0.426-0.921-0.928-1.216-1.505c-0.295-0.576-0.469-1.206-0.523-1.891c-0.054-0.685,0.028-1.392,0.246-2.119
			c0.216-0.72,0.535-1.351,0.956-1.893c0.421-0.543,0.913-0.973,1.477-1.292c0.564-0.321,1.18-0.521,1.846-0.601
			C92.808,58.332,93.494,58.397,94.198,58.608z M93.482,61c-0.421-0.127-0.825-0.178-1.212-0.157
			c-0.387,0.022-0.74,0.111-1.063,0.265c-0.32,0.155-0.601,0.373-0.841,0.656c-0.239,0.283-0.418,0.624-0.537,1.023
			c-0.12,0.397-0.157,0.78-0.113,1.148c0.044,0.369,0.158,0.706,0.343,1.012c0.184,0.306,0.431,0.574,0.742,0.805
			c0.311,0.231,0.676,0.409,1.099,0.536c0.406,0.122,0.801,0.171,1.184,0.146c0.382-0.022,0.735-0.111,1.057-0.266
			c0.322-0.154,0.601-0.373,0.841-0.655c0.24-0.283,0.419-0.625,0.539-1.023c0.119-0.398,0.156-0.781,0.111-1.149
			c-0.044-0.368-0.158-0.705-0.342-1.012c-0.185-0.305-0.43-0.572-0.736-0.803C94.245,61.297,93.889,61.122,93.482,61z"/>
		<path style="fill:#25375C;" d="M93.593,74.233l-5.327-1.93l4.056,3.937l-1.305,2.057l-5.338-2.092l4.065,4.099l-1.33,2.098
			l-6.779-7.168l1.329-2.099l5.734,2.229l-4.474-4.216l1.324-2.088l9.375,3.074L93.593,74.233z"/>
	</g>
	<g>
		<path style="fill:#25375C;" d="M76.396,88.74c-0.793,0.618-1.606,1.209-2.439,1.773c-17.242,11.683-40.261,10.271-55.978-3.438
			c-9.253-8.069-14.81-19.26-15.647-31.509c-0.836-12.25,3.147-24.092,11.217-33.345c1.938-2.224,4.091-4.264,6.397-6.063
			l1.23,1.577c-2.206,1.722-4.266,3.674-6.121,5.801C7.337,32.388,3.527,43.714,4.327,55.431c0.8,11.717,6.116,22.42,14.966,30.14
			c15.032,13.109,37.049,14.461,53.542,3.286c3.123-2.115,5.982-4.646,8.49-7.524l1.508,1.314
			C80.879,84.888,78.721,86.93,76.396,88.74z"/>
	</g>
	<path style="fill:none;stroke:#000000;stroke-miterlimit:10;" d="M84.807,23.523"/>
</g>
</svg>
