<?xml version="1.0" encoding="utf-8"?>
<!-- Generator: Adobe Illustrator 16.0.0, SVG Export Plug-In . SVG Version: 6.00 Build 0)  -->
<!DOCTYPE svg PUBLIC "-//W3C//DTD SVG 1.1//EN" "http://www.w3.org/Graphics/SVG/1.1/DTD/svg11.dtd">
<svg version="1.1" id="Layer_1" xmlns="http://www.w3.org/2000/svg" xmlns:xlink="http://www.w3.org/1999/xlink" x="0px" y="0px"
	 width="300px" height="300px" viewBox="0 0 300 300" enable-background="new 0 0 300 300" xml:space="preserve">
<g>
	<path fill="#201E1F" d="M-412.332,37.263c14.621-6.265,29.944-6.306,44.561-1.896c14.878,4.499,28.914,11.666,43.417,17.411
		c13.381,5.316,26.492,12.377,40.433,14.967c23.389,4.343,30.729-2.478,33.159-25.59c0.114-1.133,0.196-2.273,0.331-3.854
		c6.103,0,11.904,0,18.101,0c0.751,8.237-0.311,16.843,6.775,22.95c8.186-7.545,10.532-19.254,5.652-27.518
		c-4.352-7.355-13.35-10.49-24.011-6.41c-7.59,2.913-14.267,8.103-21.346,12.293c-7.681,4.547-14.969,10.006-23.144,13.412
		c-7.968,3.323-15.994-0.775-19.882-8.101c-3.469-6.505-1.464-13.526,5.568-19.169c9.799-7.869,21.825-10.081,33.675-12.676
		c17.502-3.821,33.225-11.174,47.159-22.384c14.925-11.984,20.955-26.813,16.023-45.59c10.65,7.517,13.572,24.267,4.642,35.245
		c-5.958,7.325-13.895,13.453-21.893,18.726c-16.483,10.855-35.625,15.178-54.627,19.766c-5.866,1.42-11.818,3.821-16.81,7.132
		c-6.499,4.295-7.507,9.882-4.445,15.219c3.199,5.547,9.112,7.957,16.111,4.385c7.897-4.038,15.225-9.441,22.141-15.025
		c8.247-6.676,16.474-12.916,27.684-13.175c18.794-0.454,29.217,13.593,22.617,31.024c-2.103,5.546-5.978,10.45-9.895,17.072
		c7.388,0,14.318,0.312,21.214-0.097c7.071-0.408,14.096-1.529,21.141-2.34c4.761,33.262-7.48,57.648-33.065,63.746
		c24.021-21.85,30.444-36.047,25.264-56.691c-5.252,0.505-10.609,1.127-15.98,1.509c-4.989,0.347-10.548,1.892-14.884,0.321
		c-9.324-3.369-16.131,0.51-23.685,4.578c-12.546,6.764-26.435,9.008-40.572,9.92c-11.857,0.774-23.718,1.6-35.573,2.406
		c-0.45,0.616-0.896,1.254-1.347,1.871c5.69,6.641,10.857,13.84,17.234,19.777c6.507,6.066,14.205,10.895,22.698,17.25
		c-13.07-3.945-22.822-10.316-31.261-18.641c-4.035-3.986-7.999-8.162-11.13-12.836c-3.246-4.869-6.465-6.086-12.337-4.41
		c-15.008,4.287-27.262,11.76-35.192,26.895c2.535-16.076,10.29-22.607,39.15-33.75C-348.363,54.627-378.173,42.541-412.332,37.263z
		 M-241.635,52.074c-2.539,13.85-12.153,20.574-25.322,21.348c-9.813,0.582-20.302,0.316-29.546-2.538
		c-13.502-4.18-26.122-11.046-39.182-16.638c-6.504-2.773-13.149-5.221-19.734-7.82c-0.295,0.545-0.582,1.091-0.88,1.641
		c14.237,8.086,24.806,19.657,33.659,32.962c1.002,1.509,3.802,2.681,5.744,2.63c14.542-0.29,29.111-0.418,43.593-1.596
		c14.987-1.207,29.155-5.449,40.93-14.043C-235.657,62.351-238.568,57.355-241.635,52.074z"/>
	<path fill="#201E1F" d="M-162.128,82.664c0,1.83,0.156,2.34-0.021,2.666c-2.569,4.639-5.439,9.645-0.663,14.141
		c4.735,4.455,10.775,3.305,16.111,0.848c12.287-5.654,18.68-15.986,20.296-28.67c1.472-11.557-11.474-19.748-23.431-15.415
		c-3.413,1.229-6.558,3.196-10.655,5.251c8.009-11.123,18.603-14.085,29.673-9.023c10.014,4.588,14.101,14.309,10.94,25.998
		c-3.885,14.391-16.566,25.723-31.154,27.385c-6.61,0.76-13.282,0.117-16.546-6.779C-170.524,92.805-167.142,87.931-162.128,82.664z
		"/>
	<path fill="#201E1F" d="M-201.907,79.315c11.687,16.026,3.082,35.815-17.266,39.634C-204.326,109.096-201.12,95.709-201.907,79.315
		z"/>
</g>
<rect x="317.54" y="-6.383" fill="#FFFFFF" width="300" height="300.001"/>
<g>
	<path fill="#1C1C1C" d="M-36.532-217.577c0.553,1.717,1.104,3.432,1.851,5.752c1.76-1.832,3.068-3.195,4.538-4.726
		c2.258,2.323,2.537,5.854,2.639,9.191c0.271,8.882,0.64,17.802,0.108,26.655c-0.391,6.513-4.042,11.849-9.085,16.078
		c-0.606,0.508-1.192,1.042-1.747,1.604c-0.228,0.23-0.348,0.568,0.835-0.429c1.912,2.657,3.729,5.389,5.756,7.954
		c3.919,4.955,5.202,10.678,5.213,16.814c0.012,6.893,0.003,13.785,0.003,20.748c-1.25,0.078-2.118,0.131-2.987,0.186
		c3.189,1.705,2.961,4.586,3.178,7.367c0.476,6.09,0.968,12.184,1.696,18.244c0.322,2.684-0.543,3.359-3.099,3.254
		c-4.972-0.207-9.959-0.232-14.934-0.119c-2.469,0.055-3.913-0.676-4.09-3.277c-0.573-8.443-1.347-16.879-1.689-25.332
		c-0.298-7.346-0.094-14.711-0.16-22.066c-0.012-1.35-0.143-2.719-0.4-4.041c-1.562-7.971-4.767-10.005-13.38-8.244
		c0,6.557-0.014,13.197,0.004,19.834c0.034,12.811,0.005,25.619,0.188,38.428c0.046,3.252-0.506,4.648-4.292,4.273
		c-5.033-0.5-10.151-0.219-15.23-0.15c-1.82,0.025-2.863-0.58-2.842-2.447c0.067-5.961,0.237-11.918,0.256-17.879
		c0.008-2.799-0.362-5.6-0.348-8.396c0.101-19.674,0.259-39.346,0.396-59.017c0.11-16.018,0.179-32.035,0.348-48.053
		c0.05-4.605,0.67-5.237,5.923-6.895c-0.818,1.407-1.317,2.266-1.823,3.136c3.676,3.638,4.857-4.569,9.355-1.924
		c2.486,1.462,7.021-0.903,10.638-0.924c3.595-0.021,7.194,0.733,10.899,1.16c-0.103,2.052-0.178,3.557-0.253,5.062
		c0.285,0.037,0.571,0.072,0.857,0.107c0.121-1.595,0.239-3.189,0.365-4.872c3.382-0.656,3.031,1.79,3.253,3.851
		c3.398-0.645,5.166,0.374,4.674,4.112c-0.335,2.547,1.439,3.987,3.484,5.081L-36.532-217.577z M-45.141-214.424
		c-0.055-0.242-0.108-0.484-0.163-0.727c-0.798,0.489-1.94,0.791-2.329,1.503c-1.157,2.12-2.623,2.273-3.945,0.582
		c-2.089-2.672-5.041-1.976-7.694-2.421c-2.089-0.35-3.153,0.604-3.084,2.841c0.094,3.042,0.047,6.088,0.06,9.132
		c0.039,9.775,0.085,19.551,0.109,29.326c0.005,2.312,1.075,3.097,3.385,2.982c6.207-0.306,9.87-3.598,10.282-9.87
		c0.331-5.067,0.222-10.163,0.565-15.228c0.156-2.291,0.938-4.539,1.434-6.795c-0.79-1.404-1.886-3.346-2.747-4.875
		C-47.675-210.464-46.407-212.444-45.141-214.424z M-37.079-120.225c0.544-0.293,1.087-0.584,1.631-0.877
		c-0.66-1.363-1.321-2.729-1.98-4.094c-0.6,0.475-1.781,1.197-1.702,1.383C-38.597-122.553-37.795-121.408-37.079-120.225z"/>
	<path fill="#1C1C1C" d="M-200.791-161.455c0,13.57,0.414,27.156-0.136,40.703c-0.411,10.135-3.438,19.516-11.777,26.445
		c-9.772,8.121-27.778,8.119-36.878-4.195c-5.515-7.465-8.296-15.779-8.243-24.99c0.153-26.023,0.414-52.048,0.629-78.072
		c0.063-7.642,2.288-14.739,6.075-21.241c5.758-9.886,14.784-12.238,25.632-10.942c10.518,1.256,16.819,7.468,21.324,16.268
		c4.845,9.464,4.249,19.752,4.34,29.912c0.079,8.702,0.017,17.407,0.017,26.11C-200.136-161.457-200.463-161.456-200.791-161.455z
		 M-236.036-161.619c-0.106,0-0.212,0-0.317,0c0,11.769-0.137,23.541,0.067,35.306c0.081,4.6,0.515,9.291,1.625,13.73
		c0.451,1.805,2.912,3.748,4.86,4.369c2.311,0.738,4.716-0.639,5.706-3.17c0.767-1.959,1.611-4.053,1.655-6.102
		c0.309-14.471,0.526-28.943,0.563-43.415c0.032-13.466-0.075-26.935-0.396-40.396c-0.077-3.205-0.87-6.53-2.022-9.536
		c-1.286-3.354-4.286-4.047-7.601-2.541c-3.836,1.745-4.013,5.4-4.057,8.662C-236.146-190.348-236.036-175.983-236.036-161.619z"/>
	<path fill="#1C1C1C" d="M-179.057-201.32c-4.477,3.792-9.277,7.801-13.976,11.928c-0.472,0.415-0.313,1.547-0.446,2.347
		c1.128,0.129,2.584,0.776,3.328,0.303c4.474-2.843,8.79-5.935,13.143-8.966c0.705-0.491,1.33-1.096,2.384-1.972
		c0,5.503,0,10.519,0,15.535c3.965-7.679,2.251-17.493,9.831-24.042c-0.689,0.061-1.163,0.048-1.607,0.159
		c-0.367,0.091-0.697,0.327-1.506,0.727c1.642-8.792,3.143-17.076,4.788-25.331c0.213-1.064,1.138-2.766,1.809-2.803
		c1.603-0.089,3.252,0.635,4.88,1.039c2.049,0.509,4.12,1.526,6.135,1.422c2.908-0.149,5.774-1.11,9.606-1.926
		c-0.68,4.081-1.146,7.357-1.782,10.601c-2.677,13.644-5.399,27.281-8.114,40.918c-0.9,4.531-2.059,9.028-2.654,13.598
		c-0.396,3.052-0.369,6.26,0.093,9.305c1.87,12.296,4.025,24.548,5.992,36.827c1.444,9.023,2.771,18.066,4.118,27.105
		c0.181,1.211,0.162,2.451,0.258,4.039c-5.557,0.633-10.917,1.348-16.303,1.74c-0.771,0.057-2.235-1.344-2.4-2.25
		c-2.354-12.902-4.479-25.846-6.79-38.758c-1.484-8.297-3.186-16.557-4.79-24.832c-0.416,0.021-0.833,0.041-1.251,0.06
		c0,5.626-0.007,11.251,0.002,16.878c0.021,14.936,0.069,29.871,0.058,44.805c-0.004,4.437-0.058,4.129-4.384,3.842
		c-4.435-0.291-8.913,0.107-13.373,0.191c-1.33,0.025-2.661,0.004-4.727,0.004c0-5.445,0.003-10.592,0-15.74
		c-0.013-22.029-0.051-44.059-0.034-66.085c0.015-19.243,0.083-38.484,0.144-57.727c0.017-5.305,0.043-5.327,5.167-5.313
		c4.83,0.013,9.664,0.133,14.494,0.097c2.313-0.018,3.17,0.88,3.102,3.242c-0.271,9.387-0.346,18.779-0.619,28.166
		c-0.037,1.27-0.777,2.521-1.193,3.78C-176.646-199.244-177.616-200.08-179.057-201.32z M-153.356-102.611
		c0.521-1.398,1.04-2.799,1.577-4.242c-0.133-0.049-0.652-0.238-1.23-0.451c0.954-0.799,1.732-1.453,2.512-2.107
		c-0.125-0.148-0.251-0.297-0.377-0.445c-0.663,0.18-1.326,0.359-1.989,0.539c-0.14-0.322-0.277-0.646-0.416-0.971
		c1.338-0.672,2.674-1.342,4.067-2.041c-1.048-0.77-1.979-1.451-2.739-2.008c-0.914,1.064-1.753,2.225-2.776,3.189
		c-1.354,1.275-2.102,2.33,0.417,3.039c-0.396,0.459-0.917,0.781-0.945,1.145c-0.119,1.496-0.088,3.006-0.111,4.512
		c0.705-0.09,1.41-0.18,2.115-0.27c-1.257,0.457-2.528,0.875-3.765,1.383c-0.833,0.342-2.323,0.857-2.3,1.215
		c0.154,2.285,0.645,4.549,1.011,6.734c1.594-1.338,2.908-2.42,4.2-3.527c0.83-0.715,2.289-1.463,2.291-2.199
		C-151.811-100.279-152.793-101.445-153.356-102.611z"/>
	<path fill="#1C1C1C" d="M-116.368-171.209c4.817,0,9.445,0.094,14.066-0.034c2.994-0.083,4.325,0.972,4.182,4.13
		c-0.185,4.065-0.111,8.15,0.04,12.219c0.087,2.362-0.874,3.255-3.149,3.269c-4.297,0.025-8.591,0.193-12.888,0.271
		c-1.896,0.035-2.786,0.732-2.791,2.842c-0.032,11.883-0.252,23.764-0.281,35.646c-0.013,4.531,0.14,4.541,4.533,4.504
		c6.334-0.057,12.669-0.135,19.003-0.193c1.896-0.018,3.791-0.002,5.909-0.002c0,3.039-0.031,5.594,0.007,8.148
		c0.043,2.701-0.044,5.428,0.282,8.1c0.361,2.975-0.913,4.324-3.679,4.367c-3.947,0.059-7.898-0.08-11.848-0.1
		c-10.504-0.051-21.008-0.078-31.511-0.127c-4.329-0.02-5.226-0.824-5.2-5.086c0.119-19.9,0.363-39.797,0.42-59.697
		c0.046-15.832-0.176-31.664-0.159-47.498c0.011-9.729,0.239-19.457,0.389-29.186c0.028-1.794,0.251-3.436,2.7-3.432
		c15.818,0.022,31.638,0.012,47.231,0.012c0,1.391,0,2.843,0,4.296c0.829-0.416,1.658-0.832,3.23-1.621c0,2.261,0.005,4.599,0,6.936
		c-0.02,9.743-0.021,9.731-9.837,9.775c-5.998,0.028-11.996,0.114-17.994,0.138c-1.58,0.006-2.938,0.031-2.938,2.219
		c-0.001,12.896-0.057,25.791-0.081,38.687C-116.732-172.299-116.57-171.973-116.368-171.209z"/>
	<path fill="#1C1C1C" d="M-261.369-173.5c0,19.011,0.482,38.041-0.19,57.029c-0.374,10.557-3.87,21.08-14.395,25.641
		c-17.164,7.436-35.253,0.264-38.827-21.072c-1.35-8.053-0.513-16.473-0.661-24.727c-0.032-1.791,0.713-2.693,2.67-2.559
		c4.854,0.33,9.715,0.598,14.576,0.793c2.108,0.084,2.229,1.303,2.206,2.963c-0.094,6.67-0.295,13.348-0.001,20.004
		c0.084,1.912,1.319,4.115,2.687,5.561c3.148,3.326,7.183,2.453,8.845-1.855c0.874-2.268,1.422-4.807,1.452-7.23
		c0.317-25.922,0.484-51.845,0.731-77.768c0.108-11.272,0.387-22.544,0.407-33.816c0.005-2.695,0.865-3.557,3.515-3.434
		c5.087,0.238,10.189,0.352,15.278,0.222c2.785-0.071,3.367,1.009,3.354,3.575c-0.094,18.892-0.052,37.783-0.052,56.675
		C-260.305-173.5-260.837-173.5-261.369-173.5z"/>
	<path fill="#1C1C1C" d="M-36.435-217.479c-0.308-2.743,2.148-2.381,3.573-2.931c0.614-0.236,1.653,0.627,3.292,1.332
		c-2.905,1.128-4.657,2.569-6.961,1.501C-36.532-217.577-36.435-217.479-36.435-217.479z"/>
</g>
<g>
	<path fill="#232323" d="M-255.795,248.886c-12.402,14.81-23.105,27.638-33.874,40.407c-2.697,3.195-5.077,7.697-8.557,8.941
		c-4.971,1.775-10.819,1.105-16.293,1.48c0.561-5.299-0.837-12.318,2.034-15.584c10.412-11.838,22.196-22.477,33.595-33.434
		c4.011-3.857,8.393-7.33,14.103-12.276c-16.465-19.889-31.95-38.589-47.432-57.289c1.212-1.233,2.428-2.465,3.636-3.698
		c17.294,16.273,34.585,32.551,52.956,49.838c17.654-16.806,35.108-33.422,52.563-50.041c1.336,1.189,2.671,2.383,4.003,3.574
		c-15.273,18.49-30.552,36.979-47.013,56.903c13.706,13.294,26.964,26.159,40.226,39.021c2.337,2.269,5.881,4.127,6.772,6.86
		c1.638,5.015,1.715,10.536,2.442,15.847c-5.801-0.524-13.749,1.172-17.018-1.983c-10.987-10.599-20.311-22.925-30.269-34.593
		C-247.449,258.719-250.969,254.566-255.795,248.886z"/>
	<path fill="#232323" d="M-424.599,249.046c-12.269,14.535-23.918,28.356-35.587,42.158c-2.095,2.478-3.88,6.308-6.491,7.022
		c-5.202,1.428-10.874,1.121-16.354,1.528c0.474-5.43-1.117-12.698,1.791-15.958c10.804-12.134,23.015-23.029,34.861-34.214
		c3.708-3.505,7.93-6.464,13.074-10.604c-16.661-20.304-31.925-38.905-47.188-57.511c1.319-1.254,2.639-2.506,3.958-3.758
		c17.073,16.313,34.146,32.627,52.078,49.765c17.53-16.896,34.843-33.582,52.155-50.267c1.357,1.288,2.715,2.578,4.072,3.867
		c-15.064,18.312-30.13,36.627-46.136,56.087c13.211,13.109,26.296,26.094,39.389,39.075c2.644,2.62,6.686,4.79,7.653,7.923
		c1.528,4.941,1.001,10.518,1.343,15.831c-5.512-0.478-12.836,1.103-16.179-1.839c-8.294-7.293-14.748-16.668-21.979-25.18
		C-410.733,265.212-417.38,257.484-424.599,249.046z"/>
</g>
<g>
	<path fill="#343434" d="M-481.438,551.084c-0.554-6.921-1.453-13.028-1.473-19.146c-0.11-31.179-0.319-62.368,0.178-93.538
		c0.277-17.304,1.826-34.586,2.888-51.875c0.209-3.428,1.173-6.834,1.131-10.242c-0.051-4.215,2.829-6.426,5.749-7.137
		c6.703-1.64,13.639-3.002,20.512-3.152c17.149-0.381,34.316,0.035,51.477,0c9.315-0.02,18.639-0.604,27.948-0.396
		c9.056,0.202,18.356,2.666,27.056,1.213c7.889-1.316,15.341-0.355,22.985-0.396c6.501-0.037,13.001-0.023,19.492-0.273
		c4.593-0.18,7.177,2.129,7.676,6.287c1.061,8.848,1.945,17.732,2.438,26.627c0.906,16.482,1.732,32.979,2.11,49.482
		c0.195,8.344-0.776,16.709-0.983,25.065c-0.576,23.271-1.031,46.543-1.549,69.816c-0.097,4.326-1.992,7.037-6.647,7.082
		c-27.19,0.28-54.375,0.673-81.561,0.786c-23.77,0.093-47.537-0.133-71.312-0.192C-462.219,551.067-471.127,551.084-481.438,551.084
		z M-348.323,544.027c0-0.314,0-0.627,0.006-0.937c11.509,0,23.027-0.26,34.531,0.119c5.126,0.163,7.418-2.271,7.737-6.597
		c0.95-12.605,1.967-25.238,2.111-37.871c0.161-12.96-0.854-25.929-1.031-38.896c-0.361-26.291-0.545-52.592-0.695-78.893
		c-0.022-4.186-1.75-5.213-5.763-5.042c-11.231,0.483-22.488,0.737-33.734,0.683c-17.898-0.092-35.788-0.772-53.678-0.693
		c-11.287,0.048-22.564,1.24-33.857,1.529c-10.875,0.281-21.768-0.119-32.637,0.252c-1.69,0.06-4.269,2.351-4.737,4.072
		c-1.057,3.878-1.401,8.045-1.43,12.096c-0.119,18.619,0.042,37.236-0.049,55.851c-0.059,12.447-0.486,24.895-0.528,37.335
		c-0.048,15.378,0.356,30.756,0.107,46.127c-0.087,5.243,2.143,8.095,6.783,8.344c19.673,1.048,39.36,2.025,59.057,2.444
		C-386.878,544.341-367.598,544.027-348.323,544.027z"/>
	<path fill="#343434" d="M-343.445,440.875c0-8.727,0-17.313,0-26.494c-2.192-0.145-4.075-0.383-5.946-0.371
		c-20.225,0.127-40.454,0.018-60.668,0.547c-11.853,0.311-23.705,1.409-35.507,2.603c-10.197,1.032-12.555-0.468-13.854-10.394
		c-2.08-15.856-0.356-18.097,15.51-18.152c15.126-0.053,30.252,0.462,45.383,0.587c3.663,0.03,7.337-0.787,10.994-0.714
		c11.65,0.244,23.294,0.961,34.949,1.043c9.887,0.072,19.777-0.508,29.676-0.729c1.104-0.027,2.218,0.391,3.173,0.568
		c0,8-0.081,15.716,0.043,23.426c0.054,3.209,0.664,6.404,0.794,9.613c0.313,7.418,0.74,14.838,0.687,22.258
		c-0.048,7.285-0.223,14.611-1.113,21.826c-0.512,4.1-3.736,5.942-8.185,5.508c-6.5-0.639-13.035-1-19.558-1.303
		c-5.042-0.234-10.118,0.146-15.128-0.354c-10.146-1.018-20.141-1.399-30.295,0.713c-4.951,1.035-10.366-0.164-15.566-0.289
		c-6.673-0.166-13.354-0.508-20.01-0.186c-1.506,0.068-3.771,2.328-4.172,3.951c-0.867,3.521-1.227,7.323-0.921,10.938
		c0.319,3.802,1.659,7.526,2.544,11.282c0.898,3.841,3.225,5.218,7.218,5.192c17.325-0.113,34.649,0.184,51.979,0.06
		c15.287-0.097,30.571-0.682,45.867-0.777c7.02-0.043,7.809,1.206,7.582,8.444c-0.141,4.475,0.351,9.007-0.288,13.393
		c-0.291,1.99-2.386,4.913-4.087,5.249c-4.276,0.847-8.795,0.462-13.218,0.558c-7.295,0.151-14.584,0.351-21.878,0.424
		c-2.295,0.028-4.609-0.164-6.888-0.443c-1.901-0.236-3.786-1.14-5.655-1.091c-9.439,0.24-18.865,0.912-28.296,1.003
		c-5.604,0.061-11.214-1.052-16.819-0.988c-11.474,0.136-22.947,0.579-34.411,1.142c-7.828,0.382-9.584-0.794-9.646-8.758
		c-0.187-23.646-0.215-47.292-0.17-70.936c0.017-8.354,0.989-8.678,9.547-8.51c14.55,0.283,29.115-0.01,43.67,0
		c15.573,0.015,31.143,0.104,46.718,0.153C-354.343,440.891-349.313,440.875-343.445,440.875z"/>
</g>
<g>
	<path fill="#FFFFFF" d="M34.521,161.574c3.264,2.512,2.888,7.342-0.715,9.311c-1.186,0.648-2.467,0.918-3.802,0.912
		c-6.905-0.021-11.725-3.59-15.328-9.133c-0.706-1.086-1.328-2.211-1.888-3.363H8.849c0.001,0.938,0.001,1.875,0.001,2.811
		c0,3.359-0.008,6.722,0.013,10.08c0.002,0.313-0.291,0.83,0.441,0.865c0.672,0.031,0.65-0.395,0.717-0.838
		c0.171-1.145,0.311-2.297,0.564-3.424c0.527-2.35,1.954-3.018,4.047-1.84c1.981,1.113,3.878,2.375,5.846,3.516
		c6.986,4.049,15.137,3.277,21.154-1.967c1.914-1.668,3.312-3.658,3.939-6.148c0.256-1.018,0.381-2.039,0.408-3.055h-15.8
		C31.701,159.918,33.206,160.561,34.521,161.574z"/>
	<path fill="#FFFFFF" d="M24.616,140.173c-1.866-0.743-3.647-1.616-5.092-3.054c-2.521-2.511-2.159-5.988,0.912-7.771
		c3.656-2.122,7.433-1.588,10.84,0.38c4.353,2.516,7.378,6.271,9.129,10.969h2.007c0-4.369-0.005-8.737,0.009-13.106
		c0.002-0.533-0.187-0.675-0.694-0.682c-0.574-0.008-0.507,0.337-0.521,0.703c-0.036,1.042-0.172,2.074-0.559,3.045
		c-0.54,1.354-1.724,1.764-2.992,1.062c-1.535-0.851-3.078-1.687-4.587-2.581c-3.451-2.043-7.135-2.613-11.071-1.95
		c-7.094,1.193-12.208,6.665-12.732,13.509H25.95C25.505,140.522,25.06,140.35,24.616,140.173z"/>
	<g>
		<path fill="#FFFFFF" d="M185.781,165.295c-1.367,3.904-3.986,5.676-7.947,5.82c-0.918,0.031-1.838-0.002-2.754,0.057
			c-0.949,0.059-1.357-0.139-1.344-1.281c0.037-3.529,0.045-7.059,0.043-10.59h-15.135c0,1.58,0.004,3.158-0.002,4.738
			c-0.009,1.475,0.032,2.957-0.273,4.416c-0.314,1.5-1.02,2.234-2.535,2.457c-1.264,0.186-2.538,0.287-3.811,0.404
			c-0.326,0.029-0.611-0.031-0.627,0.469c-0.02,0.553,0.281,0.559,0.67,0.539c0.238-0.012,0.479-0.002,0.72-0.002
			c8.437,0,16.872,0,25.308,0c3.682,0.002,7.352-0.234,10.955-0.99c5.811-1.221,10.527-4.168,13.498-9.412
			c0.482-0.85,0.855-1.725,1.15-2.619h-16.303C187.01,161.307,186.479,163.305,185.781,165.295z"/>
		<path fill="#FFFFFF" d="M173.744,129.974c-0.006-1.03,0.305-1.328,1.273-1.22c0.948,0.105,1.909,0.104,2.864,0.156
			c2.933,0.16,4.984,1.709,6.484,4.121c1.469,2.363,2.221,4.982,2.752,7.666h15.603c-1.787-3.873-4.771-7.063-9.009-9.549
			c-4.269-2.505-9.028-3.032-13.808-3.454c-6.104-0.539-12.223-0.126-18.336-0.201c-3.194-0.039-6.393,0.038-9.588,0.071
			c-0.33,0.003-0.744-0.122-0.777,0.465c-0.034,0.618,0.361,0.591,0.775,0.617c1.153,0.07,2.313,0.121,3.461,0.246
			c1.697,0.185,2.604,1.026,2.927,2.667c0.106,0.546,0.194,1.105,0.196,1.66c0.006,2.492,0.004,4.985,0.004,7.479h15.209
			C173.777,137.123,173.771,133.549,173.744,129.974z"/>
		<path fill="#FFFFFF" d="M274.768,165.189c-0.358,1.438-0.885,2.813-1.766,4.021c-1.529,2.103-3.609,2.937-6.168,2.567
			c-2.477-0.354-3.959-1.827-4.742-4.161c-0.914-2.722-1.457-5.498-1.766-8.316h-15.135c1.121,2.574,2.785,4.938,5.086,7.052
			c9.506,8.729,24.488,8.971,34.522,0.838c2.859-2.316,4.892-5.025,6.23-7.89H275.76
			C275.559,161.275,275.252,163.242,274.768,165.189z"/>
		<path fill="#FFFFFF" d="M260.85,137.127c0.328-2.012,0.812-3.98,1.875-5.759c1.269-2.12,3.064-3.322,5.592-3.238
			c2.479,0.082,4.195,1.364,5.295,3.514c1.46,2.849,1.979,5.933,2.22,9.054h15.36c-0.512-1.139-1.114-2.198-1.797-3.15
			c-5.199-7.262-12.496-10.521-21.307-10.648c-1.326,0.051-2.639,0.115-3.953,0.262c-7.049,0.79-15.395,5.304-18.975,13.537h15.219
			C260.506,139.506,260.656,138.315,260.85,137.127z"/>
		<path fill="#FFFFFF" d="M65.282,164.84c-0.001,1.117-0.034,2.244-0.199,3.344c-0.319,2.121-1.113,2.795-3.249,2.938
			c-1.115,0.071-2.231,0.127-3.348,0.187c-0.356,0.02-0.694-0.039-0.692,0.532c0.002,0.617,0.397,0.479,0.725,0.479
			c9.519,0.005,19.037,0.005,28.556-0.004c0.307,0,0.725,0.187,0.753-0.444c0.028-0.656-0.419-0.567-0.778-0.604
			c-1.271-0.123-2.547-0.213-3.819-0.336c-1.369-0.133-2.153-0.906-2.435-2.244c-0.339-1.612-0.364-3.256-0.368-4.885
			c-0.004-1.5-0.003-3.002-0.005-4.502H65.284C65.283,161.148,65.284,162.994,65.282,164.84z"/>
		<path fill="#FFFFFF" d="M59.167,131.209c1.319-1.519,2.849-2.479,4.972-2.397c0.872,0.033,1.179,0.137,1.176,1.115
			c-0.012,3.59-0.013,7.18-0.017,10.771H80.41c0.001-3.536,0.002-7.072,0.002-10.609c0-0.28,0.004-0.56,0.003-0.84
			c0-0.286,0.123-0.44,0.427-0.427c1.506,0.064,3.037-0.072,4.314,1.046c0.97,0.849,1.825,1.787,2.604,2.804
			c1.936,2.526,3.555,5.235,5.028,8.026h4.334c0.001-3.977,0-7.955,0.035-11.931c0.009-1.021-0.297-1.234-1.27-1.229
			c-7.679,0.041-15.356,0.023-23.036,0.023c-7.718,0-15.437,0.005-23.156-0.009c-0.673-0.001-1.076,0.014-1.069,0.924
			c0.032,4.074,0.032,8.147,0.031,12.221h4.356C54.766,137.354,56.662,134.096,59.167,131.209z"/>
		<path fill="#FFFFFF" d="M142.54,137.047c0.007-1.314,0.067-2.637,0.219-3.941c0.306-2.62,1.622-3.89,4.248-4.189
			c1.031-0.118,2.066-0.197,3.103-0.266c0.395-0.026,0.71-0.049,0.707-0.568c-0.002-0.545-0.352-0.524-0.729-0.524
			c-5.519,0.003-11.037,0.001-16.556,0.004c-0.388,0-0.827-0.092-0.808,0.561c0.019,0.563,0.4,0.492,0.75,0.52
			c1.035,0.082,2.072,0.14,3.104,0.251c3.17,0.343,4.401,1.693,4.516,4.909c0.081,2.298,0.109,4.596,0.123,6.895h1.316
			C142.534,139.48,142.534,138.264,142.54,137.047z"/>
		<path fill="#FFFFFF" d="M120.424,132.486c0.114-2.597,0.888-3.378,3.479-3.608c1.113-0.099,2.229-0.167,3.345-0.233
			c0.36-0.021,0.604-0.09,0.611-0.536c0.006-0.435-0.199-0.562-0.581-0.548c-0.2,0.007-0.4,0-0.601,0c-8.838,0-17.676,0-26.513,0
			c-0.24,0-0.479,0.002-0.72,0.008c-0.336,0.009-0.357,0.247-0.353,0.498c0.005,0.236-0.026,0.509,0.301,0.553
			c0.315,0.043,0.638,0.037,0.956,0.069c4.051,0.407,4.66,1.07,4.741,5.152c0.001,0.04,0.001,0.08,0.001,0.12
			c0,2.246,0,4.491,0,6.737h15.149C120.258,137.96,120.305,135.223,120.424,132.486z"/>
		<path fill="#FFFFFF" d="M140.624,161.096c-1.446,7.066-5.474,10.475-12.243,10.269c-3.94-0.121-7.159-3.021-7.721-6.886
			c-0.25-1.721-0.383-3.442-0.404-5.178h-15.121c0,0.07-0.001,0.141,0,0.211c0.012,2.926,1.053,5.447,3.074,7.57
			c1.681,1.766,3.656,3.105,5.921,3.967c5.467,2.08,11.132,2.443,16.869,1.643c4.97-0.694,8.449-3.34,10.041-8.229
			c0.552-1.693,0.953-3.414,1.193-5.162h-1.313C140.84,159.9,140.746,160.5,140.624,161.096z"/>
		<path fill="#FFFFFF" d="M216.4,163.777c-0.002,1.315-0.084,2.635-0.205,3.945c-0.191,2.075-0.969,2.913-3.01,3.27
			c-0.941,0.162-1.904,0.209-2.854,0.336c-0.367,0.049-0.963-0.275-0.961,0.502c0.002,0.791,0.61,0.479,0.963,0.479
			c4.479,0.021,8.957,0.015,13.437,0.015c2.639,0,5.278,0,7.918,0c1.998,0,3.998,0,5.998,0c0.321,0.002,0.631,0.049,0.616-0.464
			c-0.01-0.414-0.146-0.549-0.549-0.559c-0.637-0.018-1.271-0.109-1.907-0.137c-3.222-0.145-4.146-1.07-4.273-4.313
			c-0.004-0.119-0.002-0.238-0.002-0.359c-0.004-2.396-0.004-4.793-0.008-7.191H216.4
			C216.398,160.793,216.404,162.285,216.4,163.777z"/>
		<path fill="#FFFFFF" d="M231.539,134.825c0-1.235,0.023-2.474,0.264-3.701c0.256-1.312,1.025-2.047,2.314-2.219
			c0.988-0.132,1.992-0.144,2.98-0.275c0.42-0.057,1.176,0.391,1.176-0.517c0-1-0.822-0.523-1.25-0.529
			c-3.199-0.042-6.398-0.023-9.599-0.023c-5.678,0-11.354-0.003-17.034,0.006c-0.354,0-0.845-0.177-0.865,0.494
			c-0.021,0.628,0.397,0.559,0.801,0.587c0.836,0.058,1.67,0.133,2.506,0.208c2.307,0.209,3.193,1.079,3.375,3.386
			c0.104,1.313,0.191,2.629,0.193,3.945c0.004,1.503-0.002,3.006,0,4.51h15.145C231.545,138.74,231.539,136.782,231.539,134.825z"/>
		<g>
			<path fill="#FFFFFF" d="M10.51,151.622v-1.062h3.24v1.062H10.51z"/>
			<path fill="#FFFFFF" d="M39.075,154.2v-8.59h3.24c0.57,0,1.006,0.027,1.307,0.082c0.422,0.07,0.775,0.204,1.061,0.401
				c0.286,0.197,0.515,0.474,0.688,0.829s0.261,0.746,0.261,1.172c0,0.73-0.232,1.349-0.697,1.854
				c-0.465,0.505-1.305,0.759-2.52,0.759h-2.203v3.492L39.075,154.2L39.075,154.2z M40.212,149.694h2.221
				c0.734,0,1.256-0.137,1.564-0.41c0.308-0.273,0.463-0.658,0.463-1.154c0-0.359-0.091-0.667-0.272-0.923s-0.421-0.425-0.718-0.507
				c-0.191-0.051-0.545-0.076-1.061-0.076h-2.197V149.694z"/>
			<path fill="#FFFFFF" d="M69.27,154.2l3.299-8.59h1.225l3.516,8.59h-1.295l-1.002-2.603H71.42l-0.943,2.603H69.27z
				 M71.748,150.673h2.912l-0.896-2.379c-0.273-0.723-0.477-1.316-0.609-1.781c-0.109,0.551-0.264,1.098-0.463,1.641L71.748,150.673
				z"/>
			<path fill="#FFFFFF" d="M102.433,154.2v-8.59h1.137v8.59H102.433z"/>
			<path fill="#FFFFFF" d="M129.587,154.2v-8.59h1.166l4.512,6.744v-6.744h1.09v8.59h-1.166l-4.512-6.75v6.75H129.587z"/>
			<path fill="#FFFFFF" d="M164.475,154.2v-7.576h-2.83v-1.014h6.809v1.014h-2.842v7.576H164.475z"/>
			<path fill="#FFFFFF" d="M193.835,154.2v-8.59h1.138v8.59H193.835z"/>
			<path fill="#FFFFFF" d="M220.988,154.2v-8.59h1.166l4.513,6.744v-6.744h1.09v8.59h-1.166l-4.512-6.75v6.75H220.988z"/>
			<path fill="#FFFFFF" d="M257.71,150.831v-1.008l3.64-0.006v3.188c-0.56,0.445-1.136,0.78-1.729,1.005
				c-0.595,0.225-1.203,0.338-1.828,0.338c-0.844,0-1.61-0.182-2.301-0.543s-1.209-0.884-1.562-1.566
				c-0.352-0.684-0.527-1.447-0.527-2.291c0-0.836,0.175-1.616,0.523-2.341c0.35-0.725,0.854-1.263,1.51-1.614
				c0.656-0.351,1.412-0.527,2.269-0.527c0.621,0,1.182,0.101,1.685,0.302c0.502,0.201,0.896,0.481,1.182,0.841
				c0.285,0.36,0.502,0.828,0.649,1.406l-1.024,0.281c-0.129-0.438-0.289-0.781-0.48-1.031s-0.465-0.45-0.82-0.601
				c-0.354-0.151-0.75-0.226-1.184-0.226c-0.52,0-0.969,0.079-1.348,0.237c-0.379,0.158-0.687,0.366-0.918,0.624
				c-0.232,0.258-0.412,0.541-0.541,0.85c-0.219,0.531-0.328,1.107-0.328,1.729c0,0.766,0.131,1.406,0.395,1.922
				s0.648,0.898,1.152,1.148s1.039,0.375,1.605,0.375c0.492,0,0.973-0.096,1.44-0.284s0.824-0.392,1.065-0.606v-1.6L257.71,150.831
				L257.71,150.831z"/>
			<path fill="#FFFFFF" d="M286.503,151.622v-1.062h3.24v1.062H286.503z"/>
		</g>
	</g>
</g>
</svg>
