<?xml version="1.0" encoding="utf-8"?>
<!-- Generator: Adobe Illustrator 16.0.0, SVG Export Plug-In . SVG Version: 6.00 Build 0)  -->
<!DOCTYPE svg PUBLIC "-//W3C//DTD SVG 1.1//EN" "http://www.w3.org/Graphics/SVG/1.1/DTD/svg11.dtd">
<svg version="1.1" id="Layer_1" xmlns="http://www.w3.org/2000/svg" xmlns:xlink="http://www.w3.org/1999/xlink" x="0px" y="0px"
	 width="300px" height="300px" viewBox="0 0 300 300" enable-background="new 0 0 300 300" xml:space="preserve">
<g>
	<path fill="#201E1F" d="M-412.332,37.263c14.621-6.265,29.944-6.306,44.561-1.896c14.878,4.499,28.914,11.666,43.417,17.411
		c13.381,5.316,26.492,12.377,40.433,14.967c23.389,4.343,30.729-2.478,33.159-25.59c0.114-1.133,0.196-2.273,0.331-3.854
		c6.103,0,11.904,0,18.101,0c0.751,8.237-0.311,16.843,6.775,22.95c8.186-7.545,10.532-19.254,5.652-27.518
		c-4.352-7.355-13.35-10.49-24.011-6.41c-7.59,2.913-14.267,8.103-21.346,12.293c-7.681,4.547-14.969,10.006-23.146,13.412
		c-7.968,3.323-15.994-0.775-19.882-8.101c-3.469-6.505-1.464-13.526,5.568-19.169c9.799-7.869,21.825-10.081,33.675-12.676
		c17.502-3.821,33.225-11.174,47.159-22.384c14.925-11.984,20.955-26.813,16.023-45.59c10.65,7.517,13.572,24.267,4.642,35.245
		c-5.958,7.325-13.895,13.453-21.893,18.726c-16.483,10.855-35.625,15.178-54.627,19.766c-5.866,1.42-11.818,3.821-16.81,7.132
		c-6.499,4.295-7.507,9.882-4.445,15.219c3.199,5.547,9.112,7.957,16.111,4.385c7.896-4.038,15.225-9.441,22.141-15.025
		c8.247-6.676,16.474-12.916,27.684-13.175c18.794-0.454,29.217,13.593,22.617,31.024c-2.103,5.546-5.978,10.45-9.895,17.072
		c7.388,0,14.318,0.312,21.214-0.097c7.071-0.408,14.096-1.529,21.141-2.34c4.761,33.262-7.48,57.648-33.065,63.746
		c24.021-21.85,30.444-36.047,25.264-56.691c-5.252,0.505-10.609,1.127-15.98,1.509c-4.989,0.347-10.548,1.892-14.884,0.321
		c-9.324-3.369-16.131,0.51-23.685,4.578c-12.546,6.764-26.435,9.008-40.572,9.92c-11.857,0.774-23.718,1.6-35.573,2.406
		c-0.45,0.616-0.896,1.254-1.347,1.871c5.69,6.641,10.857,13.84,17.234,19.777c6.507,6.066,14.205,10.895,22.698,17.25
		c-13.07-3.945-22.822-10.316-31.261-18.641c-4.035-3.986-7.999-8.162-11.13-12.836c-3.246-4.869-6.465-6.086-12.337-4.41
		c-15.008,4.287-27.262,11.76-35.192,26.895c2.535-16.076,10.29-22.607,39.15-33.75C-348.363,54.627-378.173,42.541-412.332,37.263z
		 M-241.635,52.074c-2.539,13.85-12.153,20.574-25.322,21.348c-9.813,0.582-20.302,0.316-29.546-2.538
		c-13.502-4.18-26.122-11.046-39.182-16.638c-6.504-2.773-13.149-5.221-19.734-7.82c-0.295,0.545-0.582,1.091-0.88,1.641
		c14.237,8.086,24.806,19.657,33.659,32.962c1.002,1.509,3.802,2.681,5.744,2.63c14.542-0.29,29.111-0.418,43.593-1.596
		c14.987-1.207,29.155-5.449,40.93-14.043C-235.657,62.351-238.568,57.355-241.635,52.074z"/>
	<path fill="#201E1F" d="M-162.128,82.664c0,1.83,0.156,2.34-0.021,2.666c-2.569,4.639-5.439,9.645-0.663,14.141
		c4.735,4.455,10.775,3.305,16.111,0.848c12.287-5.654,18.68-15.986,20.296-28.67c1.472-11.557-11.474-19.748-23.431-15.415
		c-3.413,1.229-6.558,3.196-10.655,5.251c8.009-11.123,18.603-14.085,29.673-9.023c10.014,4.588,14.101,14.309,10.94,25.998
		c-3.885,14.391-16.566,25.723-31.154,27.385c-6.61,0.76-13.282,0.117-16.546-6.779C-170.524,92.805-167.142,87.931-162.128,82.664z
		"/>
	<path fill="#201E1F" d="M-201.907,79.315c11.687,16.026,3.082,35.815-17.266,39.634C-204.326,109.096-201.12,95.709-201.907,79.315
		z"/>
</g>
<rect x="391" y="-9.439" fill="#FFFFFF" width="300" height="300"/>
<g>
	<path fill="#1C1C1C" d="M-36.532-217.577c0.553,1.717,1.104,3.432,1.851,5.752c1.76-1.832,3.068-3.195,4.538-4.726
		c2.258,2.323,2.537,5.854,2.639,9.191c0.271,8.882,0.64,17.802,0.108,26.655c-0.391,6.513-4.042,11.849-9.085,16.078
		c-0.606,0.508-1.192,1.042-1.747,1.604c-0.228,0.23-0.348,0.568,0.835-0.429c1.912,2.657,3.729,5.389,5.756,7.954
		c3.919,4.955,5.202,10.678,5.213,16.814c0.012,6.893,0.003,13.785,0.003,20.748c-1.25,0.078-2.118,0.131-2.987,0.186
		c3.189,1.705,2.961,4.586,3.178,7.367c0.476,6.09,0.968,12.184,1.696,18.244c0.322,2.684-0.543,3.359-3.099,3.254
		c-4.972-0.207-9.959-0.232-14.934-0.119c-2.469,0.055-3.913-0.676-4.09-3.277c-0.573-8.443-1.347-16.879-1.689-25.332
		c-0.298-7.346-0.094-14.711-0.16-22.066c-0.012-1.35-0.143-2.719-0.4-4.041c-1.562-7.971-4.767-10.005-13.38-8.244
		c0,6.557-0.014,13.197,0.004,19.834c0.034,12.811,0.005,25.619,0.188,38.428c0.046,3.252-0.506,4.648-4.292,4.273
		c-5.033-0.5-10.151-0.219-15.23-0.15c-1.82,0.025-2.863-0.58-2.842-2.447c0.067-5.961,0.237-11.918,0.256-17.879
		c0.008-2.799-0.362-5.6-0.348-8.396c0.101-19.674,0.259-39.346,0.396-59.017c0.11-16.018,0.179-32.035,0.348-48.053
		c0.05-4.605,0.67-5.237,5.923-6.895c-0.818,1.407-1.317,2.266-1.823,3.136c3.676,3.638,4.857-4.569,9.355-1.924
		c2.486,1.462,7.021-0.903,10.638-0.924c3.595-0.021,7.194,0.733,10.899,1.16c-0.103,2.052-0.178,3.557-0.253,5.062
		c0.285,0.037,0.571,0.072,0.857,0.107c0.121-1.595,0.239-3.189,0.365-4.872c3.382-0.656,3.031,1.79,3.253,3.851
		c3.398-0.645,5.166,0.374,4.674,4.112c-0.335,2.547,1.439,3.987,3.484,5.081L-36.532-217.577z M-45.141-214.424
		c-0.055-0.242-0.108-0.484-0.163-0.727c-0.798,0.489-1.94,0.791-2.329,1.503c-1.157,2.12-2.623,2.273-3.945,0.582
		c-2.089-2.672-5.041-1.976-7.694-2.421c-2.089-0.35-3.153,0.604-3.084,2.841c0.094,3.042,0.047,6.088,0.06,9.132
		c0.039,9.775,0.085,19.551,0.109,29.326c0.005,2.312,1.075,3.097,3.385,2.982c6.207-0.306,9.87-3.598,10.282-9.87
		c0.331-5.067,0.222-10.163,0.565-15.228c0.156-2.291,0.938-4.539,1.434-6.795c-0.79-1.404-1.886-3.346-2.747-4.875
		C-47.675-210.464-46.407-212.444-45.141-214.424z M-37.079-120.225c0.544-0.293,1.087-0.584,1.631-0.877
		c-0.66-1.363-1.321-2.729-1.98-4.094c-0.6,0.475-1.781,1.197-1.702,1.383C-38.597-122.553-37.795-121.408-37.079-120.225z"/>
	<path fill="#1C1C1C" d="M-200.791-161.455c0,13.57,0.414,27.156-0.136,40.703c-0.411,10.135-3.438,19.516-11.777,26.445
		c-9.772,8.121-27.778,8.119-36.878-4.195c-5.515-7.465-8.296-15.779-8.243-24.99c0.153-26.023,0.414-52.048,0.629-78.072
		c0.063-7.642,2.288-14.739,6.075-21.241c5.758-9.886,14.784-12.238,25.632-10.942c10.518,1.256,16.819,7.468,21.324,16.268
		c4.845,9.464,4.249,19.752,4.34,29.912c0.079,8.702,0.017,17.407,0.017,26.11C-200.136-161.457-200.463-161.456-200.791-161.455z
		 M-236.036-161.619c-0.106,0-0.212,0-0.317,0c0,11.769-0.137,23.541,0.067,35.306c0.081,4.6,0.515,9.291,1.625,13.73
		c0.451,1.805,2.912,3.748,4.86,4.369c2.311,0.738,4.716-0.639,5.706-3.17c0.767-1.959,1.611-4.053,1.655-6.102
		c0.309-14.471,0.526-28.943,0.563-43.415c0.032-13.466-0.075-26.935-0.396-40.396c-0.077-3.205-0.87-6.53-2.022-9.536
		c-1.286-3.354-4.286-4.047-7.601-2.541c-3.836,1.745-4.013,5.4-4.057,8.662C-236.146-190.348-236.036-175.983-236.036-161.619z"/>
	<path fill="#1C1C1C" d="M-179.057-201.32c-4.477,3.792-9.277,7.801-13.976,11.928c-0.472,0.415-0.313,1.547-0.446,2.347
		c1.128,0.129,2.584,0.776,3.328,0.303c4.474-2.843,8.79-5.935,13.143-8.966c0.705-0.491,1.33-1.096,2.384-1.972
		c0,5.503,0,10.519,0,15.535c3.965-7.679,2.251-17.493,9.831-24.042c-0.689,0.061-1.163,0.048-1.607,0.159
		c-0.367,0.091-0.697,0.327-1.506,0.727c1.642-8.792,3.143-17.076,4.788-25.331c0.213-1.064,1.138-2.766,1.809-2.803
		c1.603-0.089,3.252,0.635,4.88,1.039c2.049,0.509,4.12,1.526,6.135,1.422c2.908-0.149,5.774-1.11,9.606-1.926
		c-0.68,4.081-1.146,7.357-1.782,10.601c-2.677,13.644-5.399,27.281-8.114,40.918c-0.9,4.531-2.059,9.028-2.654,13.598
		c-0.396,3.052-0.369,6.26,0.093,9.305c1.87,12.296,4.025,24.548,5.992,36.827c1.444,9.023,2.771,18.066,4.118,27.105
		c0.181,1.211,0.162,2.451,0.258,4.039c-5.557,0.633-10.917,1.348-16.303,1.74c-0.771,0.057-2.235-1.344-2.4-2.25
		c-2.354-12.902-4.479-25.846-6.79-38.758c-1.484-8.297-3.186-16.557-4.79-24.832c-0.416,0.021-0.833,0.041-1.251,0.06
		c0,5.626-0.007,11.251,0.002,16.878c0.021,14.936,0.069,29.871,0.058,44.805c-0.004,4.438-0.058,4.129-4.384,3.842
		c-4.435-0.291-8.913,0.107-13.373,0.191c-1.33,0.025-2.661,0.004-4.727,0.004c0-5.445,0.003-10.592,0-15.74
		c-0.013-22.029-0.051-44.059-0.034-66.085c0.015-19.243,0.083-38.484,0.144-57.727c0.017-5.305,0.043-5.327,5.167-5.313
		c4.83,0.013,9.664,0.133,14.494,0.097c2.313-0.018,3.17,0.88,3.102,3.242c-0.271,9.387-0.346,18.779-0.619,28.166
		c-0.037,1.27-0.777,2.521-1.193,3.78C-176.646-199.244-177.616-200.08-179.057-201.32z M-153.356-102.611
		c0.521-1.398,1.04-2.799,1.577-4.242c-0.133-0.049-0.652-0.238-1.23-0.451c0.954-0.799,1.732-1.453,2.512-2.107
		c-0.125-0.148-0.251-0.297-0.377-0.445c-0.663,0.18-1.326,0.359-1.989,0.539c-0.14-0.322-0.277-0.646-0.416-0.971
		c1.338-0.672,2.674-1.342,4.067-2.041c-1.048-0.77-1.979-1.451-2.739-2.008c-0.914,1.064-1.753,2.225-2.776,3.189
		c-1.354,1.275-2.102,2.33,0.417,3.039c-0.396,0.459-0.917,0.781-0.945,1.145c-0.119,1.496-0.088,3.006-0.111,4.512
		c0.705-0.09,1.41-0.18,2.115-0.27c-1.257,0.457-2.528,0.875-3.765,1.383c-0.833,0.342-2.323,0.857-2.3,1.215
		c0.154,2.285,0.645,4.549,1.011,6.734c1.594-1.338,2.908-2.42,4.2-3.527c0.83-0.715,2.289-1.463,2.291-2.199
		C-151.811-100.279-152.793-101.445-153.356-102.611z"/>
	<path fill="#1C1C1C" d="M-116.368-171.209c4.817,0,9.445,0.094,14.066-0.034c2.994-0.083,4.325,0.972,4.182,4.13
		c-0.185,4.065-0.111,8.15,0.04,12.219c0.087,2.362-0.874,3.255-3.149,3.269c-4.297,0.025-8.591,0.193-12.888,0.271
		c-1.896,0.035-2.786,0.732-2.791,2.842c-0.032,11.883-0.252,23.764-0.281,35.646c-0.013,4.531,0.14,4.541,4.533,4.504
		c6.334-0.057,12.669-0.135,19.003-0.193c1.896-0.018,3.791-0.002,5.909-0.002c0,3.039-0.031,5.594,0.007,8.148
		c0.043,2.701-0.044,5.428,0.282,8.1c0.361,2.975-0.913,4.324-3.679,4.367c-3.947,0.059-7.898-0.08-11.848-0.1
		c-10.504-0.051-21.008-0.078-31.511-0.127c-4.329-0.02-5.226-0.824-5.2-5.086c0.119-19.9,0.363-39.797,0.42-59.697
		c0.046-15.832-0.176-31.664-0.159-47.498c0.011-9.729,0.239-19.457,0.389-29.186c0.028-1.794,0.251-3.438,2.7-3.432
		c15.818,0.022,31.638,0.012,47.231,0.012c0,1.391,0,2.843,0,4.296c0.829-0.416,1.658-0.832,3.23-1.621c0,2.261,0.005,4.599,0,6.936
		c-0.02,9.743-0.021,9.731-9.837,9.775c-5.998,0.028-11.996,0.114-17.994,0.138c-1.58,0.006-2.938,0.031-2.938,2.219
		c-0.001,12.896-0.057,25.791-0.081,38.687C-116.732-172.299-116.57-171.973-116.368-171.209z"/>
	<path fill="#1C1C1C" d="M-261.369-173.5c0,19.011,0.482,38.041-0.19,57.029c-0.374,10.557-3.87,21.08-14.395,25.641
		c-17.164,7.436-35.253,0.264-38.827-21.072c-1.35-8.053-0.513-16.473-0.661-24.727c-0.032-1.791,0.713-2.693,2.67-2.559
		c4.854,0.33,9.715,0.598,14.576,0.793c2.108,0.084,2.229,1.303,2.206,2.963c-0.094,6.67-0.295,13.348-0.001,20.004
		c0.084,1.912,1.319,4.115,2.688,5.561c3.146,3.326,7.183,2.453,8.845-1.855c0.874-2.268,1.422-4.807,1.452-7.23
		c0.317-25.922,0.484-51.845,0.731-77.768c0.108-11.272,0.387-22.544,0.407-33.816c0.005-2.695,0.865-3.557,3.515-3.434
		c5.087,0.238,10.189,0.352,15.278,0.222c2.785-0.071,3.367,1.009,3.354,3.575c-0.094,18.892-0.052,37.783-0.052,56.675
		C-260.305-173.5-260.837-173.5-261.369-173.5z"/>
	<path fill="#1C1C1C" d="M-36.435-217.479c-0.308-2.743,2.148-2.381,3.573-2.931c0.614-0.236,1.653,0.627,3.292,1.332
		c-2.905,1.128-4.657,2.569-6.961,1.501C-36.532-217.577-36.435-217.479-36.435-217.479z"/>
</g>
<g>
	<path fill="#232323" d="M-255.795,248.887c-12.402,14.809-23.105,27.637-33.874,40.406c-2.697,3.195-5.077,7.697-8.557,8.941
		c-4.971,1.772-10.819,1.104-16.293,1.479c0.561-5.299-0.837-12.316,2.034-15.584c10.412-11.838,22.196-22.479,33.595-33.436
		c4.011-3.855,8.393-7.328,14.103-12.274c-16.465-19.889-31.95-38.589-47.432-57.289c1.212-1.231,2.428-2.465,3.636-3.696
		c17.294,16.271,34.585,32.551,52.956,49.838c17.654-16.808,35.108-33.422,52.563-50.041c1.336,1.188,2.671,2.384,4.003,3.574
		c-15.273,18.488-30.552,36.979-47.013,56.901c13.706,13.294,26.964,26.159,40.226,39.021c2.337,2.271,5.881,4.127,6.772,6.859
		c1.638,5.016,1.715,10.536,2.442,15.848c-5.801-0.522-13.749,1.172-17.018-1.981c-10.987-10.601-20.311-22.927-30.269-34.595
		C-247.449,258.719-250.969,254.566-255.795,248.887z"/>
	<path fill="#232323" d="M-424.599,249.046c-12.269,14.535-23.918,28.356-35.587,42.158c-2.095,2.478-3.88,6.308-6.491,7.022
		c-5.202,1.428-10.874,1.121-16.354,1.525c0.474-5.43-1.117-12.695,1.791-15.958c10.804-12.134,23.015-23.026,34.861-34.214
		c3.708-3.505,7.93-6.464,13.074-10.604c-16.661-20.306-31.925-38.904-47.188-57.513c1.319-1.254,2.639-2.506,3.958-3.758
		c17.073,16.313,34.146,32.627,52.078,49.767c17.53-16.896,34.843-33.582,52.155-50.269c1.357,1.288,2.715,2.578,4.072,3.866
		c-15.064,18.313-30.13,36.627-46.136,56.088c13.211,13.107,26.296,26.094,39.389,39.074c2.644,2.619,6.686,4.789,7.653,7.924
		c1.528,4.939,1.001,10.519,1.343,15.83c-5.512-0.479-12.836,1.104-16.179-1.84c-8.294-7.293-14.748-16.668-21.979-25.181
		C-410.733,265.212-417.38,257.484-424.599,249.046z"/>
</g>
<g>
	<path fill="#343434" d="M-481.438,551.084c-0.554-6.921-1.453-13.028-1.473-19.146c-0.11-31.182-0.319-62.368,0.178-93.538
		c0.277-17.307,1.826-34.586,2.888-51.875c0.209-3.428,1.173-6.834,1.131-10.242c-0.051-4.215,2.829-6.426,5.749-7.137
		c6.703-1.643,13.639-3.002,20.512-3.152c17.149-0.381,34.316,0.035,51.477,0c9.315-0.02,18.639-0.604,27.948-0.396
		c9.056,0.202,18.356,2.666,27.056,1.213c7.889-1.313,15.341-0.354,22.985-0.396c6.501-0.037,13.001-0.022,19.492-0.272
		c4.593-0.181,7.177,2.129,7.676,6.287c1.061,8.848,1.945,17.731,2.438,26.627c0.906,16.481,1.732,32.979,2.11,49.481
		c0.195,8.344-0.776,16.709-0.983,25.063c-0.576,23.271-1.031,46.544-1.549,69.816c-0.097,4.326-1.992,7.037-6.647,7.082
		c-27.19,0.28-54.375,0.673-81.561,0.786c-23.77,0.093-47.537-0.133-71.312-0.192C-462.219,551.067-471.127,551.084-481.438,551.084
		z M-348.323,544.027c0-0.314,0-0.627,0.006-0.938c11.509,0,23.027-0.26,34.531,0.119c5.126,0.163,7.418-2.271,7.737-6.597
		c0.95-12.605,1.967-25.238,2.111-37.871c0.161-12.96-0.854-25.932-1.031-38.896c-0.361-26.291-0.545-52.592-0.695-78.893
		c-0.022-4.188-1.75-5.215-5.763-5.042c-11.231,0.481-22.488,0.735-33.734,0.683c-17.898-0.092-35.788-0.771-53.678-0.691
		c-11.287,0.049-22.564,1.24-33.857,1.529c-10.875,0.279-21.768-0.119-32.637,0.252c-1.69,0.061-4.269,2.352-4.737,4.07
		c-1.057,3.878-1.401,8.045-1.43,12.098c-0.119,18.617,0.042,37.234-0.049,55.852c-0.059,12.447-0.486,24.895-0.528,37.335
		c-0.048,15.378,0.356,30.756,0.107,46.127c-0.087,5.243,2.143,8.095,6.783,8.344c19.673,1.048,39.36,2.025,59.057,2.444
		C-386.878,544.341-367.598,544.027-348.323,544.027z"/>
	<path fill="#343434" d="M-343.445,440.875c0-8.727,0-17.313,0-26.494c-2.192-0.145-4.075-0.383-5.946-0.371
		c-20.225,0.127-40.454,0.018-60.668,0.547c-11.853,0.313-23.705,1.409-35.507,2.604c-10.197,1.03-12.555-0.47-13.854-10.396
		c-2.08-15.854-0.356-18.098,15.51-18.151c15.126-0.054,30.252,0.463,45.383,0.588c3.663,0.028,7.337-0.787,10.994-0.716
		c11.65,0.244,23.294,0.963,34.949,1.044c9.887,0.071,19.777-0.509,29.676-0.729c1.104-0.027,2.218,0.391,3.173,0.568
		c0,8-0.081,15.716,0.043,23.426c0.054,3.209,0.664,6.404,0.794,9.613c0.313,7.418,0.74,14.838,0.687,22.258
		c-0.048,7.285-0.223,14.611-1.113,21.826c-0.512,4.1-3.736,5.939-8.185,5.508c-6.5-0.639-13.035-1-19.558-1.303
		c-5.042-0.234-10.118,0.146-15.128-0.354c-10.146-1.018-20.141-1.396-30.295,0.713c-4.951,1.035-10.366-0.164-15.566-0.289
		c-6.673-0.166-13.354-0.508-20.01-0.186c-1.506,0.068-3.771,2.328-4.172,3.951c-0.867,3.521-1.227,7.32-0.921,10.938
		c0.319,3.804,1.659,7.526,2.544,11.282c0.898,3.841,3.225,5.218,7.218,5.192c17.325-0.113,34.649,0.184,51.979,0.06
		c15.287-0.097,30.571-0.682,45.867-0.777c7.02-0.043,7.809,1.206,7.582,8.444c-0.141,4.475,0.351,9.007-0.288,13.393
		c-0.291,1.99-2.386,4.913-4.087,5.25c-4.276,0.849-8.795,0.463-13.218,0.56c-7.295,0.15-14.584,0.351-21.878,0.424
		c-2.295,0.028-4.609-0.164-6.888-0.442c-1.901-0.234-3.786-1.141-5.655-1.092c-9.439,0.24-18.865,0.912-28.296,1.003
		c-5.604,0.063-11.214-1.052-16.819-0.985c-11.474,0.136-22.947,0.578-34.411,1.142c-7.828,0.382-9.584-0.794-9.646-8.758
		c-0.187-23.646-0.215-47.292-0.17-70.938c0.017-8.354,0.989-8.678,9.547-8.51c14.55,0.283,29.115-0.01,43.67,0
		c15.573,0.017,31.143,0.104,46.718,0.153C-354.343,440.891-349.313,440.875-343.445,440.875z"/>
</g>
<g>
	<path fill="#333333" d="M88.219-161.427c3.264,2.512,2.888,7.342-0.715,9.311c-1.186,0.648-2.467,0.918-3.802,0.912
		c-6.905-0.021-11.725-3.59-15.328-9.133c-0.706-1.086-1.328-2.211-1.888-3.363h-3.939c0.001,0.938,0.001,1.875,0.001,2.811
		c0,3.359-0.008,6.721,0.013,10.08c0.002,0.313-0.291,0.83,0.441,0.865c0.672,0.031,0.65-0.395,0.717-0.838
		c0.171-1.145,0.311-2.297,0.564-3.424c0.527-2.35,1.954-3.018,4.047-1.84c1.981,1.113,3.878,2.375,5.846,3.516
		c6.986,4.049,15.137,3.277,21.154-1.967c1.914-1.668,3.312-3.658,3.939-6.148c0.256-1.018,0.381-2.039,0.408-3.055H83.876
		C85.398-163.083,86.903-162.441,88.219-161.427z"/>
	<path fill="#333333" d="M78.313-182.829c-1.866-0.743-3.647-1.616-5.092-3.054c-2.521-2.511-2.159-5.988,0.912-7.771
		c3.656-2.122,7.433-1.588,10.84,0.38c4.353,2.516,7.378,6.271,9.129,10.969h2.007c0-4.369-0.005-8.737,0.009-13.106
		c0.002-0.533-0.187-0.675-0.694-0.682c-0.574-0.008-0.507,0.337-0.521,0.703c-0.036,1.042-0.172,2.074-0.559,3.045
		c-0.54,1.354-1.724,1.764-2.992,1.062c-1.535-0.851-3.078-1.687-4.587-2.581c-3.451-2.043-7.135-2.613-11.071-1.95
		c-7.094,1.193-12.208,6.665-12.732,13.509h16.686C79.203-182.479,78.757-182.652,78.313-182.829z"/>
	<g>
		<path fill="#333333" d="M239.479-157.707c-1.367,3.904-3.982,5.676-7.943,5.82c-0.922,0.031-1.842-0.002-2.758,0.057
			c-0.945,0.059-1.354-0.139-1.344-1.281c0.037-3.529,0.045-7.059,0.043-10.59h-15.135c0,1.58,0.004,3.158-0.002,4.738
			c-0.008,1.475,0.033,2.957-0.273,4.416c-0.313,1.5-1.02,2.234-2.531,2.457c-1.268,0.186-2.537,0.287-3.813,0.404
			c-0.328,0.029-0.613-0.031-0.629,0.469c-0.018,0.553,0.283,0.559,0.67,0.539c0.24-0.012,0.48-0.002,0.721-0.002
			c8.438,0,16.871,0,25.311,0c3.686,0.002,7.354-0.234,10.955-0.99c5.813-1.221,10.523-4.168,13.498-9.412
			c0.479-0.85,0.854-1.725,1.146-2.619h-16.303C240.707-161.695,240.176-159.697,239.479-157.707z"/>
		<path fill="#333333" d="M227.441-193.027c-0.006-1.03,0.305-1.328,1.271-1.22c0.949,0.105,1.91,0.104,2.865,0.156
			c2.935,0.16,4.981,1.709,6.481,4.121c1.471,2.363,2.224,4.982,2.752,7.666h15.604c-1.787-3.873-4.771-7.063-9.008-9.549
			c-4.271-2.505-9.029-3.032-13.811-3.454c-6.104-0.539-12.223-0.126-18.336-0.201c-3.195-0.039-6.393,0.038-9.588,0.071
			c-0.33,0.003-0.744-0.122-0.777,0.465c-0.033,0.618,0.361,0.591,0.775,0.617c1.154,0.07,2.313,0.121,3.461,0.246
			c1.697,0.185,2.604,1.026,2.926,2.667c0.107,0.546,0.195,1.105,0.197,1.66c0.006,2.492,0.004,4.985,0.004,7.479h15.209
			C227.475-185.878,227.469-189.453,227.441-193.027z"/>
		<path fill="#333333" d="M328.465-157.812c-0.355,1.439-0.885,2.814-1.766,4.021c-1.529,2.102-3.609,2.936-6.168,2.568
			c-2.479-0.355-3.959-1.828-4.742-4.162c-0.914-2.721-1.457-5.498-1.766-8.316h-15.139c1.121,2.574,2.785,4.939,5.086,7.051
			c9.51,8.73,24.488,8.971,34.523,0.838c2.859-2.316,4.891-5.025,6.229-7.889h-15.27
			C329.256-161.726,328.949-159.759,328.465-157.812z"/>
		<path fill="#333333" d="M314.547-185.875c0.328-2.012,0.813-3.98,1.875-5.759c1.271-2.12,3.064-3.322,5.592-3.238
			c2.479,0.082,4.195,1.364,5.295,3.514c1.459,2.849,1.979,5.933,2.223,9.054h15.357c-0.512-1.139-1.111-2.198-1.797-3.15
			c-5.199-7.262-12.496-10.521-21.307-10.648c-1.326,0.051-2.639,0.115-3.953,0.262c-7.049,0.79-15.395,5.304-18.975,13.537h15.219
			C314.203-183.496,314.354-184.686,314.547-185.875z"/>
		<path fill="#333333" d="M118.979-158.162c-0.001,1.117-0.034,2.244-0.199,3.344c-0.319,2.121-1.113,2.795-3.249,2.938
			c-1.115,0.072-2.231,0.127-3.348,0.186c-0.356,0.02-0.694-0.039-0.692,0.533c0.002,0.617,0.397,0.48,0.725,0.48
			c9.519,0.004,19.037,0.004,28.556-0.004c0.307,0,0.725,0.186,0.753-0.445c0.028-0.656-0.419-0.568-0.778-0.604
			c-1.271-0.123-2.547-0.213-3.819-0.336c-1.369-0.133-2.153-0.906-2.435-2.244c-0.339-1.613-0.364-3.256-0.368-4.885
			c-0.004-1.5-0.003-3.002-0.005-4.502h-15.139C118.981-161.853,118.981-160.007,118.979-158.162z"/>
		<path fill="#333333" d="M112.865-191.792c1.319-1.519,2.849-2.479,4.972-2.397c0.872,0.033,1.179,0.137,1.176,1.115
			c-0.012,3.59-0.013,7.18-0.017,10.77h15.111c0.001-3.536,0.002-7.072,0.002-10.609c0-0.28,0.004-0.56,0.003-0.84
			c0-0.286,0.123-0.44,0.427-0.427c1.506,0.064,3.037-0.072,4.314,1.046c0.97,0.849,1.825,1.787,2.604,2.804
			c1.936,2.526,3.555,5.235,5.028,8.026h4.333c0.002-3.979,0-7.955,0.035-11.931c0.01-1.021-0.297-1.234-1.271-1.229
			c-7.679,0.041-15.356,0.023-23.036,0.023c-7.718,0-15.437,0.005-23.156-0.009c-0.673-0.001-1.076,0.014-1.069,0.924
			c0.032,4.074,0.032,8.147,0.031,12.221h4.356C108.464-185.648,110.359-188.906,112.865-191.792z"/>
		<path fill="#333333" d="M196.238-185.955c0.006-1.314,0.066-2.637,0.219-3.941c0.305-2.62,1.621-3.89,4.248-4.189
			c1.031-0.118,2.066-0.197,3.102-0.266c0.396-0.026,0.711-0.049,0.707-0.568c-0.002-0.545-0.352-0.524-0.729-0.524
			c-5.52,0.003-11.037,0.001-16.557,0.004c-0.391,0-0.828-0.092-0.811,0.561c0.021,0.563,0.398,0.492,0.75,0.52
			c1.035,0.082,2.072,0.14,3.104,0.251c3.17,0.343,4.401,1.693,4.519,4.909c0.082,2.298,0.106,4.596,0.123,6.896h1.313
			C196.232-183.521,196.232-184.738,196.238-185.955z"/>
		<path fill="#333333" d="M174.121-190.515c0.115-2.597,0.889-3.378,3.48-3.608c1.109-0.099,2.229-0.167,3.344-0.233
			c0.361-0.021,0.604-0.09,0.611-0.536c0.006-0.435-0.199-0.562-0.58-0.548c-0.201,0.007-0.4,0-0.604,0c-8.838,0-17.679,0-26.515,0
			c-0.238,0-0.479,0.002-0.722,0.008c-0.336,0.009-0.354,0.247-0.353,0.498c0.005,0.236-0.026,0.509,0.301,0.553
			c0.314,0.043,0.639,0.037,0.956,0.069c4.051,0.407,4.66,1.07,4.739,5.152c0.003,0.04,0.003,0.08,0.003,0.12
			c0,2.246,0,4.491,0,6.737h15.147C173.955-185.042,174.002-187.779,174.121-190.515z"/>
		<path fill="#333333" d="M194.322-161.906c-1.447,7.066-5.475,10.475-12.244,10.268c-3.939-0.121-7.158-3.02-7.721-6.885
			c-0.25-1.721-0.383-3.443-0.404-5.178h-15.121c0,0.07,0,0.141,0,0.211c0.012,2.926,1.053,5.447,3.074,7.57
			c1.682,1.766,3.656,3.105,5.922,3.967c5.467,2.08,11.131,2.443,16.869,1.643c4.969-0.695,8.449-3.34,10.041-8.229
			c0.551-1.693,0.953-3.414,1.193-5.162h-1.314C194.537-163.101,194.443-162.501,194.322-161.906z"/>
		<path fill="#333333" d="M270.098-159.224c-0.002,1.316-0.084,2.635-0.205,3.945c-0.188,2.076-0.969,2.914-3.01,3.27
			c-0.941,0.162-1.904,0.209-2.854,0.336c-0.367,0.049-0.963-0.275-0.961,0.502c0.002,0.791,0.611,0.479,0.963,0.479
			c4.479,0.021,8.957,0.014,13.436,0.014c2.639,0,5.279,0,7.918,0c1.998,0,3.998,0,5.998,0c0.322,0.002,0.631,0.049,0.617-0.463
			c-0.01-0.414-0.146-0.549-0.549-0.559c-0.637-0.018-1.271-0.109-1.908-0.137c-3.221-0.145-4.145-1.07-4.273-4.313
			c-0.004-0.119-0.002-0.238-0.002-0.359c-0.004-2.396-0.004-4.793-0.008-7.191h-15.162
			C270.096-162.208,270.102-160.716,270.098-159.224z"/>
		<path fill="#333333" d="M285.236-188.176c0-1.235,0.021-2.474,0.264-3.701c0.256-1.312,1.025-2.047,2.314-2.219
			c0.984-0.132,1.992-0.144,2.979-0.275c0.42-0.057,1.178,0.391,1.178-0.517c0-1-0.822-0.523-1.25-0.529
			c-3.199-0.042-6.396-0.023-9.6-0.023c-5.68,0-11.354-0.003-17.035,0.006c-0.354,0-0.844-0.177-0.863,0.494
			c-0.021,0.628,0.396,0.559,0.801,0.587c0.836,0.058,1.67,0.133,2.506,0.208c2.309,0.209,3.193,1.079,3.375,3.386
			c0.104,1.313,0.191,2.629,0.193,3.945c0.004,1.503-0.002,3.006,0,4.51h15.146C285.242-184.261,285.236-186.219,285.236-188.176z"
			/>
		<g>
			<path fill="#333333" d="M64.208-171.379v-1.061h3.24v1.061H64.208z"/>
			<path fill="#333333" d="M92.773-168.801v-8.59h3.24c0.57,0,1.006,0.027,1.307,0.082c0.422,0.07,0.775,0.204,1.061,0.401
				c0.286,0.197,0.515,0.474,0.688,0.829c0.173,0.355,0.261,0.746,0.261,1.172c0,0.73-0.232,1.349-0.697,1.854
				c-0.465,0.505-1.305,0.759-2.52,0.759H93.91v3.492L92.773-168.801L92.773-168.801z M93.91-173.307h2.221
				c0.734,0,1.256-0.137,1.564-0.41c0.308-0.273,0.463-0.658,0.463-1.154c0-0.359-0.091-0.667-0.272-0.923
				c-0.181-0.256-0.421-0.425-0.718-0.507c-0.191-0.051-0.545-0.076-1.061-0.076H93.91V-173.307z"/>
			<path fill="#333333" d="M122.967-168.801l3.299-8.59h1.225l3.516,8.59h-1.295l-1.002-2.602h-3.592l-0.943,2.602H122.967z
				 M125.446-172.329h2.912l-0.896-2.379c-0.273-0.723-0.477-1.316-0.609-1.781c-0.109,0.551-0.264,1.098-0.463,1.641
				L125.446-172.329z"/>
			<path fill="#333333" d="M156.131-168.801v-8.59h1.137v8.59H156.131z"/>
			<path fill="#333333" d="M183.285-168.801v-8.59h1.166l4.512,6.744v-6.744h1.09v8.59h-1.166l-4.512-6.75v6.75H183.285z"/>
			<path fill="#333333" d="M218.172-168.801v-7.576h-2.83v-1.014h6.809v1.014h-2.842v7.576H218.172z"/>
			<path fill="#333333" d="M247.533-168.801v-8.59h1.137v8.59H247.533z"/>
			<path fill="#333333" d="M274.688-168.801v-8.59h1.166l4.516,6.744v-6.744h1.09v8.59h-1.166l-4.516-6.75v6.75H274.688z"/>
			<path fill="#333333" d="M311.408-172.17v-1.008l3.639-0.006v3.188c-0.559,0.445-1.135,0.78-1.729,1.005
				c-0.598,0.225-1.203,0.337-1.828,0.337c-0.844,0-1.611-0.181-2.301-0.542c-0.69-0.361-1.209-0.884-1.563-1.567
				c-0.352-0.683-0.527-1.447-0.527-2.291c0-0.836,0.178-1.616,0.523-2.341s0.854-1.263,1.51-1.614
				c0.656-0.351,1.412-0.527,2.271-0.527c0.621,0,1.182,0.101,1.684,0.302c0.502,0.201,0.896,0.481,1.182,0.841
				c0.286,0.36,0.503,0.828,0.65,1.406l-1.025,0.281c-0.129-0.438-0.288-0.781-0.479-1.031c-0.191-0.25-0.465-0.45-0.82-0.601
				c-0.354-0.151-0.75-0.226-1.184-0.226c-0.521,0-0.969,0.079-1.352,0.237c-0.379,0.158-0.686,0.366-0.918,0.624
				c-0.229,0.258-0.408,0.541-0.541,0.85c-0.219,0.531-0.324,1.107-0.324,1.729c0,0.766,0.131,1.406,0.395,1.922
				c0.264,0.516,0.648,0.898,1.152,1.148s1.039,0.375,1.604,0.375c0.492,0,0.977-0.095,1.441-0.284s0.824-0.392,1.063-0.606v-1.6
				L311.408-172.17L311.408-172.17z"/>
			<path fill="#333333" d="M340.201-171.379v-1.061h3.24v1.061H340.201z"/>
		</g>
	</g>
</g>
<g>
	<g>
		<path fill="#25375C" d="M56.931,136.054c-5.667,0-8.5,5.466-8.5,16.395v4.33c0,5.191,0.751,9.258,2.249,12.201
			c1.499,2.939,3.712,4.41,6.636,4.41c4.019,0,7.712-3.91,11.074-11.732h0.986l-0.382,12.23H68.39
			c-0.217-0.396-0.421-0.688-0.603-0.854c-0.186-0.162-0.448-0.245-0.792-0.245c-0.35,0-1.675,0.284-3.976,0.853
			c-2.303,0.564-4.642,0.852-7.017,0.852c-5.957,0-10.573-1.609-13.845-4.821c-3.274-3.218-4.908-8.054-4.908-14.505
			c0-6.449,1.708-11.429,5.129-14.94c3.417-3.506,8.012-5.264,13.788-5.264c2.227,0,4.415,0.285,6.552,0.851
			c2.139,0.565,3.391,0.85,3.757,0.85c0.364,0,0.64-0.084,0.822-0.249c0.182-0.162,0.383-0.447,0.603-0.85h0.6l0.438,11.896h-0.986
			c-1.646-3.688-3.336-6.512-5.072-8.47C61.143,137.035,59.158,136.054,56.931,136.054z"/>
		<path fill="#25375C" d="M73.981,135.561H93.72v1.207h-5.812v35.97h1.973c3.107,0,5.584-0.953,7.432-2.854
			c1.843-1.897,3.716-4.825,5.618-8.772h1.153l-1.045,12.83H73.981v-1.201h3.236v-35.97h-3.236V135.561z"/>
		<path fill="#25375C" d="M129.194,172.898l-4.004-11.84h-10.856l-4.221,11.84h4.112v1.045h-8.391v-1.045h2.579l13.981-37.667h4.495
			l13.819,37.667h2.521v1.045H125.3v-1.045H129.194L129.194,172.898z M119.981,145.486l-5.154,14.364h9.925L119.981,145.486z"/>
		<path fill="#25375C" d="M160.828,173.336c1.828,0,3.443-0.493,4.854-1.479c1.404-0.988,2.109-2.479,2.109-4.467
			c0-1.996-0.76-3.521-2.273-4.578c-1.52-1.063-3.676-1.982-6.47-2.771c-2.799-0.791-4.825-1.473-6.09-2.063
			c-1.257-0.586-2.458-1.354-3.591-2.301c-2.269-1.9-3.399-4.846-3.399-8.826c0-3.253,1.154-6.05,3.479-8.389
			c2.325-2.34,5.495-3.51,9.514-3.51c1.938,0,3.957,0.285,6.055,0.851c2.104,0.565,3.409,0.85,3.922,0.85
			c0.517,0,0.967-0.367,1.375-1.099h0.604l0.384,11.074h-0.877c-1.754-3.181-3.589-5.728-5.507-7.647
			c-1.929-1.917-4.004-2.879-6.254-2.879c-2.246,0-3.992,0.521-5.236,1.563c-1.239,1.04-1.86,2.431-1.86,4.166
			c0,1.737,0.742,3.071,2.22,4.005c1.479,0.933,3.3,1.693,5.455,2.276s3.573,0.986,4.25,1.206c0.679,0.219,1.521,0.523,2.521,0.905
			c1.006,0.385,1.827,0.786,2.471,1.211c0.64,0.422,1.313,0.951,2.025,1.588c0.708,0.638,1.27,1.348,1.676,2.107
			c0.985,1.76,1.479,3.842,1.479,6.252c0,3.948-1.231,7.118-3.706,9.516c-2.462,2.392-5.716,3.593-9.729,3.593
			c-2.086,0-4.471-0.279-7.153-0.821c-2.688-0.55-4.178-0.822-4.468-0.822c-0.513,0-1.008,0.543-1.483,1.646h-0.767l-0.548-13.055
			h0.927c1.613,3.183,3.672,5.963,6.171,8.332C155.412,172.15,158.05,173.336,160.828,173.336z"/>
		<path fill="#25375C" d="M192.627,173.336c1.828,0,3.448-0.493,4.854-1.479c1.404-0.988,2.109-2.479,2.109-4.467
			c0-1.996-0.756-3.521-2.273-4.578c-1.516-1.063-3.676-1.982-6.469-2.771c-2.8-0.791-4.826-1.473-6.086-2.063
			c-1.262-0.586-2.463-1.354-3.59-2.301c-2.268-1.9-3.4-4.846-3.4-8.826c0-3.253,1.158-6.05,3.479-8.389
			c2.319-2.34,5.485-3.51,9.515-3.51c1.938,0,3.957,0.285,6.055,0.851c2.104,0.565,3.406,0.85,3.925,0.85
			c0.513,0,0.963-0.367,1.37-1.099h0.604l0.381,11.074h-0.875c-1.761-3.181-3.596-5.728-5.514-7.647
			c-1.922-1.917-4.004-2.879-6.254-2.879c-2.243,0-3.992,0.521-5.23,1.563c-1.24,1.04-1.867,2.431-1.867,4.166
			c0,1.737,0.744,3.071,2.225,4.005c1.477,0.933,3.3,1.693,5.452,2.276c2.159,0.583,3.571,0.986,4.254,1.206
			c0.674,0.219,1.515,0.523,2.521,0.905c1.002,0.385,1.826,0.786,2.465,1.211c0.641,0.422,1.314,0.951,2.026,1.588
			c0.712,0.638,1.275,1.348,1.677,2.107c0.984,1.76,1.479,3.842,1.479,6.252c0,3.948-1.231,7.118-3.702,9.516
			c-2.466,2.392-5.714,3.593-9.729,3.593c-2.082,0-4.465-0.279-7.152-0.821c-2.688-0.55-4.182-0.822-4.471-0.822
			c-0.514,0-1.006,0.543-1.479,1.646h-0.768l-0.549-13.055h0.934c1.605,3.183,3.663,5.963,6.168,8.332
			C187.212,172.15,189.854,173.336,192.627,173.336z"/>
		<path fill="#25375C" d="M209.076,135.561H225.8v1.042h-3.018v36.295h3.018v1.045h-16.724v-1.045h3.014v-36.297h-3.014V135.561
			L209.076,135.561z"/>
		<path fill="#25375C" d="M249.102,136.054c-5.666,0-8.496,5.466-8.496,16.395v4.33c0,5.191,0.752,9.258,2.246,12.201
			c1.5,2.939,3.711,4.41,6.642,4.41c4.021,0,7.714-3.91,11.073-11.732h0.98l-0.379,12.23h-0.604
			c-0.219-0.396-0.422-0.688-0.61-0.854c-0.181-0.162-0.446-0.245-0.79-0.245c-0.35,0-1.675,0.284-3.977,0.853
			c-2.301,0.564-4.642,0.852-7.021,0.852c-5.956,0-10.566-1.609-13.85-4.821c-3.268-3.218-4.9-8.054-4.9-14.505
			c0-6.449,1.71-11.429,5.127-14.94c3.416-3.506,8.014-5.264,13.792-5.264c2.229,0,4.41,0.285,6.56,0.851
			c2.133,0.565,3.385,0.85,3.752,0.85c0.369,0,0.639-0.084,0.826-0.249c0.18-0.162,0.379-0.447,0.604-0.85h0.604l0.438,11.896
			h-0.986c-1.646-3.688-3.335-6.512-5.071-8.47C253.316,137.035,251.333,136.054,249.102,136.054z"/>
	</g>
	<g>
		<polygon fill="#25375C" points="296.715,122.507 3.286,122.507 7.294,121.842 292.708,121.842 		"/>
	</g>
	<g>
		<polygon fill="#25375C" points="292.708,187.13 7.294,187.13 3.286,186.465 296.715,186.465 		"/>
	</g>
	<g>
		<path fill="#25375C" d="M137.021,96.058l0.319,8.027h-0.609c-0.939-2.835-1.769-4.769-2.495-5.803
			c-0.726-1.036-1.771-1.551-3.133-1.551h-0.383v21.044h2.716v0.669h-11.67v-0.669h2.716V96.729h-0.417
			c-1.364,0-2.421,0.539-3.164,1.615c-0.748,1.077-1.57,2.991-2.462,5.74h-0.61l0.319-8.027L137.021,96.058L137.021,96.058z"/>
		<path fill="#25375C" d="M139.193,96.058h9.979v0.606h-1.858v9.916h6.363v-9.916h-1.883v-0.606h10.008v0.606h-1.887v21.171h1.887
			v0.606h-10.008v-0.606h1.883v-10.424h-6.363v10.426h1.858v0.606h-9.979v-0.606h1.886V96.665h-1.886V96.058z"/>
		<path fill="#25375C" d="M163.152,96.058h16.634l0.313,6.333h-0.572c-0.896-2.155-1.836-3.631-2.813-4.429
			c-0.981-0.8-2.423-1.2-4.315-1.2h-1.125v9.883h1.09c1.009,0,1.846-0.377,2.527-1.135c0.688-0.755,1.162-1.775,1.439-3.054h0.475
			v9.466h-0.537c-0.388-1.597-0.9-2.74-1.554-3.422c-0.649-0.681-1.542-1.023-2.669-1.023h-0.771v10.267h1.222
			c1.961,0,3.628-0.585,5.002-1.757c1.377-1.172,2.313-2.675,2.829-4.511h0.638l-0.254,6.971h-17.563v-0.703h1.889V96.76h-1.889
			v-0.702H163.152z"/>
	</g>
	<path fill="#25375C" stroke="#010101" stroke-width="0.5" stroke-miterlimit="10" d="M126.368,106.84"/>
	<g>
		<g>
			<path fill="#25375C" d="M290.396,117.569c0,0-25.729,0.233-51.446,0.467c-12.86,0.15-25.718,0.2-35.364-0.006
				c-9.643-0.172-16.072-0.461-16.072-0.461v-0.132c0,0,6.438-0.289,16.072-0.46c9.646-0.208,22.504-0.159,35.364-0.004
				c25.722,0.233,51.446,0.466,51.446,0.466V117.569z"/>
		</g>
		<g>
			<polygon fill="#25375C" points="292.419,118.198 295.92,117.503 292.419,116.808 291.723,117.503 			"/>
			<path fill="#25375C" d="M291.723,117.503c0,0.366-0.298,0.667-0.666,0.667l0,0c-0.371,0-0.664-0.299-0.664-0.667l0,0
				c0-0.367,0.293-0.667,0.664-0.667l0,0C291.425,116.836,291.723,117.136,291.723,117.503L291.723,117.503z"/>
		</g>
	</g>
	<g>
		<path fill="#25375C" d="M8.945,117.435c0,0,25.719-0.233,51.442-0.466c12.86-0.153,25.721-0.203,35.364,0.004
			c9.643,0.172,16.077,0.46,16.077,0.46v0.132c0,0-6.43,0.289-16.077,0.461c-9.644,0.206-22.504,0.156-35.364,0.006
			c-25.721-0.234-51.442-0.467-51.442-0.467V117.435z"/>
		<g>
			<polygon fill="#25375C" points="7.585,118.198 4.081,117.503 7.585,116.808 8.278,117.503 			"/>
			<path fill="#25375C" d="M9.611,117.503c0,0.366-0.297,0.667-0.667,0.667l0,0c-0.37,0-0.667-0.299-0.667-0.667l0,0
				c0-0.367,0.298-0.667,0.667-0.667l0,0C9.313,116.836,9.611,117.136,9.611,117.503L9.611,117.503z"/>
		</g>
	</g>
	<path fill="#25375C" d="M9.276,191.4c0,0,29.052-0.233,58.105-0.465c14.526-0.152,29.053-0.203,39.947,0.004
		c10.894,0.172,18.155,0.461,18.155,0.461v0.135c0,0-7.262,0.289-18.155,0.457c-10.896,0.208-25.423,0.156-39.947,0.006
		c-29.055-0.232-58.105-0.463-58.105-0.463V191.4L9.276,191.4z"/>
	<path fill="#25375C" d="M290.725,191.535c0,0-29.048,0.227-58.104,0.461c-14.527,0.15-29.053,0.204-39.951-0.006
		c-10.896-0.17-18.158-0.459-18.158-0.459v-0.133c0,0,7.264-0.295,18.158-0.459c10.898-0.209,25.424-0.156,39.951-0.004
		c29.056,0.229,58.104,0.463,58.104,0.463V191.535z"/>
	<g>
		<polygon fill="#25375C" points="291.421,192.163 294.923,191.465 291.421,190.771 290.725,191.465 		"/>
		<path fill="#25375C" d="M290.725,191.465c0,0.367-0.298,0.669-0.666,0.669l0,0c-0.371,0-0.664-0.302-0.664-0.669l0,0
			c0-0.363,0.293-0.664,0.664-0.664l0,0C290.427,190.801,290.725,191.102,290.725,191.465L290.725,191.465z"/>
	</g>
	<g>
		
			<rect x="148.564" y="190.476" transform="matrix(0.7068 0.7074 -0.7074 0.7068 179.7448 -49.8403)" fill="#25375C" width="2.859" height="2.854"/>
		<polygon fill="#25375C" points="137.358,191.916 142.802,190.541 146.592,191.918 142.802,193.296 		"/>
		<polygon fill="#25375C" points="162.645,191.916 157.2,190.541 153.412,191.918 157.2,193.296 		"/>
	</g>
</g>
</svg>
